<svg xmlns="http://www.w3.org/2000/svg" width="294.32" height="245.52"><defs><style>.cls-1{fill:#fff}</style></defs><g id="Слой_2" data-name="Слой 2"><g id="picture"><path class="cls-1" d="M272.77 226.72c1.94 1.22 3.85 2.49 5.83 3.63 1.82 1.06 3.73 2 6 3.18-3.64 4.12-7.53 6.69-12.43 7.52a10.14 10.14 0 01-10.17-3.88 43.71 43.71 0 01-3.23-4.44 50.42 50.42 0 00-16.09-16.11c-5.41-3.49-11-6.7-16.52-10l-.56.87 3.18 2.08c5.44 3.52 11 6.91 16.29 10.59a34.26 34.26 0 0110.11 11.55c.75 1.3 1.53 2.58 2.3 3.87 2.41 4.06 5.47 7.39 10.19 9.36-.73.21-1.58.77-2.15.57a23.19 23.19 0 01-6.22-2.79 14.25 14.25 0 01-4-5c-6.46-13.29-17.52-21.5-30.31-27.8-14.17-7-28.41-13.85-42.6-20.81-5.82-2.85-11.6-5.79-17.39-8.73-1.29-.66-22.52-11.46-23.82-12.21 1.19-3.38 3.92-3.45 6.51-3.78 1.72.59 23.44 11.19 25.16 11.78 6.53 3.13 13.08 6.19 19.57 9.4 3.22 1.59 6.3 3.45 9.47 5.16 2 1.06 4 2.06 6 3.08A29.34 29.34 0 00211 196q27.06 13.76 54.16 27.45zM28.11 119.34l89.77 44.52c0 4.82-.48 5.65-8.36 14.62 5.56-2.69 8.51-7.66 10.92-13.37l3.53 1.67c0 .6.17 1 0 1.21-4.82 7.31-10.65 13.65-18.15 18.29-9.17 5.68-19.08 6.36-29.38 4.14-4.19-.89-8.38-1.72-12.63-2.23 10 3.08 20 6.06 30.56 4.42 10.12-1.57 18.13-7.27 24.68-15 2.57-3 4.77-6.34 7.12-9.5 2 .65 1.26 1.82.77 2.81a38.53 38.53 0 01-11.83 14A54.25 54.25 0 0144 179.36a13.84 13.84 0 00-3.6-3 18 18 0 001.49 2.47c20.54 24.47 59.92 25.49 81.55 2 2.78-3 4.85-6.7 7.53-10.47l1.76.5a5.3 5.3 0 01-.26 1.57c-8.47 14.68-21 24-37.54 27.43C64 206.25 32.18 184.69 26 153.55a71.1 71.1 0 01.19-28.29 53.94 53.94 0 011.92-5.92zm71.37 64.73a64.69 64.69 0 01-23.41 3.1c8.09 1.02 16.01.9 23.41-3.1zM29.06 117.48c.2-1.55-10.09-10.42-9.09-10.92a18.63 18.63 0 005-3c35.17 17.79 78.5 39.82 114.1 57.82l-.44 4.34a13 13 0 01-10.12-2.31c-5.5-3.7-11.5-6.65-17.35-9.82-.55-.3-1.47.06-3.23.2l6.24 4.36c-2.76.12-5-1.42-7.33-2.45-2.75-1.2-5.41-2.58-8.12-3.87-2.55-1.22-5.12-2.42-7.67-3.63l-7.66-3.68-8.09-3.91-7.63-3.73-8.1-3.88c-2.54-1.24-5.12-2.42-7.6-3.77s-4.84-2.92-7.31-4.3-5.23-2.92-7.93-4.2c-2.53-1.23-5.16-2.21-7.67-3.25zM157.86 60.69c-2.52-.74-4.78-1.39-5.44-4.49 1.47-.58 15-5.26 16.49-5.76 16.31-5.28 32.68-10.4 48.93-15.86 8.83-3 17.54-6.33 26.17-9.83a47.23 47.23 0 0019.78-15.62 39.23 39.23 0 016.06-6.6c2.73-2.23 5.92-3.76 10.29-1.19-6.58 1.11-10.49 4.93-13.84 9.53-5.47 7.52-13 12.32-21.39 15.91-4.9 2.09-9.87 4-14.8 6-1.15.47-2.29 1-3.73 1.58.72.18 1.07.4 1.32.31 9.29-3.2 18.54-6.53 27.11-11.42a46.68 46.68 0 0013.85-11.32 34.06 34.06 0 013.08-3.28c4.76-4.59 9.3-5.14 14.94-1.83a26.83 26.83 0 017.64 7c-4.58 3.12-100 35.79-136.46 46.87zM30 101.56a11 11 0 01-3-1c-.51-1.49.7-5.42 0-7 1.5-.64 10.5-3.38 11.83-3.88 17.46-6.57 35.7-10.54 53.49-16 13.51-4.13 26.9-8.67 40.37-12.94 3.94-1.25 8-2.17 11.68-3.17l5 3.19a15.54 15.54 0 01-2.6 1.35c-6.7 1.95-13.44 3.77-20.12 5.76a53.06 53.06 0 00-5.85 2.43c-1.52.65-3 1.44-4.54 2C97.41 79 78.63 85.77 59.8 92.35c-4.38 1.53-9 2.34-13.44 3.68-2.66.81-13.36 4.35-16.36 5.53zM112.54 78.51c4.22-1.37 21.3-6.6 23.41-7.23 1.38 14.16-.58 27-7.15 39 .58-6.56 3.16-12.93 1.66-19.63a24.9 24.9 0 00-1.71-4c-2.51 3.42-2.28 6.8-2.25 10a54 54 0 01-4.5 21.92 14 14 0 01-2.44 3.85 151.2 151.2 0 00-7.02-43.91zM110.6 99.66l-2.21 2.59c1.46 9 3.52 18-.25 26.95-4.7-14.79-9.48-29.48-16.27-43.36 4.68-2.87 7.37-3.62 10.66-3a21.67 21.67 0 011.92-1.76 6.25 6.25 0 011.7-.5l2.69 1.74c-1 2.54 1.12 4.53 1.23 6.9s.53 4.75.71 7.14a24.37 24.37 0 01-.18 3.3zM89.89 85.49c5 10.44 14.28 37.61 14.71 44.2a13.81 13.81 0 01-7.78-7.18 111.63 111.63 0 01-8.84-30 13.7 13.7 0 01-.07-4.51c.16-.85 1.18-1.53 1.98-2.51z"/><path class="cls-1" d="M128.42 118.17c3.48-7.35 7-14.62 8.71-22.6s2.55-16.07.85-24.3a8.62 8.62 0 011.68-1.19 10.55 10.55 0 012.31-.27v12c2.13-4-.4-8.71 3.25-13.48 0 5 .19 9-.06 12.93s-1.41 7.66-1.35 11.72c.05 3-2.12 6.13-3.42 9.16a42.64 42.64 0 01-11.97 16.03zM65.23 94.54l4.89-1.81c4.49 12.61 10.76 24.18 17.64 35.46-14.96-6.08-19.08-19.29-22.53-33.65zM101.85 133.3c-.86-.08-1.94.14-2.54-.3-2.81-2-6.06-3.8-8.09-6.47a121.13 121.13 0 01-17.53-31.22C73.22 94 78 90.15 79 89.64c1.4 3.83 2.69 7.38 4 10.92 1.6 4.34 3.29 8.65 4.8 13a35.31 35.31 0 0012.28 17.2c.72.55 1.4 1.18 2.1 1.76zM110.6 99.66c.07-1.1-19.6-13.61-18.6-14.1 2-1 17.69-6 18.58-6.41.43.64 1 1.12 1.1 1.68 1.55 8 3.23 16 4.47 24a78.15 78.15 0 01.77 13.42 26.92 26.92 0 01-1.75 8.21 7.43 7.43 0 01-3.72 3.63c.48-3.07 1.21-6.12 1.41-9.21a59.13 59.13 0 00-2-18.76 16.4 16.4 0 01-.26-2.46zM12.19 106.85C5.48 106.94 0 101.91 0 95.69a11.66 11.66 0 0112.08-11.84c6.82 0 12.1 4.55 12.22 10.49a12.21 12.21 0 01-12.11 12.51zM6 103.56c3.16 2.21 7.06 1.52 10.42-.37s5.14-4.9 4.52-8.11c-.67-3.51-2.66-6.23-6.21-7-4.62-1-9.66-.59-12 3.84-2.86 5.19 2 10.78 3.27 11.64zM71.77 123.29c-3.57-.31-8.23-3.81-13.32-9.21-4-4.19-4.75-9.68-7.29-14.75l3.38-1.19c.84.8 14.52 21.56 17.23 25.15z"/><path class="cls-1" d="M86.13 87.12c.66 6.17 1.23 11.38 1.74 16.6 0 .1-.55.26-1.42.66-1.89-4.87-3.77-9.7-5.83-15zM61 96.2l2.84-1.41c1.41 5 2.76 9.8 4.22 15-2.88-2.62-5.15-7.05-7.06-13.59zM147.42 76.56A32.53 32.53 0 01145.5 96c-1.35-6.73.95-13 1.92-19.44z"/><path d="M99.48 184.07c-7.4 4-15.32 4.12-23.41 3.1a64.69 64.69 0 0023.41-3.1z"/><path class="cls-1" d="M14.69 101.32c-1.59-3.81-3-7.28-4.49-10.77 4.24-1.09 7.43.48 8.63 4.12.96 2.94-.19 4.82-4.14 6.65zM8 91.13c2.21 3.08 3.14 6.62 4.23 10.26-4.83.4-6.44-.46-7.31-3.61C4 94.45 4.66 92.92 8 91.13z"/></g></g></svg>