<svg width="418" height="91" fill="none" xmlns="http://www.w3.org/2000/svg"><path fill-rule="evenodd" clip-rule="evenodd" d="M185.13 53.444l.001.006c-.367.019-.722.031-1.082.056-2.042.184-4.059-.005-6.082-.311-2.244-.336-4.452-.85-6.659-1.347a47.894 47.894 0 01-5.009-1.38c-.729-.245-1.425-.591-2.108-.938-.478-.252-.871-.614-1.11-1.108-.109-.236.05-.644.297-.734a2.35 2.35 0 011.241-.089 96.74 96.74 0 013.162.606c3.099.65 6.181 1.343 9.285 1.963 2.296.457 4.614.724 6.964.513.353-.036.714-.044 1.075-.057 1.912-.088 3.839-.142 5.636-.943.435-.193.938-.196 1.414-.097.497.109.854.408 1.015.889.145.434-.054.945-.464 1.237-.187.133-.4.245-.607.362-1.33.723-2.769 1.099-4.273 1.224-.899.077-1.795.1-2.696.148zm-86.315-3.498l-.95.05c-2.767.156-5.528.306-8.295.468a12.36 12.36 0 01-2.81-.177 7.756 7.756 0 01-2.152-.71c-.15-.081-.284-.203-.422-.302-.146-.11-.208-.442-.16-.612.067-.182.234-.27.398-.29a37.094 37.094 0 011.929-.162c3.3-.167 6.594-.323 9.894-.49.412-.022.83-.044 1.232-.12 2.371-.444 4.802-.476 7.179-.925 2.622-.501 5.152-1.182 7.481-2.439.407-.223.821-.446 1.243-.63.652-.291 1.336.17 1.303.86-.005.28-.093.536-.271.775-.535.693-1.24 1.183-2.025 1.588-1.986 1.004-4.132 1.62-6.326 2.06-1.15.227-2.322.395-3.473.606-.076.01-.133.147-.172.239-.017.034.018.11.052.148a.988.988 0 00.223.245c1.788 1.282 3.711 2.345 5.796 3.108 2.616.964 5.288 1.792 8.077 2.283 1.282.224 2.546.359 3.85.28 3.596-.217 7.188-.394 10.779-.588.297-.016.589-.025.881-.03.184-.003.378.3.357.502-.052.344-.202.631-.509.837-.982.661-2.024 1.124-3.253 1.183-1.115.059-2.234.15-3.349.215-1.887.104-3.773.226-5.655.302-.703.031-1.426.058-2.117-.04-1.158-.163-2.308-.41-3.452-.664a49.639 49.639 0 01-4.388-1.213c-2.831-.947-5.535-2.125-7.967-3.81a16.038 16.038 0 01-2.928-2.547zm-60.26-23.221c-.278.123-.56.154-.835 0-.946-.532-1.903-1.047-2.832-1.618-2.302-1.406-4.828-2.377-7.453-3.18-2.503-.76-5.047-1.36-7.66-1.701-1.448-.19-2.912-.359-4.389-.265-2 .137-3.996.215-5.989.357-1.829.129-3.577.6-5.27 1.26-1.85.717-2.798 2.07-3.233 3.794a.921.921 0 00-.033.323c.038 1.454.088 2.903.366 4.334.242 1.237.744 2.368 1.421 3.447a33.801 33.801 0 003.509 4.614c.947 1.048 2.205 1.738 3.528 2.337.545.254 1.135.267 1.715.23 1.294-.078 2.579-.2 3.87-.316.296-.026.586-.058.873-.133 1.824-.476 1.832-.438 2.564-1.928.367-.736.74-1.468 1.191-2.165.27-.416.48-.862.633-1.332.371-1.128.884-2.226 1.158-3.392.176-.743.669-1.372 1.175-1.98.232-.279.876-.198 1.052.135.064.143.142.297.169.448.03.215.048.432.02.645-.173 1.276-.219 2.571-.666 3.823-.215.61-.32 1.25-.465 1.888-.052.199.124.434.336.477.122.032.225.076.34.086 1.112.088 2.223.155 3.33.26 1 .094 1.991.053 2.99.023 2.237-.063 4.458-.337 6.674-.557 1.575-.153 3.136-.452 4.56-1.184.875-.448 1.814-.764 2.782-1.026.355-.106.695-.02 1.007.132.644.325.732 1.048.14 1.47-.506.358-1.053.686-1.606.998-1.568.88-3.201 1.607-5.052 1.808-1.588.501-3.256.437-4.889.571-1.172.1-2.356.096-3.528.201-1.65.147-3.28-.007-4.906-.237-1.04-.147-2.095-.238-3.144-.33-.344-.03-.55.127-.662.42-.582 1.58-.56 2.133.3 3.534.4.653.9 1.251 1.37 1.863.474.605.98 1.198 1.467 1.803.562.688 1.086 1.394 1.672 2.07 1.973 2.244 4.412 3.964 7.273 5.178 1.063.455 2.13.889 3.209 1.31 1.467.575 3.002.865 4.606.916 1.059.032 2.104.156 3.164.095a17.462 17.462 0 004.47-.843c.217-.076.441-.148.665-.22.106-.026.4.127.418.234.061.21.148.411.165.622.062.812.38 1.572.61 2.348.138.455.402.892.682 1.29.883 1.27 1.81 2.509 2.888 3.637.536.57 1.017 1.175 1.541 1.75 1.974 2.153 4.39 3.683 7.384 4.396.91.213 1.83.383 2.746.574.98.21 1.963.25 2.978.175.927-.07 1.873-.13 2.81-.153 1.947-.042 3.867-.355 5.776-.666.985-.155 1.923-.493 2.813-.925.154-.073.254-.225.41-.375-.45-.862-.888-1.736-1.358-2.597-.679-1.241-1.383-2.482-2.069-3.723-.53-.956-.882-1.986-1.177-3.02-.132-.454-.107-.961-.089-1.446.015-.321.19-.608.443-.86.138-.138.483-.205.634-.093.178.132.388.262.504.436.207.32.39.659.528 1.015.784 2.024 1.89 3.917 2.914 5.836.303.582.661 1.14.92 1.735.983 2.318 2.71 4.118 4.712 5.714.833.669 1.733 1.284 2.637 1.873 1.003.648 1.981 1.325 2.9 2.07 1.375 1.113 2.927 1.961 4.619 2.6 1.679.63 3.346 1.282 5.013 1.928 1.138.446 2.342.709 3.544.934 1.783.33 3.579.54 5.367.838.875.145 1.75.175 2.634.118 2.871-.173 5.757-.313 8.624-.567 1.455-.136 2.914-.32 4.33-.716.911-.254 1.796-.523 2.65-.894a112.769 112.769 0 016.299-2.536c.609-.217 1.191-.47 1.773-.724.377-.16.768-.317 1.091-.551 1.575-1.12 3.297-2.086 4.722-3.394.374-.352.729-.713 1.051-1.099.893-1.063 1.278-2.295 1.419-3.601.04-.432.037-.866.065-1.292.008-.087.098-.179.164-.258.071-.09.314-.044.461.106.382.404.764.808 1.153 1.217 1.889 1.993 3.959 3.787 6.472 5.122.462.237.9.507 1.362.744.462.231.9.496 1.279.84.723.642 1.582 1.091 2.495 1.473 1.483.629 2.96 1.28 4.45 1.919 1.056.46 2.168.788 3.292 1.094 1.008.278 2.022.535 3.036.797 2.22.568 4.485.781 6.8.622 1.633-.119 3.288-.194 4.906-.491.576-.106 1.177-.127 1.75-.179.353-.03.706-.053 1.06-.077 1.843-.102 3.421-.783 4.748-1.923.83-.712 1.729-1.313 2.649-1.883 1.422-.879 2.852-1.742 4.242-2.651.82-.527 1.573-1.143 2.353-1.716.372-.27.731-.544 1.11-.808.293-.211.639-.24 1-.243.234-.001.472.176.463.383-.017.268-.009.544-.084.798-.273.846-.799 1.558-1.489 2.165-.725.647-1.525 1.205-2.36 1.71-1.682 1.007-3.357 2.008-5.123 2.872-.16.08-.2.277-.111.408.068.095.111.196.185.273.182.213.352.438.57.611 1.156.913 2.039 2.067 3.159 3.014 1.113.947 2.262 1.86 3.393 2.79a19.276 19.276 0 004.824 2.899c1.23.506 2.476.978 3.728 1.435 1.143.423 2.352.664 3.581.796.987.11 1.975.25 2.961.339.528.048 1.06.053 1.59.025 3.29-.172 6.58-.317 9.867-.538a24.361 24.361 0 008.773-2.303c1.348-.63 2.414-1.534 3.386-2.563.438-.452.701-.998.957-1.55.119-.267.054-.53-.172-.735-1.086-1.047-2.155-2.12-3.279-3.138a19.005 19.005 0 01-2.842-3.253c-.349-.498-.661-1.014-1.003-1.507-1.644-2.376-2.872-4.91-3.526-7.608-.12-.12-.189-.224-.28-.274-1.818-.986-3.488-2.165-5.175-3.32a22.179 22.179 0 01-2.775-2.214 7.924 7.924 0 01-1.539-1.946c-.176-.334-.328-.695-.279-1.089.019-.126.25-.301.385-.265.634.141 1.188.438 1.706.786.801.545 1.584 1.107 2.373 1.658 1.255.88 2.498 1.777 3.771 2.634a28.4 28.4 0 004.805 2.65c1.871.793 3.812 1.349 5.89 1.512 1.399.117 2.796.304 4.179.487.402.06.777.22 1.153.38.142.058.245.216.341.346.108.136.096.5-.038.605-.219.175-.44.415-.697.466-1.216.233-2.465.33-3.693.194-.752-.08-1.509-.155-2.267-.24-1.222-.131-2.424-.357-3.584-.741-.219-.076-.439-.162-.657-.216-.166-.04-.354-.112-.492.031-.138.132-.098.293-.009.435.818 1.354 1.624 2.725 2.474 4.072.565.878 1.179 1.72 1.775 2.58.5.724 1.128 1.365 1.787 1.977 1.632 1.54 3.263 3.068 4.876 4.625a17.558 17.558 0 002.781 2.196c3.705 2.333 7.794 3.896 12.055 5.113 1.915.552 3.888.752 5.913.614 1.583-.116 3.163-.166 4.752-.282 1.053-.077 2.103-.23 3.147-.36.352-.04.703-.113 1.049-.142 2.414-.214 4.749-.716 7.04-1.45.666-.215 1.332-.424 1.999-.638.722-.234 1.437-.467 2.04-.928.31-.239.715-.374 1.078-.562 1.289-.66 2.529-1.393 3.655-2.262 1.636-1.265 2.725-2.833 3.157-4.752.062-.264.13-.534.129-.8a22.123 22.123 0 00-.6-4.8 1.59 1.59 0 00-.512-.832c-1.326-1.136-2.434-2.47-3.498-3.81-1.41-1.774-2.801-3.56-4.193-5.346-1.39-1.775-2.105-3.808-2.521-5.949a6.112 6.112 0 01-.046-2.09c.011-.038.072-.08.103-.092.049-.03.143-.056.163-.036.657.46 1.265.961 1.643 1.648.386.724.803 1.43 1.14 2.174a17.198 17.198 0 002.814 4.423c.781.883 1.432 1.827 2.145 2.746a62.896 62.896 0 003.435 4.059c.557.612 1.286 1.1 1.988 1.58.984.666 2.017 1.286 3.043 1.9 1.164.71 2.365 1.392 3.541 2.092 1.738 1.028 3.624 1.745 5.623 2.205.968.22 1.945.382 2.917.58.461.09.932.142 1.365.304 1.6.585 3.302.686 4.98.94.869.145 1.749.148 2.626.096 2.058-.118 4.11-.22 6.162-.437 2.11-.214 4.217-.351 6.33-.49 1.243-.08 2.441-.301 3.609-.715.82-.294 1.678-.474 2.552-.596a26.682 26.682 0 003.43-.745 128.191 128.191 0 008.492-2.717 28.388 28.388 0 003.965-1.773c1.977-1.054 3.295-2.596 4.087-4.529.573-1.378.802-2.808.877-4.268.054-1.025-.03-2.037-.184-3.04-.752-.569-1.483-1.106-2.201-1.656-.357-.275-.707-.56-1.064-.84-1.472-1.168-2.683-2.518-3.589-4.111-.711-1.235-1.488-2.428-2.013-3.748-.059-.144-.167-.274-.272-.464-1.124-.196-2.267-.386-3.412-.609-2.181-.418-4.334-.914-6.433-1.592a14.216 14.216 0 01-3.842-1.913c-.605-.43-1.101-.958-1.53-1.534-.095-.13-.135-.291-.194-.44-.058-.139.082-.369.214-.392.533-.093 1.06-.077 1.562.087.444.145.889.29 1.292.497 2.508 1.341 5.268 2.072 8.071 2.658 1.761.375 3.539.722 5.359.893.699.067 1.399.123 2.106.086 2.462-.124 4.931-.248 7.399-.377a7.325 7.325 0 001.733-.281c.611-.18 1.258-.273 1.891-.393.476-.096.925.017 1.387.134.27.078.615.49.596.746-.039.339-.213.647-.561.774-1.099.394-2.2.767-3.315 1.12-.38.111-.816.14-1.213.166-2.063.14-4.12.27-6.17.405-.467.03-.934.06-1.407.095-.239.018-.422.278-.311.457.324.51.654 1.014.985 1.519.206.32.457.628.626.967.641 1.238 1.599 2.231 2.697 3.136 1.482 1.215 2.945 2.443 4.66 3.402.593.327 1.176.699 1.723 1.105a6.504 6.504 0 001.989.999c1.165.352 2.335.698 3.494 1.067a6.57 6.57 0 002.603.271c2.873-.265 5.754-.367 8.605-.815 1.275-.197 2.549-.4 3.815-.646 1.498-.296 2.941-.784 4.215-1.596.784-.497 1.556-.989 2.328-1.47 1.007-.612 1.794-1.408 2.344-2.388a35.65 35.65 0 00.872-1.595c.389-.792.573-1.633.629-2.505.066-1.026-.025-2.042-.173-3.056-.051-.362-.272-.606-.626-.707-1.182-.34-2.244-.898-3.253-1.552-.432-.27-.911-.485-1.372-.705-2.378-1.158-4.263-2.82-5.859-4.774-.562-.688-.945-1.472-1.334-2.25-.156-.319-.039-.63.193-.913.292-.352.856-.333 1.111-.178.138.09.289.191.384.322.957 1.227 2.157 2.251 3.235 3.38.937.977 2.108 1.693 3.332 2.346.808.43 1.598.884 2.406 1.32.3.169.594.35.917.468 1.949.713 3.866 1.531 5.877 2.11.797.225 1.589.363 2.426.26.818-.098 1.638-.157 2.455-.26 2.565-.34 5.098-.816 7.565-1.576 1.29-.388 2.539-.834 3.729-1.445 1.535-.782 2.792-1.81 3.589-3.259.37-.676.733-1.353 1.084-2.035a5.824 5.824 0 00.594-3.16c-.103-1.12-.282-2.236-.429-3.359-.036-.204-.136-.411-.21-.614-.272-.714-.704-1.354-1.136-1.983-1.18-1.743-2.945-2.569-5.143-2.6a35.115 35.115 0 00-3.7.188c-2.342.248-4.668.555-6.932 1.2-.113.033-.226.045-.345.067-.232.045-.473-.083-.529-.309-.218-.89-.56-1.742-.995-2.562-1.433-2.696-3.621-4.706-6.505-6.099-1.052-.504-2.147-.865-3.35-.878-.824-.011-1.64-.007-2.463-.002-.722-.005-1.418.129-2.019.486a2.45 2.45 0 01-1.166.355c-.114 0-.233.018-.345.045-1.501.35-2.274 1.195-2.394 2.642-.031.377-.017.756-.036 1.132-.008.082-.08.167-.139.247-.053.073-.321-.098-.4-.262-.639-1.325-1.265-2.65-1.911-3.97-.29-.583-.617-1.158-.901-1.746-.613-1.294-1.494-2.416-2.524-3.46-1.898-1.912-4.254-3.13-7.008-3.747-1.787-.4-3.608-.474-5.427-.4-1.396.057-2.802.288-4.126.76-.951.337-1.53.998-1.73 1.905-.164.737-.264 1.487-.217 2.25.011.207-.01.425-.017.637-.14-.003-.277.031-.337-.02a3.696 3.696 0 01-.534-.412c-.917-.822-2.082-1.19-3.297-1.425-2.143-.42-4.892-.575-7.001-.465-.858.05-1.585.322-2.214.877a6.153 6.153 0 00-1.368 1.68 2.878 2.878 0 00-.365 1.242c-.019.37-.056.748-.106 1.12-.01.05-.227.131-.267.106a4.483 4.483 0 01-.684-.491c-1.643-1.631-3.712-2.577-6.037-3.107-1.698-.384-3.407-.74-5.148-.975-2.537-.34-5.033-.247-7.47.587-1.972.669-3.671 1.714-5.192 3.011-.739.626-1.399 1.323-2.066 2.01-.697.71-1.065 1.54-1.065 2.502.015 1.618-.002 3.233-.006 4.848.004.429.02.857.011 1.293.004.086-.079.183-.132.262-.064.101-.276.047-.456-.128-.48-.459-.979-.922-1.447-1.403-1.338-1.375-2.939-2.438-4.701-3.319a41.327 41.327 0 00-4.281-1.851c-2.607-.945-5.232-1.862-7.821-2.84-3.158-1.182-6.407-2.06-9.728-2.724a110.21 110.21 0 00-5.176-.93 32.94 32.94 0 00-7.718-.269c-2.547.204-4.931.976-7.175 2.126a4.426 4.426 0 00-1.319 1.058c-.627.718-1.234 1.445-1.855 2.168a2.79 2.79 0 01-.469.476c-.06.052-.257.046-.31 0-.298-.251-.584-.524-.859-.803-1.832-1.877-3.671-3.748-5.675-5.49-.384-.328-.78-.644-1.147-.99-1.278-1.21-2.824-2.08-4.435-2.848-1.032-.5-2.106-.944-3.174-1.383a61.876 61.876 0 01-5.003-2.324c-2.747-1.443-5.597-2.685-8.448-3.932a6.342 6.342 0 00-2.352-.556c-1.231-.055-2.462-.11-3.69-.22-1.768-.163-3.527-.01-5.288.087a2.735 2.735 0 00-.69.118c-1.171.365-2.306.805-3.364 1.41-.884.519-1.461 1.228-1.683 2.186-.131.523-.243 1.045-.252 1.589a185.28 185.28 0 01-.129 3.224c-.004.043-.05.133-.069.134-.107-.005-.253-.003-.307-.066-.262-.285-.499-.593-.755-.879-.524-.58-1.03-1.168-1.584-1.726a12.839 12.839 0 00-3.296-2.37c-2.211-1.108-4.524-2.008-6.866-2.853a57.553 57.553 0 00-9.76-2.624c-2.249-.387-4.516-.644-6.819-.496-2.41.154-4.816.274-7.229.363-1.371.05-2.674.314-3.978.676-1.292.366-2.583.738-3.866 1.126-.443.132-.877.312-1.311.476-.664.263-1.233.63-1.693 1.149-.939 1.05-1.879 2.087-2.93 3.04-.514.477-.78 1.073-.904 1.726-.023.159-.027.322-.044.48-.157 1.237-.327 2.468-.657 3.665-.101.364-.131.746-.22 1.11-.01.049-.228.114-.274.084a6.966 6.966 0 01-.805-.615c-1.143-1.038-2.514-1.716-4.061-2.13-1.799-.487-3.613-.924-5.468-1.164-1.396-.182-2.8-.288-4.215-.225-2.059.097-4.11.221-6.169.302-1.478.061-2.911.38-4.362.609-.746.126-1.481.355-2.139.726-1.317.732-2.606 1.495-3.82 2.363-.568.405-1.01.9-1.288 1.513-.136.3-.26.6-.409.897-.6 1.232-1.168 2.48-1.918 3.638a5.993 5.993 0 00-.991 3.073c-.036.638-.116 1.278-.173 1.89-.311.103-.523.033-.726-.082-.9-.501-1.817-.97-2.699-1.505-1.113-.686-2.29-1.293-3.549-1.748a402.117 402.117 0 00-6.546-2.315c-.761-.264-1.573-.423-2.356-.62-1.302-.319-2.608-.609-3.905-.948-1.239-.327-2.483-.626-3.779-.726-.636-.048-1.285-.118-1.923-.09-1.53.059-3.056.155-4.582.262-1.294.09-2.551.373-3.816.646-.92.195-1.82.421-2.733.632a12.796 12.796 0 00-3.099 1.152c-.677.35-1.241.831-1.732 1.367-.48.515-.694 1.13-.57 1.808.201 1.06.452 2.106.929 3.103.234.482.406.995.591 1.507.037.085-.02.207-.06.296-.033.095-.314.039-.442-.09-.698-.654-1.422-1.285-2.072-1.968-2.533-2.688-5.655-4.627-9.127-6.14-2.274-.99-4.553-1.952-6.986-2.602-2.254-.605-4.55-.946-6.897-1.138-2.83-.243-5.648-.03-8.444.241-2.337.226-4.671.506-6.912 1.232-.498.162-1.017.287-1.5.48-1.08.438-2.151.88-3.208 1.37-.47.21-.925.472-1.327.781-.748.572-1.21 1.303-1.23 2.233-.011.653.04 1.28.239 1.911.258.834.554 1.645 1.017 2.387.11.179.32.299.48.442-.15-.057-.18-.028-.086.075l.064-.123z" fill="#000"/></svg>