<svg width="243" height="55" fill="none" xmlns="http://www.w3.org/2000/svg"><path fill-rule="evenodd" clip-rule="evenodd" d="M42.586 48.224c.56 0 .739-.005.917 0 .97.05 1.887-.1 2.755-.53.626-.315 1.29-.565 1.926-.865.205-.095.41-.23.566-.39a.603.603 0 00.14-.615c-.07-.22-.35-.4-.528-.3-.308.17-.604.355-.917.51-1.43.715-2.907 1.26-4.573 1.215-1.127-.025-2.26.015-3.355-.3-.107-.03-.231.01-.35.015-.102.005-.286.31-.237.4.118.195.253.37.512.43 1.154.26 2.324.475 3.144.43zm174.971-9.46v.04c-.547.026-1.094.06-1.647.076-.558.01-1.083.13-1.602.305-.365.12-.514.71-.26 1 .232.275.547.45.895.55 1.26.36 2.536.29 3.79-.015.415-.1.79-.325 1.022-.665.349-.525.144-1.225-.558-1.28-.541-.045-1.093-.01-1.64-.01zm-96.788 8.411c1.383 0 2.57-.215 3.757-.425.363-.07.692-.27 1.032-.425.104-.05.173-.155.253-.24.144-.135.144-.48.018-.62-.294-.31-.663-.53-1.112-.585a9.998 9.998 0 00-1.337-.075c-1.527-.015-3.06.02-4.57-.235-.184-.03-.386-.01-.57 0-.623.035-1.251.535-1.314 1.04-.046.36.294.755.858.99.116.05.219.13.335.15.933.17 1.849.43 2.65.425zm94.79-14.507c1.547-.015 2.827-.31 4.101-.64 1.286-.325 2.19-1.11 3.045-1.97.142-.145.169-.4.213-.615.043-.2-.278-.44-.474-.37-.616.225-1.226.46-1.836.685-1.639.59-3.317.99-5.098.84-.594-.05-1.188-.15-1.782-.23-.457-.065-.822.23-.806.665.011.465.202.86.621 1.135.343.22.714.41 1.15.445.359.025.719.045.866.055zm-48.637 4.608c.005.045-.017.215.039.365.331.83.931 1.395 1.923 1.64.651.16 1.279.405 1.896.65.919.355 1.867.57 2.86.67.611.065 1.222.145 1.833.21.494.05.987.115 1.481.12 1.671.015 3.342-.005 5.013.01 1.009.015 1.957-.245 2.91-.46.286-.065.544-.26.78-.43.297-.22.342-.725.146-1.075-.152-.275-.432-.415-.746-.415-.494.005-.993.02-1.469.12-.976.21-1.963.22-2.956.225-2.607.01-5.181-.285-7.755-.58-1.867-.21-3.634-.615-5.26-1.485-.292-.15-.656.025-.695.435zM64.996 41.36c.838-.098 1.676-.174 2.514-.294 1.012-.141 2.02-.348 3.038-.473a9.918 9.918 0 002.617-.707c.772-.32 1.544-.663 2.393-.805.345-.06.695-.206 1.018-.37.854-.434 1.741-.837 2.535-1.364.8-.539 1.505-1.213 2.245-1.828.23-.195.438-.413.673-.603 1.248-.99 2.623-1.697 4.243-1.854.18-.022.356-.033.537-.06 2.239-.343 4.309-1.131 6.241-2.284.208-.125.389-.288.57-.446.093-.076.191-.163.246-.261a.518.518 0 00.044-.337.42.42 0 00-.214-.24 1.773 1.773 0 00-.536-.07c-1.221-.006-2.387.277-3.532.685-1.374.5-2.775.816-4.254.783a16.151 16.151 0 00-3.071.223c-.471.076-.98.12-1.446.033-1.418-.261-2.88-.381-4.204-1.023-.165-.081-.329-.163-.499-.223a2.043 2.043 0 00-1.248-.076 1.01 1.01 0 00-.427.288c-.142.153-.071.354.044.49 1.243 1.506 2.004 1.974 3.893 2.387.235.054.481.065.717.12.115.021.213.103.323.152.137.065.246.359.17.462-.072.093-.12.218-.209.288-2.162 1.762-4.478 3.247-7.298 3.774-.416.071-.826.18-1.22.327-1.194.451-2.426.685-3.68.897-2.305.391-4.56.359-6.789-.408-.186-.065-.481.185-.492.413-.006.12-.033.245 0 .354.142.55.454.99.99 1.212 1.298.539 2.64.881 4.068.838zM36.622 14.886c.164-.086.361-.13.454-.254.366-.477.706-.97 1.045-1.469 1.039-1.512 2.455-2.64 3.937-3.68.596-.417 1.296-.645 2.013-.775 1.793-.32 3.603-.455 5.419-.32.897.066 1.783.304 2.663.505 1.181.27 2.319.66 3.385 1.24.093.05.225.044.34.06.295-.395.35-.883.486-1.338.24-.808.564-1.577.968-2.314.443-.808.952-1.534 1.783-1.984 2.002-1.875 4.512-2.731 7.098-3.409 1.816-.477 3.67-.72 5.551-.742.421-.006.848.022 1.269-.011 1.963-.146 3.86.255 5.71.813 1.848.564 3.609 1.36 5.167 2.536.099.076.186.157.29.217 1.832 1.138 3.15 2.77 4.337 4.52.197.298.311.65.749.813.333-.396.7-.792 1.028-1.22.935-1.203 2.138-2.108 3.363-2.986.738-.536 1.603-.845 2.494-1.04a232.92 232.92 0 015.135-1.063 7.52 7.52 0 011.438-.14c3.15-.006 6.289-.152 9.434.01.902.05 1.81.07 2.701.298.29.07.597.098.897.103 1.892.055 3.697.51 5.464 1.155.508.179 1.011.422 1.536.525 1.526.293 2.806 1.106 4.096 1.854.892.52 1.581 1.311 2.226 2.103 1.066 1.295 2.193 2.557 3.013 4.037.175.309.432.574.657.856 1.115 1.388 1.864 2.927 2.023 4.72.06.656.186 1.306.279 1.957.022.12.038.238.066.357.049.266.404.607.601.575.197-.032.465-.396.514-.683.115-.65.11-1.306.028-1.967a18.275 18.275 0 01-.154-1.43c-.032-.792.301-1.41 1.007-1.773.481-.244 1-.406 1.509-.601.848-.326 1.706-.58 2.636-.575.421 0 .842-.087 1.263-.13.963-.092 1.925-.114 2.888.049.596.097 1.208.108 1.81.162 1.269.109 2.461.461 3.647.954 4.124 1.718 7.033 6.411 7.624 9.923.055.352.098.71.153 1.068.022.162.016.368.23.395.213.027.306-.168.415-.303.148-.19.279-.39.421-.586.214-.287.438-.574.646-.867 1.34-1.94 3.128-3.295 5.337-4.135 1.564-.59 3.156-.802 4.802-.525.536.086 1.072.2 1.575.4 1.493.586 2.504 1.643 2.925 3.198.203.753.345 1.523.531 2.276.011.05.235.114.284.076.192-.135.361-.309.52-.482 1.367-1.507 3.133-2.179 5.108-2.412 2.521-.298 4.484.667 5.982 2.629.547.715 1.028 1.474 1.548 2.222.252-.011.345-.25.498-.407 1.252-1.355 2.838-1.734 4.615-1.539.17.016.35.092.492.195.597.417 1.132.889 1.384 1.604.06.168.295.206.454.087.585-.434 1.247-.71 1.936-.948 1.083-.374 2.149-.802 3.237-1.144a11.478 11.478 0 012.844-.51c1.055-.064 2.051.109 2.986.586.591.298 1.181.601 1.728.97.345.228.64.547.902.867.728.905.717.916 1.45-.027 1.996-2.569 4.522-4.455 7.459-5.858 2.253-1.073 4.621-1.767 7.055-2.211 1.416-.26 2.887-.266 4.336-.326.842-.038 1.69.011 2.538.06.847.049 1.635.38 2.439.645 1.383.46 1.941 1.528 2.149 2.845.066.412.016.835.022 1.252.005.303-.066.629.033.889.284.78-.011 1.409-.41 2.021-.296.45-.64.862-.968 1.306.147.044.262.114.35.098.711-.146 1.411-.32 2.116-.466 1.077-.223 2.166-.19 3.254-.12.394.022.651.293.804.64.076.163.147.336.164.51.169 1.333.038 2.622-.531 3.863-.388.857-.973 1.512-1.821 1.919-.596.292-1.203.558-1.886.585a5.36 5.36 0 00-.722.081c-1.039.196-2.046.066-3.041-.243-.164-.05-.328-.087-.459-.12-.339.195-.41.494-.487.775-.487 1.805-1.663 3.014-3.33 3.805-.761.357-1.532.704-2.286 1.078-2.117 1.057-4.414 1.615-6.634 2.38-1.187.178-2.341.574-3.571.525-.607-.022-1.192-.087-1.717-.309-.153.07-.29.097-.35.184-1.045 1.29-2.549 1.778-4.047 2.238-2.308.71-4.676 1.182-7.033 1.68-1.482.315-3.008.201-4.522.098a.453.453 0 01-.175-.027c-.755-.358-1.548-.645-2.155-1.209.055-.178.071-.298.12-.406a13.116 13.116 0 001.187-4.309 1.39 1.39 0 01.344-.812c.329-.353.646-.716 1.001-1.035.274-.244.602-.423.985-.401 1.126.054 2.149-.358 3.133-.786a42.833 42.833 0 004.528-2.255c.711-.417 1.182-1.024 1.515-1.745.153-.341.093-.699-.153-1.008-.268-.33-.837-.46-1.143-.238-.432.325-.859.66-1.28 1.002-.989.808-2.078 1.437-3.319 1.778-.41.114-.81.25-1.209.396-1.793.65-3.653.758-5.534.644-.421-.027-.837-.13-1.252-.195-.301-.054-.591-.124-.892-.151-.754-.07-1.362.634-1.23 1.409.06.303.213.552.492.715.421.244.897.336 1.362.466.333.092.634.325.924.526.076.054.142.227.115.32a3.649 3.649 0 01-.285.655c-.355.694-.743 1.371-1.072 2.076-.814 1.761-1.826 3.376-3.281 4.688-.94.85-1.854 1.723-2.794 2.568-1.422 1.295-3.178 1.946-5.015 2.363-2.647.607-6.043.098-8.034-.623-.798-.293-1.558-.645-2.258-1.116-1.209-.802-2.461-1.518-3.724-2.222-1.477-.813-2.91-1.713-4.004-3.04-.054-.066-.229-.082-.328-.055a.416.416 0 00-.229.233c-.11.298-.044.585.131.851.58.862 1.252 1.61 2.308 1.908.082.021.131.19.191.292-1.646 1.393-3.642 2.049-5.671 2.629-.344.103-.722.103-1.083.103-1.208.01-2.417.016-3.626 0a9.837 9.837 0 01-2.504-.385c-.842-.239-1.559-.634-1.936-1.485-.12-.271-.295-.52-.47-.764-.318-.445-1.056-.537-1.444-.168-.263.25-.503.52-.728.802-1.427 1.8-3.259 3.002-5.474 3.636-.929.266-1.859.542-2.805.721-1.258.238-2.527.233-3.746-.26-.23-.098-.339-.417-.181-.58.17-.168.339-.347.52-.498.41-.353.842-.689 1.241-1.047 1.039-.926 2.04-1.875 2.817-3.034.164-.25.393-.456.563-.705.432-.65 1.006-.97 1.816-.97.596.005 1.197-.124 1.804-.19a7.97 7.97 0 001.756-.39c.968-.336 1.974-.553 2.986-.731.235-.038.497-.038.705-.147a72.35 72.35 0 002.849-1.555c.449-.255.618-.726.728-1.198.114-.466-.077-.807-.427-1.019-2.28.607-4.495 1.187-6.699 1.794-2.844.78-5.731.835-8.635.596-.968-.075-1.876-.444-2.778-.79-.279-.11-.553-.234-.837-.331-.312-.098-.766.195-.804.547-.038.352-.06.71-.033 1.062.044.45.301.808.722.96 1.187.433 2.341.97 3.582 1.23.345.075.706.092 1.05.157.186.027.388.428.306.585-.164.314-.295.683-.547.91-1.028.933-2.089 1.821-3.144 2.715-.23.19-.509.331-.782.456-2.193 1.013-4.452 1.81-6.863 2.227-2.04.347-4.074.488-6.131.314a8.307 8.307 0 01-1.422-.243c-1.039-.277-1.843-.884-2.417-1.783-.322-.51-.607-1.03-.771-1.615-.06-.233-.169-.45-.273-.667-.148-.303-.815-.704-1.247-.504-.438.211-.881.401-1.291.65-1.58.96-3.347 1.355-5.146 1.6-.53.07-1.088 0-1.63-.039-.415-.032-.836-.179-1.252-.157-1.52.087-2.827-.547-4.134-1.165a54.584 54.584 0 01-2.259-1.133c-.317-.173-.607-.39-.897-.601-.322-.239-.251-.678.143-.862.218-.103.443-.19.667-.276 1.411-.531 2.8-1.1 4.134-1.816a10.845 10.845 0 002.078-1.43c.99-.879 2.04-1.697 2.92-2.689.279-.32.591-.617.799-.975.361-.623.842-.981 1.58-1.03.421-.027.832-.173 1.253-.2 1.099-.076 2.122-.396 3.15-.77 2.05-.731 4.014-1.653 5.955-2.617.317-.158.449-.532.306-.933-.022-.08-.169-.184-.251-.178a1.312 1.312 0 00-.514.151c-1.849 1.04-3.861 1.697-5.824 2.46-1.302.51-2.697.646-4.053.922a1.013 1.013 0 01-.361.01c-2.029-.28-4.079-.454-6.021-1.197-.454-.173-.886-.363-1.279-.65-.247-.179-.504-.336-.755-.493-.17-.109-.487.027-.624.222-.453.65-.125 1.311.318 1.566.831.488 1.695.916 2.575 1.306.312.141.711.081 1.072.114.252.027.454.14.635.314.147.141.169.325.12.488-.055.163-.164.32-.279.455-2.22 2.585-5.009 4.282-8.307 5.17-.35.098-.7.19-1.039.31-.979.357-1.985.487-3.024.454a58.637 58.637 0 00-3.084-.038c-2.106.038-4.064-.52-5.956-1.36-.213-.092-.405-.254-.59-.4-.247-.196-.29-.58-.099-.797.438-.499.88-.987 1.323-1.48a5.04 5.04 0 001.072-1.859.909.909 0 00-.136-.85c-.186-.26-.591-.342-.777-.13-.405.444-.81.894-1.181 1.36a14.472 14.472 0 01-2.035 2.048c-1.722 1.43-3.565 2.65-5.621 3.577-1.904.862-3.878 1.328-5.967 1.273a58.335 58.335 0 01-3.079-.14c-.907-.076-1.788-.266-2.597-.716-.421-.238-.613-.184-.946.174-.82.883-1.728 1.669-2.658 2.438-1.072.9-2.308 1.502-3.566 2.092-1.203.57-2.406 1.1-3.724 1.371-.88.185-1.74.483-2.62.71-1.29.336-2.603.558-3.937.493a36.395 36.395 0 01-3.434-.287c-1.017-.146-1.964-.569-2.915-.954-.558-.227-1.11-.471-1.674-.683-.705-.265-1.416-.27-2.105.093-.585.309-1.181.601-1.755.932-1.067.612-2.237.889-3.446.992a15.93 15.93 0 01-3.795-.18c-2.084-.34-4.162-.758-6.273-.92a4.95 4.95 0 01-.891-.158c-1.745-.482-3.5-.927-5.124-1.745-.804-.406-1.68-.655-2.434-1.187-.75-.53-1.312-1.235-1.958-1.87-.251-.249-.536-.476-.804-.72-.202-.195-.093-.607.175-.759.378-.222.793-.265 1.22-.292.662-.044 1.318-.06 1.974-.206 1.668-.38 3.177-1.122 4.703-1.843.547-.255 1.056-.585 1.619-.802.569-.222 1.072-.537 1.58-.856 2.532-1.599 2.133-1.366 4.55-1.36.782 0 1.57.01 2.357-.017.482-.01.958-.076 1.439-.135.601-.065 1.197-.163 1.794-.228a9.062 9.062 0 002.788-.731c.602-.271 1.22-.515 1.822-.78.224-.098.426-.223.634-.348.328-.2.563-.634.498-.894-.082-.336-.53-.742-.92-.78-.294-.027-.612-.07-.896-.011-1.712.363-3.473.428-5.162.921a11.394 11.394 0 01-3.588.44c-1.214-.033-2.423-.033-3.631-.033a7.503 7.503 0 01-2.647-.51c-.678-.255-1.373-.471-2.05-.715a2.53 2.53 0 00-1.253-.108c-.17.027-.34.113-.492.205-.46.293-.668.851-.257 1.399.175.238.42.444.678.585.787.439 1.553.927 2.455 1.116.093.022.18.141.24.233.077.12.034.233-.108.293-1.718.72-3.418 1.49-5.168 2.14-1.302.483-2.713.58-4.091.748-1.985.244-3.981.185-5.972.066-.738-.044-1.427-.282-2.089-.57-1.504-.645-2.887-1.495-4.112-2.59a5.563 5.563 0 01-1.532-2.195c-.328-.84-.607-1.69-.678-2.596-.082-1.078-.383-2.13-.262-3.219.082-.77.175-1.544.3-2.308.06-.358.258-.672.542-.91.197-.158.421-.277.667-.212.585.146 1.17.292 1.74.493 1.4.498 2.854.542 4.298.412 1.318-.125 2.63-.369 3.85-.927.158-.07.311-.173.42-.303.05-.06.039-.266-.021-.31-.137-.108-.312-.216-.476-.216-.782-.022-1.57-.005-2.357-.005-1.088.005-2.177-.017-3.26.016-1.252.038-2.367-.434-3.488-.867-.575-.217-1.007-.662-1.433-1.079a1.044 1.044 0 01-.29-.997c.191-.818.421-1.62.897-2.33 1.832-2.704 4.38-4.433 7.503-5.333 1.263-.368 2.581-.602 3.926-.569.607.016 1.209.01 1.81.016.252 0 .46-.178.46-.444.022-1.734.951-3.062 1.963-4.346.257-.32.607-.597.963-.803 1.159-.655 2.384-1.116 3.73-1.295 2.05-.276 4.095-.336 6.152-.27 1.525.053 2.985.379 4.402.948.81.32 1.482.785 1.99 1.495.449.635.908 1.263 1.384 1.924z" fill="#000"/></svg>