<svg width="151" height="53" fill="none" xmlns="http://www.w3.org/2000/svg"><path fill-rule="evenodd" clip-rule="evenodd" d="M38.176 33.758c0-.024-.005-.048-.005-.072-.366 0-.737.024-1.103-.006-1.28-.102-2.564-.174-3.777-.678-.97-.402-1.933-.81-2.908-1.194-.698-.282-1.07-.858-1.263-1.584-.083-.324-.05-.66.172-.936a.914.914 0 011.013-.258.605.605 0 01.166.078c.826.474 1.718.66 2.631.792 1.269.186 2.537.498 3.806.588 1.462.096 2.935.162 4.398-.048.432-.06.853-.018 1.268.108.294.09.51.39.504.732-.005 1.038-.653 1.914-1.628 2.076-1.08.18-2.183.27-3.274.402zm49.963-.51c.262-.034.458.098.655.242.883.633 1.762 1.277 2.662 1.888 1.718 1.167 3.584 1.949 5.62 2.4 1.652.364 3.316.672 4.991.815 2.16.187 4.332.231 6.492-.149 1.069-.187 2.166-.187 3.213-.49.693-.198 1.381-.429 2.046-.704.382-.16.737-.413 1.069-.672.77-.617.966-1.602.481-2.455-.508-.898-1.064-1.768-1.577-2.66-.12-.198-.153-.446-.213-.677-.011-.038.038-.11.082-.148.027-.033.098-.06.131-.05.104.05.224.1.305.187.568.628 1.124 1.272 1.697 1.9 1.408 1.547 3.055 2.752 5.052 3.402 1.2.39 2.417.749 3.628 1.096 1.227.346 2.477.517 3.753.457.786-.039 1.571-.017 2.357-.044.736-.028 1.407-.281 2.018-.71.202-.144.284-.469.131-.628-.502-.529-.998-1.057-1.511-1.57-.48-.473-.9-.98-1.211-1.574-.027-.05-.038-.127-.016-.17.06-.155.169-.171.289-.072.229.192.474.374.693.578 1.707 1.596 3.759 2.632 5.843 3.595.425.198.927.253 1.396.352.764.16 1.533.248 2.275.545 1.26.512 2.619.534 3.928.353 1.189-.165 2.313-.672 3.29-1.42.382-.293.731-.628 1.091-.953 1.146-1.03 1.451-2.329 1.195-3.81-.191-1.09-.551-2.12-1.157-3.05-.131-.198-.273-.396-.398-.605-1.031-1.795-1.015-1.62-2.886-2.605-2.226-1.167-4.566-1.47-7.005-.754a1.997 1.997 0 01-.349.077c-1.146.105-2.068.611-2.755 1.547-.066.088-.208.121-.36.21-.529-.909-1.348-1.537-2.204-2.11-1.604-1.078-3.23-2.119-5.101-2.697-.404-.12-.813-.22-1.217-.336-1.718-.484-3.344-.099-4.942.529-.219.082-.41.248-.606.385-.251.17-.475.408-.747.507-.879.308-1.37.947-1.659 1.794-.016.05-.076.089-.164.171-.229-.17-.48-.336-.698-.534-2.264-2.031-4.975-3.188-7.818-4.057-.982-.298-2.035-.22-3.055-.083-.223.033-.442.176-.649.297-.256.16-.491.347-.742.518-.125.088-.393-.022-.431-.187-.147-.71-.294-1.426-.431-2.136-.082-.419-.109-.848-.213-1.261-.36-1.377-.954-2.61-2.002-3.612-.791-.754-1.549-1.53-2.46-2.147-.551-.363-1.031-.837-1.555-1.244-.338-.253-.682-.501-1.064-.683-1.287-.622-4.337-1.255-5.783-1.3a5.518 5.518 0 00-2.291.436c-.376.154-.726.424-1.255.347-.273-.622-.578-1.278-.85-1.95-.634-1.563-1.681-2.807-2.969-3.848-1.042-.847-2.247-1.442-3.507-1.844-1.779-.561-3.59-1.018-5.44-1.3-.938-.142-1.795.04-2.656.298-.404.121-.775.353-1.174.474-1.953.594-3.005 2.125-3.9 3.815-.17.314-.23.688-.3 1.04-.087.48-.137.964-.224 1.443-.016.082-.163.137-.284.231-.349-.32-.698-.644-1.058-.969a6.76 6.76 0 00-1.975-1.272c-1.986-.803-4.042-1.15-6.186-1.002-.835.06-1.512.397-2.046 1.013a9.612 9.612 0 00-1.413 2.12c-.344.721-.573 1.464-.557 2.28.006.484-.032.974-.054 1.458 0 .05-.038.138-.071.143-.11.011-.273.05-.327-.01-1.173-1.344-2.652-2.28-4.103-3.265A14.365 14.365 0 0043.6 6.16c-.829-.165-1.642-.368-2.498-.335-1.49.055-2.968 1.068-3.492 2.483-.229.622-.365 1.271-.54 1.91-.29-.06-.404-.297-.518-.496-1.386-2.422-3.285-4.332-5.576-5.89-1.811-1.228-3.682-2.307-5.815-2.858C23.759.605 22.35.286 20.884.44c-.235.028-.48.033-.71-.016-.938-.198-1.795.143-2.646.424-.523.176-.943.55-1.26 1.007a10.3 10.3 0 00-.725 1.26c-.426.86-.535 1.735-.077 2.632.11.21.164.446.268.722-.208.044-.382.132-.524.099-.764-.16-1.522-.37-2.286-.529-.47-.093-.95-.176-1.43-.187-1.445-.033-2.896-.077-4.342-.022-1.49.05-2.826.6-3.9 1.657-.47.463-.917.991-1.24 1.564-.572.996-1.052 2.053-1.548 3.094-.12.264-.186.578-.224.875C0 14.782.038 16.544.284 18.3c.147 1.04.556 1.998 1.134 2.863 1.173 1.74 2.7 3.105 4.48 4.184a3.991 3.991 0 001.87.589c.835.055 1.659.27 2.488.418 1.648.287 3.246.105 4.796-.512.894-.357 1.773-.754 2.662-1.128.164-.066.333-.121.49-.176.35.424.17.814-.037 1.194-.213.386-.562.644-.944.82-1.146.535-2.193 1.278-3.42 1.592-.48.616-.77 1.266-.956 1.987-.196.749-.114 1.443.273 2.109.306.523.644 1.03.939 1.558a5.291 5.291 0 002.165 2.141c1.55.81 3.028 1.751 4.67 2.373 1.473.562 2.941.584 4.392-.082.218-.1.442-.193.66-.292 1.211-.556 2.395-1.15 3.284-2.197.028-.038.131-.055.164-.027.087.06.207.132.23.22.103.5.065.99-.317 1.36-.387.38-.786.76-1.228 1.062-.496.342-1.03.628-1.57.892-.645.325-.748.97-.383 1.542.557.88 1.31 1.59 2.095 2.257.742.628 1.49 1.244 2.232 1.866.61.512 1.298.881 2.073 1.063.938.22 1.876.435 2.825.61.47.095.96.122 1.44.122 1.267.011 2.538.028 3.798-.027.9-.039 1.795-.237 2.695-.276.796-.038 1.55-.236 2.302-.424.47-.115.95-.247 1.364-.473 1.02-.55 2.111-.892 3.18-1.294.393-.149.77-.341 1.146-.523.153-.072.175-.363.05-.479-.404-.363-.814-.721-1.212-1.09-.845-.782-1.697-1.558-2.52-2.362a8.592 8.592 0 01-1.452-1.86 1.894 1.894 0 01-.267-1.223c.017-.083.153-.204.246-.22a1.272 1.272 0 01.993.325c1.342 1.244 2.984 2.053 4.446 3.121.834.606 1.756 1.046 2.733 1.399 1.702.616 3.42 1.183 5.237 1.354.24.022.475.06.71.121.245.06.42.231.54.452.25.451.283.913.07 1.398-.163.374-.48.611-.84.55a33.69 33.69 0 01-2.122-.44c-.48-.116-.944-.187-1.43-.116-.201.028-.463.309-.435.507.027.237.049.484.13.71.442 1.233 1.228 2.235 2.204 3.072 1.326 1.156 2.766 2.147 4.365 2.896.49.231.998.408 1.55.468.965.116 1.925.105 2.89.055.48-.022.96-.093 1.446-.093 1.037-.011 2.008-.314 2.995-.595 1.38-.385 2.499-1.184 3.53-2.136a.474.474 0 00.027-.655 34.354 34.354 0 01-2.902-4.184c-.682-1.151-1.26-2.351-1.811-3.573-.257-.562-.448-1.124-.366-1.757.066-.572-.24-.914-.747-1.095a52.762 52.762 0 00-2.057-.678 31.037 31.037 0 01-5.494-2.3 15.123 15.123 0 01-3.23-2.33c-.785-.743-1.44-1.63-2.121-2.477-.142-.176-.088-.457.158-.606 1.173.617 2.351 1.223 3.519 1.856 1.702.92 3.48 1.668 5.27 2.378a62.506 62.506 0 004.593 1.64c1.839.573 3.71 1.058 5.625 1.3.775.1 1.56.132 2.34.198.78.066 1.364.964 1.124 1.75-.136.43-.42.728-.878.821-1.211.248-2.4.143-3.59-.137-.17-.039-.35-.05-.524-.072-.12-.011-.322.286-.273.407a11.374 11.374 0 001.877 3.105c.431.502.911.98 1.43 1.393 1.653 1.322 3.333 2.615 5.111 3.772 1.779 1.15 3.705 1.679 5.832 1.563 1.817-.099 3.58-.369 5.308-.958 1.479-.506 2.668-1.42 3.705-2.532.573-.622.944-1.41 1.255-2.208.087-.22.109-.473.114-.716.017-.484.006-.969.006-1.332-.273-.562-.753-.573-1.124-.727-1.795-.748-3.454-1.723-4.943-2.984-.093-.082-.19-.154-.278-.236-1.528-1.481-2.886-3.1-3.994-4.922.033-.006.06-.017.093-.022a.466.466 0 00-.082-.028l.033.088z" fill="#1A1919"/></svg>