<svg xmlns="http://www.w3.org/2000/svg" width="433.08" height="307.14"><defs><style>.cls-1{fill:#fff}</style></defs><g id="Слой_2" data-name="Слой 2"><g id="picture"><g id="bus"><path class="cls-1" d="M4.3 157.22c.58-1 2-2.14 3.12-1.21a1.36 1.36 0 01.63.4 2.68 2.68 0 01.3 2.06c-.09 1-.17 1.91-.25 2.87a5.59 5.59 0 01-.41 2.3 2.63 2.63 0 01-1.71 1l-2.48.73a6.06 6.06 0 00.32 1.18 126.13 126.13 0 0120.56 3.89c1.45.4 2.9.84 4.34 1.29.8-10.12 1.47-24 1.39-27.58-.08-4.11-8.81-16.13-9.58-23.67s2.74-6.11 2.74-6.11l5.46.79c1.82.27 2.86-.51 9.49-1.41 9.38-1.27 22.87 2.37 33.92 3 9.88.6 294.59 43.5 296.27 44.68s13.52 2.88 47.82 9.69c21.35 4.24 18.26 53.17 12.87 89.51a4.87 4.87 0 00-1.3.19 3.71 3.71 0 00-2.36 3.06c-.34 1.64-.34 3.34-.57 5a.72.72 0 00.61.82l1 .14a.67.67 0 00.41.27h.11l.14.05.44.17c-.16.95-.32 1.89-.48 2.81a4.35 4.35 0 00-2.76.15c-1.69.73-2.45 2.55-2.9 4.22a48.06 48.06 0 00-.85 5.33.74.74 0 00.43.77 30.62 30.62 0 004 .81c-1.85 9.53-1.65 10-1.65 10s-15.11 5-45.11 3.65c-9.58-.44-33.46-3.18-31-6 10-11.55-3.67-42.27-11.6-45.27-6.23-2.37-23.21-8.67-30.66-6.29-5.78 1.84-18.53 11-21.09 17.38-2.26 5.6-6.14 23.26-6.14 23.26L165.26 263l-.39-3.77s3-33.92-20.72-42.93c-36.15-13.68-46.22 14.07-46.71 27.62-.11 2.9 2.06 11.44 2.06 11.44s-53.27-10.48-78.74-14.16C18.3 240.84 5 237.58 2.44 233c-1.23-2.25 0-13 0-13A19.42 19.42 0 010 217.77c.55-2 1.2-9 1.58-10.92.27-1.44.52-4.95.92-6.37.36 0 1.88.63 1.82.27-.52-2.86.68-11.05.68-11.05l10.67-3.1s10.53-2.19 11.7-3.88a18.25 18.25 0 00.8-4.58L19.55 171C14.3 169.8 9 168.74 3.7 167.86a.41.41 0 01-.19 0h-.27a.37.37 0 01-.24-.12.45.45 0 01-.18-.07l-.11-.11a.64.64 0 01-.08-.14v-.18c-.98-3.53.02-7.17 1.67-10.02zm24 19.82c.12-1.16.24-2.45.35-3.84q-3.53-.93-7.08-1.75z"/><path d="M196.76 173.9q-14.58-2-29.13-4.19c-5.22-.79-8-1.25-12.94-2.05-1 5.46-1.88 10.94-2.87 16.39-.61 3.4-2.39 8.45 1.37 10.67 1.71 1 4 1.14 5.94 1.52l6.28 1.25c8.38 1.65 16.89 2.4 25.26 4.06l12.57 2.45c2.07.41 4.14.83 6.22 1.23 1.67.32 5.27.84 7 .54 4-.7 5.53-3 6.21-6.7s2.42-16.62 3.13-21.5q-14.54-1.7-29.04-3.67zM190.64 171.91a.4.4 0 01-.11.19q9.58 1.35 19.19 2.59l16.18 2c0-.35.09-.62.12-.78.63-3.49 2.9-11.56 2.44-15.14-.44-3.41-10-4.73-11.8-5.08q-3.15-.6-6.3-1.16-6.31-1.12-12.65-2c-1.37-.2-2.74-.38-4.11-.57a85.73 85.73 0 01-2.96 19.95zM180.56 170.7c3.05.44 6.11.86 9.17 1.29a.37.37 0 010-.21 85.73 85.73 0 003-20q-10.19-1.36-20.42-2.26c-3.71-.32-11.48-2.7-13.59-.69-1.94 1.84-1.67 7.19-2.37 10.46-.52 2.48-1 5-1.45 7.46 9.28 1.5 16.18 2.58 25.66 3.95z"/><path id="wheel_wht_1" data-name="wheel wht 1" class="cls-1" d="M104.54 243.29a29.92 29.92 0 01.63-3.16c3.61-13.77 18-23.74 32.19-20a27.25 27.25 0 013.64 1.27 7.36 7.36 0 014.26.78c5.8 2.85 11 7 12.41 13.65 0 .2.07.4.1.6 4.05 8.4 3.47 20 .85 28.51-2.12 6.9-7 13.09-14.07 15.32a57.58 57.58 0 01-8.71 2c-2.05.06-16.77-.76-26.51-10.53-1.31-1.31-2.74-4.76-3.62-7-3.05-7.81-3.45-13.57-1.17-21.44z"/><path id="wheel_wht_2" data-name="wheel wht 2" class="cls-1" d="M284 267.71a25.65 25.65 0 01.64-3.16c3.76-13.75 19.27-23.55 34.81-19.61a31.71 31.71 0 014 1.31 8.66 8.66 0 014.65.84c6.36 2.93 12 7.2 13.7 13.83.05.2.08.4.12.6 4.52 8.47 4 20.09 1.3 28.58-2.22 6.88-7.49 13-15.14 15.16a68.85 68.85 0 01-9.46 1.88c-2.23 0-18.28-1-29-10.89-1.45-1.34-3.05-4.81-4.05-7.09-3.41-7.83-3.93-13.6-1.57-21.45z"/><path class="cls-1" d="M221.41 121.12c7.87.5 15.74 1.15 23.61 1.73 3.08.22 6.15.51 9.24.65 5.66.26 11.32.45 17 .62.35 0 1.05-.4 1-.51-.11-.59-.24-1.44-.66-1.67a8 8 0 00-3-1c-2-.21-3.95-.17-5.92-.31-1.19-.08-1.27-.24-.56-1.21 1.58-2.16 3.23-4.27 4.85-6.41.49-.64 1-1.26 1.45-2a2.46 2.46 0 012.11-1.37 3.67 3.67 0 002.05-1.57c.88-1.17 1.47-2.54 2.31-3.74 1.42-2 2.93-4 4.41-6a11.49 11.49 0 00.9-1.21c.82-1.47.25-2.6-1.39-2.87-2-.32-2-.31-.82-2 1.39-2 2.68-4.06 4.1-6 .75-1-.11-2 0-3 0-.08-.48-.29-.75-.32a15.35 15.35 0 00-2.62-.14 4.49 4.49 0 00-1.62.6c-.13.06-.09.43-.13.66a3.14 3.14 0 00.68 0c.3 0 .59-.14.89-.21a4.31 4.31 0 01-.35 1c-1.76 2.72-3.48 5.47-5.33 8.13a3.07 3.07 0 01-1.9 1.25c-3 .31-4.78 2.16-6.31 4.49-1.67 2.53-3.42 5-5.17 7.5a1.18 1.18 0 01-.79.5 1.63 1.63 0 00-1.71 1.58c-.1 1 .58 1.49 1.46 1.59 1.07.11.88.56.39 1.13-1.32 1.53-2.68 3-4 4.59-.9 1.08-1.71 2.25-2.61 3.34a1.5 1.5 0 01-1 .57c-6.25-.54-12.5-1.13-18.75-1.7-.94-.09-1-.38-.4-1.07a41.89 41.89 0 005.79-9.23 6.28 6.28 0 011-1.3c.81-1 1.65-1.91 2.45-2.89.35-.42 1-.91-.12-1.29-.12 0-.1-.81 0-1.18.25-.77.67-1.48.89-2.26a1.41 1.41 0 00-.84-2c-.68-.29-1.62-.65-1.21-1.77a2.29 2.29 0 012.42-1.36c1.44.48 2.28-.13 3-1.23 1-1.5 2.15-3 3.2-4.43a3.4 3.4 0 00.88-3.06c-.33-1.09.66-1.64 1.18-2.2 5.72-6.19 10.26-13.28 15.5-19.84 4-5 8.12-10 12.23-14.92 1.62-1.94 3.39-3.75 5-5.66q8.68-10 17.32-20c3.09-3.55 6-7.3 9.33-10.59a57.13 57.13 0 005.91-6.3 9.85 9.85 0 00.64-1c0-.06 0-.18-.08-.6-.84.92-1.54 1.7-2.27 2.45-2.47 2.54-5 5-7.44 7.6-4.08 4.36-8.1 8.77-12.11 13.2-3.26 3.61-6.42 7.3-9.7 10.89-3.48 3.8-7.2 7.39-10.54 11.31-5.74 6.75-11.28 13.67-16.89 20.53-.2.23-.52.52-.49.74.22 1.56-1 2.37-1.76 3.34-1.49 1.84-2.76 3.87-4.82 5.19a8.81 8.81 0 00-1.33 1.45c-.47.5-.55.88.13 1.32.3.2.41.68.61 1-.43-.06-.87-.1-1.31-.18-.28 0-.68-.34-.81-.24-1.5 1.2-3.52 1.86-4.27 3.84a1.81 1.81 0 00.28 1.51c.43.54.32.82 0 1.29-1.4 1.92-2.75 3.88-4.14 5.82-.39.54-.66 1.18-1.66.88-.44-.13-1.23.41-1.64.85-1.88 2-3.66 4.06-5.5 6.08-1.26 1.38-2.58 2.7-3.8 4.1a1.77 1.77 0 00-.33 1.29 3.34 3.34 0 01-.75 3.16 62.91 62.91 0 00-4 5.15 2 2 0 01-1.78.87 48 48 0 00-7.11.33 16.41 16.41 0 00-4.39 1.94c-.35.18-.53.7-.79 1.06a6.78 6.78 0 001.23.27c4.04.16 8.14.18 12.23.45zm43.37-10.39a4.36 4.36 0 01.82-.68l1 .3a4.81 4.81 0 01-.38.79l-6.41 8.43c-.06.08-.1.22-.17.24-.35.09-.72.15-1.08.22a3.84 3.84 0 01.24-.77 13 13 0 01.9-1.41q2.51-3.57 5.08-7.12zm-5.7-1.38l-1.09-1c.24-.22.61-.67.69-.63a10.83 10.83 0 011.24 1zm-4.75 9.31a6.49 6.49 0 01.66-.83c1.73-2 3.55-3.89 5.13-6a4 4 0 012.35-1.57 3 3 0 011 .08 4.38 4.38 0 01-.37.79c-2.05 2.7-4.08 5.41-6.19 8a6.09 6.09 0 01-1.61 1l-1.46-.53a10.24 10.24 0 01.49-.94zm-19.78-9.07c.1-.17.39-.22.59-.32a1.46 1.46 0 01-.09.64c-.92 1.42-1.87 2.83-2.82 4.24a2.9 2.9 0 00-.29-.19c.86-1.46 1.72-2.96 2.61-4.37zm-4.84-2.33c.37-.07.75-.12 1.13-.18l.07.36-1.25.06c.02-.08.02-.23.05-.24zm-5.89 8.84c1.15-1.67 2.35-3.3 3.49-5 .69-1 1.68-1.29 3.19-1.43-2 2.5-3.8 4.75-5.59 7-.1.11-.23.26-.35.27a9 9 0 01-1 0 3.59 3.59 0 01.26-.84z"/><path class="cls-1" d="M347.21 0c-1.7 2.38-3.44 4.74-5.09 7.15a218.75 218.75 0 01-19.7 24.09c-3.29 3.58-6.67 7.09-9.65 10.92-4.67 6-9.94 11.47-14.88 17.22-1.43 1.67-2.54 3.62-3.87 5.38-3.45 4.57-6.94 9.1-10.39 13.66a10.69 10.69 0 00-1.18 1.94c-.22.47-.88 1-.07 1.55s1.38.65 2-.19c1.15-1.54 2.45-3 3.49-4.59a203.29 203.29 0 0113.84-19c2.89-3.52 6-6.84 8.91-10.36 2.56-3.12 4.89-6.44 7.4-9.61 1.41-1.78 2.92-3.5 4.48-5.16a182 182 0 0018.38-22.6c2.29-3.4 4.44-6.79 6.66-10.18zM292.05 141.38H292a1.61 1.61 0 00.15-.26 1.85 1.85 0 00-.95-2.42q-12.07-3.63-24.37-6.5a393.21 393.21 0 00-69-9.64 176.42 176.42 0 00-19.78-.16c-1.16-.28-5.82 2-6.13 2-2.3 0-2.92 3.24-.52 3.64q12.77 2.14 25.56 4.06 22.76 3.4 45.63 6 5.4.63 10.81 1.21a344.93 344.93 0 0038.1 5.71c2.37.22 2.9-3.42.55-3.64z"/><path fill="none" stroke="#000" stroke-miterlimit="10" d="M430.7 245.72L45.54 186.35"/><path d="M265 184.44c3.06.44 6.11.87 9.17 1.29a.37.37 0 010-.21 86 86 0 003-21.21l-2-.34q-6.33-1-12.67-1.88-3.18-.43-6.36-.8c-1.81-.22-11.33-1.86-12.79 1.25-1.52 3.27-1.8 11.65-2.26 15.17 0 .41-.23 1.5-.48 3 8.67 1.39 15.39 2.43 24.39 3.73z"/><path d="M313.48 172.32c-1.4-2.54-9.52-2.64-13.16-3.46q-11.06-2.49-22.24-4.39a85.74 85.74 0 01-3 21.18.49.49 0 01-.11.2q9.59 1.34 19.2 2.58 8.22 1.06 16.47 2a.46.46 0 01-.13.91q-14.67-1.75-29.31-3.75t-29.13-4.19c-4.73-.71-7.42-1.16-11.6-1.83-1 5.8-2.76 16.07-3.16 19.21-.47 3.72.29 6.39 3.88 8.28 1.52.79 5.27.48 6.95.68l6.3.72c4.25.48 8.34 1.86 12.58 2.34 8.49 1 16.82 2.83 25.31 3.79l6.36.72c1.94.22 4.19.79 6.12.35 4.26-1 4.1-6.33 4.54-9.75 1.08-8.3 2.39-16.61 3.22-25 .33-3.22 2.2-8.24.91-10.59z"/><path id="wheel_blk_1" data-name="wheel blk 1" d="M117.76 247.13a13.09 13.09 0 01.32-1.61c1.83-7 9.13-12.06 16.35-10.16a15.26 15.26 0 011.87.64 3.71 3.71 0 012.16.4c2.95 1.45 5.57 3.58 6.31 6.94v.3c2.06 4.27 1.76 10.17.43 14.49a11.44 11.44 0 01-7.15 7.79 29 29 0 01-4.43 1c-1 0-8.52-.38-13.47-5.35a13.1 13.1 0 01-1.84-3.57 15 15 0 01-.55-10.87z"/><path id="wheel_blk_2" data-name="wheel blk 2" d="M299.18 271.54a13 13 0 01.31-1.58c1.82-6.89 9.11-11.88 16.34-10a13.57 13.57 0 011.86.63 3.79 3.79 0 012.16.4c2.95 1.43 5.58 3.54 6.32 6.85l.06.3c2.06 4.21 1.78 10 .46 14.29a11.3 11.3 0 01-7.14 7.66 30.17 30.17 0 01-4.42 1c-1 0-8.52-.4-13.48-5.3a12.78 12.78 0 01-1.85-3.52 14.73 14.73 0 01-.62-10.73z"/><g><path d="M99.6 159l9.17 1.29a.37.37 0 010-.21 85.53 85.53 0 003-21.28c0-.59.92-.45.91.13a86 86 0 01-3 21.28.49.49 0 01-.11.2q9.6 1.34 19.2 2.58c5.08.66 7 .84 11.69 1.39.37-2.91.73-5.82 1-8.73.34-3.33 2.21-8.34.92-10.69-1.4-2.55-9.53-2.64-13.16-3.46q-12.5-2.82-25.14-4.89-6.33-1-12.67-1.89-3.18-.42-6.36-.8c-1.81-.21-11.33-1.86-12.79 1.26s-1.8 11.65-2.26 15.17c-.07.49-.32 2-.66 4.05 9.58 1.53 20.77 3.23 30.26 4.6zM115.81 162.2q-14.59-2-29.14-4.19c-5.23-.79-12.1-1.84-17.47-2.7-1 5.91-2.6 15.2-3 18.16-.47 3.71.28 6.39 3.88 8.27 1.52.8 5.27.49 7 .69 2.1.25 4.2.48 6.3.71 4.24.48 8.34 1.87 12.58 2.35 8.49 1 16.82 2.83 25.31 3.79l6.36.72c1.94.22 4.19.78 6.12.34 4.26-1 4.09-6.32 4.54-9.74.66-5.1 1.4-10.2 2.08-15.31-9.16-1.1-15.19-1.81-24.56-3.09z"/></g><g><path d="M352.53 191.12l5.27.86q.69-6 1.37-12.08c.06-.59 1-.46.91.13q-.69 6-1.37 12.1Q370 194 381.3 196q7.8 1.39 15.6 2.87c.14-1.24.29-2.49.42-3.73.33-3.33 2.2-8.34.91-10.69-1.4-2.55-9.52-2.64-13.16-3.46q-12.49-2.82-25.14-4.89-6.31-1-12.67-1.89c-2.12-.28-4.23-.55-6.35-.8-1.81-.21-11.34-1.86-12.79 1.26-1.23 2.62-1.65 8.52-2 12.57q13.22 1.76 26.41 3.88zM368.66 194.69q-14.39-2.43-28.82-4.59l-13.81-2c-.06.63-.12 1.2-.18 1.68-.25 1.91-3.26 18.91-3.8 23.12-.47 3.71.29 6.39 3.89 8.27 1.51.8 5.26.49 6.94.69 2.1.25 4.2.48 6.31.71 4.24.48 8.33 1.87 12.57 2.35 8.49 1 16.82 2.83 25.31 3.79l6.36.72c1.95.22 4.19.78 6.13.34 4.25-1 4.09-6.32 4.53-9.74.88-6.76 1.9-13.53 2.7-20.31q-14.04-2.64-28.13-5.03z"/></g><path d="M429.24 185.15c-28.19-5.34-49.41-8.92-77.68-13.8q-14.6-2.52-29.21-4.95a.19.19 0 000-.07 31.44 31.44 0 013.32-12h-1a32.09 32.09 0 00-3.2 11.84v.05q-42.3-7-84.69-13.39v-.13c.16-2.17.33-4.34.49-6.52.05-.58-.86-.72-.91-.13-.16 2.17-.33 4.35-.49 6.52a.33.33 0 000 .14q-17.5-2.62-35-5.12-75.87-10.8-152.08-19.37c-.55-.06-.68.85-.13.91q42.75 4.81 85.43 10.33 75.65 9.79 151 21.79c50.47 8 94.6 16.33 144.82 25.85.51.1-.13-1.85-.67-1.95zM168 236.33c10.72 2.62 21.63 4.52 32.48 6.52s21.6 4 32.39 6.07c6 1.14 12.09 2.36 18.16 3.38.92.15.39-2-.41-2.18-10.77-2.27-21.62-4.18-32.43-6.25s-21.59-4.24-32.42-6.22c-6-1.11-12-2.26-18.1-3.08-.78-.1-.28 1.61.33 1.76zM181 245.62c10.36 1.8 20.75 3.47 31 5.67s20.55 4.15 30.86 6c5.82 1.07 11.64 2.29 17.48 3.2.87.14.37-1.87-.37-2-10.26-2.07-20.65-3.61-31-5.33s-20.47-3-30.64-4.86c-5.82-1.08-11.65-2.13-17.48-3.2-.2 0-.1.46.09.49z"/></g></g></g></svg>