<svg width="1920" height="116" viewBox="0 0 1920 116" fill="none" xmlns="http://www.w3.org/2000/svg">
<mask id="mask0" mask-type="alpha" maskUnits="userSpaceOnUse" x="0" y="0" width="1920" height="116">
<rect width="1920" height="115.5" fill="#C4C4C4"/>
</mask>
<g mask="url(#mask0)">
<path d="M2380.62 206.395C2366.65 123.453 2313.76 141.647 2286.12 126.668C2268.91 117.351 2250.95 110.601 2232.58 106.547C2213.98 102.764 2195.16 101.099 2176.34 101.571C2171.72 101.571 2167.09 101.571 2162.47 101.382C2161.59 101.338 2160.71 101.28 2159.84 101.222C2150.52 99.0213 2141.53 94.8825 2133.23 88.9644C2051.49 29.2258 2001.15 19.0051 1965.32 43.0111C1964.65 43.4548 1999.47 72.1092 2009.55 84.476C2019.62 96.8428 2030.83 113.021 2034.74 123.759C2036.06 127.396 2035.66 133.659 2032.81 135.842C2030.31 137.74 2032.47 136.802 2031.13 133.179C2024.5 114.484 2014.79 97.9186 2002.69 84.6578C1984.35 64.8711 1968.12 40.8287 1927.81 28.462C1887.5 16.0953 1835.63 6.2819 1788.4 36.464C1741.18 66.6461 1738.83 66.1442 1730.05 87.9241C1729.4 89.5245 1728.79 91.1467 1728.22 92.7762C1712.47 84.804 1695.97 79.6645 1679.16 77.4997C1644 72.7349 1607.91 80.1258 1573.9 91.6996C1559.58 96.5808 1543.5 106.249 1536.14 123.519C1499.8 121.479 1484.96 67.7447 1388.66 84.4761C1320.07 96.3936 1276.94 140.873 1277.39 202.661C1277.54 223.536 1265.73 213.45 1241.01 234.776C1205.39 261.537 1265.73 348.513 1253.53 384.474C1249.12 397.478 1249.68 407.602 1234.6 420.853C1192.23 458.069 1189.98 507.768 1189.98 532.5H2422.5C2422.5 421.911 2363.88 440.738 2357.72 373.734C2354.37 350.452 2394.58 289.337 2380.62 206.395Z" fill="white"/>
<path fill-rule="evenodd" clip-rule="evenodd" d="M206.839 156.997L206.839 157.006C206.391 157.037 205.958 157.057 205.518 157.096C203.023 157.393 200.558 157.075 198.085 156.562C195.342 156 192.643 155.142 189.945 154.314C187.869 153.687 185.829 152.94 183.82 152.016C182.929 151.61 182.078 151.035 181.243 150.46C180.658 150.042 180.177 149.442 179.884 148.625C179.75 148.235 179.943 147.56 180.245 147.413C180.74 147.175 181.243 147.14 181.761 147.27C183.051 147.581 184.341 147.912 185.626 148.282C189.414 149.367 193.182 150.521 196.977 151.557C199.783 152.319 202.616 152.768 205.488 152.426C205.919 152.367 206.36 152.357 206.801 152.336C209.137 152.197 211.491 152.114 213.685 150.796C214.217 150.477 214.831 150.474 215.414 150.639C216.02 150.821 216.458 151.317 216.656 152.112C216.834 152.83 216.592 153.674 216.091 154.155C215.864 154.375 215.603 154.559 215.35 154.751C213.727 155.942 211.97 156.559 210.133 156.762C209.034 156.886 207.94 156.921 206.839 156.997ZM101.273 151.213L100.108 151.292C96.7139 151.541 93.3276 151.781 89.9342 152.039C88.7694 152.127 87.6277 152.015 86.4886 151.773C85.5535 151.57 84.6821 151.206 83.8511 150.685C83.6669 150.56 83.5036 150.372 83.3339 150.22C83.1557 150.051 83.0806 149.538 83.1401 149.275C83.2222 148.994 83.4271 148.859 83.6284 148.828C84.4108 148.723 85.2014 148.626 85.9937 148.572C90.041 148.304 94.0812 148.054 98.1284 147.787C98.6333 147.752 99.146 147.717 99.6396 147.597C102.548 146.907 105.529 146.85 108.445 146.151C111.662 145.37 114.766 144.313 117.624 142.367C118.124 142.022 118.632 141.677 119.15 141.391C119.95 140.94 120.789 141.65 120.746 142.714C120.74 143.146 120.631 143.542 120.412 143.911C119.754 144.982 118.889 145.74 117.925 146.367C115.488 147.922 112.855 148.878 110.164 149.562C108.753 149.917 107.314 150.179 105.902 150.509C105.809 150.524 105.74 150.736 105.691 150.877C105.67 150.93 105.714 151.048 105.755 151.106C105.831 151.247 105.922 151.387 106.027 151.484C108.217 153.457 110.573 155.091 113.128 156.262C116.335 157.743 119.61 159.012 123.029 159.762C124.6 160.104 126.151 160.308 127.75 160.182C132.16 159.838 136.565 159.554 140.969 159.245C141.334 159.22 141.692 159.205 142.05 159.197C142.276 159.191 142.512 159.658 142.486 159.97C142.422 160.501 142.237 160.945 141.861 161.264C140.655 162.286 139.376 163.004 137.868 163.098C136.501 163.191 135.129 163.337 133.762 163.438C131.447 163.605 129.134 163.797 126.826 163.92C125.963 163.971 125.077 164.014 124.23 163.865C122.81 163.616 121.401 163.238 119.998 162.851C118.186 162.336 116.393 161.716 114.619 160.992C111.149 159.538 107.836 157.728 104.858 155.135C103.567 154.033 102.411 152.792 101.273 151.213ZM27.4434 113.884C27.1044 114.08 26.7596 114.129 26.426 113.885C25.2745 113.042 24.1086 112.226 22.9777 111.321C20.1749 109.092 17.0993 107.553 13.9034 106.281C10.8566 105.077 7.75843 104.125 4.57655 103.585C2.81477 103.283 1.03129 103.017 -0.766312 103.165C-3.20089 103.383 -5.63154 103.506 -8.05807 103.732C-10.2851 103.936 -12.4131 104.684 -14.4752 105.729C-16.7264 106.864 -17.881 109.01 -18.4108 111.742C-18.4503 111.909 -18.4588 112.082 -18.4519 112.253C-18.4053 114.558 -18.3438 116.854 -18.0058 119.122C-17.7111 121.083 -17.0995 122.876 -16.2753 124.585C-15.0306 127.17 -13.5918 129.596 -12.0038 131.899C-10.8502 133.56 -9.31861 134.653 -7.70805 135.602C-7.04439 136.005 -6.32683 136.025 -5.62002 135.968C-4.04497 135.843 -2.48032 135.65 -0.907695 135.466C-0.547135 135.424 -0.194594 135.374 0.155182 135.255C2.37546 134.501 2.38552 134.56 3.27711 132.2C3.72341 131.032 4.17778 129.873 4.72677 128.768C5.05477 128.108 5.31149 127.401 5.49733 126.656C5.94949 124.869 6.5732 123.129 6.90733 121.28C7.12198 120.103 7.72159 119.106 8.33796 118.142C8.6208 117.701 9.40439 117.828 9.61832 118.356C9.69686 118.584 9.79143 118.827 9.82416 119.066C9.86107 119.408 9.88257 119.751 9.84992 120.089C9.63839 122.11 9.58232 124.164 9.03783 126.148C8.77608 127.113 8.64743 128.13 8.4723 129.141C8.40786 129.455 8.62324 129.828 8.88035 129.897C9.02882 129.947 9.15491 130.016 9.2943 130.032C10.6488 130.172 12.0019 130.278 13.3497 130.444C14.5658 130.594 15.7733 130.529 16.9892 130.48C19.7137 130.38 22.417 129.946 25.1161 129.598C27.0332 129.355 28.9333 128.881 30.6671 127.721C31.733 127.011 32.8767 126.511 34.0546 126.094C34.4872 125.927 34.9012 126.062 35.2808 126.303C36.0646 126.818 36.1724 127.965 35.4517 128.635C34.8348 129.202 34.1698 129.721 33.4959 130.215C31.5867 131.611 29.5983 132.763 27.345 133.081C25.4115 133.876 23.3803 133.774 21.3926 133.987C19.9654 134.144 18.5238 134.139 17.0969 134.306C15.0868 134.538 13.1038 134.294 11.1237 133.93C9.85802 133.697 8.57276 133.552 7.29513 133.407C6.87697 133.358 6.62498 133.608 6.48954 134.074C5.78098 136.577 5.80851 137.453 6.8536 139.673C7.34229 140.708 7.95085 141.657 8.52168 142.625C9.09984 143.585 9.71572 144.525 10.3093 145.484C10.9929 146.574 11.6314 147.693 12.3451 148.764C14.7465 152.321 17.7158 155.047 21.2 156.971C22.4931 157.692 23.7925 158.379 25.1065 159.047C26.8928 159.959 28.7611 160.417 30.7145 160.499C32.0037 160.549 33.2757 160.746 34.5667 160.649C36.4341 160.513 38.2504 160.062 40.0084 159.313C40.2733 159.192 40.5462 159.079 40.8191 158.965C40.9484 158.922 41.305 159.165 41.3273 159.335C41.4023 159.666 41.5077 159.986 41.5288 160.321C41.6037 161.608 41.9914 162.813 42.2721 164.043C42.4398 164.763 42.7606 165.456 43.102 166.088C44.1773 168.098 45.3046 170.063 46.6175 171.851C47.2704 172.754 47.8562 173.713 48.4942 174.625C50.8974 178.036 53.8392 180.462 57.4841 181.591C58.5922 181.929 59.7129 182.197 60.8273 182.5C62.0199 182.832 63.2172 182.897 64.4534 182.778C65.5819 182.667 66.7342 182.571 67.8735 182.536C70.2448 182.469 72.5833 181.974 74.9066 181.479C76.1068 181.233 77.2491 180.699 78.3315 180.014C78.5195 179.897 78.6408 179.657 78.8317 179.42C78.2834 178.053 77.7498 176.668 77.1784 175.303C76.3516 173.336 75.494 171.37 74.6595 169.403C74.0128 167.888 73.5848 166.255 73.226 164.617C73.0659 163.896 73.0953 163.093 73.1183 162.325C73.1364 161.816 73.3493 161.362 73.6569 160.962C73.8254 160.744 74.2451 160.637 74.4295 160.814C74.646 161.024 74.901 161.23 75.043 161.505C75.2947 162.013 75.5167 162.549 75.6859 163.114C76.6397 166.322 77.986 169.323 79.2337 172.364C79.6022 173.286 80.0386 174.169 80.354 175.113C81.5501 178.786 83.6535 181.64 86.0907 184.17C87.1045 185.229 88.1997 186.205 89.3009 187.137C90.5216 188.165 91.7132 189.238 92.8321 190.419C94.5062 192.183 96.3947 193.527 98.4549 194.54C100.499 195.537 102.529 196.57 104.559 197.595C105.944 198.301 107.41 198.718 108.873 199.074C111.045 199.598 113.232 199.931 115.409 200.403C116.474 200.631 117.539 200.679 118.615 200.589C122.111 200.316 125.624 200.093 129.115 199.691C130.887 199.476 132.663 199.182 134.388 198.556C135.497 198.153 136.574 197.727 137.614 197.139C140.131 195.71 142.689 194.355 145.283 193.119C146.025 192.775 146.733 192.374 147.442 191.972C147.901 191.717 148.377 191.469 148.771 191.098C150.688 189.322 152.784 187.792 154.52 185.718C154.975 185.162 155.407 184.59 155.799 183.977C156.887 182.292 157.356 180.34 157.527 178.269C157.576 177.586 157.572 176.897 157.606 176.223C157.616 176.084 157.726 175.939 157.805 175.813C157.892 175.669 158.188 175.744 158.367 175.981C158.832 176.621 159.297 177.261 159.77 177.91C162.071 181.069 164.59 183.911 167.651 186.028C168.213 186.403 168.747 186.832 169.309 187.207C169.871 187.573 170.404 187.993 170.866 188.539C171.747 189.555 172.793 190.268 173.904 190.872C175.709 191.869 177.508 192.9 179.321 193.913C180.607 194.644 181.961 195.163 183.33 195.647C184.558 196.088 185.792 196.495 187.026 196.91C189.729 197.811 192.487 198.148 195.305 197.896C197.294 197.708 199.309 197.588 201.278 197.118C201.981 196.949 202.712 196.917 203.41 196.835C203.839 196.788 204.27 196.75 204.7 196.712C206.944 196.55 208.866 195.472 210.481 193.665C211.492 192.536 212.586 191.583 213.706 190.68C215.438 189.287 217.179 187.919 218.871 186.477C219.87 185.642 220.786 184.667 221.736 183.758C222.189 183.331 222.626 182.896 223.088 182.477C223.444 182.143 223.866 182.097 224.305 182.093C224.59 182.09 224.879 182.372 224.869 182.7C224.848 183.124 224.858 183.562 224.766 183.965C224.435 185.305 223.794 186.434 222.954 187.396C222.07 188.421 221.096 189.305 220.08 190.107C218.033 191.702 215.992 193.289 213.843 194.658C213.648 194.784 213.599 195.097 213.707 195.305C213.79 195.454 213.843 195.614 213.933 195.737C214.154 196.075 214.361 196.432 214.627 196.706C216.034 198.152 217.109 199.982 218.472 201.483C219.828 202.983 221.227 204.43 222.604 205.903C224.376 207.781 226.319 209.336 228.478 210.498C229.974 211.3 231.492 212.049 233.016 212.772C234.408 213.444 235.88 213.826 237.376 214.034C238.577 214.21 239.781 214.429 240.981 214.571C241.624 214.648 242.272 214.656 242.918 214.612C246.922 214.338 250.929 214.108 254.93 213.757C258.678 213.415 262.243 212.182 265.613 210.108C267.253 209.109 268.552 207.677 269.735 206.046C270.268 205.329 270.588 204.463 270.9 203.589C271.045 203.166 270.966 202.749 270.691 202.423C269.368 200.765 268.066 199.063 266.699 197.451C265.379 195.887 264.231 194.165 263.239 192.295C262.814 191.506 262.434 190.688 262.017 189.906C260.016 186.141 258.521 182.126 257.724 177.848C257.578 177.66 257.494 177.493 257.383 177.415C255.17 175.852 253.137 173.984 251.082 172.152C249.883 171.088 248.742 169.926 247.704 168.644C246.95 167.722 246.316 166.706 245.83 165.559C245.616 165.031 245.431 164.458 245.491 163.834C245.514 163.634 245.795 163.357 245.96 163.414C246.732 163.637 247.406 164.108 248.037 164.659C249.012 165.523 249.965 166.414 250.925 167.287C252.453 168.682 253.967 170.103 255.517 171.461C257.355 173.084 259.293 174.511 261.367 175.662C263.645 176.919 266.008 177.8 268.539 178.058C270.242 178.243 271.942 178.54 273.626 178.83C274.116 178.926 274.573 179.179 275.03 179.432C275.203 179.523 275.329 179.773 275.445 179.981C275.577 180.196 275.562 180.774 275.399 180.94C275.133 181.216 274.863 181.597 274.55 181.678C273.07 182.046 271.55 182.202 270.053 181.985C269.139 181.858 268.217 181.74 267.294 181.605C265.806 181.396 264.343 181.04 262.931 180.43C262.664 180.31 262.396 180.174 262.131 180.088C261.928 180.025 261.7 179.911 261.532 180.138C261.363 180.347 261.412 180.602 261.521 180.828C262.517 182.973 263.498 185.146 264.532 187.28C265.22 188.671 265.968 190.007 266.693 191.37C267.302 192.517 268.067 193.533 268.869 194.503C270.856 196.943 272.842 199.365 274.806 201.833C275.838 203.14 276.955 204.278 278.191 205.314C282.703 209.011 287.681 211.488 292.869 213.416C295.201 214.291 297.603 214.609 300.069 214.389C301.996 214.206 303.919 214.126 305.854 213.942C307.137 213.82 308.414 213.578 309.685 213.371C310.114 213.307 310.541 213.192 310.963 213.146C313.902 212.808 316.745 212.011 319.534 210.847C320.345 210.507 321.157 210.176 321.968 209.837C322.847 209.467 323.718 209.097 324.452 208.367C324.83 207.988 325.322 207.773 325.765 207.476C327.334 206.43 328.844 205.268 330.214 203.891C332.207 201.886 333.533 199.401 334.058 196.359C334.134 195.941 334.217 195.513 334.215 195.091C334.181 192.526 333.948 189.993 333.485 187.484C333.387 186.974 333.176 186.514 332.862 186.165C331.248 184.363 329.899 182.251 328.603 180.125C326.887 177.314 325.193 174.484 323.499 171.654C321.805 168.841 320.936 165.619 320.429 162.225C320.27 161.134 320.24 160.016 320.373 158.913C320.386 158.852 320.46 158.787 320.498 158.767C320.558 158.72 320.672 158.677 320.696 158.71C321.496 159.439 322.237 160.233 322.697 161.321C323.168 162.469 323.675 163.589 324.085 164.767C324.942 167.301 326.077 169.643 327.512 171.776C328.462 173.176 329.254 174.672 330.122 176.129C331.444 178.338 332.834 180.491 334.304 182.561C334.983 183.531 335.87 184.306 336.725 185.066C337.924 186.121 339.181 187.104 340.43 188.078C341.848 189.204 343.309 190.284 344.741 191.392C346.857 193.022 349.154 194.158 351.588 194.887C352.766 195.237 353.955 195.492 355.139 195.808C355.7 195.95 356.274 196.032 356.8 196.288C358.749 197.215 360.821 197.375 362.865 197.778C363.922 198.007 364.994 198.012 366.062 197.93C368.567 197.742 371.065 197.58 373.564 197.237C376.133 196.898 378.698 196.68 381.271 196.462C382.785 196.333 384.243 195.983 385.665 195.326C386.664 194.862 387.709 194.575 388.772 194.382C390.18 194.114 391.581 193.708 392.948 193.201C396.45 191.92 399.884 190.48 403.288 188.895C404.968 188.118 406.564 187.173 408.116 186.085C410.523 184.414 412.128 181.97 413.091 178.907C413.79 176.723 414.068 174.456 414.16 172.142C414.226 170.518 414.123 168.914 413.935 167.325C413.02 166.423 412.131 165.571 411.255 164.7C410.822 164.265 410.395 163.811 409.961 163.367C408.168 161.517 406.694 159.379 405.59 156.853C404.726 154.896 403.779 153.006 403.139 150.913C403.069 150.686 402.937 150.479 402.809 150.178C401.44 149.867 400.048 149.565 398.654 149.213C395.999 148.55 393.378 147.764 390.822 146.689C389.128 145.97 387.57 144.973 386.145 143.658C385.408 142.976 384.804 142.139 384.282 141.227C384.166 141.02 384.117 140.765 384.046 140.528C383.975 140.309 384.146 139.945 384.306 139.908C384.955 139.76 385.596 139.785 386.208 140.045C386.749 140.275 387.29 140.505 387.781 140.833C390.834 142.959 394.195 144.116 397.608 145.046C399.752 145.641 401.916 146.191 404.132 146.462C404.984 146.567 405.835 146.655 406.696 146.597C409.694 146.401 412.7 146.204 415.705 145.999C416.42 145.95 417.117 145.825 417.815 145.554C418.559 145.27 419.347 145.122 420.117 144.931C420.697 144.78 421.244 144.958 421.806 145.143C422.135 145.267 422.554 145.919 422.532 146.325C422.484 146.863 422.273 147.351 421.849 147.552C420.51 148.177 419.17 148.769 417.812 149.326C417.349 149.504 416.819 149.549 416.336 149.591C413.824 149.814 411.32 150.019 408.823 150.233C408.255 150.28 407.686 150.327 407.111 150.384C406.819 150.412 406.596 150.824 406.731 151.107C407.126 151.916 407.528 152.715 407.93 153.515C408.182 154.023 408.487 154.51 408.693 155.048C409.474 157.01 410.639 158.584 411.976 160.017C413.78 161.944 415.562 163.889 417.65 165.409C418.373 165.928 419.082 166.517 419.748 167.161C420.478 167.861 421.277 168.392 422.17 168.744C423.588 169.302 425.013 169.851 426.424 170.435C427.458 170.855 428.52 170.998 429.593 170.865C433.091 170.445 436.599 170.283 440.07 169.573C441.622 169.26 443.174 168.939 444.715 168.549C446.538 168.08 448.295 167.306 449.847 166.02C450.802 165.231 451.741 164.452 452.682 163.69C453.907 162.72 454.866 161.457 455.535 159.904C455.903 159.069 456.262 158.235 456.598 157.377C457.071 156.121 457.295 154.788 457.363 153.406C457.444 151.781 457.333 150.169 457.152 148.562C457.091 147.989 456.821 147.603 456.39 147.443C454.951 146.904 453.659 146.019 452.43 144.983C451.904 144.554 451.32 144.214 450.759 143.865C447.864 142.03 445.569 139.396 443.625 136.299C442.942 135.208 442.475 133.966 442.002 132.732C441.812 132.228 441.954 131.736 442.236 131.286C442.592 130.728 443.279 130.758 443.589 131.004C443.757 131.148 443.941 131.307 444.057 131.515C445.222 133.459 446.682 135.082 447.995 136.87C449.137 138.42 450.562 139.555 452.053 140.59C453.036 141.272 453.997 141.99 454.981 142.681C455.346 142.949 455.705 143.235 456.098 143.423C458.471 144.553 460.804 145.85 463.254 146.768C464.224 147.123 465.189 147.342 466.207 147.178C467.203 147.024 468.201 146.93 469.196 146.767C472.319 146.226 475.403 145.473 478.407 144.269C479.978 143.654 481.498 142.947 482.947 141.978C484.816 140.74 486.346 139.111 487.317 136.814C487.767 135.741 488.21 134.669 488.637 133.589C489.25 131.988 489.476 130.31 489.36 128.578C489.235 126.804 489.017 125.036 488.837 123.256C488.794 122.932 488.672 122.604 488.582 122.283C488.252 121.152 487.725 120.137 487.2 119.139C485.763 116.378 483.614 115.069 480.937 115.019C479.441 115.009 477.927 115.121 476.432 115.318C473.581 115.71 470.749 116.197 467.992 117.22C467.855 117.273 467.717 117.291 467.572 117.326C467.29 117.397 466.997 117.193 466.928 116.836C466.663 115.425 466.247 114.075 465.717 112.776C463.972 108.502 461.308 105.316 457.797 103.11C456.516 102.31 455.183 101.738 453.718 101.717C452.715 101.7 451.721 101.707 450.719 101.715C449.84 101.706 448.993 101.919 448.261 102.486C447.813 102.835 447.357 103.013 446.842 103.048C446.704 103.049 446.558 103.076 446.421 103.12C444.594 103.675 443.653 105.014 443.507 107.307C443.469 107.903 443.485 108.505 443.463 109.101C443.453 109.231 443.366 109.366 443.294 109.492C443.229 109.608 442.902 109.337 442.807 109.077C442.029 106.977 441.266 104.876 440.481 102.784C440.127 101.861 439.728 100.95 439.383 100.017C438.637 97.9664 437.564 96.1878 436.31 94.5335C433.999 91.5044 431.131 89.5727 427.778 88.5957C425.602 87.9604 423.385 87.8447 421.17 87.9614C419.47 88.0516 417.758 88.4182 416.147 89.1656C414.989 89.7011 414.283 90.7483 414.041 92.186C413.841 93.3538 413.719 94.5421 413.776 95.7527C413.789 96.0791 413.764 96.4253 413.755 96.7619C413.585 96.7562 413.418 96.8107 413.345 96.7296C413.106 96.5391 412.896 96.3123 412.694 96.0763C411.578 94.7744 410.16 94.1908 408.68 93.818C406.071 93.152 402.724 92.9067 400.157 93.0819C399.112 93.1618 398.227 93.5925 397.461 94.4717C396.776 95.2506 396.218 96.1327 395.795 97.1348C395.543 97.7464 395.376 98.3951 395.351 99.1031C395.328 99.6904 395.283 100.288 395.222 100.878C395.209 100.956 394.945 101.086 394.897 101.046C394.602 100.808 394.307 100.561 394.064 100.268C392.064 97.6823 389.545 96.1833 386.713 95.343C384.646 94.7347 382.566 94.1704 380.446 93.7983C377.357 93.2598 374.318 93.4069 371.35 94.7291C368.95 95.7887 366.881 97.4458 365.029 99.5015C364.129 100.493 363.326 101.599 362.514 102.688C361.665 103.814 361.217 105.128 361.217 106.652C361.235 109.218 361.215 111.777 361.21 114.336C361.214 115.016 361.234 115.695 361.223 116.385C361.229 116.522 361.127 116.675 361.062 116.8C360.984 116.961 360.726 116.875 360.507 116.597C359.923 115.87 359.315 115.137 358.745 114.375C357.116 112.195 355.167 110.51 353.022 109.115C351.329 108.025 349.601 107.023 347.81 106.18C344.635 104.683 341.44 103.23 338.287 101.68C334.442 99.806 330.486 98.4137 326.444 97.3632C324.348 96.8085 322.255 96.314 320.141 95.8898C317.033 95.2664 313.89 95.1278 310.744 95.4631C307.643 95.7867 304.74 97.0098 302.008 98.8327C301.377 99.2547 300.854 99.8331 300.403 100.51C299.639 101.647 298.9 102.8 298.144 103.946C297.97 104.224 297.788 104.487 297.573 104.699C297.499 104.782 297.26 104.772 297.196 104.699C296.833 104.302 296.484 103.869 296.15 103.427C293.918 100.453 291.68 97.4877 289.241 94.7257C288.773 94.2064 288.29 93.7053 287.844 93.1586C286.287 91.2408 284.405 89.862 282.444 88.6435C281.187 87.8508 279.879 87.1477 278.579 86.4526C276.499 85.3284 274.462 84.1152 272.489 82.7684C269.144 80.4817 265.673 78.5136 262.202 76.5369C261.295 76.0131 260.374 75.7142 259.338 75.6557C257.84 75.5685 256.341 75.4813 254.846 75.3077C252.693 75.0498 250.552 75.2906 248.408 75.4456C248.131 75.4645 247.833 75.5193 247.568 75.6321C246.142 76.2118 244.76 76.909 243.473 77.8668C242.396 78.6896 241.693 79.8142 241.423 81.3313C241.264 82.1604 241.127 82.988 241.116 83.8501C241.076 85.5495 241.021 87.2501 240.959 88.9597C240.954 89.0289 240.898 89.1706 240.875 89.1721C240.744 89.1639 240.567 89.1674 240.501 89.0685C240.182 88.6165 239.893 88.1281 239.582 87.6756C238.944 86.7545 238.328 85.8232 237.653 84.9391C236.49 83.4337 235.16 82.1808 233.64 81.182C230.949 79.4278 228.132 78.0007 225.28 76.6622C221.43 74.8406 217.473 73.4311 213.397 72.5034C210.659 71.8893 207.899 71.4833 205.095 71.7178C202.161 71.9611 199.232 72.1524 196.293 72.2926C194.624 72.3721 193.038 72.7904 191.45 73.3639C189.878 73.9449 188.306 74.5345 186.743 75.1494C186.204 75.3584 185.676 75.6442 185.147 75.9042C184.339 76.3211 183.646 76.9025 183.085 77.7245C181.942 79.3873 180.798 81.033 179.518 82.5415C178.893 83.299 178.569 84.2428 178.418 85.278C178.389 85.5297 178.384 85.7885 178.364 86.0397C178.173 87.9993 177.966 89.9513 177.565 91.8477C177.441 92.4246 177.404 93.0301 177.296 93.6059C177.284 93.6843 177.018 93.7885 176.962 93.7407C176.619 93.4368 176.282 93.1239 175.983 92.7653C174.591 91.1205 172.921 90.0458 171.037 89.3906C168.848 88.6184 166.639 87.9251 164.381 87.5452C162.681 87.2564 160.971 87.0888 159.249 87.1892C156.742 87.343 154.245 87.5392 151.738 87.6673C149.938 87.7643 148.193 88.2709 146.427 88.6326C145.518 88.8325 144.623 89.195 143.822 89.7837C142.219 90.9439 140.65 92.1535 139.171 93.5291C138.48 94.1706 137.941 94.9567 137.603 95.9272C137.437 96.4037 137.286 96.879 137.105 97.3479C136.374 99.3013 135.683 101.278 134.77 103.114C134.021 104.612 133.617 106.242 133.564 107.986C133.52 108.996 133.422 110.011 133.353 110.98C132.974 111.144 132.715 111.032 132.469 110.851C131.373 110.056 130.257 109.314 129.182 108.465C127.828 107.378 126.394 106.416 124.862 105.694C122.215 104.454 119.567 103.213 116.891 102.026C115.965 101.607 114.976 101.356 114.023 101.042C112.438 100.539 110.847 100.079 109.268 99.5405C107.76 99.0233 106.246 98.5496 104.667 98.3903C103.893 98.3139 103.103 98.2042 102.326 98.2486C100.464 98.3412 98.6052 98.4939 96.7468 98.6638C95.1725 98.8057 93.6413 99.2547 92.1017 99.6871C90.9812 99.9961 89.8857 100.355 88.7738 100.689C87.4411 101.09 86.1862 101.701 85.0012 102.514C84.1757 103.07 83.4895 103.832 82.8918 104.682C82.3079 105.497 82.0466 106.471 82.1977 107.546C82.4426 109.226 82.7483 110.885 83.3283 112.465C83.6134 113.229 83.8234 114.042 84.0487 114.853C84.0927 114.988 84.0234 115.182 83.9751 115.323C83.9349 115.472 83.5922 115.384 83.4375 115.179C82.5865 114.143 81.7062 113.144 80.915 112.061C77.83 107.801 74.0298 104.727 69.8019 102.329C67.0335 100.761 64.259 99.2359 61.2964 98.2064C58.5524 97.2481 55.7559 96.7068 52.8995 96.4022C49.4541 96.0172 46.0224 96.3548 42.6175 96.7852C39.7724 97.1431 36.9307 97.5868 34.2023 98.7376C33.596 98.9943 32.9643 99.1925 32.3754 99.4997C31.0622 100.192 29.7569 100.893 28.4702 101.67C27.8978 102.002 27.3442 102.418 26.8552 102.908C25.9436 103.815 25.3813 104.973 25.3559 106.447C25.3436 107.482 25.4067 108.476 25.6474 109.476C25.9626 110.798 26.3227 112.083 26.8864 113.259C27.0211 113.543 27.2754 113.732 27.4695 113.96C27.2886 113.869 27.2519 113.915 27.3664 114.079L27.4434 113.884Z" fill="white"/>
<path fill-rule="evenodd" clip-rule="evenodd" d="M848.99 215.618L848.991 215.637C848.086 215.699 847.211 215.739 846.322 215.819C841.281 216.419 836.301 215.776 831.305 214.74C825.764 213.604 820.31 211.872 814.859 210.198C810.666 208.931 806.544 207.423 802.486 205.556C800.685 204.735 798.966 203.574 797.278 202.411C796.097 201.567 795.125 200.355 794.533 198.704C794.262 197.916 794.653 196.552 795.262 196.255C796.262 195.774 797.279 195.705 798.325 195.968C800.931 196.596 803.538 197.264 806.133 198.011C813.788 200.203 821.4 202.535 829.067 204.627C834.736 206.167 840.459 207.075 846.261 206.384C847.132 206.265 848.024 206.244 848.914 206.203C853.634 205.92 858.39 205.753 862.822 203.09C863.896 202.447 865.138 202.441 866.314 202.773C867.54 203.142 868.424 204.144 868.823 205.749C869.184 207.199 868.695 208.904 867.683 209.878C867.223 210.322 866.696 210.692 866.186 211.081C862.906 213.488 859.356 214.733 855.646 215.144C853.425 215.394 851.214 215.466 848.99 215.618ZM635.715 203.934L633.361 204.095C626.504 204.598 619.663 205.082 612.807 205.602C610.454 205.78 608.147 205.554 605.846 205.066C603.957 204.655 602.196 203.921 600.517 202.868C600.145 202.614 599.815 202.236 599.472 201.928C599.112 201.586 598.961 200.551 599.081 200.02C599.247 199.451 599.661 199.178 600.067 199.116C601.648 198.903 603.245 198.707 604.846 198.598C613.023 198.057 621.185 197.553 629.362 197.012C630.382 196.942 631.418 196.872 632.415 196.629C638.291 195.235 644.314 195.12 650.205 193.707C656.703 192.131 662.975 189.994 668.749 186.062C669.76 185.365 670.786 184.668 671.833 184.091C673.448 183.179 675.143 184.615 675.056 186.764C675.044 187.637 674.824 188.436 674.382 189.181C673.053 191.346 671.305 192.877 669.358 194.143C664.433 197.285 659.113 199.217 653.677 200.599C650.826 201.317 647.92 201.846 645.067 202.511C644.88 202.542 644.74 202.97 644.641 203.255C644.598 203.363 644.686 203.601 644.77 203.717C644.923 204.003 645.107 204.287 645.32 204.481C649.745 208.467 654.504 211.768 659.666 214.135C666.144 217.127 672.762 219.69 679.668 221.206C682.843 221.896 685.975 222.31 689.207 222.054C698.117 221.359 707.016 220.787 715.913 220.162C716.651 220.112 717.373 220.08 718.097 220.065C718.553 220.051 719.031 220.995 718.978 221.626C718.848 222.698 718.475 223.595 717.714 224.24C715.279 226.306 712.694 227.755 709.649 227.945C706.887 228.134 704.113 228.427 701.352 228.633C696.676 228.97 692.003 229.359 687.339 229.607C685.597 229.709 683.806 229.796 682.094 229.494C679.226 228.993 676.379 228.229 673.546 227.446C669.885 226.406 666.262 225.154 662.679 223.69C655.668 220.752 648.975 217.096 642.957 211.859C640.35 209.631 638.014 207.124 635.715 203.934ZM486.557 128.519C485.872 128.914 485.176 129.013 484.502 128.52C482.175 126.817 479.82 125.168 477.535 123.34C471.873 118.837 465.659 115.728 459.202 113.159C453.047 110.725 446.788 108.803 440.359 107.71C436.8 107.101 433.197 106.564 429.565 106.864C424.646 107.304 419.736 107.552 414.833 108.008C410.334 108.42 406.035 109.931 401.869 112.043C397.321 114.337 394.988 118.672 393.918 124.192C393.838 124.528 393.821 124.877 393.835 125.224C393.929 129.881 394.053 134.519 394.736 139.101C395.331 143.062 396.567 146.685 398.232 150.138C400.747 155.361 403.654 160.261 406.862 164.914C409.192 168.27 412.287 170.478 415.541 172.396C416.881 173.209 418.331 173.25 419.759 173.135C422.941 172.883 426.102 172.493 429.279 172.12C430.008 172.035 430.72 171.934 431.427 171.695C435.912 170.171 435.933 170.291 437.734 165.522C438.636 163.163 439.554 160.821 440.663 158.588C441.325 157.255 441.844 155.827 442.219 154.323C443.133 150.711 444.393 147.197 445.068 143.462C445.502 141.083 446.713 139.069 447.958 137.122C448.53 136.23 450.113 136.487 450.545 137.554C450.704 138.013 450.895 138.505 450.961 138.987C451.036 139.678 451.079 140.372 451.013 141.055C450.586 145.138 450.472 149.287 449.372 153.295C448.844 155.245 448.584 157.299 448.23 159.342C448.1 159.977 448.535 160.73 449.054 160.869C449.354 160.97 449.609 161.11 449.891 161.142C452.627 161.426 455.361 161.639 458.084 161.975C460.541 162.278 462.98 162.146 465.437 162.048C470.941 161.846 476.402 160.969 481.855 160.266C485.729 159.776 489.567 158.818 493.07 156.473C495.224 155.038 497.534 154.028 499.914 153.187C500.788 152.849 501.624 153.122 502.391 153.609C503.975 154.65 504.193 156.967 502.737 158.319C501.49 159.466 500.147 160.514 498.785 161.512C494.928 164.333 490.911 166.661 486.358 167.302C482.452 168.909 478.349 168.701 474.333 169.132C471.449 169.451 468.537 169.441 465.654 169.776C461.593 170.245 457.587 169.753 453.587 169.017C451.029 168.547 448.433 168.255 445.852 167.961C445.007 167.862 444.498 168.367 444.224 169.307C442.793 174.364 442.848 176.136 444.96 180.62C445.947 182.711 447.176 184.628 448.33 186.585C449.498 188.524 450.742 190.423 451.941 192.359C453.322 194.562 454.612 196.823 456.054 198.987C460.906 206.173 466.904 211.68 473.944 215.567C476.556 217.025 479.181 218.412 481.836 219.762C485.445 221.604 489.219 222.529 493.166 222.695C495.77 222.796 498.34 223.194 500.948 222.999C504.721 222.724 508.391 221.812 511.942 220.3C512.478 220.054 513.029 219.825 513.58 219.596C513.841 219.509 514.562 219.999 514.607 220.344C514.758 221.012 514.971 221.659 515.014 222.335C515.166 224.935 515.949 227.37 516.516 229.854C516.855 231.31 517.503 232.71 518.193 233.986C520.365 238.048 522.642 242.017 525.295 245.629C526.614 247.454 527.797 249.391 529.086 251.235C533.942 258.125 539.885 263.027 547.249 265.308C549.487 265.991 551.752 266.532 554.003 267.144C556.412 267.815 558.831 267.946 561.329 267.706C563.609 267.481 565.937 267.287 568.238 267.217C573.029 267.081 577.754 266.08 582.447 265.081C584.872 264.585 587.18 263.505 589.367 262.121C589.747 261.886 589.992 261.399 590.377 260.921C589.27 258.16 588.192 255.362 587.037 252.605C585.367 248.629 583.634 244.658 581.948 240.684C580.642 237.624 579.777 234.324 579.052 231.015C578.729 229.558 578.788 227.936 578.835 226.384C578.871 225.355 579.301 224.438 579.923 223.63C580.263 223.189 581.111 222.975 581.484 223.332C581.921 223.755 582.436 224.172 582.723 224.727C583.232 225.753 583.68 226.837 584.022 227.979C585.949 234.46 588.669 240.521 591.19 246.666C591.934 248.529 592.816 250.314 593.453 252.219C595.869 259.641 600.119 265.406 605.043 270.517C607.091 272.657 609.304 274.629 611.528 276.513C613.994 278.589 616.402 280.757 618.662 283.143C622.045 286.706 625.86 289.421 630.022 291.468C634.152 293.484 638.254 295.57 642.354 297.639C645.152 299.067 648.114 299.909 651.07 300.629C655.457 301.687 659.876 302.36 664.274 303.313C666.426 303.775 668.579 303.872 670.752 303.689C677.815 303.137 684.913 302.687 691.965 301.875C695.545 301.44 699.134 300.847 702.618 299.582C704.858 298.768 707.035 297.906 709.136 296.719C714.221 293.831 719.389 291.094 724.63 288.596C726.128 287.903 727.559 287.091 728.99 286.28C729.919 285.765 730.88 285.264 731.675 284.514C735.548 280.926 739.784 277.835 743.291 273.646C744.211 272.521 745.083 271.366 745.874 270.128C748.073 266.724 749.02 262.779 749.365 258.597C749.465 257.215 749.456 255.824 749.526 254.462C749.546 254.182 749.767 253.888 749.928 253.634C750.104 253.344 750.701 253.494 751.063 253.974C752.003 255.267 752.943 256.56 753.898 257.87C758.547 264.252 763.636 269.995 769.819 274.271C770.955 275.029 772.033 275.895 773.169 276.653C774.305 277.393 775.382 278.242 776.314 279.344C778.094 281.398 780.207 282.837 782.452 284.059C786.099 286.072 789.733 288.156 793.397 290.203C795.995 291.678 798.731 292.727 801.495 293.704C803.976 294.597 806.469 295.418 808.964 296.257C814.425 298.077 819.996 298.758 825.69 298.248C829.708 297.869 833.778 297.626 837.757 296.676C839.176 296.336 840.653 296.27 842.063 296.104C842.931 296.01 843.8 295.933 844.669 295.856C849.203 295.53 853.086 293.35 856.349 289.7C858.391 287.42 860.602 285.494 862.865 283.669C866.364 280.855 869.881 278.092 873.299 275.179C875.317 273.493 877.169 271.522 879.088 269.685C880.004 268.822 880.887 267.944 881.818 267.098C882.539 266.422 883.391 266.329 884.279 266.321C884.855 266.316 885.438 266.886 885.418 267.548C885.375 268.404 885.395 269.29 885.209 270.103C884.54 272.811 883.246 275.092 881.549 277.035C879.763 279.106 877.795 280.893 875.743 282.512C871.606 285.735 867.484 288.94 863.142 291.707C862.747 291.96 862.648 292.594 862.867 293.014C863.035 293.315 863.141 293.639 863.323 293.887C863.771 294.57 864.189 295.29 864.725 295.845C867.568 298.766 869.741 302.463 872.495 305.494C875.233 308.527 878.06 311.449 880.842 314.426C884.421 318.218 888.347 321.361 892.708 323.709C895.732 325.329 898.798 326.843 901.878 328.303C904.688 329.66 907.663 330.431 910.685 330.852C913.113 331.208 915.544 331.651 917.969 331.938C919.268 332.093 920.577 332.108 921.881 332.019C929.972 331.467 938.066 331.001 946.15 330.293C953.722 329.602 960.925 327.11 967.732 322.921C971.046 320.903 973.67 318.009 976.06 314.714C977.138 313.266 977.784 311.516 978.414 309.751C978.706 308.895 978.548 308.053 977.992 307.395C975.319 304.045 972.689 300.605 969.926 297.349C967.261 294.189 964.941 290.711 962.936 286.933C962.078 285.338 961.31 283.685 960.468 282.107C956.425 274.5 953.404 266.389 951.795 257.746C951.5 257.366 951.33 257.029 951.106 256.87C946.634 253.713 942.527 249.939 938.376 246.237C935.954 244.088 933.648 241.74 931.551 239.151C930.028 237.288 928.746 235.236 927.765 232.919C927.333 231.852 926.96 230.694 927.08 229.433C927.126 229.03 927.695 228.469 928.027 228.585C929.587 229.036 930.949 229.987 932.224 231.1C934.194 232.845 936.119 234.645 938.059 236.41C941.146 239.227 944.205 242.098 947.336 244.843C951.05 248.121 954.965 251.004 959.154 253.328C963.757 255.868 968.531 257.648 973.644 258.169C977.085 258.543 980.519 259.144 983.922 259.729C984.911 259.923 985.834 260.434 986.758 260.945C987.108 261.13 987.362 261.635 987.597 262.054C987.864 262.488 987.833 263.656 987.504 263.992C986.966 264.551 986.42 265.319 985.788 265.484C982.798 266.227 979.727 266.541 976.704 266.104C974.856 265.847 972.993 265.608 971.129 265.335C968.123 264.914 965.166 264.194 962.314 262.962C961.775 262.72 961.234 262.444 960.698 262.271C960.288 262.143 959.827 261.913 959.487 262.371C959.146 262.795 959.245 263.31 959.465 263.765C961.477 268.1 963.46 272.489 965.549 276.801C966.939 279.612 968.449 282.31 969.915 285.064C971.145 287.382 972.691 289.434 974.312 291.394C978.325 296.323 982.337 301.217 986.306 306.202C988.39 308.843 990.647 311.143 993.145 313.235C1002.26 320.704 1012.32 325.708 1022.8 329.604C1027.51 331.37 1032.36 332.014 1037.34 331.569C1041.24 331.199 1045.12 331.038 1049.03 330.667C1051.62 330.421 1054.2 329.932 1056.77 329.513C1057.64 329.384 1058.5 329.151 1059.35 329.058C1065.29 328.374 1071.03 326.764 1076.67 324.413C1078.31 323.727 1079.95 323.059 1081.59 322.373C1083.36 321.625 1085.12 320.878 1086.61 319.402C1087.37 318.637 1088.36 318.204 1089.26 317.603C1092.43 315.49 1095.48 313.142 1098.25 310.36C1102.27 306.309 1104.95 301.289 1106.01 295.143C1106.17 294.298 1106.33 293.434 1106.33 292.581C1106.26 287.4 1105.79 282.282 1104.86 277.212C1104.66 276.182 1104.23 275.254 1103.6 274.549C1100.33 270.908 1097.61 266.64 1094.99 262.346C1091.52 256.667 1088.1 250.949 1084.68 245.231C1081.26 239.548 1079.5 233.039 1078.48 226.183C1078.16 223.977 1078.1 221.719 1078.36 219.491C1078.39 219.368 1078.54 219.235 1078.62 219.195C1078.74 219.1 1078.97 219.015 1079.02 219.081C1080.63 220.554 1082.13 222.157 1083.06 224.356C1084.01 226.675 1085.04 228.937 1085.86 231.317C1087.6 236.436 1089.89 241.169 1092.79 245.479C1094.71 248.306 1096.31 251.329 1098.06 254.272C1100.73 258.735 1103.54 263.085 1106.51 267.268C1107.88 269.228 1109.67 270.793 1111.4 272.328C1113.82 274.46 1116.36 276.444 1118.89 278.412C1121.75 280.688 1124.7 282.87 1127.6 285.109C1131.87 288.402 1136.51 290.696 1141.43 292.17C1143.81 292.877 1146.21 293.392 1148.6 294.029C1149.74 294.317 1150.9 294.482 1151.96 295.001C1155.9 296.872 1160.08 297.196 1164.21 298.01C1166.35 298.474 1168.51 298.482 1170.67 298.318C1175.73 297.938 1180.78 297.61 1185.83 296.918C1191.02 296.233 1196.2 295.792 1201.4 295.351C1204.46 295.09 1207.4 294.384 1210.28 293.057C1212.29 292.119 1214.4 291.54 1216.55 291.149C1219.4 290.607 1222.23 289.788 1224.99 288.764C1232.06 286.176 1239 283.266 1245.88 280.065C1249.27 278.493 1252.5 276.585 1255.63 274.387C1260.49 271.01 1263.74 266.073 1265.68 259.885C1267.09 255.473 1267.66 250.893 1267.84 246.217C1267.98 242.937 1267.77 239.697 1267.39 236.486C1265.54 234.663 1263.74 232.941 1261.98 231.183C1261.1 230.303 1260.24 229.387 1259.36 228.49C1255.74 224.752 1252.76 220.431 1250.53 215.328C1248.78 211.376 1246.87 207.556 1245.58 203.329C1245.44 202.869 1245.17 202.452 1244.91 201.843C1242.15 201.214 1239.33 200.606 1236.52 199.893C1231.15 198.554 1225.86 196.966 1220.69 194.795C1217.27 193.341 1214.12 191.329 1211.24 188.671C1209.76 187.294 1208.54 185.602 1207.48 183.76C1207.25 183.341 1207.15 182.826 1207 182.348C1206.86 181.906 1207.21 181.169 1207.53 181.094C1208.84 180.796 1210.14 180.847 1211.37 181.372C1212.46 181.836 1213.56 182.301 1214.55 182.964C1220.72 187.259 1227.51 189.597 1234.4 191.476C1238.73 192.677 1243.11 193.788 1247.58 194.335C1249.3 194.548 1251.02 194.727 1252.76 194.608C1258.82 194.212 1264.89 193.815 1270.97 193.401C1272.41 193.302 1273.82 193.049 1275.23 192.501C1276.73 191.928 1278.32 191.628 1279.88 191.243C1281.05 190.937 1282.15 191.297 1283.29 191.672C1283.96 191.922 1284.8 193.239 1284.76 194.06C1284.66 195.146 1284.23 196.132 1283.38 196.538C1280.67 197.802 1277.96 198.996 1275.22 200.123C1274.29 200.482 1273.22 200.573 1272.24 200.657C1267.16 201.108 1262.11 201.522 1257.06 201.954C1255.91 202.049 1254.76 202.145 1253.6 202.259C1253.01 202.317 1252.56 203.148 1252.83 203.721C1253.63 205.355 1254.44 206.97 1255.26 208.585C1255.77 209.612 1256.38 210.596 1256.8 211.681C1258.38 215.646 1260.73 218.826 1263.43 221.722C1267.08 225.614 1270.68 229.545 1274.9 232.615C1276.35 233.664 1277.79 234.854 1279.13 236.154C1280.61 237.568 1282.22 238.641 1284.03 239.353C1286.89 240.48 1289.77 241.588 1292.62 242.769C1294.71 243.618 1296.85 243.907 1299.02 243.637C1306.09 242.789 1313.18 242.462 1320.19 241.026C1323.32 240.395 1326.46 239.746 1329.57 238.959C1333.26 238.012 1336.81 236.447 1339.94 233.849C1341.87 232.256 1343.77 230.682 1345.67 229.143C1348.14 227.181 1350.08 224.63 1351.43 221.493C1352.18 219.807 1352.9 218.121 1353.58 216.387C1354.54 213.851 1354.99 211.158 1355.13 208.364C1355.29 205.082 1355.07 201.826 1354.7 198.579C1354.58 197.422 1354.03 196.641 1353.16 196.317C1350.25 195.228 1347.64 193.44 1345.16 191.347C1344.1 190.48 1342.92 189.795 1341.78 189.089C1335.94 185.382 1331.3 180.06 1327.37 173.803C1325.99 171.6 1325.05 169.089 1324.09 166.597C1323.71 165.579 1324 164.585 1324.57 163.676C1325.28 162.548 1326.67 162.61 1327.3 163.106C1327.64 163.396 1328.01 163.719 1328.24 164.138C1330.6 168.067 1333.55 171.346 1336.2 174.958C1338.51 178.089 1341.39 180.381 1344.4 182.473C1346.38 183.851 1348.33 185.302 1350.31 186.698C1351.05 187.239 1351.78 187.816 1352.57 188.197C1357.36 190.48 1362.08 193.099 1367.03 194.954C1368.99 195.672 1370.94 196.114 1372.99 195.782C1375.01 195.471 1377.02 195.281 1379.03 194.952C1385.34 193.86 1391.57 192.339 1397.64 189.906C1400.81 188.663 1403.89 187.235 1406.81 185.278C1410.59 182.775 1413.68 179.484 1415.64 174.844C1416.55 172.676 1417.45 170.51 1418.31 168.328C1419.55 165.094 1420 161.704 1419.77 158.205C1419.52 154.62 1419.08 151.048 1418.71 147.454C1418.63 146.798 1418.38 146.136 1418.2 145.488C1417.53 143.202 1416.47 141.151 1415.41 139.136C1412.5 133.556 1408.16 130.912 1402.75 130.811C1399.73 130.791 1396.67 131.017 1393.65 131.415C1387.89 132.208 1382.17 133.19 1376.6 135.258C1376.32 135.364 1376.05 135.401 1375.75 135.473C1375.18 135.616 1374.59 135.204 1374.45 134.483C1373.92 131.631 1373.07 128.904 1372 126.28C1368.48 117.646 1363.1 111.209 1356 106.752C1353.42 105.136 1350.72 103.98 1347.76 103.938C1345.74 103.902 1343.73 103.918 1341.7 103.934C1339.93 103.916 1338.22 104.346 1336.74 105.491C1335.83 106.197 1334.91 106.555 1333.87 106.626C1333.59 106.628 1333.3 106.683 1333.02 106.771C1329.33 107.893 1327.43 110.598 1327.13 115.23C1327.06 116.436 1327.09 117.652 1327.04 118.855C1327.02 119.118 1326.85 119.391 1326.7 119.644C1326.57 119.879 1325.91 119.333 1325.72 118.807C1324.15 114.564 1322.61 110.319 1321.02 106.094C1320.31 104.229 1319.5 102.387 1318.8 100.503C1317.29 96.3599 1315.13 92.7667 1312.59 89.4246C1307.92 83.3048 1302.13 79.4021 1295.36 77.4284C1290.96 76.1449 1286.48 75.9111 1282.01 76.1469C1278.57 76.3291 1275.11 77.0697 1271.86 78.5796C1269.52 79.6615 1268.09 81.7773 1267.6 84.6819C1267.2 87.0412 1266.95 89.4419 1267.07 91.8877C1267.09 92.5471 1267.04 93.2466 1267.02 93.9265C1266.68 93.9151 1266.34 94.0252 1266.2 93.8612C1265.71 93.4765 1265.29 93.0182 1264.88 92.5414C1262.63 89.9111 1259.76 88.7321 1256.77 87.979C1251.5 86.6334 1244.74 86.1378 1239.55 86.4918C1237.44 86.6533 1235.65 87.5235 1234.11 89.2996C1232.72 90.8732 1231.59 92.6555 1230.74 94.68C1230.23 95.9155 1229.89 97.2262 1229.84 98.6566C1229.8 99.843 1229.71 101.05 1229.58 102.242C1229.56 102.4 1229.02 102.663 1228.93 102.582C1228.33 102.101 1227.73 101.602 1227.24 101.009C1223.2 95.7861 1218.11 92.7576 1212.39 91.0599C1208.22 89.831 1204.01 88.691 1199.73 87.9391C1193.49 86.8512 1187.35 87.1484 1181.35 89.8197C1176.5 91.9604 1172.33 95.3082 1168.58 99.4614C1166.77 101.465 1165.14 103.699 1163.5 105.899C1161.79 108.173 1160.88 110.828 1160.88 113.908C1160.92 119.091 1160.88 124.262 1160.87 129.431C1160.88 130.805 1160.92 132.177 1160.89 133.57C1160.91 133.848 1160.7 134.158 1160.57 134.41C1160.41 134.734 1159.89 134.561 1159.45 134C1158.27 132.531 1157.04 131.049 1155.89 129.509C1152.6 125.105 1148.66 121.702 1144.33 118.883C1140.91 116.681 1137.41 114.657 1133.8 112.955C1127.38 109.93 1120.93 106.995 1114.56 103.862C1106.79 100.077 1098.8 97.2637 1090.63 95.1413C1086.4 94.0208 1082.17 93.0217 1077.9 92.1646C1071.62 90.9053 1065.27 90.6251 1058.91 91.3026C1052.65 91.9563 1046.78 94.4273 1041.26 98.1102C1039.99 98.9628 1038.93 100.131 1038.02 101.499C1036.48 103.796 1034.98 106.126 1033.46 108.44C1033.1 109.003 1032.74 109.533 1032.3 109.963C1032.15 110.13 1031.67 110.11 1031.54 109.963C1030.81 109.16 1030.1 108.286 1029.43 107.392C1024.92 101.383 1020.4 95.3928 1015.47 89.8127C1014.52 88.7636 1013.55 87.7512 1012.65 86.6469C1009.5 82.7723 1005.7 79.9866 1001.74 77.525C999.197 75.9234 996.555 74.5028 993.929 73.0985C989.727 70.8274 985.611 68.3763 981.624 65.6554C974.867 61.0355 967.855 57.0593 960.843 53.0658C959.009 52.0076 957.147 51.4038 955.056 51.2856C952.028 51.1094 949 50.9332 945.981 50.5824C941.631 50.0615 937.306 50.548 932.974 50.8611C932.415 50.8992 931.812 51.01 931.276 51.2379C928.396 52.409 925.603 53.8177 923.002 55.7526C920.827 57.415 919.408 59.687 918.862 62.752C918.54 64.4271 918.264 66.099 918.241 67.8407C918.161 71.2742 918.05 74.7097 917.925 78.1637C917.915 78.3036 917.802 78.5898 917.755 78.5929C917.49 78.5762 917.132 78.5833 916.999 78.3835C916.355 77.4704 915.77 76.4836 915.142 75.5695C913.852 73.7085 912.609 71.8271 911.244 70.0409C908.895 66.9994 906.208 64.4682 903.138 62.4505C897.7 58.9063 892.01 56.0232 886.248 53.319C878.47 49.6388 870.476 46.7912 862.241 44.917C856.71 43.6762 851.133 42.8561 845.469 43.3297C839.54 43.8213 833.623 44.2077 827.686 44.4911C824.313 44.6517 821.108 45.4968 817.9 46.6554C814.724 47.8292 811.549 49.0204 808.391 50.2626C807.302 50.6849 806.236 51.2623 805.167 51.7877C803.534 52.6299 802.133 53.8044 801.001 55.4652C798.692 58.8246 796.381 62.1493 793.794 65.197C792.532 66.7274 791.877 68.6341 791.572 70.7256C791.514 71.2342 791.504 71.7569 791.462 72.2644C791.077 76.2233 790.659 80.1671 789.848 83.9985C789.599 85.1639 789.524 86.3871 789.306 87.5505C789.281 87.7088 788.744 87.9194 788.632 87.8227C787.937 87.2089 787.258 86.5766 786.653 85.8522C783.84 82.5291 780.467 80.358 776.661 79.0342C772.238 77.4742 767.775 76.0735 763.213 75.3059C759.779 74.7224 756.324 74.384 752.844 74.5867C747.78 74.8975 742.736 75.294 737.67 75.5527C734.034 75.7486 730.509 76.7722 726.941 77.5029C725.104 77.9067 723.296 78.6391 721.678 79.8284C718.44 82.1723 715.268 84.6161 712.281 87.3953C710.885 88.6913 709.797 90.2795 709.113 92.2403C708.778 93.2028 708.474 94.1632 708.107 95.1105C706.631 99.0569 705.235 103.05 703.391 106.76C701.877 109.787 701.06 113.079 700.953 116.602C700.864 118.644 700.666 120.693 700.527 122.652C699.761 122.982 699.238 122.757 698.741 122.391C696.527 120.784 694.271 119.285 692.1 117.571C689.365 115.374 686.468 113.432 683.373 111.972C678.024 109.466 672.676 106.96 667.269 104.562C665.398 103.715 663.4 103.208 661.474 102.574C658.272 101.557 655.058 100.628 651.869 99.5401C648.822 98.4952 645.762 97.5382 642.572 97.2164C641.009 97.0621 639.412 96.8405 637.843 96.9302C634.082 97.1172 630.326 97.4258 626.571 97.769C623.391 98.0557 620.297 98.9628 617.187 99.8363C614.923 100.461 612.71 101.186 610.464 101.861C607.771 102.671 605.236 103.906 602.842 105.548C601.174 106.672 599.788 108.21 598.58 109.929C597.4 111.575 596.872 113.543 597.178 115.714C597.673 119.109 598.29 122.46 599.462 125.651C600.038 127.195 600.462 128.837 600.917 130.476C601.006 130.749 600.866 131.141 600.769 131.426C600.687 131.727 599.995 131.548 599.683 131.135C597.963 129.042 596.185 127.023 594.586 124.835C588.354 116.23 580.676 110.019 572.134 105.173C566.541 102.005 560.936 98.9247 554.951 96.8449C549.407 94.9088 543.757 93.8153 537.986 93.1999C531.026 92.4221 524.092 93.104 517.214 93.9737C511.466 94.6966 505.725 95.593 500.212 97.9182C498.987 98.4368 497.711 98.8371 496.521 99.4577C493.868 100.857 491.231 102.272 488.632 103.842C487.475 104.512 486.357 105.354 485.369 106.344C483.527 108.175 482.391 110.515 482.34 113.494C482.315 115.584 482.443 117.593 482.929 119.614C483.566 122.285 484.293 124.88 485.432 127.256C485.704 127.829 486.218 128.211 486.61 128.672C486.244 128.488 486.17 128.58 486.402 128.912L486.557 128.519Z" fill="white"/>
<path d="M1348.36 108.75C1302.29 68.5498 1278.1 74.4998 1271.76 82.4998L1301.13 123C1336.08 135 1394.44 148.95 1348.36 108.75Z" fill="white"/>
</g>
</svg>
