<svg width="1036" height="14" fill="none" xmlns="http://www.w3.org/2000/svg"><ellipse cx="5.5" cy="7" rx="5.5" ry="6" fill="#1A1919"/><ellipse cx="40.37" cy="7.149" rx="5.5" ry="6" transform="rotate(82 40.37 7.149)" fill="#1A1919"/><ellipse cx="78.5" cy="7" rx="5.5" ry="6" fill="#1A1919"/><ellipse cx="113.371" cy="7.149" rx="5.5" ry="6" transform="rotate(82 113.371 7.149)" fill="#1A1919"/><ellipse cx="161.5" cy="7" rx="5.5" ry="6" fill="#1A1919"/><ellipse cx="196.371" cy="7.149" rx="5.5" ry="6" transform="rotate(82 196.371 7.149)" fill="#1A1919"/><ellipse cx="234.5" cy="7" rx="5.5" ry="6" fill="#1A1919"/><ellipse cx="269.371" cy="7.149" rx="5.5" ry="6" transform="rotate(82 269.371 7.149)" fill="#1A1919"/><ellipse cx="317.5" cy="7" rx="5.5" ry="6" fill="#1A1919"/><ellipse cx="352.371" cy="7.149" rx="5.5" ry="6" transform="rotate(82 352.371 7.149)" fill="#1A1919"/><ellipse cx="390.5" cy="7" rx="5.5" ry="6" fill="#1A1919"/><ellipse cx="425.371" cy="7.149" rx="5.5" ry="6" transform="rotate(82 425.371 7.149)" fill="#1A1919"/><ellipse cx="473.5" cy="7" rx="5.5" ry="6" fill="#1A1919"/><ellipse cx="508.371" cy="7.149" rx="5.5" ry="6" transform="rotate(82 508.371 7.149)" fill="#1A1919"/><ellipse cx="546.5" cy="7" rx="5.5" ry="6" fill="#1A1919"/><ellipse cx="581.37" cy="7.149" rx="5.5" ry="6" transform="rotate(82 581.37 7.149)" fill="#1A1919"/><ellipse cx="629.5" cy="7" rx="5.5" ry="6" fill="#1A1919"/><ellipse cx="664.37" cy="7.149" rx="5.5" ry="6" transform="rotate(82 664.37 7.149)" fill="#1A1919"/><ellipse cx="703.5" cy="7" rx="5.5" ry="6" fill="#1A1919"/><ellipse cx="751.5" cy="7" rx="5.5" ry="6" fill="#1A1919"/><ellipse cx="789.5" cy="7" rx="5.5" ry="6" fill="#1A1919"/><ellipse cx="837.5" cy="7" rx="5.5" ry="6" fill="#1A1919"/><ellipse cx="872.37" cy="7.149" rx="5.5" ry="6" transform="rotate(82 872.37 7.149)" fill="#1A1919"/><ellipse cx="910.5" cy="7" rx="5.5" ry="6" fill="#1A1919"/><ellipse cx="945.37" cy="7.149" rx="5.5" ry="6" transform="rotate(82 945.37 7.149)" fill="#1A1919"/><ellipse cx="993.5" cy="7" rx="5.5" ry="6" fill="#1A1919"/><ellipse cx="1028.37" cy="7.149" rx="5.5" ry="6" transform="rotate(82 1028.37 7.149)" fill="#1A1919"/></svg>