<?xml version="1.0" encoding="utf-8"?>
<!DOCTYPE svg PUBLIC "-//W3C//DTD SVG 1.1//EN" "http://www.w3.org/Graphics/SVG/1.1/DTD/svg11.dtd">
<svg version="1.1" id="Layer_1" xmlns="http://www.w3.org/2000/svg" xmlns:xlink="http://www.w3.org/1999/xlink" x="0px" y="0px"
	 viewBox="0 0 2048 2048" enable-background="new 0 0 2048 2048" xml:space="preserve">
<g id="_x23_fffffffe" fill="#fff">
	<path d="M1103.6801,77.67c4.2999-10.78,20.45-12.64,28.0499-4.38c6.37,7.04,9,16.45,11.5701,25.37
		c2.9199,13.75,3.84,27.83,3.73,41.87c2.86-4.07,4.8199-8.7,7.84-12.66c18.01-26.05,46.09-44.1,76.24-52.91
		c2.41,14.41,3.89,29.24,1.6801,43.8c-1.6801,21.55-8.89,42.63-21.0801,60.5c15.16-7.86,30.91-15.95,48.24-17.21
		c6.17,0.32,13.0901-1.41,18.4501,2.58c5.9299,4.18,9.09,12.14,7.5599,19.28c-0.88,4.67-4.13,8.8-8.6499,10.39
		c-4.79,2.39-10.4801,0.97-14.78-1.79c-6.98-4.27-9.3401-14.74-4.38-21.38c2.01-3.16,5.21-5.18,8.03-7.53
		c-18.7201,0.45-36.2201,8.33-52.37,17.2c-6.79,3.62-11.6101,9.72-17.0801,14.95c-5.72,5.48-12.7,9.37-18.85,14.3
		c10.5-3.88,21.1899-7.54,32.36-8.94c21.46-3.58,44.55,0.55,62.5601,13.07c5.2699,4.04,10.84,8.02,14.6,13.6
		c-7.02-1.53-14.16-2.3-21.27-3.25c-19.9301-2.59-40.8199,2.61-56.99,14.6c-18.04,13.11-31.26,31.55-42.52,50.54
		c-6.1801,10.08-10.3099,21.64-18.87,30.09c-8.5,7.61-18.1,14.18-28.85,18.15c-9.51,3.82-19.74,5.38-29.91,6.07
		c-7.9-0.36-16.1-1.37-22.8099-5.95c-3.2201,5.4-7.29,10.21-10.5901,15.55c-15.1,22.05-28.0599,45.51-39.27,69.75
		c-5.09,10.35-9.18,21.15-12.95,32.04c-3.45,9.33-7.77,18.39-10.15,28.08c2.79-3.36,5.14-7.05,7.57-10.66
		c16.2-23.69,34.36-46.05,54.98-66.02c37.4299-36.13,82.9199-64.98,133.48-78.5c19.4399-5.11,39.5-8.05,59.58-8.42
		c10.5801-1.33,21.2201,0.28,31.8301,0.15c1.85-3.13,3.5399-7.06,7.49-7.93c4.09-1.68,8.1699,0.72,11.86,2.33
		c18.24-16.86,37.5-32.96,59.33-45.02c10.88-5.66,22.24-10.88,34.52-12.56c18.88-2.78,38.3-0.66,56.55,4.78
		c21.45,6.29,41.85,15.55,62.38,24.26c-6.8401,8.72-14.5901,16.63-22.4401,24.43c-12.14,11.96-26.03,22.23-41.35,29.76
		c-19.77,10-42.04,14.81-64.15,14.53c9.8201,6.64,19.38,13.66,28.55,21.19c3.0699,0.52,6.22,0.18,9.34,0.29
		c2.4,1.94,3.34,6.9,7.15,5.95c12.2-2.81,24.54-5.15,37.0499-6.01c5.02-0.32,9.9401,0.77,14.9301,1.19
		c8.99,1.13,17.52,4.83,24.9301,10c15.4199,10.11,26.5599,25.09,38.22,39.08c-14.05,5.39-28.8101,10.17-44.02,9.72
		c-15.55,0.65-31.23-3.87-44.33-12.21c6.5,13.11,11.7799,27.39,11.37,42.23c0.5299,11.01-2.3201,22.3-8.65,31.39
		c-11.3,16.11-34.28,22.07-52.21,14.41c-4.5901-2.03-9.25-4.94-11.2301-9.78c-3.48-6.03-2.73-14.73,2.8401-19.28
		c6.1799-4.1,15.98-0.1,17.1899,7.34c0.51,2.73-1.11,5.08-2.59,7.2c-0.53-3.59,0.34-8.15-3.12-10.52c-2.5-2.28-5.96-1.9-9.0601-1.84
		c-6.52,6.07-4.0699,17.4,3.3301,21.57c15.84,9.3,37.5299,5.1,49.6899-8.34c4.61-5.32,7.1801-11.95,9.1-18.63
		c3.2101-17.98-0.45-36.97-9.39-52.87c1.6101,9.84,4.1801,20.52-0.2599,30.03c-6.04,14.94-25.9501,23.03-40.27,14.93
		c-5.1801-3.51-7.9701-12.28-2.7201-16.89c3.03-3.34,8.54-1.63,11.0901,1.51c2.14,1.8,0.9,4.86,0.12,7.05
		c-0.6801-1.94-1.13-3.95-2.05-5.78c-1.99-2.11-5.2-1.48-7.7899-1.63c-2.3401,4.68-1.7301,11.14,3.2,13.88
		c11.98,5.91,27.95,0.43,34.41-11.11c3.1699-5.32,4.5-11.75,3.8099-17.88c-0.8099-11.69-5.71-23.02-13.4299-31.8
		c-2.7001-3.79-6.78-6.41-9.0801-10.5c0.52-0.46,1.5701-1.37,2.1-1.83c7.76,11.35,20.12,18.75,33.2201,22.33
		c-2.14-3.8-5.4601-6.7-8.4701-9.79c-6.6399-6.77-15.5399-10.64-24.34-13.74c-1.77-0.78-3.66-0.35-5.45,0
		c-1.42-1.82-2.8201-3.64-4.3-5.39c-3.0699-0.1-6.53,0.41-8.99-1.83c-3.39-2.42-1.46-7.69-4.9299-10.04
		c-7.9701-6.75-16.0801-13.39-24.8401-19.12c-3.36-2.15-6.73-4.54-10.7-5.34c-25.24-4.33-48.75-15.02-71.88-25.6
		c-3.28,3.11-7.73,6.5-12.51,5.03c-3.33-0.44-5.5-3.2-7.51-5.58c-1.28-2.25-4.22-1.62-6.36-1.98c-7.66-0.06-15.34-0.21-22.98,0.34
		c-5.03,0.06-10.0801-0.11-15.05,0.78c-24.71,1.69-49.13,7.15-72.27,15.99c-36.46,13.85-69.6899,35.43-98.7799,61.25
		c-7.0901,6.2-13.4501,13.2-20.2101,19.77c-5.0699,4.64-8.7999,10.48-14.01,14.98c-10.7499,12.08-20.64,24.93-29.83,38.25
		c-5.14,7.93-11.43,15.3-14.72,24.26c-3.65,13.23-6.36,26.7-8.74,40.21c-1.32,9.53-3.18,19.03-3.5,28.66
		c-1.49,10.35-0.6,20.95-3.08,31.2c0.52-0.39,1.5699-1.17,2.09-1.5601c1.51-19.28,6.58-38.17,13.65-56.1299
		c15.01-38.32,42.89-72.61,80.39-90.62c21.3301-10.75,45.3401-14.96,69.01-15.91c2.86-0.12,5.8,0.29,8.62-0.35
		c4.4-2.53,8.2101-5.96,12.5601-8.59c8.6799-4.69,18.27-7.58,28.0399-8.9c10.8401-0.79,22.2001-0.42,32.15,4.44
		c19.27,9.18,39.34,17.44,60.65,20.26c2.87,0.19,5.79-0.04,8.65,0.48c3.77,0.91,7.53-0.51,11.33-0.4
		c11.92-1.05,23.3201-5.99,32.78-13.23c6.74-4.9,12.01-11.46,18.26-16.93c-0.29,10.08-3.41,20.03-8.47,28.72
		c-9.4501,15.7-25.3401,26.61-42.39,32.68c-4.74,1.73-9.7201,2.69-14.4,4.58c6.36,0.5,12.76-0.17,19.13,0.38
		c4.01,0.8,8.13,0.85,12.16,1.61c19.01-1.56,38.76-5.46,54.62-16.68c-3.61-0.37-7.41,0.42-10.8401-1.01
		c-6.89-2.22-10.99-11.26-7.5299-17.77c2.23-5.22,8.24-8.9,13.8999-7.55c10.41,1.77,15.87,16.25,8.9601,24.36
		c-4.8201,5.55-11.66,8.73-18.2101,11.76c-10.71,4.28-22.0699,6.59-33.4099,8.45c1.98,1.56,4.39,2.37,6.7,3.38
		c9.84,4.24,19.22,9.67,27.49,16.52c14.5801,11.55,25.88,26.73,35.1,42.78c-29.0599,10.06-61.9399,10.16-90.25-2.43
		c2.9501,5.16,7.28,9.34,10.4301,14.38c6.9399,10.17,12.87,21.57,14.03,34.01c0.23,10.04-11.9601,17.39-20.8301,12.81
		c-8.02-3.56-10.01-15.36-3.84-21.47c4.55-4.25,12.22-4.87,17.1-0.84c2.28,1.55,3.85,3.86,5.73,5.84
		c-4.13-16.25-13.58-30.56-24.4199-43.11c-5.2101-6.28-12.63-10.01-18.6901-15.33c-4.25-2.97-7.36-7.2-11.4-10.41
		c10.1901,16.95,18.4601,36.01,18.0601,56.11c-0.8199,13.44-5.15,26.86-13.62,37.46c-1.3199-8.76-0.8101-17.68-2.9-26.33
		c-3.1699-17.86-14.13-33.66-28.4399-44.51c-16.8101-13.12-36.76-21.43-56.8-28.23c-8.55-2.87-16.65-7.5-22.8-14.16
		c-12.74-12.13-21.74-28.6-23.7999-46.16c-0.49-4.3,0.84-8.5,0.77-12.79c-8.02,1.14-16.17,0.6-24.14,2.01
		c-20.26,2.49-40.13,8.93-57.7001,19.39c-18.25,10.76-33.71,25.85-46.0099,43.02c-14.06,20.14-24.21,42.93-30.26,66.72
		c-4.86,17.91-6.93,36.45-8.07,54.91c0.33,6.93-0.87,14.04,1.12,20.79c1.52,4.39,0.28,9.13,1.54,13.58
		c5.97,34.92,17.45,68.86,33.61,100.37c17.59,35.1,40.46,67.33,66,97.05c4.08,3.94,6.91,9.12,11.88,12.12
		c33.35,23.54,65.8,48.52,95.62,76.4c4.76,5.26,10.52,9.44,15.23,14.76c6.85,6.17,12.59,13.4,19.27,19.76
		c12.49,13.9,24.71,28.08,35.85,43.11c25.1901,33.3,45.09,70.76,57.22,110.78c3.28,10.0399,5.16,20.45,7.8101,30.6599
		c7.58-11.0199,15.67-21.6699,24.33-31.86c6.4601-7.33,10.92-16.09,15.23-24.7799c4.27-8.17,7.77-16.7201,10.51-25.51
		c-0.85-1.36-2.1699-2.5801-2.0299-4.3c-0.5701-9.55-2.77-19.5-8.9601-27.0599c-6.46-6.5701-15.3199-9.8601-22.4099-15.6001
		c-6.9301-5.96-11.0701-14.79-12.2101-23.77c-1.98-12.48,1.3101-24.97,0.41-37.49c7.02,3.75,14.92,5.21,22.46,7.59
		c6.3201,1.7401,12.66,5.02,16.3401,10.64c6.0499,7.78,8.2999,17.66,9.84,27.18c2.08,19.41-3.39,38.46-4.28,57.76
		c1.02,0.76,2.08,1.53,3.2001,2.23c2.2999-12.96,5.36-25.7899,6.8799-38.88c1.1801,1.39,1.8201,3.12,2.63,4.77
		c-0.08-1.99-0.21-3.96-0.3199-5.92c1.15,0.63,2.3101,1.28,3.48,1.9601c-1.22,4.4299-2.5,8.85-3.59,13.3199
		c-5.35,21.41-13.65,41.97-23.49,61.6901c5.0399-4.3201,9.21-9.5701,14.52-13.5701c26.21-26.1,56.38-47.9099,87.9399-67.09
		c1.79-1.16,3.77-2.16,5.12-3.88c5.6-8.1899,9.1-18.41,6.84-28.34c-3.33-10.99-12.2799-20.3799-11.61-32.42
		c-0.4299-6.33,2.3501-12.27,5.4501-17.6c5.4-8.01,12.48-14.71,17.76-22.81c2.7,3.99,5.64,7.81,8.6899,11.55
		c6.12,6.85,13.4501,13.96,14.51,23.59c1.15,4.55-0.11,9.2-0.99,13.6801c-2.76,11.81-10.02,22.04-18.64,30.34
		c-6.8199,6.97-14.17,13.48-19.97,21.37c9.51-4.41,18.36-10.08,27.91-14.4c6.86-3.01,12.9199-7.57,18.13-12.92
		c5.6799-4.95,11.8799-9.5099,16.23-15.7599c4.71-7.02,8.62-14.8,9.77-23.26c1.37-9.73,2.08-20,7.36-28.58
		c6.86-11.59,19.1799-18.19,27.4099-28.61c5.37-8.06,6.51-18.19,6.4401-27.64c-0.63-6.8-2.51-14.42-8.37-18.61
		c-6.79-4.55-15.88-3.11-22.6801,0.65c-6.53,3.56-12.61,10.11-12.0699,18.03c-0.4301,4.99,2.86,9.64,7.23,11.78
		c4.75,2.53,10.28,0.7401,15.39,1.32c-5.74,1.81-11.9301,4.05-17.9501,2.28c-3.83-0.94-6.9199-3.68-9.1-6.84
		c-3.6-6.3-3.38-13.98-1.76-20.82c5.13-18.69,26.9501-30.54,45.4501-24.83c7.1899,2.3199,12.65,7.89,17.4199,13.5
		c11.9801,16.64,14.8501,38.72,10.29,58.43c-4.14,21.07-17.24,39.03-32.1899,53.89c-6.1101,5.21-11.9501,10.72-18.39,15.53
		c-2.5,2.46-6.25,3.8-7.74,7.13c0.47-0.18,1.4299-0.53,1.8999-0.71c13.4501-9.85,27.3301-19.27,39.41-30.83
		c8.34-6.61,15.33-14.69,22.39-22.6c19.4-22.36,34.8199-48.94,40.92-78.14c2.0699-10.2,4.0399-20.78,2.0299-31.15
		c-1.36-9.92-5.9199-19.23-11.96-27.13c-5.2-6.09-13.02-10.75-21.26-10.01c-9.9199,0.32-19.86,6.47-23.08,16.14
		c-2.39,5.28,0.28,12.75,6.26,14.04c5.1,0.94,9.45-2.27,13.9199-4.12c-4.11,5.79-10.8099,10.1-18.0399,10.12
		c-4.24-0.35-8.89-2.04-11.04-5.97c-2.1899-3.94-3.58-8.71-2.29-13.16c1.79-9.87,6.89-19.1,14.24-25.9
		c7.39-6.66,17.15-10.5,27.0801-10.81c8.3199,0.39,16.76,2.4,23.78,7.06c7.97,5.05,14.11,12.8,17.4399,21.62
		c3.61,9.77,4.3199,20.39,3.15,30.69c-0.8301,11.3-3.52,22.39-6.61,33.27c-3.99,11.26-7.9601,22.64-13.9501,33.03
		c-8.25,14.83-19.3199,27.84-30.59,40.42c-4.51,3.84-7.52,9.11-12.28,12.66c-3.96,3.05-6.95,7.17-11.0599,10.03
		c-12.4301,10.94-26.3101,20.1-40.6801,28.25c-3.12,1.35-6.27,2.67-8.7999,5c6.0699-0.71,11.6399-3.54,17.46-5.27
		c19.01-6.5099,38.48-11.49,58.0599-15.95c2.67-8.51,5.4601-17.11,10.3301-24.66c4.6599-8.05,10.6699-15.23,17.48-21.55
		c6.11-6.76,13.62-12.1,21.72-16.22c9.24-5.08,19.9-6.16,29.84-9.26c12.1001-3.23,23.9301-7.43,35.3501-12.58
		c17.11-8.03,33.5-18.8,45.08-33.97c12.1899-15.59,17.61-35.05,21.53-54.1c4.22,7.1,6.51,15.23,7.6,23.38
		c0.85,11.04,0.39,22.36-2.88,33.02c-3.8101,12.72-9.77,24.76-17.3101,35.68c-3.6399,5.74-8.4399,10.66-12.0699,16.37
		c8.77-7.22,17.99-14.01,28-19.46c4.85-2.64,8.11-7.26,12.36-10.69c13.59-13.48,26.39-28.72,32.8301-47.01
		c-2.64,2.31-4.88,5.19-8.0901,6.73c-3.22,1.54-6.97,3.07-10.46,1.43c-5.51-1.14-9.5601-6.47-9.3101-12.04
		c-0.5499-6.27,2.7101-12.76,8.1801-15.92c7.58-5.15,19.08-0.98,22.1899,7.54c2.13,6.59-0.3899,13.56-3.11,19.62
		c-4.2999,8.92-9.8099,17.23-16.01,24.94c-5.9099,7.45-12.8199,14.0099-19.25,20.99c5.4701-1.63,10.8501-3.6,16.4501-4.81
		c7.41-2.01,15.14-2.11,22.7-3.24c6-0.61,11.91,0.88,17.9,1c15.6801,1.56,31.04,6.0699,45.17,13.03
		c-7.6001,11.47-17.7001,20.96-27.4801,30.55c-14.5699,13-31.4099,23.71-49.97,29.98c-3.2,1.19-6.61,1.8-9.62,3.44
		c-5.39,2.3-11.39,1.81-17.1,1.83c-5.67-0.12-11.33,0.14-16.98-0.11c-3.52-0.54-7.03-1.09-10.5701-1.3
		c4.2201,2.17,8.7001,3.79,12.89,6.08c16.25,7.67,30.4701,20.27,38.5,36.5c6.03,12.73,8.3101,27.26,5.9301,41.1699
		c-9.38-14.5199-20.29-29.28-36.5-36.59c-7.79-3.01-15.89-5.86-24.3301-5.82c-4.3899-0.3199-8.83-1.43-13.1799-0.19
		c-17.64,0.42-34.84,5.2401-51.58,10.47c-8.55,2.72-16.77,6.51-25.5901,8.31c-21.2999,2.73-43.87-3.69-59.84-18.24
		c-5.73-5.39-10.9-12.1-11.9-20.13c-22.52,5.11-44.8199,11.23-66.5,19.19c-20.41,7.5-40.7999,15.42-59.6899,26.29
		c-9,3.71-17.7001,8.17-26.01,13.24c9.86-2.09,19.6-4.7,29.49-6.6899c20.71-3.91,41.59-7.6801,62.6899-8.33
		c10.67-1.49,21.49-0.63,32.24-0.74c6.9501,0.86,13.9701,0.7,20.89,1.81c10.5601,0.65,20.9401,2.85,31.3101,4.84
		c39.4399,8.41,77.26,26.4401,106.61,54.38c7.5699,6.08,13.88,13.48,20.3,20.71c3.5099-0.7899,7.34-2.6699,10.85-0.84
		c3.73,1.48,4.65,5.79,6.11,9.1c22.38-0.01,44.96-0.02,66.95,4.79c12.12,2.62,24.48,6.04,34.67,13.41
		c18.16,12.22,30.1799,31.37,38.88,51.0599c6.37,15.47,12.11,31.22,17.47,47.0601c-29.23,5-60.1899,6.15-88.51-3.9701
		c-16.47-5.7599-31.48-15.3899-43.6899-27.83c0.61,6.11,1.3199,12.22,1.99,18.33c-0.13,5.51,0.5499,10.9801,1.2999,16.4401
		c1.25,0.84,2.53,1.73,3.6001,2.86c2.85,2.52,0.6799,6.65,0.1699,9.78c9.64,5.8199,19.5601,11.47,27.8201,19.22
		c8.6599,6.6801,15.34,16.09,18.2,26.73c2.24,6.4301,2.12,13.27,2.9,19.9601c-0.49,13.98-2.1801,27.9399-4.96,41.6499
		c-17.5901-6.2899-34.66-16.5599-44.89-32.6c-5.4701-7.8099-8.2201-17.0499-10.4301-26.21c-6.0499,18.37-17,35.5699-32.85,46.95
		c-8.14,6.04-18.14,10.1-28.4,9.49c-14.24,0.29-28.16-8.76-33.6-21.9299c-3.12-6.8301-2.8101-15.5601,2.01-21.54
		c3.14-4.34,8.5499-7.6,14.0499-6.71c5.1101,1.1599,7.4801,7.1799,6.4301,11.9399c-0.38,4.41-4.75,7.3-8.78,8.1
		c1.49-2.3899,3.5801-4.3099,5.3301-6.49c0.9299-3.1899,0.25-6.8999-2.13-9.2899c-2.3-2.05-5.52-0.76-7.9,0.39
		c-5.01,2.37-7.34,8.13-7.87,13.34c0.51,7.13,3.9199,14.04,9.27,18.8099c6.5,7.15,16.3999,9.91,25.7699,10.2101
		c6.8601-0.9301,13.8301-2.51,19.75-6.28c9.8401-5.53,17.52-14.08,23.8201-23.3101c4.83-6.9299,8.84-14.5299,11.16-22.6699
		c-4.54,5.99-8.49,12.6699-14.7001,17.1599c-7.2,5.4801-16.9,8.41-25.8199,5.9901c-8.7001-1.88-16.67-8.88-18.11-17.89
		c0.1799-5.8301,4.0699-12.03,10.0499-13.2001c4.49-0.84,7.4701,4.0601,6.86,8.05c0.0801,2.7999-2.9199,4.12-4.7899,5.64
		c0.9-2.23,1.9199-4.39,2.99-6.53c-0.98-1.42-1.22-3.67-3.0801-4.17c-3.3199-1.61-6.7,1.4501-7.9299,4.38
		c-2.89,4.8101-0.61,10.88,3.04,14.61c4.98,4.75,11.86,7.88,18.84,7.3201c8.33-0.0601,15.86-4.78,21.53-10.5701
		c9.46-10.0299,14.83-23.5299,15.76-37.22c0.49-2.58-0.3401-6.21,2.75-7.34c-0.0701,2.99-0.1101,5.99-0.1001,9
		c-0.26,9.45,2.66,18.66,6.6801,27.12c2.0599-6.87,1.37-14.09,1.37-21.14c-0.85-6.52-3.88-12.5-5.1901-18.9
		c-0.86,0.78-1.71,1.5601-2.5599,2.3301c-1.59-3.3-0.63-6.89-0.8-10.3501c-0.97-3.1499-3.7-5.6-3.86-9c0.8-3.6599,5.02-6,4.41-9.99
		c-1.0601-7.37-0.46-14.88-1.7-22.21c-1.05-6.8199-0.41-14.53-4.9701-20.22c-12.9199-18.9-19.63-41.0701-26.59-62.64
		c-4.3199,0.09-10.03-0.23-12.1-4.71c-2.17-3.7101,0.16-8-0.8101-11.88c-16.9299-18.03-35.89-34.3-57.1599-47.03
		c-36.3401-20.6901-78.12-30.58-119.66-32.4301c-12.66-0.2-25.3101-0.1499-37.97,0.1001c-7.6901,0.8999-15.3601,1.8899-23.02,2.86
		c-7.26-0.1901-14.35,1.5399-21.48,2.5699c-15.4301,2.6-30.6801,6.15-45.75,10.33c-4.52,1-8.8201,2.79-12.78,5.17
		c-25.53,16.21-49.77,34.53-71.8101,55.23c-1.62,1.5901-3.2899,3.15-4.5499,5.0601c32.0299-25.0801,69.85-44.4501,110.72-48.9401
		c20.98-1.88,42.58-0.65,62.5,6.6901c16.6801,5.74,31.66,15.63,44.84,27.23c2.9501,2.75,5.54,5.91,8.7101,8.45
		c2.33,0.52,5.0099,0.2101,6.9299,1.9401c2.0701-1.86,4.8101-0.6801,7.23-0.3301c9.8201,2.3201,19.1801,6.7101,27.0601,13.04
		c6.87,6,13.2999,13.2001,15.83,22.1801c4.09,11.97,7.76,24.1499,13.46,35.49c6.9801,14.35,16.63,28.1699,30.7201,36.28
		c9.7799,5.3999,21.0599,7.33,32.12,7.2c5.1599-0.7,10.37-0.35,15.5699-0.37c-12.4,11.47-29.3199,18.65-46.35,17.92
		c-15.4,0.5699-30.05-5.55-43.51-12.38c1.85,2.09,4.22,3.63,6.22,5.58c3.99,3.74,7.0601,8.3,10.3301,12.66
		c3.9099,5.8099,10.14,9.35,15.75,13.2899c10.1699,6.42,21.47,12.0901,33.63,12.9401c-2.14-2.4401-4.7101-4.63-5.8301-7.75
		c-3.15-8.85,5.05-19.4401,14.4301-18.4401c5.45-0.23,10.0499,4.6801,10.08,10.02c0.4301,7.66-4.77,16.03-12.62,17.53
		c-6.62,1.48-13.4199-0.37-19.74-2.3101c-11.02-3.5299-20.75-9.96-30.16-16.5299c5.16,13.48,9.2001,27.75,8.41,42.33
		c0.72,16.65-3.41,33.01-8.34,48.79c-15.9401-7-30.0801-17.88-41.05-31.36c-6.86-8.4701-11.74-18.3201-15.47-28.5
		c-2.75,11.1499-4.1,22.7699-8.87,33.36c-3.64,8.22-7.6801,17.8099-16.58,21.48c-4.5801,0.6-10.1801,0.91-13.4801-2.97
		c-3.8099-3.1801-4.2799-8.8401-2.72-13.27c2.8-7.4401,12.66-12.76,19.76-7.76c4.95,3.22,4.88,9.5699,4.9,14.8199
		c5.24-8.6599,9.0499-18.2,11.4-28.0399c2-8.7201,4.1799-17.55,3.61-26.5701c0.08-3.7-1.1901-7.24-1.16-10.9199
		c-0.1-6.2201,0.21-12.4501-0.09-18.66c-3.92,13.23-8.6,26.46-16.6,37.85c-10.9301,16.79-28.2201,30.08-48.28,33.42
		c6.59-7.99,14.1-15.28,19.46-24.2201c4.1801-6.97,7.9-14.33,9.65-22.3199c2.5699-8.85,1.87-18.1,1.9-27.1901
		c-1.6-19.96-8.65-39-16.91-57.0699c-3.5699-9.09-5.03-19.22-3.1899-28.85c0.98-9.98,3.8899-19.73,8.38-28.67
		c4.1799-9.02,10.5499-17.1899,18.8799-22.72c-20.21-21.15-47.62-35.64-76.7799-39.09c-21.11-2.6901-42.62-0.05-62.99,5.86
		c-37.9501,11.2899-72.16,33.1799-100.88,60.14c-6.36,4.9099-11.5801,11.13-15.8101,17.9399c5.35-1.74,10.04-5.02,14.87-7.84
		c17.75-11.46,33.11-26.59,52.34-35.73c9.3301-4.6901,19.7001-6.77,30.01-7.88c10.1901-0.37,20.77,1.85,29.1801,7.85
		c15.41,12.75,22,32.88,37.09,45.9399c-13.87,5.4601-25.5,15.0901-38.83,21.5901c-6.61,3.37-13.86,6.0599-21.39,5.62
		c-7.3199,0.2899-14.51-1.86-21.02-5.05c-10.83-5.73-18.16-15.9299-28.11-22.85c-6.51-5.11-14.6899-7.6-22.86-8.1
		c-10.35,0.5599-19.9,4.89-29.92,7.03c-2.87,0.3999-3.97,3.4099-5.7999,5.25c-4.55,6.11-10.0601,11.5199-13.92,18.12
		c-0.21,2.8199,0.5601,5.61,0.76,8.4299c1.48,8.3,1.74,16.73,2.8199,25.09c0.0901,12.3501,0.2001,24.7001-0.0499,37.05
		c-0.6,3.66-1.09,7.3199-0.9501,11.05c-3.7899,39.0699-13.7999,77.4099-27.8899,113.99c-14.67,38.08-33.51,74.45-54.7101,109.2799
		c-18.6699,31.67-40.38,61.38-62,91.0601c-22.4299,30.65-47.0499,59.59-70.86,89.15c-11.38,13.9399-23.08,27.63-33.86,42.0499
		c-23.74,29.51-46,60.3501-64.57,93.41c-10.24,19.47-18.97,39.98-23.54,61.58c-4.47,20.75-4.58,42.6801,1.92,63.02
		c2.68,7.4401,4.75,15.2201,9.05,21.9701c4.91,8.48,11.09,16.12,17.22,23.74c11.7399,13.83,26.55,24.59,41.8699,34.13
		c27.2101,16.7599,56.63,29.6899,86.8101,40.11c11.01,4.14,22.14,7.9399,33.35,11.46h-375.9c-3.05-5.12-7.16-9.51-10.07-14.73
		c-5.94-8.3301-10.64-17.42-15.59-26.34c-4.61-10.5-9.71-20.79-13.32-31.6901c-4.09-10.46-6.95-21.3099-9.93-32.1
		c-1.92-8.3201-4.28-16.5601-5.07-25.09c-1.92-13.62-3.3-27.37-2.7-41.15c0.45-4.65,1.11-9.29,0.8701-13.97
		c3.86-50,26.2-98.05,60.62-134.3401c4.81-5.7899,10.27-11.0299,16.05-15.84c14.66-14.38,31.81-25.86,48.93-37.1
		c32.98-21.24,67.28-40.35,99.97-62.03c30.85-19.97,60.6801-41.54,88.87-65.1c15.8101-12.8201,30.8201-26.51,45.8-40.26
		c4.08-4.62,9.3099-7.98,13.49-12.49c3.47-3.53,7.11-6.91,10.24-10.75c4.92-6.05,11.1-10.9401,15.96-17.04
		c28.98-31.0699,54.5901-65.38,75.7001-102.29c1.75-3.1299,1.0299-6.8999,2.5299-10.11c1.15-0.2799,2.9,0.41,3.51-1
		c22.6001-42.95,40.5-89.5399,43.5701-138.37c1.39-10.35,0.47-20.8099,0.75-31.21c0.36-6.0699-1.09-12.01-1.16-18.0601
		c-1.34-9.6899-1.98-19.58-4.8199-28.98c-3.89-8.0499-9.53-15.11-14.4-22.5699c-26.54-38.84-55.36-76.23-87.16-110.85
		c-4.6799-5.93-10.58-10.77-15.52-16.47c-3.4099-4.56-7.7999-8.22-11.7-12.33c-5.46-5.91-12.1-10.52-17.49-16.51
		c-44.5801-41.4-94.8201-77.47-150.51-102.48c-39.18-17.6-81.12-29.67-123.99-33.2c-8.07-1.01-16.22,0.71-24.32,0.44
		c-36.53,2.59-73.04,11.26-105.64,28.29c-20.29,10.29-38.97,23.8799-54.58,40.45c-13.02,14.33-24.15,30.59-31.42,48.6
		c-9.72,23.64-14.29,49.35-13.55,74.88c4.76-0.48,9.47-1.6,14.29-1.12c15.71,1.58,30.51,8.43,43.06,17.81
		c9.28,7.01,17.74,15.5499,22.92,26.09c3.37,6.11,4.8799,13,7.53,19.4301c8.24,21.2699,18.1,42.47,33.46,59.6
		c5.32,6.71,12.34,11.85,19.39,16.6c17.36,11.3101,38.76,13.5699,58.9901,13.38c-13.4,11.1-30.97,17.04-48.36,16.22
		c-21.68,0-42.07-9.15-60.33-20.12c7.8,8.01,15.6,16.1,21.63,25.5801c3.83,6.4199,10.28,10.3999,15.94,15.0199
		c8.87,6.8601,18.49,12.8401,28.85,17.17c4.18,1.79,9.04,2.29,12.5,5.5c-7.89-0.92-15.31-4.11-22.31-7.71
		c-10.28-5.2201-19.17-12.65-28.5-19.29c2.63,6.76,5.58,13.42,7.31,20.5c3.24,11.09,4,22.65,4.85,34.11
		c0.18,5.39-1.15,10.6801-1.04,16.0801c-1.22,11.2899-3.84,22.4199-7.3,33.24c-28.92-15.28-54.58-38.67-68.07-68.89
		c-1.99-3.9-2.77-8.36-5.26-11.99c-1.74,17.48-5.62,35.1499-14.26,50.6c-2.66,4.46-5.63,9.03-10.06,11.9299
		c-9.33,6.4601-23.79,0.38-26.55-10.4099c-2.67-9.8401,7.22-19.77,17-18.0901c3.61,0.91,7.4,2.3401,9.78,5.3601
		c3.79,5.08,4.61,11.75,2.98,17.7999c10.85-14.87,15.78-33.15,18.32-51.14c1.26-8.4399,0.9-17.0599-0.54-25.4399
		c-1.33-7.67-1.06-15.47-0.73-23.2001c-2.34,6.3-3.63,12.9701-6.21,19.2001c-4.86,13.03-12.3,25.09-21.87,35.1699
		c-12.73,12.15-29.7,20.75-47.53,20.89c7-7.5,14.88-14.23,20.62-22.8099c7.59-10.28,12.16-22.63,13.7-35.27
		c0.04-3.36,0.14-6.7,0.6-10.02c-0.82-5.0699-0.11-10.26-1.25-15.27c-2.97-20.83-10.87-40.52-19.54-59.5499
		c-1.84-3.53-3.85-6.99-5.19-10.74c-4.56-10.4801-5.08-22.1801-4.37-33.42c1.68-12.8101,5.34-25.6,12.2599-36.59
		c2.57-4.0701,6.04-7.52,8.35-11.7501c0.66-8.98-0.48-18.06,0.92-27c1.54-21.32,7.37-42.26,16.41-61.6
		c19.3-40.66,55.23-71.78,95.99-89.86c22.18-10.16,46-16.35,70.07-19.94c-6.17-0.54-12.44-0.54-18.56,0.42
		c-30.65,1.77-60.97,7.69-90.7,15.28c-5.03,1.47-9.51,4.3-13.91,7.07c-18.5099,12.58-36.96,25.41-53.8,40.19
		c-4.12,3.88-7.79,8.27-12.36,11.64c-8.89,6.69-16.21,15.14-24.08,22.95c-3.38,4.58-7.81,8.22-11.25,12.73
		c-14.12,16.18-26.97,33.48-38.25,51.76c-23.33,37.87-40.17,80.23-45.63,124.54c-1.53,9.3201-1.47,18.77-2.66,28.12
		c-0.1,13.2101-0.04,26.4301,0,39.65c2.92,1.75,5.53,4.03,7.6,6.75c2.03,2.72,1.42,6.29,1.27,9.46
		c-0.89,3.3301-3.79,5.5801-6.05,8.02c12.22,26.22,25.24,52.6901,29.88,81.52c0.6,4.58,3.24,8.4301,5.95,12.04
		c7.6,11.5299,16.39,22.23,25.6,32.51c3.19-0.0901,6.81,0.0699,9,2.76c3.64,2.6799,0.36,8.35,3.9,11.1
		c3.48,3.5499,7.03,7.0399,11.04,10.02c6.49,4.8099,11.97,11.01,19.15,14.87c9.87,5.5699,21.27,9.0299,32.6801,8.34
		c7.2-0.62,14.49-3.0701,19.77-8.1901c6.68-5.9099,10.87-14.84,10.43-23.8199c0.16-4.75-0.64-9.77-3.69-13.5601
		c-3.16-3.5199-8.77-5.8099-13.08-2.98c-3.45,1.7001-2.55,6.1801-0.75,8.8101c1.98,2.49,5.53,2.45,8.35,3.4
		c-2.64,0.37-5.51,1.89-8.04,0.35c-3.06-1.46-4.48-4.9-4.97-8.05c-0.01-3.64,2.43-7.08,6.03-7.95c4.44-1.9,9.42,0.12,13.09,2.7999
		c3.99,3.42,5.82,8.8501,6.06,14c2.2,17.1801-10.83,34.76-27.99,37.42c-9.31,2.17-18.73-0.45-27.83-2.36
		c6.08,4.0699,13.1,6.45,20.02,8.67c16.79,5,35.52,5.75,51.88-1.1801c19.37-8.42,30.69-31.6899,25.52-52.14
		c-1.3-5.63-3.47-11.3099-7.53-15.53c-4.24-3.84-10.29-5.9199-15.93-4.34c-2.69,1.09-5.66,2.76-6.41,5.8
		c-0.6,3.9299,1.29,8.08,4.3,10.59c3.3,2.5601,7.52,0.67,11.18,0.1899c-2.72,3.51-7.56,5.51-11.78,3.5701
		c-4.28-2.65-8.5699-7.04-7.74-12.52c-0.59-4.1,2.35-7.4399,5.44-9.67c5.54-3.4099,12.87-3.0499,18.57-0.21
		c8.18,4.2001,12.36,13.23,14.08,21.86c3.51,16.39-1.42,34.74-13.72,46.35c-9.08,9.5901-22.39,14.0801-35.31,14.9501
		c-19.21,1.39-38.27-4.03-55.25-12.76c8.03,12.38,13.15,26.74,14.3,41.47c2.24,20.6901-3.03,41.4301-10.76,60.5
		c-8.39-7.5599-17.43-14.38-25.81-21.9399c-14.59-12.9-27.13-29.48-31.1-48.9c-3.64-21.5701,0.88-43.41,5.81-64.41
		c-2.96-1.74-6.82-2.99-8.05-6.54c-0.48-2.6699,0.05-5.35,1-7.83c-3.71-5.23-8.12-9.92-11.9-15.09c-4.96-5.84-8.85-12.5-13.72-18.38
		c-0.57,5.2-0.46,10.4399-0.52,15.67c-1.74,21.8199-8.17,43.22-18.35,62.6c-9.45,17.13-21.27,33.02-35.39,46.58
		c-5.27,5.0601-10.07,10.63-15.89,15.08c-2.58,2.4501-5.22,4.88-8.45,6.4601c-8.74-18.87-16.69-38.12-24.1-57.55
		c-7.62-20.86-12.24-43.01-11.74-65.26c0.93-8.14,1.3-16.39,3.67-24.28c2.75-9.0599,6.06-18.0099,10.74-26.25
		c9.71-18.5,22.24-35.37,35.52-51.45c5.48-6.8199,11.79-12.9,17.17-19.8099c-2.39-4.27-4.56-9.53-2.29-14.3
		c1.36-4.1,5.69-5.74,8.99-7.96c-1.04-5.24-0.84-10.61-0.86-15.92c0.13-9.02-0.1-18.04,0.03-27.0601c0.05-4.36,1.19-8.62,1.03-12.98
		c3.87-48.4399,20.83-95.39,46.32-136.6c12.64-20.77,27.68-40.02,43.86-58.1c2.5-2.51,5.09-4.93,7.25-7.74
		c6.41-7.95,14.84-13.82,21.76-21.27c12.39-11.02,25.07-21.75,38.45-31.58c9.08-6.94,18.76-13.04,27.89-19.89
		c-8.3701,2.2-16.4901,5.3199-24.6801,8.11c-1.78,0.37-2.42,2.48-4.1299,2.9c-14.21,3.77-27.7,9.7401-40.92,16.08
		c-34.2,16.02-66.8,35.45-97.13,57.94c6.06,7.62,6.41,17.87,6.54,27.18c0.2,11.59-2.37,23.07-6.54,33.85
		c-5.13,12.52-12.04,24.59-22.02,33.89c-6.29,6.0701-13.98,10.37-21.74,14.26c-24.64,13.51-48.58,29.5601-66.32,51.66
		c-13.59,16.84-21.4,38.62-19.77,60.35c-0.17,11.39,2.36,22.5601,4.18,33.75c-20-15.41-31.3-40.58-32.36-65.54
		c-0.74-4.08-0.53-8.22,0.09-12.2899c0.37-16.76,5.47-32.9401,11.04-48.61c-3.12,3.5099-4.95,7.9299-7.9,11.59
		c-2.44,4.1-5.88,7.4399-8.75,11.23c-5.41,6.28-12.5,11.16-16.44,18.63c-5.9,10.87-11.35,22.05-15.16,33.85
		c-3.26,10.22-5.42,20.97-4.47,31.74c1.19-2.96,1.67-6.2,3.24-9c2.91-4.03,7.32-7.3099,12.44-7.5399
		c9.01-1.25,18.78,5.0599,20.28,14.2699c1.9,7.7001-2.17,16.26-9.39,19.5601c-7.39,3.39-16.13,0.63-22.4-3.9301
		c-5.53-4.86-7-12.6899-7.01-19.71c0.48-11.98,3.66-23.6899,7.93-34.84c3.21-8.9,7.99-17.1,11.99-25.64
		c-5.44,3.08-10.48,6.87-16.19,9.48c-19.15,9.85-40.59,14.45-61.94,16c-9.34-0.28-18.75,0.62-28.02-0.8199
		c-4.75-0.0901-9.37-1.27-14.1-1.4701c7.86-27.4399,22.47-52.9199,42.33-73.4399c10.28-9.55,21.62-18.0701,34.28-24.23
		c-9.52-0.4901-19.14,0.77-28.58-0.86c-9.03-0.42-17.95-2.15-26.67-4.49c-9.85-2.99-20.55-6.45-26.91-15.12
		c-2.51-4.03-3.53-9.02-2.49-13.67c0-6.9901,5.07-13.37,11.68-15.37c6.62-2.52,14.29-0.07,19.19,4.7599
		c5.88,6.64,7.2,18.28,0.07,24.56c-4.85,5.86-13.15,5.72-20.01,4.64c18.93,10.63,41.16,12.69,62.45,12.84
		c7.91-0.42,16.01,0.14,23.66-2.39c12.05-3.98,24.6-6.35,37.24-7.34c-9.18-1.47-18.49-2.0699-27.56-4.24
		c-17.84-3.91-35.12-11.17-49.63-22.38c-14.67-12.12-26.92-28.2-31.14-47.05c7.34,5.15,14.53,10.56,22.42,14.87
		c15.18,9.18,32.84,14.97,50.72,14.26c7.61,0.26,15.2-0.79,22.63-2.4c30.17-6.86,57.07-23.25,82.01-41.0099
		c16.47-11.48,37.46-13.85,57-12.33c16.06,1.74,32.19,6.38,45.43,15.91c14.67-10.14,29.09-20.7,44.49-29.74
		c11.32-6.86,22.59-14,34.87-19.05c0.62-1.33,0.42-3.53,2.22-3.89c3.88-1.17,7.79-2.37,11.35-4.35c-3.12,0.63-6.08,1.8-9.15,2.58
		c-3.85,0.21-7.65,0.77-11.39,1.6899c-10.93,2.76-22.23,3.28-33.39,4.4301c-12.84,0.5099-25.75-0.79-38.25-3.78
		c-31.87-7.82-58.98-33.15-68.19-64.76c-4.25-13.73-4.58-29.43,2.44-42.32c8.75-14.75,27.27-23.54,44.14-19.2
		c8.87,2.55,17.04,8.33,21.59,16.46c3.56,6.16,4.68,13.91,2.09,20.64c-3.15,7.3-9.91,12.26-17.18,15.02
		c3.89-3.16,8.12-6.25,10.32-10.91c3.65-6.54,2.72-15.18-2.21-20.8c-3.64-4.16-9.29-6.55-14.79-6.35
		c-8.46-0.46-16.42,4.06-22.25,9.87c-3.59,4.54-6.53,10.42-5.3,16.36c0.78,11.9,9.44,21.08,17.91,28.56
		c5.32,4.06,11.19,7.64,17.76,9.22c7.29,0.1,14.67,0.64,21.86-0.81c8.31,0.02,16.93-1,24.91,1.9301
		c8.11,2.74,14.83,8.28,21.27,13.75c9,8.52,20.61,14.29,32.88,16.15c7.31,0.27,14.7,0.5,21.93-0.8c8.4-0.04,16.99-0.87,24.72-4.4
		c11.17-4.74,22.87-8.08,34.13-12.54c-3.65-1.98-7.89-1.03-11.85-1.24c-15.65-0.31-31.88,1.56-46.86-4.09
		c-9.14-3.64-18.15-8.95-23.73-17.27c-4.27-5.6-5.71-12.77-6.4-19.61c-1.47-10.74-0.73-21.78-3.78-32.3
		c11.1201,2.22,22.53,2.12,33.63,4.46c13,2.9,22.73,14.09,26.5,26.5c3.1801,10.42,5.3,21.81,12.84,30.16
		c6.42,6.34,15.19,9.62,23.74,11.94c8.17-1.89,16.24-4.17,24.3-6.47c9.46-2.44,19-4.52,28.59-6.41c24.08-5.06,48.61-7.43,73.12-8.85
		c11.35,0.03,22.71-0.09,34.07,0.07c4.98,0.67,10,1.02,15.04,0.96c13.79,1.45,27.64,2.7,41.23,5.63c9.8799,1.6,19.5,4.57,29.3,6.4
		c-2.12-1.15-4.46-1.86-6.42-3.26c-3.7-2.11-5.65-6.24-6.81-10.16c-1.7-8.65,1.22-17.79,6.89-24.41c5.05-5.44,12.54-7.05,19.14-9.65
		c-12.08-3.51-25.43-1.72-36.41,4.3199c-7.8199,3.61-13.99,10.09-22.17,13.02c-2.75,0.27-6.08,0.65-8.1-1.68
		c-2.81-2.91-4.88-7.52-2.82-11.42c2.75-8.3,11.66-11.27,18.47-15.35c-7.7-2.4-16.21-3.86-24.02-1.17
		c-7.85,2.73-14.66,8.92-17.24,16.92c-1,4.29,1.91,8.27,5.29,10.57c2.04,0.42,4.16,0.2,6.24,0.21c0.76-0.81,1.54-1.6,2.34-2.37
		c0.05-2.59,0.1-5.17,0.22-7.75c1.93,1.76,3.97,3.45,5.52,5.59c1.27,3.97-1.36,7.74-3.1,11.13c-2.83,3.57-6.24,7.06-10.79,8.26
		c-7.91,2.78-16.58-2.2-20.71-8.99c-3.66-5.19-3.42-11.78-3.0099-17.8c1.6-10.8,7.81-21.22,17.5699-26.48
		c15.97-9.84,35.94-10.47,53.7401-5.98c21.83,5.39,42.12,16.25,59.33,30.63c3.87,3.67,7.39,7.73,11.48,11.17
		c-8.77-18.19-24.95-31.73-42.54-41.05c-20.75-10.19-43.16-16.21-65.23-22.79c-21.6-6.36-43.05-13.99-62.37-25.72
		c-5.53-3.43-11.45-6.27-16.51-10.39c-3.96-2.85-7.76-6.47-12.67-7.48c-5.17,0.01-10.42,1.41-14.88,4.06
		c-7.25,4.76-10.8,13.1-17.24,18.72c-4.99,5.89-13.24,7.87-20.66,7.09c-5.58-0.95-11.3-1.9-16.31-4.66
		c-6.72-3.71-13.51-7.3-20.46-10.55c-4.03-1.9301-8.47-2.61-12.65-4.05c5.78-1.5699,11.26-4.24,16.02-7.88
		c3.77-3.23,6.84-7.27,11.06-9.97c4.74-3.7,10.66-5.29,16.43-6.54c5.6-0.53,11.24-0.22,16.85-0.18c14.49,1.3,28.13,6.68,41.48,12.11
		c-9.1201-8.42-19.19-15.86-27.76-24.9c-10.9-11.45-25.31-18.9-40.16-23.88c-4.26-0.82-8.66-0.27-12.97-0.32
		c7.09,3.16,14.94,6.14,19.36,12.94c1.44,2.25,2.28,6-0.31,7.74c-2.44,2-5.9,1.54-8.42-0.02c-6.26-2.76-10.1-8.69-15.21-12.95
		c1.26,5.04,3.26,9.97,3.14,15.26c0.3,4.99,0.11,11.77-5.17,14.15c-1.9901-0.94-4.86-1.27-5.4-3.83c-2.84-7.51-1.46-15.77-1.21-23.6
		c-4.61,7.69-8.67,16.25-16.53,21.2c-1.62,1.38-3.82,0.99-5.76,1.12c-1.15-2.37-2.11-5.11-0.84-7.63
		c3.47-7.36,9.79-12.68,15.25-18.49c-8.82,2.71-18.7599,8.19-27.72,2.9c0.14-2.86,1.25-5.51,2.34-8.11
		c-8.66,5.15-17.74,11.67-20.61,21.89c-1.62,3.35,0.25,6.89,2.11,9.69c2.59,3.17,7.23,3.48,10.9,2.35c3.88-1.97,5.12-6.4,4.5-10.45
		c-1.12-0.78-2.25-1.54-3.37-2.29c-2.06,1.34-3.99,2.85-6.02,4.2401c0.8-1.92,1.43-4.08,3.1-5.45c2.79-2.66,8.01-1.15,9.17,2.44
		c2.13,5.24-1.33,11.24-5.93,13.89c-5.46,3.08-13.58,1.18-16.28-4.72c-1.9-3.49-2.16-7.72-0.79-11.44
		c2.03-6.82,7.23-11.94,12.4-16.52c8.06-6.34,18.18-9.45,28.23-10.78c-2.56-3.54-7.37-4.63-9.61-8.5
		c-1.9901-2.19-2.9-5.65-1.14-8.23c1.77-1.88,4.54-2.14,6.99-1.8c7.25,2.76,12.48,8.77,17.38,14.51
		c-1.09-5.51-3.42-10.83-3.31-16.53c-0.1-4.52-0.18-9.74,3.4-13.08c2.1,0.21,4.75-0.46,6.31,1.4c1.79,3.2,2.54,6.95,2.43,10.6
		c-0.02,5.17,0.16,10.37-0.7,15.49c2.26-2.91,4-6.17,5.82-9.36c3.28-5.53,7.83-10.69,13.96-13.06c3.29-0.16,4.87,4,3.92,6.79
		c-2.74,8.08-10.13,12.96-15.25,19.38c8.15-3.18,16.76-5.6,25.59-5.27c-3.28-4.8199-3.47-10.81-5.01-16.2599
		c-3.23-12.22-8.87-24.12-17.98-33.06c-9.96-10.64-24.08-16.7-38.38-18.55c-4.26-0.22-8.52-0.04-12.78-0.04
		c-1.52,1.7-3.25,3.63-2.91,6.11c0.43,5.52,2.04,11.69-1.55,16.56c-3.58,4.14-9.6,5.03-14.77,4.63c-4.68-0.52-7.19-5.28-7.85-9.48
		c-0.64-5.43,1.3-10.9,4.21-15.42c5.66-7.78,15.7599-10,24.74-11.29c14.15-1.08,28.49,3.54,39.81,12
		c8.99,6.88,16.42,15.6,22.14,25.35c0-4.38-1.09-8.71-2.71-12.75c-2.33-4.18-0.74-9.09-1.48-13.6c-2.21-11.45-3.92-23-6.52-34.38
		c-3.09-14.21-8.4-28.2-17.23-39.85c-9.33-11.17-21.06-20.13-33.6-27.39c-7.83-3.56-16.52-4.85-24.24-8.75
		c-8.01-3.02-14.75-8.9-23.23-10.78c-12.81-3.2-25.5-6.93-38.42-9.72c7.9301,3.81,17.46,7.4,20.7401,16.41
		c2.27,7.5,0.46,15.69-2.77,22.66c-6.8-2.87-13.28-7.2-17.49-13.37c-2.35-3.39-1.99-7.62-2.62-11.49
		c-0.96-5.1,0.33-10.44-1.54-15.39c-7.26-2.15-14.42-4.89-21.93-6.04c-8.33,0.14-16.6-1.04-24.93-1.14
		c-9.92-1.48-20.07-2.17-29.64-5.34c-8.5-3.5-15.27-9.97-22.38-15.6c-3.93-3.2-9.32-3.13-14.08-3.99
		c-7.59,0.31-15.37,1.41-22.32,4.67c-6.04,2.54-10.82,7.75-13.3,13.76c-0.93,3.67-1.35,8.67,2.48,10.87
		c2.56,2.03,5.82,0.76,8.33-0.63c-0.17-2.35-0.7-4.65-1.16-6.95c1.46,1.63,3.99,2.94,3.87,5.43c0.64,5.23-5.36,8.32-9.86,7.95
		c-8.35,0.38-13.81-9.22-11.6-16.69c1.4-7.06,6.36-13.17,12.91-16.12c11.18-6.43,24.64-7.49,37.13-5.12
		c-4.08-5.13-9.78-8.55-14.12-13.42c-9.21-8.51-18.75-16.67-28.74-24.25c-15.76-11.63-34.15-20.65-53.94-22.04
		c0.6-0.95,1.11-2.08,2.31-2.37c14.37-6.34,30.85-9.42,46.27-5.24c8.61,2.07,16.35,6.52,23.85,11.1
		c8.57,5.58,15.93,12.71,23.65,19.37c3.35,3,5.99,6.88,9.98,9.11c0.52-5.24,0.87-10.77-1.4-15.68c-2.79-6.67-9.09-10.77-14.79-14.74
		c7.28,0.04,14.52,2.82,20.03,7.57c8.99,8.78,12.17,21.3,17.76,32.16c7.69,15.7,19.87,29.79,36.08,36.97
		c10.92,3.89,22.01,7.4,33.18,10.48c-3.34-2.43-7.3-3.77-10.81-5.9c-23.3-12.97-44.38-31.35-56.88-55.21
		c-7.54-14.45-10.03-32.07-4.48-47.62c1.76-5.11,5.58-9.01,9.09-12.95c7.3-6.7,17.15-11.97,27.34-10.29
		c6.18,0.65,12.3,4.05,15.46,9.5c2.33,3.64,1.96,8.16,1.6299,12.27c-1.79,6.94-7.07,12.84-13.89,15.18
		c-2.47-1.01-4.96-1.99-7.2-3.46c3.17-1.44,8.32-2.25,8.29-6.7c0.53-3.1-2.44-4.95-4.45-6.72c-4.7-2.56-10.62-0.28-13.98,3.46
		c-6.32,7.58-8.7,18.53-5.31,27.9c2.05,4.79,4.54,9.69,8.76,12.94c1.03-7.18,1.39-15.18,6.64-20.78c2.79-3.58,7.86-4.64,12.14-3.71
		c3.81,0.63,6.89,4.14,6.92,8.03c-0.86,10.47-5.17,20.33-5.6,30.87c-0.61,12.73,4.35,25.91,13.74,34.65
		c-0.7-3.22-1.34-6.46-1.85-9.72c-0.91-9.4,3.64-19.04,11.4-24.41c6.91-5.13,17.02-7.54,24.69-2.66c8.47,4.43,9.63,17.73,2.43,23.82
		c-5.18,4.59-15.3,3.46-17.81-3.51c-2.53-4.53,1.57-8.95,4.46-12.12c-3.31-0.13-6.82-0.37-9.68,1.62
		c-12.01,7.19-13.51,26.6-2.98,35.75c4.91,5.01,11.43,7.9,17.17,11.79c2.26,1.43,4.2,3.55,6.95,4.02c8.55,2.2,17.1,4.41,25.61,6.8
		c-3.3-5.02-7.35-9.92-8.29-16.04c-0.27-4.41,0.35-8.89-0.7-13.23c-0.75-5.59-3.16-10.73-5.68-15.7c8.98,3.84,18.53,6.24,28.25,7.09
		c8.64,0.86,17.32,3.37,24.35,8.63c5.11,3.26,8.71,9.06,8.7,15.21c0.63,9.08-3.55,18.35-0.23,27.24
		c2.67,7.35,10.18,10.8,16.29,14.78c5.26,4.4,11.01,8.24,15.7,13.28c13.14,12.74,20.15,30.36,24.09,47.93
		c4.11,19.64,7.1299,39.5,10.79,59.23c3.11,17.88,6.5,36.22,15.14,52.37c-2.02-7.65-5.14-14.99-6.8-22.75
		c-1.37-6.54-2.8199-13.09-3.2599-19.77c-1.21-5.72-0.26-11.64-1.4901-17.36c-0.48-15.63,0.13-31.27-0.27-46.89
		c-1.15-9.24-2.66-18.63-6.9-27.03c-2.9-6.25-7.47-11.48-11.7-16.83c11.29,2.59,21.96,8.17,30.41,16.11
		c4.12,4.67,8.01,9.69,10.57,15.42c4.1,8.17,5.75,17.22,8.18,25.95c1.39-3.69,1.38-7.66,1.73-11.52c1.51-9.91,3.69-20.07,9.33-28.54
		c5.26-8.18,11.84-16.33,21.39-19.53c6.09-2.55,13.25-0.26,17.79,4.22c4.65,5.63,3.1,14.58-2.1,19.32c-2.07,1.66-4.83,1.67-7.31,1.3
		c-2.11-2.04-2.33-5.12-3.07-7.79c1.31,1.72,2.61,3.44,3.94,5.17c2.21-1.05,5.0099-1.88,5.58-4.62c1.9-6.05-4.88-11.8-10.66-10.41
		c-7.87,1.12-15.11,5.75-19.55,12.33c-7.44,9.01-11.43,20.38-13.24,31.81c-0.9901,7.7-0.27,15.46-0.46,23.19
		c-0.62-1.68-0.94-3.48-1.85-5.03c-0.17,2.16,0.22,4.31,0.43,6.46c-1.36,8.45,1.14,16.89,0.59,25.39c4.36-3.96,7.88-8.97,9.79-14.56
		c2.54-7.31,0.75-15.08-0.77-22.39c4.16,5.03,7.28,11.1,7.89,17.68c-0.43,11.4901-6.56,21.55-11.02,31.84
		c-6.41,13.65-10,29.17-7.04,44.17c1.75,10.51,5.6,20.7,11.35,29.67c8.91,9.52,19.53,17.29,30.14,24.8199
		c22.04,14.87,46.25,27.02,72.1,33.58c-7.04-5.77-14.78-10.96-20.29-18.31c-5.91-6.35-10.88-13.59-14.62-21.42
		c-4.5-11.16-14.51-18.78-19.8-29.49c-8.14,0.45-16.86,0.68-24.13-3.61c-6.66-3.22-10.71-9.84-13.65-16.35
		c-4.1-9.84-4.98-20.61-6.08-31.1c8.43,6.35,19.38,6.75,29.02,10.22c-2.7-14.67-3.78-29.69-2.5-44.57
		c2.1-25.76,10.11-51.57,25.47-72.58c7.77-10.21,16.97-19.67,28.39-25.77c8.85-5.33,19.32-8.33,29.67-7.35
		c11.3101,1.47,19.75,14.25,15.97,25.16c-2.22,8.26-8.91,15.22-16.96,17.98c-5.29,2.48-11.69-0.7-14.46-5.48
		c-4.42-8.32,1.29-19.62,10.3-21.77c4.01-1.84,7.85,1.47,10.56,4.13c-4.27,0.44-9.02-0.91-12.8,1.7c-3.21,1.5-4.57,5.14-5.38,8.35
		c0.77,3.97,4.14,8.07,8.6,7.06c6.52-2.29,12.22-8.28,12.57-15.42c0.16-3.2-0.32-6.87-3.09-8.92c-4.35-3.41-10.13-2.81-15.29-2.6
		c-14.32,1.67-26.55,10.56-36.25,20.73c-5.36,6.68-11.23,13.03-15.48,20.53c-12.81,20.81-18.21,45.5-18.28,69.74
		c0.53,7.84,1.17,15.69,2.54,23.43c0.94,3.96,1.2,8.6,4.71,11.29c9.26,8.47,11.58,21.3,14.94,32.8c-1.2,0.72-2.4,1.44-3.59,2.17
		c2.33,4.11,4.87,8.11,7.72,11.89c-0.33-5.23-2.09-10.21-3.13-15.32c0.87-0.87,1.73-1.75,2.61-2.61c0.04,3,0.71,5.93,1.97,8.66
		c1.27-16.36,3.49-34.65,15.98-46.63c8.94-9.21,22.15-11.71,34.41-12.83c-2.49,15.12-6.41,31.36-18.02,42.24
		c-9.8,8.27-22.66,11.71-32.32,20.23c1.05,6.49,4.1,12.39,6.36,18.51c7.45,19.43,22.79,34.81,40.15,45.75
		c10.6,5.78,22.6,8.2,34.09,11.6c-5.12-4.52-9.79-9.5-14.58-14.34c-3.32-0.01-6.52,0.96-9.81,1.04c-7.76-0.39-15.75-2.95-21.28-8.63
		c-6.89-6.39-10.16-16.07-9.75-25.33c0.59-10.89,6.27-20.75,13.77-28.4c1.01-8.73,2.04-17.69,6.14-25.61
		c3.51-7.01,8.41-14.26,16.18-16.89c6.18-2.41,14.38-1.24,18.38,4.46c5.15,6.31,2.96,16.86-4.02,20.92
		c-3.03,1.86-7.12,3.85-10.48,1.6c-2.79-1.5099-5.06-5.33-3.38-8.39c1.13-2.7,3.7-4.75,6.67-4.9301
		c-1.43,1.8101-3.13,3.42-4.34,5.39c0.27,2.73,3.18,5.48,6.06,4.94c7.53-1.24,11.18-11.48,6.31-17.34
		c-4.53-4.68-12.71-5.32-17.87-1.31c-10.51,7.7599-14.82,21.27-15.4901,33.8199c4.92-2.3199,9.76-5.04,15.16-6.09
		c7.07-0.69,14.59-0.8,21.02,2.72c8.29,3.91,14.27,11.87,16.22,20.77c2.28,10.66-0.18,22.24-6.73,30.98
		c-5.09,6.21-11.21,11.77-18.71,14.87c6.5,6.0601,12.17,13.09,19.69,17.98c6.16,4.47,13.67,6.25,20.4,9.61
		c18.79,9.42,35.68,23.7,45.39,42.6c1.39,2.5,2.2,5.7,5.1,6.92c6.36,4.39,13.69,6.98,20.54,10.47c10.14,5.13,20.4,10.05,30.32,15.6
		c18.5099,9.19,35.55,21.03,53.77,30.7599c-12.8999-16.8-25.34-33.98-36.4399-52.03c-21.04-34.29-38.19-71.15-48.99-109.98
		c-5.62-20.71-9.13-41.98-10.64-63.35c0.26-5.71-1.11-11.31-0.97-17.01c-0.7599-41.35,5.03-82.74,16.54-122.47
		c1.18-4.22,1.42-8.7,3.32-12.7c2.81-6.15,4.49-12.72,6.92-19.02c2.18-6.88,6.11-13.37,6.34-20.74c1.22-6.72,0.57-13.59,1.73-20.32
		c0.16-11.18-3.54-22.41-10.41-31.26c-5-6.34-11.01-12.06-14.6-19.38c-4.88-9.6-4.53-20.78-3.02-31.15
		c0.24-6.55,0.99-13.54-2.32-19.52c-5.7-10.82-15.04-20.38-26.88-24.15c-4.62-0.65-9.78-1.14-13.98,1.33
		c-7.73,4.59-12.87,13.33-12.79,22.36c-0.44,8.94,8.15,17.2,17.1,16.24c6.89-0.24,12.22-5.41,16.21-10.54
		c-2.66,6.25-7,12.43-13.59,14.9c-3.2,1.17-6.74,1.87-10.07,0.85c-11.12-2.3-19.65-12-22.16-22.84c-1.34-8.42-0.26-17.44,4.58-24.65
		c5.18-8.84,14.43-14.99,24.56-16.46c14.22-2.13,28.75,1.91,41.16,8.84c21.77,12.21,37.68,34.5,41.78,59.18
		c2.22,10.32,1.49,20.91,1.43,31.39c-1.02,4.69-0.75,9.52-1.69,14.22c-0.11,3.85-1.31,7.59-1.2,11.46c1.83-2.59,2.12-5.81,2.84-8.8
		c2.2299-10.21,3.57-20.58,4.97-30.92c0.5299-12.68,2.3099-25.45,0.5199-38.11c-1.2899-24.27-7.71-48.39-19.2499-69.82
		c-10.2-16.73-22.04-34.42-40.82-42.25c-12.24-5.13-26.65-8.43-39.29-2.76c-10.5,5.41-17.61,19.07-12.49,30.43
		c2.53,6.51,11.11,10.34,17.26,6.35c4.03-2.83,4.52-8.17,6.97-12.13c0.41,4.51,0.49,9.3-1.7,13.41c-3.62,8.36-14.95,12.57-22.94,7.9
		c-8.62-4.87-13.19-14.52-15.08-23.89c-2.09-8.73-0.32-18.16,4.17-25.85c5.82-10.31,16.6-16.89,27.67-20.28
		c11.27-2.8,23.53-2.53,34.3,2.08c17.97,7.29,30.83,22.74,41.62,38.26c8.49,13.29,15.9,27.41,20.42,42.57
		c3.75,12.31,5.1699,25.18,6.2,37.95c1.1901,7.34,0.3199,14.83,0.76,22.24c0.5,25.89-5.26,51.55-14.18,75.75
		c1.21-0.64,2.41-1.45,2.97-2.77c11.53-22.47,24.95-43.98,40.18-64.13c-5.59-8.54-9.63-18-12.0399-27.91
		c-2.9801-11.02-2.4901-22.56-1.8401-33.83c1.14-5.62,2.17-11.3,4.1901-16.68c3.9-9.48,10.72-17.29,16-25.97
		c6.87-10.56,12.8099-21.71,17.77-33.29c5.7799-13.29,9.0199-27.66,9.6899-42.12c-0.39-7.84-1.0699-15.72-3.66-23.2
		c-4.49-14.78-13.36-27.63-22.2999-40.03c6.7899,1,13.0599,4.05,18.98,7.4c18.8099,10.97,31.92,29.91,38.46,50.42
		c3.9601,11.13,5.1,22.93,7.36,34.45c0.2101-12.13,3.38-23.94,6.91-35.47c0.91-5.85,0.0699-11.86,1.05-17.72
		c-0.86-6.35-0.26-12.81-1.42-19.14c-1.41-11.56-4.37-23.14-10.14-33.33c0.8201,4.67,1.04,9.88-1.65,14.01
		c-2.9199,5.15-9.2999,8.08-15.0699,7.25C1106.63,98.27,1099.64,86.88,1103.6801,77.67 M1132.24,220.24
		c-16.6,17.37-30.96,37.14-40.75,59.18c-7.89,18.08-14.28,36.87-19.6799,55.81c1.1799-0.09,2.1599-0.58,2.95-1.46
		c6.99-7.01,14-14.01,21.01-21.01c3.48-3.22,5.95-7.35,9.5-10.53c21.52-25.84,36.96-56.51,46.1899-88.79
		c1.26-5.25,3.38-10.39,3.5901-15.81C1147.23,204.94,1139.85,212.71,1132.24,220.24 M1086.51,224.43
		c-5.35,8.91-10.2,18.13-14.5,27.59c-5.29,12.22-8.28,25.39-9.37,38.63c-1.49,7.1,0.0499,14.46-1.1801,21.61
		c-0.12,4.42-0.74,8.96,0.51,13.29c6.1-8.71,11.55-17.89,16.13-27.5c8.1801-16.13,12.17-34.09,13.91-51.98
		c0.05-9.83,0.11-19.65-0.05-29.48C1089.39,218.62,1088.21,221.74,1086.51,224.43 M1116.21,298.23
		c-10.84,12.29-20.5499,25.66-28.59,39.95c8.05-4.21,16.55-7.52,24.38-12.13c8.75-4.54,16.67-10.5,24.16-16.85
		c14.4399-13.18,27-28.73,35.4399-46.44C1151.6899,271.98,1131.55,282.19,1116.21,298.23 M1327.88,296.9
		c-6.53,4.49-12.28,9.99-18.3,15.11c20.75-1.51,41.41-9.36,56.8501-23.54c3.0299-2.05,5.5299-4.78,7.9099-7.54
		C1357.96,282.61,1341.4,287.18,1327.88,296.9 M1367.96,302.03c-12.4399,1.73-24.6599,4.98-36.35,9.58
		c-7.08,2.88-14.47,5.31-20.96,9.39c2.66,1.05,5.52,1.09,8.36,1.03c4.6899-0.12,9.27,1.27,13.98,1.02
		c24.89,0.88,49.78-5.18,72.16-15.99c2.41-1.2,5.1699-1.94,7.15-3.86c-6.24-1.83-12.74-0.87-19.1101-1.49
		C1384.76,300.29,1376.4,302.21,1367.96,302.03 M1316.3101,329.18c1.9199,2.53,5.5499,2.84,8.2799,4.24
		c19.91,8.95,42.6,10.02,63.73,5.32c-1.6799-2.01-4.2999-2.56-6.58-3.52c-6.33-2.79-12.97-4.83-19.66-6.52
		C1347.01,325.06,1331.4399,327.37,1316.3101,329.18 M1432.66,384.3c12.9299,5.69,27.95,6.42,41.4399,2.22
		c-0.36-0.33-1.09-0.99-1.45-1.32C1459.84,380.41,1445.65,380.05,1432.66,384.3 M1430.55,389.12
		c16.7,12.03,37.2899,18.77,57.88,18.85c-13.76-10.06-30.0801-17.14-47.2201-18.26C1437.75,388.58,1434.1,388.72,1430.55,389.12
		 M1018.47,401.28c-0.66,3.83-3.34,7.12-2.46,11.21c1.39-2.17,2.87-4.29,4.1-6.56c-0.01-1.69-0.16-3.37-0.26-5.04
		C1019.5,400.99,1018.81,401.19,1018.47,401.28 M593.06,410.71c0.82,2.4,1.53,4.87,1.83,7.4c0.44,4.69-1.05,9.88,2.14,13.9
		c5.77,9.45,17.79,10.29,26.23,16.18c-1.6-3.16-3.17-6.57-2.42-10.21c0.3799-5.19,3.3-11.57-0.95-15.89
		C613.04,414.41,601.82,414.91,593.06,410.71 M1152.62,435.29c15.38,6.94,31.45,13.02,48.35,14.72c3.38-0.23,6.5901,1.08,9.97,1
		c12.8701,0.29,25.6001-1.54,38.1201-4.47c-1.92-1.96-4.77-2.35-7.16-3.46c-17.0801-7.03-35.29-12.41-53.9-12.11
		C1176.14,431.8,1164.25,432.71,1152.62,435.29 M1146.58,444.99c11.76,9.56,24.39,18.17,37.4601,25.87
		c28.51,16.08,60.89,24.76,93.36,27.15c-8.14-6.81-17.1901-12.51-25.98-18.46c-17.87-12.03-37.74-21.04-58.64-26.31
		C1177.55,449.64,1162.1,446.69,1146.58,444.99 M1147.71,458.71c9.02,13.76,19.5801,26.75,32.51,37.04
		c13.35,10.86,28.9601,18.66,45.1801,24.29c-8.86-13.28-19.3201-25.53-31.27-36.14C1180.1899,472.98,1164.05,465.31,1147.71,458.71
		 M659.15,599.8c-1.7,4.87-0.52,10.02,0.0699,14.98c0.59,2.29,0.85,4.8199,2.52,6.67c0.23-2.24,0.43-4.47,1.01-6.64
		c0.97-4.57-0.57-9.09-0.94-13.61C660.92,600.73,660.03,600.26,659.15,599.8 M676.4,613.4c-2,3.58-4.73,6.91-5.62,10.99
		c5.98-5.45,12.54-10.99,15.5099-18.76C681.95,606.52,679.08,610.19,676.4,613.4 M635.77,614.72c3.5,6.89,10.76,10.59,17.71,13.1201
		c-1.07-2.53-3.4-4.16-5.19-6.14C645.07,618.05,640.88,614.73,635.77,614.72 M685.22,627.29c-3.31,1.2-7.25,1.7401-9.5699,4.65
		c4.46,0.12,8.83-1,13.29-0.96c3.56-0.56,7.27-1.89,9.45-4.95C693.95,625.79,689.47,625.85,685.22,627.29 M692.58,636.25
		c6.45,2.42,12.59,5.53,18.76,8.57c-2.86-5.04-6.25-9.81-8.34-15.25C699.57,631.87,696.36,634.51,692.58,636.25 M631.32,639.24
		c-1.07,0.86-2.5,1.77-2.27,3.36c7.74-0.02,15.71-1.66,22.46-5.52C644.68,636.48,637.87,637.29,631.32,639.24 M672.43,640.54
		c4.99,5.67,10.14,12.31,18.1,13.62c-1.07-2.89-2.79-5.5699-5.38-7.31C681.17,644.29,677.19,641.36,672.43,640.54 M646.69,652.66
		c-3.55,2.98-5.49,7.26-6.79,11.6201c7.31-3.91,11.96-11.36,15.31-18.72C651.6,646.73,649.52,650.3,646.69,652.66 M664.08,645.5
		c0.36,7.71-1.98,16.09,1.55,23.31c2.9-4.1,3.01-9.4,1.64-14.08C666.44,651.58,666.13,648.16,664.08,645.5 M862.39,664.04
		c-0.8,0.77-1.6,1.55-2.39,2.34c-0.02,1.42-0.1,2.86,0.08,4.3c1.19,2.08,3.78,1.14,5.75,1.38c0.81-1.35,1.67-2.68,2.26-4.14
		c0.0699-1.7-1.51-2.71-2.38-3.94C864.59,663.97,863.48,663.99,862.39,664.04 M704.35,686.33c-4.14,3.35-7.14,8.23-12.37,10.09
		c0.08,0.3,0.24,0.88,0.32,1.17c7.6,0.8199,13.98,5.72,21.53,6.66c4.26,1.09,8.96-0.33,12.39-2.96c2.55-2.9,4.6-6.2,6.6-9.48
		c2.24-3.38,6.5-3.81,9.89-5.41c-5.69-2.21-11.68-3.41-17.67-4.37C718,681.72,710.16,681.73,704.35,686.33 M582.97,786.43
		c7.0601,19.1,20.83,36.85,40.29,44.31c5.89,1.99,11.97,4.21,18.25,4.21c-0.41-0.19-1.24-0.58-1.65-0.78
		c-12.12-3.13-23.72-8.65-33.3-16.75c-2.79-1.81-4.94-4.35-6.87-7c-5.49-6.4-9.87-13.65-14.19-20.85
		C584.83,788.38,583.97,787.31,582.97,786.43 M916.64,790.62c-5.4,2.86-9.53,7.79-11.53,13.56c-0.93,3.35,1.04,6.29,2.47,9.15
		c1.63-2.55,3.04-5.48,5.73-7.1c4.7-1.57,10.33,0.25,12.69,4.74c2.55,4.61,1.37,10.9301-2.67,14.33c-3.39,3.99-9.01,4.63-13.91,4.84
		c11.71,3.69,23.61,7.04,35.14,11.36c69.82,25.71,132.7599,67.66,188.19,116.75c2.9301,3.45,6.92,5.7,9.99,9
		c3.33,3.35,6.55,6.82,10.39,9.6c10.02,9.64,19.8,19.53,29.4399,29.54c4.03,5.55,9.7201,9.63,13.7401,15.21
		c13.8799,14.88,26.7599,30.62,39.59,46.42c4.63,5.3199,8.36,11.5,13.37,16.4399c-1.84-5.45-4.8301-10.4299-6.97-15.76
		c-16.99-33.1699-38-64.4299-62.89-92.15c-3.4701-4.78-8.3-8.36-11.66-13.24c-11.46-11.57-22.92-23.14-34.5699-34.51
		c-4.6101-3.33-8.1901-7.84-12.8401-11.11c-4.33-4.4-9.12-8.28-13.89-12.17c-23.7899-20.16-49.1799-38.38-74.85-56.08
		c-31.0699-21.15-63.36-40.45-96.05-58.98C930.09,786.4,922.26,787.25,916.64,790.62 M1698.86,914.86
		c-19.24,7.02-36.5599,18.62-51.25,32.8c-6.83,5.63-13.02,12.01-18.92,18.6c7.8201-1.5,15.29-4.4,22.92-6.65
		c20.0701-6.61,38.22-18.12,54.15-31.84c3.2-3.51,7.08-6.27,10.51-9.53c3.4299-4.36,7.5-8.19,11.1-12.42
		C1717.65,908.08,1708.17,911.29,1698.86,914.86 M442.88,925.83c-31.96,1.48-61.35,16.5-87.37,34.14
		c8.06-0.31,16.05,1.7401,24.1,0.65c4.68-1.26,9.6-0.07,14.33-1.06c24.68-2.73,48.9-10.43,70.01-23.63
		c6-3.86,12.42-7.14,18.09-11.49c-6.36-0.44-12.73,0-19.09-0.19C456.34,925.78,449.46,924.1,442.88,925.83 M1763.9399,933.75
		c-4.3799,0.63-8.8799-0.35-13.1799,0.86c-23.72,1.84-47.3201,7.31-69.12,17.03c-10.15,4.24-19.85,9.46-29.67,14.41
		c-7.7999,4.7-16.08,8.62-23.52,13.91c5.3,0.14,10.64,0.23,15.91-0.58c5.29-0.75,10.72,0.18,15.97-1.08
		c24.05-1.49,47.62-8.09,69.9301-17.1c18.29-7.74,36-17.03,52.27-28.43C1776.34,933.28,1770.02,932.31,1763.9399,933.75
		 M386.24,984.22c-17.08,12.7401-32.14,27.84-46.96,43.0901c-1.77,1.7799-3.65,3.5099-4.8,5.7899c8.8-1.4299,17.29-4.33,25.87-6.75
		c34.66-11.43,67.67-28.74,95.41-52.58c4.11-4.61,9.38-7.92,13.49-12.51c4.72-4.96,10-9.42,14.21-14.84
		c3.23-3.63,6.84-6.91,9.96-10.63C455.88,947.15,417.59,959.84,386.24,984.22 M480.05,964.1c-12.82,8.94-25.62,18.25-36.11,29.88
		c-11.28,12.35-19.71,27-26.98,42c-2.39,5.12-5.39,9.99-7.23,15.35c22.2-10.95,41.79-27.0599,57.45-46.17
		c12.26-15,20.68-32.71,28.14-50.45C489.87,957.23,485.22,961.1,480.05,964.1 M1487.09,954.56c1.8101,10.71,4.66,21.55,2.9501,32.47
		c-1.28,10.1299-5.5901,19.48-10.2101,28.45c2.28-1.64,3.4801-4.29,5.0601-6.53c5.12-8.75,7.6799-18.9,7.99-28.98
		C1491.83,971.39,1491.58,962.17,1487.09,954.56 M1636.61,991.34c3.67,2.19,8,2.68,12,4.0699c6.37,1.75,12.74,3.65,19.28,4.7401
		c17.42,3.55,35.41,1.9,52.6899-1.59c8.41-2.08,16.9801-3.98,24.9301-7.48c-14.1-4.77-28.66-8.46-43.46-10.11
		c-5.37-0.06-10.74,0.03-16.0901-0.0099C1669.1801,982.42,1652.87,987.11,1636.61,991.34 M1338.6801,993.76
		c3.0399,4.08,7.3099,7.1,10.1,11.43c13.3199,14.11,18.85,33.6,20.46,52.52l0.8201,0.6001c-0.79-7.6001-0.8-15.29-2.6201-22.75
		c-2.2-8.8301-5.9199-17.36-11.35-24.6801C1351.17,1004.41,1345.6899,998.03,1338.6801,993.76 M619.99,1021.47
		c0.48,7.2001,1.87,14.3301,3.05,21.48c4.2,22.75,9.34,45.62,19.38,66.6101c8.68,18.1799,19.9,35.0299,31.8,51.25
		c2.47,3.3199,4.5601,7.0099,7.82,9.6599c-2.28-28.5399-8.93-56.86-20.35-83.2c-8.34-20.3-20.75-38.61-33.85-56.09
		C625.32,1027.86,623.16,1024.22,619.99,1021.47 M635.88,1022.57c7.56,18.79,16.64,37.2499,29.49,53.04
		c12.06,13.41,25.96,25.13,41.15,34.85c-3.45-11.59-8.76-22.58-14.97-32.9299c-9.03-14.8201-20.22-28.4501-33.81-39.29
		C650.66,1032.77,643.72,1026.9,635.88,1022.57 M608.21,1028.53c-0.07,3.85-1.1,7.5599-1.53,11.37c-1.5,8.61-1.84,17.34-2.6,26.0399
		c-0.64,21.04,4.78,41.78,12.87,61.0801c1.77,3.89,2.93,8.3099,5.75,11.5699c2.44-12.4,4.69-24.9099,4.31-37.59
		c-0.09-4.73,0.42-9.53-0.79-14.16c-0.59-10.48-3.02-20.7999-6.25-30.77C616.82,1046.6,613.2,1037.1899,608.21,1028.53
		 M1607.88,1105.22c4.48,10.6901,8.03,21.86,14.24,31.75c9.99,15.91,24.1801,29.16,40.64,38.22
		c-3.29-9.9199-7.27-19.6299-12.1-28.8999c-5.5-10.03-12.86-18.99-21.51-26.4601C1622.38,1114.55,1615.73,1108.8199,1607.88,1105.22
		 M1597.03,1107.55c-0.54,4.23,1.26,8.25,0.99,12.48c1.36,11.7899,2.91,23.61,5.6799,35.1899
		c5.5801,21.53,14.99,42.0701,27.89,60.1901c3.77,5.08,7.3,10.4199,11.99,14.74c-2.1499-21.5-4.7699-43.27-11.96-63.8101
		c-5.1899-14.45-13.08-27.73-21.46-40.52C1605.8,1119.72,1601.88,1113.27,1597.03,1107.55 M1799.47,1116.05
		c4.7001,4.3199,10.48,7.23,15.88,10.58c9.4601,4.98,20.0701,7.25,30.6,8.52c6.17-0.37,12.3301,0.7,18.49-0.25
		c-10.87-7.17-22.0299-14.6901-35.0399-17.22C1819.6,1115.23,1809.46,1115.96,1799.47,1116.05 M1398.41,1122.39
		c-10.1801,2.13-19.4701,7.16-28.25,12.5499c16.0699-6.6599,33.26-11.8799,50.84-10.9399c7.33-0.67,14.38,1.74,21.33,3.76
		c11.51,3.51,22.1901,9.11,33.02,14.25c-1.6-1.91-3.8099-3.1-5.76-4.5701c-6.89-4.34-13.89-8.62-21.5299-11.5299
		C1432.46,1119.4,1414.75,1118.01,1398.41,1122.39 M1588.17,1119.45c-3.52,9.4401-4.29,19.7101-6.0601,29.5901
		c-0.29,10.47-0.5,21.0399,1.5,31.37c2.16,11.11,5.04,22.23,10.16,32.4c1.99-6.1801,2.51-12.7201,3.98-19.03
		c0.27-4.64,1.5699-9.12,1.38-13.78c1.9301-9.28,0.14-18.72-1.15-27.9301C1595.73,1140.9301,1592.66,1129.91,1588.17,1119.45
		 M1792.58,1122.73c9,11.4501,18.7301,22.52,30.63,31.09c14.4701,10.16,30.89,17.9901,48.3101,21.37c-1.01-3-3.85-4.72-5.65-7.1599
		c-2.55-3.39-5.5599-6.37-8.58-9.3c-3.92-3.77-7.4501-7.97-11.9-11.11c-7.1-6.39-15.6801-10.74-24.22-14.8199
		C1811.8101,1129.02,1802.48,1124.86,1792.58,1122.73 M1789.86,1132.66c1.64,4.1899,3.22,8.4099,4.86,12.61
		c6.77,17.49,20.3201,31.85,36.5601,40.98c-4.52-13.38-9.91-27.22-20.39-37.13C1804.6,1142.8,1797.73,1136.9,1789.86,1132.66
		 M461.1,1217.11c-6.42,7.0701-12.04,14.89-16.77,23.2001c-6.38,11.5499-9.35,24.5499-11.61,37.4399c-0.6,2.14-0.86,4.36-0.73,6.61
		c12.55-11.14,22.15-25.47,28.32-41.04c4.19-10.8099,5.8-22.34,7.82-33.6899C465.44,1211.76,463.05,1214.27,461.1,1217.11
		 M462.36,1249.39c-3.69,11.53-5.58,23.5599-6.38,35.58c0.35,9.98-0.79,20.0601,0.94,29.9401c0.14,4.4399-0.35,9.0299,1.4,13.25
		c14.59-27.25,23.02-58.11,22.06-89.1c-0.85-5.51,0.22-11.14-0.93-16.6101c-0.82-4.01,0.03-8.1899-1.32-12.11
		C471.35,1222.64,466.64,1236.02,462.36,1249.39 M485.68,1232.7c-1.3,7.7201-0.49,15.5801-0.7,23.37
		c1.59,15.4601,6.84,30.4301,13.71,44.3301c4.42-17.5601,4.5-36.12,0.65-53.77c-2.48-10.29-6.85-19.95-10.93-29.66
		C486.35,1221.9301,486.26,1227.42,485.68,1232.7 M1826.08,1247.96c4.4601,12.37,13.9,23.2001,26.0601,28.38
		C1847.48,1264.1,1838.45,1252.9301,1826.08,1247.96 M1821.09,1249.61c2.4301,18.75,9.5901,37.92,24.03,50.71
		c-1.96-12.12-4.55-24.59-11.48-34.96C1829.87,1259.8,1826.1,1254.12,1821.09,1249.61 M556.97,1347.65
		c0.88,9.24,1.71,18.5,3.79,27.58c2.49,11.72,8.17,22.4501,14.45,32.54c1.38,2.1699,2.59,4.53,4.53,6.29
		c0.47-3.0601-0.49-6.01-0.68-9.01c0.13-5.62-1.44-11.05-2.48-16.51C572.64,1373.9,566.58,1359.45,556.97,1347.65 M563.98,1348.58
		c4.07,12.4601,9.97,24.76,19.88,33.61c3.06,2.05,5.48,4.8501,8.31,7.2001c-2.71-13.03-10.2-24.73-19.69-33.87
		C569.5,1353.36,567.4,1350.1,563.98,1348.58 M551.34,1351.84c-3.73,15.3101-3.76,32.16,3.3199,46.5601
		c5.13-14.9,4.31-31.65-2.0699-46.05C552.27,1352.22,551.65,1351.96,551.34,1351.84z"/>
	<path d="M1190.9301,358.04c4.3999,0.31,8.6499-1.22,13.0599-0.99c7.01-0.03,14.03,0.01,21.05,0.01
		c4.0399-0.13,7.9299,1.32,11.99,0.96c37.2,3.39,73.52,13.82,108.14,27.69c7.12,2.71,14.2799,5.44,21.1499,8.76
		c-41.2699-10.54-82.71-21.62-125.1799-25.64c-6.47-1.47-13.15-0.28-19.63-1.54c-14.63-1.29-29.22,0.9-43.5601,3.62
		c-22.4399,4.3-44.59,10.46-65.6699,19.38c-21.03,8.85-41,20.17-59.7001,33.22c-2.22,1.54-4.4199,3.11-6.7799,4.41
		c5.3999-6.7,12.8199-11.24,19.0599-17.05c4.58-3.34,8.6801-7.29,13.16-10.75c6.97-6.1,15.4399-10.05,23.38-14.68
		C1129.1,370.64,1159.6899,361.16,1190.9301,358.04z"/>
	<path d="M651.47,373.55c0.86-1.37,1.39-3.16,3-3.84c0.66,12.52,8.4,23.13,10.41,35.33c0.38,7.1,0.81,15.61-5.11,20.74
		c-5.03,6.19-13.19,8.6-18.01,14.98c-2.5,3.73-3.94,8.16-4.11,12.66c-2.6801-4.23-3.53-9.32-4.9901-14.04
		c-1.69-7.68-3.14-15.48-2.64-23.38c-0.49-11.42,2.85-24.41,12.72-31.22C646.36,381.66,649.25,377.76,651.47,373.55 M637.5,414.5
		c-2.88,8.64-2.69,18.21-0.08,26.86c1.89-8.07,12.39-8.43,15.4-15.66c2.67-8.51-2.5-16.64-2.95-25.03
		C645.7,405.23,640.37,408.9,637.5,414.5z"/>
	<path d="M923.83,400.9c6.24,1.58,12.62,2.36,19.06,2.25c5.31,1.05,10.79,0.4,16.02,1.89c7.17,1.28,13.16,5.87,17.83,11.25
		c7.02,9.02,10.81,20.3,11.27,31.66c-0.1,10.85,0.05,21.69-0.05,32.53c-2.47-3.85-4.1-8.14-6.28-12.14
		c-3.3-3.81-6.85-7.58-11.64-9.47c-8.45-4.28-18.35-4.62-26.63-9.26c-6.39-4.18-12.3799-9.9-14.61-17.42
		C925.5,422.03,926.6,411.17,923.83,400.9 M940.93,413.83c4.96,3.9,10.89,6.42,15.94,10.25c10.8,6.95,19,17.43,23.8,29.31
		c1.6,3.32,2.15,7.12,4.18,10.24c-1.6-11.95-6.67-23.64-15.49-32.02C961.59,423.37,951.32,417.98,940.93,413.83z"/>
	<path d="M686.71,425.84c2.77-1.15,4.5-3.8,7.08-5.26c-2.48,7.08-5.44,14.15-10.08,20.11c-4.73,5.85-12.47,7.81-19.64,8.41
		c-4.31,0.77-8.84,1.07-12.77,3.19c-3.37,1.43-5.45,4.65-8.45,6.63c2.67-8.99,7.7401-17.21,13.45-24.61c3-3.01,5.68-6.83,10.03-7.94
		C673.06,424.9,680.01,427.61,686.71,425.84z"/>
	<path d="M465.8,444.14c10.1-3.49,20.45-7.12,31.26-7.33c10.83-1.11,22.71,2.86,28.75,12.35c4.67,6.01,6.44,13.54,8.04,20.81
		c-7.63,0.73-15.14,2.64-22.81,2.98c-11.14,0.34-22.86-4.17-29.37-13.54c-3.21-3.2-5.51-7.19-8.93-10.19
		C470.64,447.25,468.17,445.75,465.8,444.14z"/>
	<path d="M528.59,472.76c9.41-3.32,19.53-4.4,29.3799-5.68c7.36,0.1,14.82-0.66,22.08,0.82c10.38,1.04,20.29,4.67,29.98,8.31
		c2.77-0.13,5.2-1.83,7.95-2.25c10.91-3,23.63,0.13,30.98,9.01c6.9,8.54,8.86,20.65,5.18,30.98c9.6,11.02,17.87,23.18,24.83,36.04
		c2.2,4.75,5.1801,9.26,6.16,14.48c-0.31-0.33-0.93-1-1.24-1.33c-9-14.71-17.68-29.86-29.41-42.61c-0.37-0.51-1.12-1.54-1.49-2.05
		c-2.37,2.55-3.68,5.89-6.22,8.3c-7.04,8.96-18.41,14.2599-29.77,14.21c-8.36-0.75-16.42-4.73-21.75-11.27
		c-4.68-6.17-6.99-14.04-6.25-21.77c0.87-7.43,3.78-14.66,8.33-20.61c0.96-1.3,2.57-2.26,2.71-4.01
		c-14.03-2.42-29.6-2.38-41.87,5.83c-6.27,3.58-9.94,10.75-10.25,17.83c-0.32,6.51,3.51,12.97,9.41,15.74
		c4.09,0.96,8.73,0.39,12.13-2.28c4.9-2.91,6.66-10.94,1.74-14.68c-3.5-2.57-6.78,1.6-9.45,3.48c0.82-3.41,3.25-7.56,7.24-7.34
		c3.13-0.4,7.21,0.33,8.37,3.73c3.31,5.37,1.57,12.63-3.08,16.63c-5.33,5.99-15.11,7.97-21.9301,3.48
		c-2.81-2.56-5.88-5.14-7.31-8.76c-3.72-9.12-1.57-20.5,5.68-27.3c8.7401-9.79,22.69-12.75,35.29-12.78
		c7.28-0.45,14.25,1.98,21.45,2.56c-0.63-0.98-1.27-2.08-2.46-2.42c-8.59-3.63-17.74-5.71-26.95-7c-7.02-0.16-14.06-1.6-21.05-0.15
		c-4.36-0.28-8.53,1.07-12.86,1.09c-3.61,5.59-4.22,12.5-4.27,18.99c-0.75,3.59-0.86,7.24-1.03,10.9
		c-1.98,10.94-8.06,21.25-17.03,27.88c-3.44,3.3-7.48,5.88-11.24,8.78c-2.05,1.23-3.63,3.44-6.19,3.57
		c-5.88-13.21-7.12-29.82,1.54-42.13c8.31-12.27,21.69-19.53,34.38-26.46C536.41,473.02,532.45,473.88,528.59,472.76 M599.38,501.99
		c-0.79,0.8-1.58,1.6-2.36,2.4c-0.04,1.09-0.05,2.18-0.04,3.28c1.22,0.92,2.15,2.72,3.95,2.41c2.28-0.7,4.82-2.23,4.12-5.01
		C605.63,501.64,601.69,501.73,599.38,501.99z"/>
	<path d="M467.78,503.77c17.32-13.76,37.37-23.84,58.35-30.71c1.46-0.55,2.29,1.07,3.25,1.83c-2.56,1.17-5.35,1.61-8.02,2.42
		c-9.67,3.03-18.75,7.58-27.7,12.29c-3.05,1.63-6.54,2.8-8.61,5.77c0.6,10.32,7.09,19.29,7.45,29.65
		c-0.3,12.29-7.76,22.67-14.43,32.4c-7.6-6.56-14.18-15.95-13.07-26.47c0.99-10.17,6.71-19.17,13.19-26.8
		c1.79-2.66,4.55-4.84,5.07-8.17c-8.85,4.87-16.36,11.74-24.02,18.23c-15.39,14.96-27.84,33.79-31.83,55.17
		c-0.7,6.32-2.3,12.7-0.94,19.07c0.85,14.64,5.92,28.92,13.78,41.27c6.94,11.08,17.73,20.1201,30.5,23.5601
		c10.92,2.9,23.19-0.29,31.06-8.4901c5.17-5.78,9.58-12.33,12.29-19.64c2.08-5.5,4.35-11.17,3.97-17.16
		c0.36-8.03-3.57-16.36-10.72-20.35c-6.1-3.34-13.62-4.91-20.36-2.68c-4.15,1.25-9.06,2.92-10.75,7.35c-1.33,4.03,1,8.03,1.07,12.09
		c-2.83-1.71-5.29-4.91-4.54-8.37c0.65-5.86,5.21-10.67,10.62-12.64c10.96-4.2,24.86-1.43,32.3,8c3.54,4.41,4.85,10.09,5.21,15.62
		c-0.44,11.9-5.51,23.13-11.95,32.97c-5.74,7.79-13.77,14.61-23.52,16.46c-10.27,2.11-20.48-1.53-29.35-6.48
		c4.43,6.17,4.01,14.05,5.43,21.18c-7.66-1.74-16.82-5.02-19.4-13.27c-0.54-5.06,0.01-10.18,1.83-14.93
		c2.03,1.12,4.11,2.15,6.26,3.03c-16.35-16.2-26.5-38.84-26.43-61.98c-0.46-23.03,9.99-45.15,24.99-62.2
		C454.93,515.61,460.79,509.04,467.78,503.77z"/>
	<path d="M923.51,505c4.03-3.88,9.06-7.04,14.74-7.68c8.11-0.36,13.95,6.08,19.01,11.55c-3.65,1.28-7.45,2.05-11.12,3.25
		c-3.72,1.42-7.74,0.7-11.6,0.89c6.88,4.42,13.26,10.11,16.66,17.71c2.3,5.8,3.79,12.33,1.98,18.48c-3,13.54-12.77,24.23-23.16,32.8
		c-6.59,4.97-14.69,8.38-23.05,7.97c-14-1.23-25.0099-15.09-23.86-28.93c0.64-3.42,2.2-6.77,4.68-9.24
		c3.18-2.06,7.31-4.94,11.1-2.61c0.02,0.38,0.07,1.14,0.1,1.52c-3.17,1.54-7.22,0.75-9.82,3.46c-3.83,3.04-3.41,8.43-3.15,12.81
		c1.38,6.48,4.91,12.84,10.7,16.33c7.34,5.38,17.47,4.71,25.29,0.74c7.64-3.94,14.22-9.83,19.31-16.74
		c5.94-7.02,10.31-15.96,9.76-25.34c0.32-8.67-5.09-16.23-11.27-21.78c-9.33-8.08-21.58-12.22-33.75-13.21
		c-13.08-0.27-26.35-0.05-38.87,4.18c-10.49,3.57-20.32,9.07-28.91,16.06c-3.8,3.57-7.39,7.34-11.0601,11.04
		c-14.11,16.93-22.73,37.94-26.81,59.47c0.88-0.22,2.65-0.66,3.53-0.88c4.81-10.84,11.47-21.97,22.54-27.31
		c9.34-4.8,20.81-3.57,29.87,1.25c-3.59,4.34-6.16,9.43-10.0099,13.56c-6.72,9.72-18.71,15.1-30.41,14.67
		c-4.66,0.54-9.39,1.2-13.71,3.14c-0.64-1.18-1.2599-2.35-1.86-3.53c-1.29,3.62-1.41,7.43-1.57,11.22
		c-1.34,5.96-0.62,12.1-0.84,18.16c0.2,5.72-0.58,11.56,0.8,17.19c0.27,1.57,0.22,3.17,0.29,4.77c-0.75,0.01-2.25,0.03-3,0.04
		c-0.22-6.05,0.55-12.2-0.87-18.15c-0.8-6.34,1.26-12.56,0.85-18.91c2.48-28.34,12.13-57.03,31.47-78.41
		c8.1-9.87,19.06-17.09,30.54-22.49c20.1299-8.71,43.2599-10.76,64.33-4.4c2.02,0.6,4.02,1.36,6.16,1.55
		C926.79,507.86,925,506.6,923.51,505z"/>
	<path d="M889.94,508c7.19,0.16,16.07-1.42,21.33,4.73c4.14,3.99,3.98,10.02,3.67,15.33c-6.07-0.06-12.94-1.04-17.28-5.72
		C893.65,518.45,892.85,512.6,889.94,508z"/>
	<path d="M1017.8,542.77c10.15-8.49,23.93-13.47,37.1301-10.94c17.49,0.9,34.4399,7.19,52.08,6.17
		c-9.5701,17.77-8.83,40-22.01,56.02c-5.52,6.51-13.29,10.72-21.16,13.79c-8.6599,2.79-17.7899,3.53-26.84,3.18
		c-10.74,0.74-22.05,0.86-31.69,6.29c-4.97,2.03-8.38,6.2599-12.1,9.92c-4.48,4.49-6.7,10.61-10.4901,15.6
		c-0.46,0.08-1.3799,0.24-1.83,0.32c0.46-4.5,2.28-8.7,3.1-13.14c4.99-22.41,5.14-46.59,16.93-66.97
		C1004.94,555.04,1011.44,548.86,1017.8,542.77 M1042.59,560.63c-16.96,6.4-31.59,18.43-41.23,33.75c-4.93,7.44-7.74,16-10.22,24.5
		c3.05-4.97,4.98-10.56,8.44-15.3c9.14-15.33,21.94-29.16,38.3599-36.72c9.9701-4.92,20.4901-8.69,31.17-11.75
		c2.75-0.9,5.8201-1.15,8.17-3.02C1065.4301,553.48,1053.6899,556.18,1042.59,560.63z"/>
	<path d="M432.47,612.08c3.49,0.57,7.08,1.19,10.57,0.27c3.17,0.7,6.69,0.31,9.56,2.05c3.98,3.27,7.72,7.16,9.46,12.12
		c-5.58,2.65-12.56,5.32-18.36,1.81C437.76,624.99,434.39,618.38,432.47,612.08z"/>
	<path d="M1345.39,628.77c15.11,15.4,25,35.68,28.99,56.81c0.7,2.54,0.63,5.19,0.88,7.8c1.85-1.58,2.1799-4.04,2.95-6.21
		c3.36-10.01,6.5601-20.39,13.0701-28.87c2.2899-2.08,4.15-5.77,7.73-5.29c3.6-0.7,6.12,2.39,8.16,4.86
		c2.5699,4.29,2.45,9.9-0.24,14.11c-1.8,3.8-7.28,5.59-10.52,2.51c-3.25-2.91-5.1901-7.9-3.92-12.22
		c0.25-1.27,0.4401-2.54,0.5701-3.81c-4.0601,3.84-5.8501,9.38-8.41,14.22c-5,12.49-9.23,25.72-8.7101,39.32
		c-1.0499,4.09-0.7999,8.33-1.5199,12.48c3.37-5.81,5.08-12.52,8.83-18.16c3.86-7.17,9.47-13.22,15.73-18.36
		c6.61-5.05,15.04-6.58,23.1801-6.64c-1.29,3.32-4.7001,5.22-6.9401,7.89c-12.6799,11.58-18.9,28.87-19.34,45.7599
		c-0.84,5.6201-1.0699,11.44,0,17.0601c-0.1801,9.6899,1.9399,19.1899,3.4301,28.72c1.6799,7.65,3.09,15.43,2.6599,23.31
		c-1.03,9-2.5499,18.13-6.51,26.38c-2.4399,7.07-7.72,12.54-11.71,18.66c0.1,4.38,1.58,8.56,2.26,12.87
		c1.92,10.36,3.4399,20.8,5.04,31.22c-1.14-0.2-2.05-0.72-2.7301-1.57c-1.1799-13.67-4.12-27.13-6.5-40.63
		c-8.5399,1.17-16.6399-3.45-22.08-9.73c-11.37-10.15-17.7-25.22-18.76-40.25c-2.51-18.75-5.0499-38.09-13.84-55.15
		c-3.4401-7.72-8.98-14.22-15.53-19.48c-6.5599-4.32-14-6.98-21.51-9.09c5.87-4.57,13.41-7.09,20.86-6.56
		c9.91,0.38,18.9401,5.64,26.26,12.02c3.38,3.19,6.4401,6.72,9.9601,9.78c-6.75-11.85-8.5601-26.33-18.12-36.55
		c-4.6201-6.54-10.2401-12.35-16.9601-16.74c2.39,5.04,4.5,11.17,1.5601,16.44c-1.0801,3.09-4.4301,5.1-7.64,4.62
		c-4.28-0.11-6.72-4.59-7.3301-8.36c-1.5099-4.05,0.7201-8.13,2.7101-11.56c2.0699-3.61,7.1899-4.46,10.61-2.34
		c8.5599,4.34,14.83,12.07,19.95,19.98c0.65,2.37,2.5901,3.73,4.54,5.04c-2.08-12.39-2.58-25.14-1.02-37.62
		C1337.11,652.85,1340.7,640.56,1345.39,628.77 M1362.34,732.86c-2.34,7.53-0.8099,15.45-1.87,23.14
		c1.0901,6.8-0.2,13.77,1.0601,20.56c0.65,2.96,0.25,6.05,1.02,9.02c2.1499,20.96,8.4199,41.34,16.26,60.82
		c1.1-5.04,1.1399-10.26,1.21-15.39c-0.16-8.06,0.47-16.18-0.76-24.17c-0.52-4.06,0.24-8.2401-0.9-12.21
		C1376.52,773.32,1369.3199,752.95,1362.34,732.86 M1383.08,792.96c-0.09,7.2-1.87,14.35-0.86,21.57
		c0.4401,7.6299,1.2001,15.2,2.4301,22.74c0.38,1.44,0.11,3.52,1.97,4c1.66-5.73,3.22-11.48,4.38-17.33
		c1.46-8.59,3.55-17.16,3.02-25.94c0.48-12.28-1.96-24.32-3.23-36.47C1386.4,771.44,1384.8101,782.34,1383.08,792.96
		 M1341.9399,772.59c2,20.53,8.15,40.81,18.9701,58.47c3.13,4.63,5.86,9.76,10.24,13.34c-3.7001-17.21-6-35.23-14.9-50.75
		C1352.02,786.3,1347.5601,778.94,1341.9399,772.59z"/>
	<path d="M756.82,678.26c7.36-1.51,13.92-5.49,21.21-7.2c9.65-1.56,18.16,4.19,25.37,9.83c-6.28,4.97-12.66,11.74-21.39,11.25
		C771.64,692.94,763.36,685.33,756.82,678.26z"/>
	<path d="M734.26,712.26c7.64-8.01,16.23-15.32,25.94-20.66c-2.33,4.25-4.66,8.62-5.24,13.51c0.45,7.88,6.0099,14.78,5,22.85
		c-1.26,7.4-6.56,13.22-11.81,18.23c-10.1,7.79-22.36,12.62-31.23,22.01c1.7-8.27,1.5-16.88,0.17-25.17
		C718.19,730.92,725.73,720.46,734.26,712.26 M734.08,723.21c-1.93,5.72,1.68,11.56,0.37,17.33c2.8-1.85,4.77-4.7,7.66-6.44
		c5.52-3.89,11.98-8.61,12.56-15.94c-1.82-5.66-4.34-11.52-2.57-17.55C745.12,707.23,737.33,713.84,734.08,723.21z"/>
	<path d="M913.73,696.85c9.07,2.9,17.76,7.23,25.3,13.1c5.93,4.67,11.3799,10.65,12.66,18.38c0.73,7.42,0.36,14.97,1.59,22.36
		c1.04,4.04,3.11,7.77,6.29,10.51c1.2-2.97,2.97-5.71,3.86-8.8c1.71-5.06,1.87-10.42,2.74-15.64c5.75,5.72,12.07,11.48,14.69,19.4
		c0.45,5.31,0.51,11.29-3.11,15.61c-6.05,7.27-11.42,15.25-14.85,24.1c-0.41,0.85-0.87,1.67-1.4,2.46
		c-3.43-10.43-9.77-19.66-17.74-27.12c-5.29-6.14-11.12-12.06-14.41-19.6c-2.34-5.9-3.72-12.25-3.34-18.62
		c0.35-6.31-0.8-12.54-1.19-18.81c-0.93-3.53-1.37-7.38-3.66-10.36C919.06,701.12,916.34,699.01,913.73,696.85z"/>
	<path d="M1166.95,697.15c11.02-0.23,22.04-0.1801,33.0701-0.1c10.1799,1.17,20.4199,4.01,28.79,10.16
		c14.7699,10.62,22.7699,27.59,30.49,43.53c2.7999,6.59,5.6499,13.16,8.0599,19.92c1.1801,2.08,4.2001,1.53,5.88,3.07
		c2.5601,1.89,4.05,5.01,3.85,8.21c18.42,7.78,35.0801,19.63,48.67,34.26c13.72,13.55,23.73,30.26,32.85,47.13
		c15.79,30.72,26.05,64.07,32.16,98.01c-1.11-0.47-2.66-1.05-2.62-2.4901c-2.85-14.35-6.13-28.72-11.74-42.28
		c-0.7101-5.59-3.3-10.65-4.9301-15.99c-10.6899-28.67-25.47-56.2-46.03-79.02c-4.1499-5.85-10.1499-9.88-15.2999-14.73
		c-10.4-7.98-21.49-15.11-33.26-20.88c-2.52,0.14-4.54,3.04-7.26,2.26c-2.98-0.4901-3.47-4.03-4.75-6.23
		c-9.3199-0.42-18.62,1.47-27.92,0.09c-5.4099,0.16-10.5299-2.28-15.8999-2.09c-6.38,1.43-12.4501,4.03-18.4,6.7
		c-2.91,0.9-3.38,4.25-4.91,6.48c-1.66-0.25-3.25-0.7599-4.8-1.34c-5.2,3.04-9.9199,6.8-14.6399,10.51
		c-2.67,2.2-4.2401,5.33-5.8401,8.33c-1.38,0.8-3.01-0.62-4.46-0.72c-0.03,1.96-0.75,4.63,2.2,4.41
		c-2.3199,5.6-4.25,11.86-2.62,17.92c1.12,7.09,6.04,14.42,13.4501,15.83c5.71,1,8.76-9.97,2.11-10.44
		c-0.73,1.29-1.38,2.63-2.15,3.9c0.15-1.74-0.6-4.33,1.52-5.12c2.01-1.29,3.9,0.66,5.4199,1.81c0.65,3.51,0.28,7.57-2.6599,10
		c-2.3401,3.23-6.6,1.46-9.3-0.27c-9.99-6.52-12.38-20.55-8.04-31.1c-0.7,0.02-2.09,0.04-2.7899,0.06
		c-5.53,9.33-8.72,20.22-8.23,31.1c0,6.48,2.23,12.86,5.85,18.21c3.3099,5.27,9.03,9.13,15.23,9.89c7.7,1.02,12.7-8.97,8.79-15.13
		c-1.75-0.22-3.75-1-5.2001,0.43c-1.1599,1.53-2,3.29-3.34,4.68c0.22-3.21,0.79-7.74,4.78-8.12c4.1799-0.68,6.48,3.52,6.9199,7.06
		c-0.1599,5.02-2.2699,10.65-7.0599,12.86c-5.8201,2.09-11.92-0.82-16.5601-4.24c-6.01-5.35-9.6799-13.03-10.98-20.9
		c-2.09-16.77,4-33.8101,14.65-46.72c-6.72,1.93-13.92,0.78-20.3-1.76c-9.95-4.11-17.76-11.97-24.3899-20.21
		c10.5099-7.92,21.4199-17.85,35.4399-17.6201c12.5601,1.66,22.1899,10.7,31.15,18.8701c2.23-3.23,5.97-2.27,9.0599-1.06
		c5.39-2.3101,11.0701-3.9901,16.38-6.51c-7.7799-5.75-16.4399-10.81-22.23-18.79c-11.78-13.61-19.35-30.34-24.6-47.42
		C1169.28,706.76,1167.13,702.15,1166.95,697.15 M1236.73,730.69c4.98,14.59,13.03,29.14,26.53,37.41
		c-1.6901-6.77-5.0601-12.99-8.4-19.06c-2.52-4.61-6.36-8.2-10.08-11.82C1242.24,734.87,1240.11,731.88,1236.73,730.69
		 M1213.96,735.75c1.7101,2.69,3.42,5.39,5.36,7.94c10.7101,13.83,24.9501,26.07,42.16,30.63c-0.21-0.47-0.62-1.4-0.83-1.87
		c-4.64-6.02-9.22-12.11-14.86-17.24C1237.39,745.75,1225.77,739.77,1213.96,735.75 M1219.79,765.33c0.2,1.79,1.83,2.79,3.1799,3.75
		c7.16,5.42,15.62,9.62,24.7001,10.23c3.2,0.34,6.6799,1.05,9.7-0.47c-6.88-5.67-14.5599-10.88-23.42-12.76
		C1229.21,765.96,1224.55,764.71,1219.79,765.33 M1167.63,774.87c4.88,6.56,12.98,10.62,21.15,10.6
		C1183.92,778.71,1175.59,775.79,1167.63,774.87 M1157.39,786.64c9.66,5,21.97,6.73,32.0599,2.03
		C1179.5601,784.13,1167.61,781.95,1157.39,786.64 M1165.77,799.98c7.5699,0.93,15.54-1.05,21.23-6.25
		c-0.08-0.31-0.26-0.92-0.34-1.23C1178.97,791.75,1171.45,794.94,1165.77,799.98z"/>
	<path d="M769.51,699.9c1.8,1.62,1.37,4.22,2.39,6.2599c3.24,9.2,14.69,11.94,17.74,21.25c3.47,9.39-1.35,19.05-4.21,27.95
		c-1.69-3.23-0.51-7.67-3.64-10.12c-4.5-3.37-10.28-4.71-14.42-8.61c-4.12-5.67-2.48-13.15-2.34-19.68
		C765.61,711.08,767.26,705.35,769.51,699.9z"/>
	<path d="M345.35,741.32c11.6-4.43,24.95-3.07,36,2.35c7.54,3.67,14.73,9.71,16.85,18.12c-0.25,3.72,0.33,7.64-1.32,11.13
		c-3.95,9.24-14.74,13.73-24.35,11.95c4.31-2.44,9.61-3.44,12.76-7.61c5.11-5.66,1.59-14.64-4.23-18.36
		c-6.19-4.84-14.82-4.37-21.78-1.6c-7.7,2.98-14.21,9.05-17.13,16.83c-1.91,5.77-2.58,11.87-2.16,17.94
		c1.33,14.23,6.79,28.07,15.28,39.55c13.39,15.53,30.67,27.25,49.05,36.08c19.92,9.18,41.49,14.86,63.31,16.69
		c4.98,1.24,10.15,0.21,15.2,0.84c4.9,0.99,9.93,0.3,14.89,0.35c5.77-1.22,11.75,0.21,17.48-1.27c18.63-1.3,37.03-5.16,55.29-9.15
		c-2.58,2.61-6.34,3.32-9.64,4.6201c-17.25,6.2599-35.22,10.73-53.46,12.64c-3.8,1.04-7.83,0.09-11.6,1.28
		c-6.23,0.64-12.54,0.11-18.79,0.32c-7.01-0.36-14.13,0.67-21.04-0.82c-15.49-0.76-31.07-2.54-45.96-7.14
		c-24.37-7.96-47.35-20.49-66.73-37.31c-5.99-6.03-12.45-11.66-17.39-18.62c-5.05-7.25-9.11-15.3-11.01-23.97
		c-3.76-16.55-0.56-34.84,9.64-48.6C329.92,750.52,336.8,744.21,345.35,741.32z"/>
	<path d="M1442.99,778.96c5.65-3.95,12.73-6.35,19.65-5.58c14.88,3.22,25.0499,18.82,24.37,33.62c0.58,8.28-2.71,16.59-8.27,22.67
		c-2.9399,2.49-7.12,4.66-10.78,2.3c-6.02-4.17-5.5599-12.39-4.8099-18.85h0.63c0.2,4.24,0.61,9.29,4.46,11.93
		c4.84,1.5,8.22-3.51,9.28-7.58c1.51-6.37,0.33-13.29-3.1-18.87c-1.8201-3.56-5.6901-5.28-9.0801-6.99
		c-7.84-2.94-17.22-2.32-24.13,2.64c-15.35,9.93-25.39,26.06-32.4299,42.58c-6.65,15.8-10.4301,32.64-12.78,49.57
		c2.52-1.53,2.3-4.72,3.22-7.19c3.4301-11.6,7.8301-23.64,17.02-31.97c9.21-9.83,25.11-14.84,37.45-8.02
		c7.29,3.55,11.54,11.23,13.1801,18.91c0.11,6.54,1.11,13.56-2.2,19.55c-2.88,5.42-8.77,10.68-15.3501,9.1
		c-5.59-2.32-8-8.5-8.36-14.14c1.89,4.01,4,9.27,9.0701,9.91c4.89,0.14,7.6699-4.66,8.74-8.84c0.87-5.72,0.13-11.8-2.53-16.95
		c-1.9399-2.14-4.04-4.9-7.21-4.89c-7.76-0.95-14.29,4.75-18.7101,10.47c-4.2799,8.22-3.62,18.0099-7.58,26.3799
		c-3.5,8.4301-12.5,12.17-18.02,18.98c-6.7899,8.58-7.8199,19.87-9.7,30.26c-0.15,9.1-0.14,18.21-0.01,27.32
		c0.4299-0.15,1.29-0.44,1.73-0.59c0.42-2.9,1.2-5.72,1.47-8.63c1.2001-0.04,2.42-0.07,3.66-0.08c3.7-7.85,9.85-15.16,18.45-17.66
		c3.01-1.2,6.5701-1.31,9.1801-3.36c-7.05,0.93-14.59,2.5-19.77,7.75c-3.27,2.94-5.78,6.57-8.0699,10.29
		c-0.6,0.03-1.79,0.08-2.39,0.11c2.53-8.76,5.0499-18.32,12.29-24.46c3-2.61,7-5.53,11.1899-4.26c6.76,1.08,12.38,5.37,19.0601,6.79
		c-4.3101,8.27-4.7201,18.97-12.6101,25.03c-4.8899,4.11-11.4199,2.73-17.13,1.7599c-6.6399-1.2599-11.8999,3.72-15.8099,8.38
		c-1.97,5.97-2.42,12.4-2.29,18.6801c-1.4399,18.37-3.61,36.65-7.34,54.73c-0.66,0.09-1.98,0.25-2.64,0.33
		c3.39-13.2799,5.01-26.95,6.4401-40.53c1.1599-4.55,0.08-9.32,1.3199-13.87c1.64-7.44-2.54-14.47-1.75-21.89
		c0.99,0.8,1.97,1.64,2.99,2.46c0.53-6.46-1.12-12.8-0.63-19.25c-0.61-7.69-0.15-15.4-0.45-23.09c-0.66-4.62-0.9501-9.25-1.01-13.89
		c-1.15-4.6201-0.78-9.42-2.05-14.01c0.75,0.03,2.23,0.09,2.97,0.12c0.14,2.71,0.2101,5.43,0.5901,8.14
		c3.84-4.42,4.34-10.75,4.6599-16.34c-0.4399,0.01-1.34,0.04-1.7899,0.05c0.1899,3-0.1,6.01-0.41,9.01
		c-0.45-0.01-1.35-0.03-1.8-0.04c0.3301-26.2,6.28-52.31,16.3301-76.54C1416.5699,803.92,1427.92,788.97,1442.99,778.96z"/>
	<path d="M1221.84,810.44c11.4501-1.98,23.13-1.03,34.5901,0.04c26.5099,2.96,52.9299,13.1,72.4199,31.72
		c3.61,2.62,6.86,5.78,9.52,9.38c12.14,13.13,22.36,28.28,29.23,44.84c1.78,4.67,4.2101,9.11,5.53,13.96
		c-6.4401-8.59-10.8-18.62-17.23-27.26c-4.8101-6.49-9.35-13.24-15.11-18.94c-4.28-5.63-9.42-10.61-14.98-14.97
		c-5.55-5.53-11.6101-10.57-18.2401-14.76c-16.85-9.97-36.0199-14.93-54.99-19.08C1242.4399,813.04,1232.12,811.66,1221.84,810.44z"
		/>
	<path d="M844.31,829.28c3.05-0.88,6.03-2.09,9.21-2.47c-7.05,5.36-15.28,8.97-22.23,14.48c-12,8.43-18.84,23.07-19.49,37.53
		c-2.05,9.58,0.38,19.53-1.6,29.13c-0.71,20.66-12.84,41.97-32.74,49.54c-16.32,7.02-34.35,9.01-50.38,16.83
		c0.02-19.71-5.33-38.87-8.05-58.27c-0.3101-8.09-0.73-16.38,1.8799-24.17c2.39-8.82,7.96-16.3,13.84-23.11
		c10.74-11.85,25.02-20.24,40.36-24.65C797.7,837.04,821.77,836.6,844.31,829.28 M804.1,846.06c-9.4,4-18.0699,9.64-25.61,16.52
		c-4.59,3.04-7.44,7.83-11.22,11.7c-13.27,17.14-20.07,38.31-23.52,59.48c-0.6,2.28-0.99,4.61-0.7,6.99
		c0.87-1.24,1.13-2.75,1.62-4.14c5.4-18.45,11.45-36.96,21.59-53.42c12.6-17.5,30.22-31.09,49.72-40.15
		c1.16-0.68,2.59-1.03,3.46-2.13C814.25,842.42,809.22,844.37,804.1,846.06z"/>
	<path d="M1224.89,828.1c3.99,7.52,5.52,16.28,10.9,23.08c8.7899,13.4,25.87,18.54,41.21,17.83c5.04,0.54,9.9399-0.94,14.9399-0.98
		c13.8701,2.05,24.55,13.0699,30.2301,25.34c-10.3401-5.51-19.16-14.39-31.0801-16.53c-4.1-1.36-8.4299-0.52-12.6-1.28
		c-2.63-0.49-5.22,0.32-7.8,0.61c8.2401,8.3,18.9501,14.33,30.41,16.84c6.7101,1.74,13.6801,0.78,20.54,1.03
		c3.7999,4.97,10.12,6.69,14.91,10.45c13.26,9.71,24.5,22.49,31.46,37.48c9.91,19.15,14.36,40.67,15.96,62
		c-0.03,10.03,0.12,20.0701-0.13,30.1c-0.08,1.9701-0.0699,5.1801-2.7799,5.15c-0.0801-4.1,0.21-8.2,0.8999-12.23
		c0.14-5.34,0.0901-10.68,0-16c-0.59-4.34-0.96-8.7-0.9399-13.07c-2.28-21.58-7.5-43.38-18.89-62.09
		c-4.61-7.21-9.78-14.09-15.85-20.12c-6.4301-5.75-13.3401-11.06-21.05-15c-1.58,5.91-2.53,12.19-6.0599,17.36
		c-5.52,9.36-14.3501,17.51-25.2201,19.81c-7.33,0.27-14.6699-0.05-22,0.12c-8.88,0.95-17.72,3.64-25,8.95
		c-11.21,8.1-15.49,21.88-19.5699,34.41c-2.0601-6.95-1.48-14.25-1.35-21.4c1.5499-12,6.5-23.5,13.86-33.09
		c1.6799-2.39,4.46-3.94,5.5599-6.72c-7.09,4.31-15.7799,5.49-22.09,11.13c-6.02,5.47-12.26,11.16-15.77,18.64
		c3.66-1.96,8.5801-0.83,10.4401,3.03c1.9099,4.18,2.39,10.32-1.77,13.32c-1.87,2.3-5.8,2.52-7.54-0.01
		c-5.5599-4.28-4.5499-12.58-1.46-18.05c4.67-7.61,10.51-14.8,18.08-19.67c-2.86-1.56-6.15-1.46-9.2799-1.64
		c-13.6201-2.29-25.5801-10.36-34.8601-20.31c-0.98-2.94,2.63-4.36,4.0601-6.38c8.2-9.3,19.38-16.18,31.72-18.13
		c2.8101-0.01,5.59-0.49,8.3-1.29c-2.17-2.57-5.2001-4.14-7.5-6.55c-4.26-4-8.01-8.53-10.99-13.55c2.64,1.85,4.59,4.47,6.47,7.06
		c5.6899,6.12,11.8199,12.25,19.8199,15.22c4.26,1.41,8.3101,3.33,12.36,5.27c-5.11-5.53-10.4399-11.05-13.7799-17.9
		C1224.6801,857.59,1221.9,842.34,1224.89,828.1 M1247.61,903.27c8.6801,4.8,18.67,6.28,28.35,7.7
		c15.6001,0.77,31.52-1.71,45.63-8.65c-4.4299-2.34-9.38-3.42-14.1699-4.73c-10.5601-2.56-21.55-4.42-32.37-2.48
		C1265.72,897.08,1256.3199,899.36,1247.61,903.27 M1286.58,918.54c-6.11,3.83-12.0699,8.1-16.95,13.45
		c18.8099,1.93,37.16-7.5,49.72-20.98C1308.14,911.24,1296.3199,912.42,1286.58,918.54z"/>
	<path d="M1210.41,839.36c1.5699-0.68,3.1799,0.87,4.35,1.83c5.3099,4.25,4.3,14.08-1.92,16.93c-2.9299,0.13-6.45-0.22-8.58-2.4
		c-0.27-2.55-1.29-4.99-1.23-7.55C1204.2,844.36,1206.2,840.37,1210.41,839.36z"/>
	<path d="M594.17,910.16c1.98-2.81,4.23-5.52,7.07-7.5c-12.86,19.03-25.56,38.29-35.61,58.9901
		c-18.42,37-29.08,77.48-34.63,118.2899c0.16,7.67-0.57,15.3401-0.3,23.01c0.77,6.17-0.49,12.4701,0.96,18.5801
		c1.08,15.28,3.48,30.45,6.27,45.53c4.16,25.33,10.29,50.2899,16.9,75.09c2.34,9.47,5.31,18.83,7.27,28.37
		c-3.67-5.63-5.45-12.23-8.33-18.26c-18.23-44.73-32.19-91.84-34.72-140.25c0-11.36-0.18-22.72,0.1-34.0701
		c1.09-4.0499,0.53-8.2799,1.41-12.34c4.85-42.23,20.44-82.99,43.33-118.72C574.14,934.77,583.84,922.21,594.17,910.16z"/>
	<path d="M986.26,958.32c1.5-3.92,5.53-6.59,9.73-6.35c5.52,0.04,10.4,3.9901,12.01,9.19c0.73,5.66-4.46,11.5-10.32,10.13
		c-5-0.5-7.54-5.24-11.14-8.08c-0.39,14.12,4.46,27.96,10.83,40.44c4.8,6.14,8.64,12.92,12.69,19.55
		c-2.41-10.49-5.61-21.41-3.18-32.19c1.64-12.48,8.8-24.89,20.46-30.39c-0.88,5.81-3.0599,11.41-3.36,17.32
		c-0.03,4.67-0.18,9.35,0.09,14.03c2.2201,10.35,7.55,19.7,13.88,28.0601c5.3,6.3199,10.4601,12.89,17.1901,17.7899
		c4.36,4.37,9.36,8,14.13,11.9c14.7,10.4,22.13,28.64,22.74,46.23c0.3199,1.4601-0.75,2.39-1.72,3.26
		c-2.1001-2.3999-2.8201-5.52-4.05-8.37c-4.14-10.52-9.35-20.75-16.5-29.5499c-3.9299-3.79-6.75-8.5801-11.0699-11.98
		c-4.6001-3.1901-7.9601-7.8701-12.92-10.6001c5.63,19.99,17.4,37.9601,32.53,52.05c4.2899,3.4,8.46,6.9399,12.8199,10.27
		c-0.25,1.2899-0.47,2.6-0.6699,3.9199c4.1899,4.42,9.5399,7.51,14.21,11.4c5.73,5.3101,12.26,9.72,17.65,15.41
		c5.74,4.04,9.98,9.86,16.0299,13.54c-1.35-2.3-3.49-3.9401-5.38-5.7301c0.2401-0.7599,0.4901-1.49,0.77-2.22
		c-0.4199,0.17-1.26,0.49-1.6799,0.66c-0.1901-1.46,0.25-3.12-0.6801-4.34c-5.2899-8.05-9.48-16.9-11.62-26.3101
		c-1.83-7.54-2.73-15.5699-0.61-23.14c1.87-8.25,6.47-15.77,12.66-21.48c5.88-5.34,13.47-8.49,21.26-9.7
		c13.7-0.52,27.4399,10.02,28.95,23.96c-0.9,5.28-2.83,11.55-8.33,13.66c-5.8301,3.1699-12.7201-0.5701-17.12-4.6
		c3.1499,1.0399,6.22,2.4099,9.51,2.97c4.5499,0.03,8.6899-3.4601,9-8.0701c0.36-4.98-3.42-9.0599-6.8201-12.23
		c-4.91-4.52-13.4299-6.16-18.5-1c-5.78,4.49-8.51,11.89-8.6899,19.03c1.89,6.6899,5.71,12.6,8.01,19.13
		c1.4199,3.48,0.98,7.3199,0.84,10.99c-1.9401,7.49-6.75,14.58-5.23,22.63c0.08,6.9399,4.1699,12.75,6.86,18.88
		c4.74,9.41,12.51,16.78,19.1699,24.79c-1.8199-8.8301-6.48-16.76-8.21-25.5901c-1.46-6.7899-0.22-14.4199,4.39-19.77
		c7.02-6.24,17-6.1,25.23-9.85c1.61,6.67,4.01,13.17,4.85,20.02c-0.46,3.84-1.7999,7.67-4.25,10.73
		c-5.1399,4.79-12.47,6.4601-17.2699,11.64c-3.0801,4.74-4.9401,11.38-2.4301,16.67c11.47,14.6599,20.58,30.97,30.02,46.96
		c-1.23-0.02-2.4401-0.03-3.64-0.02c-4.28-9.1699-9.51-17.86-14.98-26.35c-3.9301-5.98-7.54-12.27-13.14-16.88
		c-13.42-10.4299-26.76-21.2-41.8101-29.26c-2.0399-1.12-4.0499-2.33-5.6-4.08c-0.4,0.02-1.21,0.0699-1.61,0.09
		c-7.14-5.5699-15.54-9.1899-23.6799-12.98c-29.15-13.5701-60.8601-22.61-93.1401-23.03c-15.36,0.02-30.64,1.92-45.66,5.17
		c-1.53,0.49-3.78-0.1801-4.44,1.73c-0.81,1.71-1.31,3.83-3.31,4.54c-3,2.1899-6.75,0.6799-9.7-0.78
		c-10.68,8.27-21.21,17.11-33.75,22.48c-9.28,3.47-14.28,12.64-19.64,20.34c-1.54,1.9601-0.79,4.61-0.94,6.92
		c-1.39,1.46-3.43,1.97-4.89,3.23c-5.2401,8.4401-7.84,18.17-9.1801,27.9301c-0.48-0.29-1.45-0.87-1.94-1.17
		c0.01,3.4301,0.04,6.87-0.04,10.3101c-0.83-0.42-1.64-0.8301-2.44-1.2301c0.79-3.7,0.54-7.51,0.5-11.25
		c-11.1,11.8201-28.5,14.8301-43.98,13.3201c-3.12,0.13-6.2-0.24-9.15-1.28c3.05-7.4299,5.31-15.28,9.73-22.0599
		c4.33-7.2101,10.75-13.7001,19.06-15.9801c5.41-1.5599,11.02-2.8199,16.69-2.6899c-2.48,4.6899-8.4901,4.24-11.78,7.9299
		c8.98,0.89,18.47-1.24,25.59-6.96c-3.83-0.04-7.66,0.78-11.44-0.2c0.78-1.5901,2.88-0.91,4.29-1.16c2.98,0,5.97-0.03,8.95,0.22
		c0.73-1.5599,1.45-3.11,2.2-4.64c1.77-0.73,3.59-1.2899,5.53-1.37c3.33-5.7,7.97-10.46,11.61-15.9399
		c-4.8,0.39-9.49,1.4399-14.33,1.48c-5.01,0.8-10.01-0.4301-15.03-0.39c-19.01-2.15-37.15-9.5-53.38-19.48
		c-3.94-2.27-7.74-4.75-11.61-7.12c13.99-10.0601,27.48-21.4301,43.76-27.66c5.54-2.23,11.35-3.7899,17.26-4.65
		c5.02-0.13,10.06-0.09,15.09-0.0299c21.41,2.84,41.22,12.11,60.33,21.6899c1.86,1.28,3.13-1.21,4.78-1.7
		c1.56-0.12,3.14-0.11,4.73,0.0399c2.68,0.16,4.13,3.89,7.03,2.9c9.1-2.47,18.37-4.5499,27.77-5.23c6.36-1.48,12.96-0.09,19.37-1.33
		c4.64,0.4299,9.3,0.83,14,0.6c38.3,3.08,75.17,17.22,107.93,37.01c14.75,8.78,28.77,18.74,42.29,29.2999
		c-4.5701-7.12-10.36-13.36-15.8401-19.7599c-2.61-3.7001-6.1499-6.5601-9.1399-9.89c-4.55-6.02-10.15-11.2101-15.99-15.9501
		c-10.8601-11.01-23.0701-20.5599-35.4-29.85c-2.9301,0.67-5.35,2.89-8.28,3.72c-7.22,2.99-15.05,2.49-22.6801,2.36
		c-9.7999-1.48-19.6399-4.3199-27.8999-9.98c-4.26-3.01-8.21-6.4399-11.78-10.23c-16.69-15.26-36.13-29.85-59.31-32.51
		c-11.5-0.78-22.64,3.16-33.18,7.36c1.81-4.47,4.22-8.73,7.9399-11.88c5.91-6.95,14.7-10.58,23.4-12.6
		c7.5-1.88,15.29-0.96,22.94-1.1c2.53-0.16,4.95,0.63,7.43,1.05c-0.88-1.14-2.26-1.5701-3.5-2.05c-4.73-1.75-9.54-3.42-13.76-6.22
		c-3.81-2.41-8-4.23-12.43-5.0901c0.32-0.85,0.67-1.6799,1.04-2.49c-11.48-9.8099-21.13-21.86-27.2-35.77
		c-3.48-7.42-5.65-15.34-7.59-23.27c23.69,2.8,47.63,11.06,65.36,27.57c0.39,0.16,1.19,0.49,1.59,0.66
		c-3.63-9.48-6.9-19.21-7.93-29.34C984.71,965.41,985.74,961.88,986.26,958.32 M1001.72,1034.6801
		c4.85,7.5299,10.21,14.74,16.01,21.5599c3.66,3.38,6.24,7.73,10,11.03c2.8301,3.1899,6.4301,5.52,9.46,8.5
		c14.17,13.0699,31.1801,22.52,48.2201,31.2999c-2.86-5.09-6.8401-9.48-10.27-14.2c-5.41-6.26-10.34-12.9399-16.37-18.63
		C1042.78,1057.21,1022.25,1045.34,1001.72,1034.6801 M1007.57,1075.86c4.59,5.67,10.58,9.87,16.43,14.12
		c15.34,10.41,33.02,17.71,51.45,20.12c-4.2-5.08-9.8099-8.65-15.0399-12.5399c-8.89-6.7101-18.8201-12.2001-29.48-15.5
		C1023.29,1079.46,1015.39,1077.77,1007.57,1075.86 M886.72,1112.46c4.58,3.4601,10.1,5.3101,15.3701,7.4401
		c10.0099,3.13,20.62,5.0399,31.12,3.72c-0.1-0.3099-0.3-0.95-0.4-1.26c-8.31-3.86-16.76-7.84-25.88-9.2999
		C900.2,1112.36,893.47,1111.74,886.72,1112.46 M891.21,1125.25c-7.3,1.54-14.73,2.95-21.73,5.54
		c4.3,1.7899,8.97,2.4099,13.54,3.1799c10.65,2.01,21.58,0.67,32.36,1.0701c-1.9,3.1-5.74,3.12-8.68,4.61
		c-5.34,2.5399-10.31,5.7999-15.04,9.34c15.02,1.0601,31.14-3.45,41.97-14.26c-5.36-0.54-10.81,2.14-15.96,0.1
		c2.32-2.38,5.99-2.1499,8.97-3.1799c2.91-1.05,6.45-0.9401,8.71-3.3101c-8.47-1.39-16.87-3.4199-25.48-3.6
		C903.67,1123.4399,897.41,1124.8199,891.21,1125.25 M847.61,1203.16c12.11-1.61,23.14-8.88,30.71-18.3201
		C866.39,1187.15,855.16,1193.5699,847.61,1203.16 M863.51,1207.41c7.41-3.8301,13.31-10.77,15.78-18.75
		C871.58,1191.89,865.45,1199.27,863.51,1207.41z"/>
	<path d="M1834.96,956.88c18.17,3.97,37.49,10.64,49.01,26.14c5.23,10.1-1.85,23.57-12.5,26.43c-4.83,1.74-9.9199-0.57-13.52-3.78
		c0.4301-0.33,1.28-0.99,1.7101-1.32c-2.36,1.65-3.3-1.5099-3.8201-3.22c-3.9199-10.55,5.92-23.02,17.04-21.94
		c2.21,0.34,4.36,1.07,6.55,1.65c-5.25-5.82-11.9401-10.06-19.03-13.28c-8.03-4.24-16.99-6.04-25.54-8.87
		C1834.88,958.24,1834.9301,957.33,1834.96,956.88z"/>
	<path d="M1388.21,991.2C1388.84,991.82,1388.84,991.82,1388.21,991.2z"/>
	<path d="M1125.36,998.42c8.85-1.7,18.4501-0.79,26.3101,3.9c11.35,5.45,17.9099,19.78,13.34,31.71c-1.98,3.0399-5.08,6.0699-8.97,6
		c-6.5901-0.7001-12-6.04-13.87-12.23c3.1,2.6599,5.46,6.6799,9.9199,7.11c3.76,0.0699,6.29-3.5601,6.9501-6.99
		c-1.1001-7.42-6.64-14.1201-14.01-16.0001c-5.98-2.25-12.4601-0.41-18.0601,2.03c-6.1599,3.15-11.76,7.8-15.15,13.91
		c-7.3199,14.6-8.9099,31.5701-6.24,47.54c2.49,15.8099,8.5601,30.87,16.0901,44.9299c2.5199,4.16,5.11,8.37,6.5499,13.0601
		c-11.14-11.65-18.4199-26.55-24.02-41.55c-5.5399-15.76-10.11-32.46-7.6899-49.27c1.6-11.21,4.49-22.6199,11.15-31.9799
		C1111.67,1004.42,1118.3,1000.25,1125.36,998.42z"/>
	<path d="M927.75,1026.72c5.68-1.6699,11.49,0.14,17.22,0.4401c4.46,0.7999,8.97,1.1599,13.41,2.1699
		c-0.86,0.4401-1.72,0.8501-2.59,1.2301c-4.27-0.79-8.46-1.92-12.75-2.55c-5.22-0.12-10.46-0.16-15.67,0.05
		c2.97,2.8799,7.53,4.59,8.65,9c1.69,2.87,0.06,5.95-1.21,8.6599c-3.38,3.0901-8.86,3.6801-12.71,1.1801
		c-5.7-2.97-7.61-11.37-3.63-16.4601C921.19,1028.4399,924.4,1027.14,927.75,1026.72z"/>
	<path d="M1554.8101,1030.08c12.09-0.61,24.09,1.04,36.1699,1.02c20.55,3.48,40.88,9.09,59.74,18.1
		c27.61,12.8201,51.77,32.63,70.52,56.52c18.25,22.8,31.64,49.02,43.17,75.7101c3.71,10.0699,8.1699,19.9299,10.46,30.46
		c-17.08-33.6901-36.3099-66.4301-59.27-96.48c-8.25-10.65-17.48-20.5-27.45-29.5601c-14.77-11.5-31.05-20.9199-47.76-29.2899
		c-21.01-10.15-43.39-17.55-66.38-21.5801c-6.22-1.54-12.66-1.6899-18.85-3.24C1555.08,1031.3199,1554.9,1030.49,1554.8101,1030.08z
		"/>
	<path d="M967.98,1149.99c17.92-8.23,37.3-13.21,56.9301-14.91c6.0399-0.13,12.1-0.0599,18.15-0.0699
		c17.5099,1.22,34.9099,4.71,51.5199,10.47c7.3101,3.6,15.17,6.15,22,10.67c-4.5299-0.36-8.62-2.6-12.96-3.79
		c-24.15-7.34-49.37-11.3099-74.63-10.38c-6.03-0.6699-11.87,1.14-17.87,1.12c-19.58,4.2001-38.57,10.92-56.68,19.42
		c-11.82,5.23-23.16,11.54-34.71,17.26C934.57,1168.03,950.69,1157.75,967.98,1149.99z"/>
	<path d="M1015.41,1179.42c13.53-10.7201,32.68-8.5801,47.66-2.3101c7,0.29,13.8601-2.58,20.9401-2.11
		c7.98,0.28,16.0699-0.72,23.95,0.97c20.78,3,40.25,12.5601,56.8201,25.25c14.27,10.6801,26.0399,24.3201,35.8199,39.16
		c2.0701,3.34,4.86,6.75,4.42,10.96c-2.53-2.11-3.6801-5.2899-5.53-7.9099c-8.24-12.4501-17.74-24.13-28.9-34.0701
		c-14.11-12.15-30.2-22.5599-48.26-27.6799c-9.1799-2.9-18.7799-3.65-28.26-4.7001c-8.87-0.35-17.59,1.34-26.37,2.2001
		c8.3201,15.1,5.8601,35.71-7.0399,47.48c-8.0801,5.48-16.6901,10.4099-23.51,17.5c-6.8,5.9-12.12,13.58-14.87,22.1899
		c-3.41,11.03,0.39,22.5,3.9199,32.99c-3.46-0.97-5.4199-4.2899-7.97-6.5699c-5.37-4.8-8.38-11.55-10.74-18.2001
		c-3.17-10.2599-3.51-21.38-0.54-31.72c-2.26,3.1801-3.53,6.99-6.12,9.97c-2.31,3.41-5.42,6.39-6.66,10.41
		c-3.79,8.49-5.02,17.87-5.17,27.09c2.68-2.0399,4.48-5.7999,8.24-5.83c6.1-0.73,11.53,5.66,9.88,11.58
		c-0.21,2.7101-3.05,3.9501-5.28,4.75c-6.35,1.3-12.5-3.99-13.51-10.13c-1.32-9.83,1.55-19.6,4.61-28.85
		c-8.72,6.5-19,10.66-29.72,12.38c-4.99,1.3101-10.2,0.3201-15.22,1.3401c-3.35-0.4701-6.71-0.7001-10.08-0.64
		c2.43-16.39,10.08-32.3101,22.97-42.9801c1.57-1.0199,2.98-2.2599,4.19-3.6699c-6.32-0.67-12.7,0.0499-19.02-0.4401
		c-7.36-1.3999-16.08-2.61-20.66-9.2799c-0.73-2.42-1.59-5.1101-0.4-7.52c0.79-3.39,4.69-5.01,7.86-4.99
		c3.67,1.1699,7.58,3.46,8.71,7.4099c0.99,2.0801-0.03,4.3201-0.84,6.29c-1.88,1.99-4.71,2.63-7.04,3.9401
		c10.29,4.0199,21.43,3.5399,32.26,3.2699c7.22-1.36,14.05-4.23,21.24-5.6699c-8.54-0.99-17.21-1.87-25.21-5.27
		c-7.61-2.6801-14.15-7.61-20.19-12.8c-3.36-4.22-6.75-8.45-9.0099-13.39c9.52,4.88,19.0699,10.89,30.04,11.4501
		c2.47,0.52,5.05,0.83,7.54,0.12C987.54,1200.13,1002.56,1190.2,1015.41,1179.42 M1024.96,1182.96
		c-7.9299,3.7101-15.74,8.04-22.29,13.86c3.13,0.1101,6.26-0.1499,9.35-0.72c17.8099,0.11,34.89-7.75,48.33-19.11
		C1048.4399,1178.0601,1036.1899,1178.36,1024.96,1182.96 M1036.67,1194.75c-15.89,8.49-28.04,22.25-38.7601,36.41
		c19.79-5.9501,39.21-15.48,53.36-30.88c2.11-2.2101,4.46-4.2101,6.21-6.73c2.67-3.5701,6.0601-6.7101,7.9-10.8301
		C1055.55,1186.05,1045.85,1189.92,1036.67,1194.75 M1046.8199,1210.83c-5.63,7.91-8.86,17.2301-11.37,26.52
		c5.4501-2.5599,9.4601-7.15,14.29-10.61c1.89-1.8199,3.08-4.23,5.02-6.01c7.17-8.64,11.1899-19.38,13.97-30.13
		C1060.87,1196.65,1052.4399,1202.47,1046.8199,1210.83z"/>
	<path d="M781.73,1199.71c6.75-6.6,19.29-4.4299,23.61,3.92c4.43,7.58,1.09,17.96-6.15,22.5c-3.55,2.1899-7.88,1.9301-11.82,2.63
		c-0.37-0.24-1.1-0.72-1.47-0.96c0.2599-0.9401,0.54-1.8501,0.84-2.75c-2.36-1.52-5.08-2.76-6.57-5.24
		C775.26,1214.08,775.89,1204.5699,781.73,1199.71z"/>
	<path d="M874.99,1216.72c2.66,3.36,3.1,7.98,6.2,11.05c4.42,4.39,10.53,6.98,16.72,7.25c3.27-0.73,6.56-1.79,9.26-3.85
		c2.2-2.88,0.64-7.88-3.2-8.3201c-2.5,0.4401-2.8799,3.52-4.36,5.15c-0.73-2.24,0.15-4.29,1.52-6.02c1.86,0.03,3.73,0.04,5.61,0.05
		c1.97,2.13,4.3,5.35,2.68,8.3199c-1.23,3.14-4.64,4.4301-7.54,5.55c-4.26-0.04-8.77,0.74-12.74-1.17
		C881.72,1231.87,875.14,1224.97,874.99,1216.72z"/>
	<path d="M1112.9,1233.25c13.52-2.35,25.34-10.88,39.13-12.24c16.38,0.59,30.72,10.95,40.2999,23.66
		c8.9401,11.8099,13.9401,26.3999,24.5801,36.9399c0.0399,0.35,0.11,1.0601,0.14,1.41c-4.1901-2.3101-7.24-6.24-11.2201-8.86
		c-7.75-6.12-18.2799-8.7201-27.9099-6.41c-9.2101,0.89-18.65,4.09-27.8,1.14c-8.34-2.02-15.99-7.0601-20.89-14.1
		c-4.71-5.41-8.08-11.8501-12.96-17.12C1114.98,1236.3199,1113.95,1234.76,1112.9,1233.25 M1135.6801,1238.62
		c15.2899,1.05,31.5,2.36,44.7699,10.89c7.64,4.16,14.01,10.14,20.6101,15.7C1186.88,1244.6801,1159.96,1234.91,1135.6801,1238.62z"
		/>
	<path d="M870.56,1225.09c0.74-0.9,1.5-1.77,2.27-2.63c0.45,15.52,10.83,31.61,26.56,35.11c7.44,1.3601,15.8,0.67,21.88-4.2599
		c3.48-2.9401,3.99-8.92,0.55-12.0901c-1.31-1.6799-3.31-2.9299-5.47-2.12c-1.25,1.12-2.9,2.16-3.39,3.84
		c0.71,1.8101,1.57,3.5701,2.22,5.4401c-1.41-1.14-3.08-2.27-3.47-4.13c-1.33-2.66,0.78-5.38,2.58-7.1899
		c5.42-1.3,10.79,2.5299,11.88,7.8799c1.68,4.9601-2.17,9.5801-6.16,12.05c-8.56,4.83-19.47,4.49-28.18,0.2
		C879.9,1251,871.97,1238.36,870.56,1225.09z"/>
	<path d="M1203.34,1235.66c2.38,4.34,3.7001,9.1899,6.41,13.36c-0.63,0-1.9,0-2.53-0.01c-1.8099-3.04-3.35-6.22-4.9199-9.36
		C1201.23,1238.21,1202.72,1236.86,1203.34,1235.66z"/>
	<path d="M1204.71,1252.33c2.04-0.24,4.0901-0.6,6.01-1.3999c6.8101,19.1899,13.38,38.73,15.4,59.09
		c1.63,8.22,0.39,16.71,1.87,24.95c-1.25,5.17-0.6,10.51-1.0699,15.78c-0.8,0.6801-1.6901,1.22-2.66,1.61
		c1.4-9.75,0.55-19.65,0.72-29.46c-1.1699-7.41-1-14.9401-2.62-22.29c-1.25-5.65-1.61-11.71-4.59-16.78
		c0.4299-3.83-1.4401-7.37-2.72-10.85C1212.36,1265.74,1208.4301,1259.0601,1204.71,1252.33z"/>
	<path d="M562.09,1271.1899C565.35,1271.33,560.59,1274.2,562.09,1271.1899z"/>
</g>
</svg>
