<svg width="262" height="288" fill="none" xmlns="http://www.w3.org/2000/svg"><path fill-rule="evenodd" clip-rule="evenodd" d="M112.133 109.637c2.208 1.306 4.539.859 6.092 3.478 1.323 2.281-.023 3.454-.255 4.958-.6 4.139 5.795 6.567 8.104 8.732 9.233 8.708 18.35 21.704 27.783 35.113 28.192 40.106 66.391 83.272 88.832 119.463a10.029 10.029 0 01-4.74 3.653c-11.951 2.873-26.286-11.616-38.727-24.591-10.856-11.309-21.203-20.855-32.277-32.985-2.311-2.465-4.565-4.927-6.78-7.281a325.766 325.766 0 01-8.182-7.955c-.451-.458-.915-.882-1.344-1.326a6.718 6.718 0 01-1.491-2.201c-10.153-10.5-19.673-20.368-29.706-33.082-5.28-6.704-11.895-12.89-15.866-19.733-5.372-9.164-1.895-16.96.83-24.52-1.342-.382-3.758-2.163-3.715-3.934-2.726-.306-4.565.832-6.716-1.621-1.362-1.57-.782-1.806-1.021-3.976a4.81 4.81 0 00-1.131-3.224c-2.071-3.266-6.846-6.675-10.6-10.208-13.543-12.66-27.306-31.072-34.83-46.79-5.389-11.225-6.36-20.185-16.71-28.694-3.032-2.516-6.525-3.37-8.39-6.45-2.536-4.196-.315-10.629.329-14.58-8.17-6.814 7.224-14.203 8.76-5.423 11.75-3.613 15.26 9.325 22.902 19.085 2.45 3.12 5.869 5.685 8.868 8.832 21.477 22.521 41.424 51.96 49.981 75.26z" fill="#000"/><path fill-rule="evenodd" clip-rule="evenodd" d="M234.977 281.176c.86-.458.572-1.112.052-.745-21.524-7.875-40.253-35.663-60.799-55.873-12.661-12.472-23.918-26.101-35.379-38.777 4.729 2.416 8.247 7.188 12.013 11.206 18.902 19.876 38.6 39.889 58.234 61.314a105.033 105.033 0 0011.591 11.487c3.52 2.768 7.884 5.469 12.272 6.179-14.886-18.121-29.439-39.375-43.212-58.616.551-.319.954.493 1.406.939.762 1.101 1.126.332.425-.327l-11.192-14.558-12.863-16.644-3.299-4.273c-.52-.958-3.488-4.39-2.07-1.803l6.262 8.108 12.896 16.658c.804 2.152 3.135 4.504 3.767 6.632-5.612-3.916-9.188-10.489-13.717-15.931-15.753-19.207-32.033-44.532-49.755-64.522-1.842 9.085-3.452 18.29-5.423 27.401 6.085 7.52 12.387 13.259 18.42 21.202-3.25-.066-5.162-3.632-7.3-5.936-6.256-6.726-14.246-15.277-20.838-23.443.526 6.947 6.651 11.107 11.02 16.031 14.107 15.959 29.082 31.979 43.483 47.509 7.929 8.617 16.553 16.487 24.5 24.679 16.225 16.729 30.46 36.602 49.506 42.103zm-49.375-67.49c.664.853 1.588-.349 2.225 1.066-.477.565-.339 1.231-1.375 1.735-1.514-.878-1.539-1.34-.85-2.801zm-49.888-30.232c1.47-2.281 4.243.643 2.07 1.804a3.522 3.522 0 01-2.07-1.804z" fill="#fff"/><path fill-rule="evenodd" clip-rule="evenodd" d="M114.398 157.65c.788-.417.424-.972.95-1.419.385-6.987 2.397-13.573 3.746-20.688.393-2.011.957-4.817.114-6.903-2.769 8.364-4.069 16.923-7.066 25.259-.362-8.64 3.254-16.772 5.126-25.129-3.008 1.909-3.416 7.247-4.47 10.974-1.114 3.93-2.238 7.837-3.39 11.488l4.99 6.418zM108.249 148.744c2.814-6.046 3.639-12.415 6.199-18.455-4.2 1.537-5.849 6.697-8.917 9.638 1.15 2.948 1.235 5.845 2.718 8.817zM115.837 122.427c.545-.561-.822-1.393-.128-1.944-3.162.654-8.621 3.417-10.737 5.561 1.38 2.791 2.602-.866 3.644-1.461 2.309-1.29 5.153-2.508 7.221-2.156zM110.16 118.621a1.484 1.484 0 00-.13-1.933c-1.767.775-.964 1.787.13 1.933zM112.712 116.645l1.288-.992c-.496-1.129-1.289.025-1.843-.613-.433.442.249 1.054.555 1.605zM107.139 118.237c-3.138 1.473-6.184 2.285-9.424 4.558 2.375.892 10.239-1.242 9.424-4.558zM101.712 115.623c-2.342-.717-4.758-.851-7.042-2.059.741 1.4 4.503 4.818 7.042 2.059zM50.55 59.054c-.19-7.327-4.924-15.248-10.48-23.261-1.116 2.467 1.42 3.854 2.35 5.681 2.812 5.495 4.422 12.069 8.13 17.58zM57.331 36.067c.403-.33-.083-.778-.24-1.169-1.132-2.233-3.724-3.462-5.795-5.75-2.958-3.247-5.095-9.35-8.956-8.066 4.93 5.47 9.85 11.078 14.991 14.985zM36.257 32.612c1.12-1.707-2.805-5.264-4.378-4.798 1.346 2.444 3.011 2.641 4.378 4.798zM42.948 25.387l-3.627-4.7a15.1 15.1 0 00-5.117 3.962l3.3 4.262a22.23 22.23 0 015.444-3.524zM29.71 26.764c1.128-1.003 1.231-2.148.057-3.45-1.15 1.001-1.242 2.147-.057 3.45zM42.171 16.43c-.688-1.661-1.802-.035-2.606-.713-.792 1.626 1.793 1.657 2.606.712zM32.56 22.518c.884-1.804 4.31-3.292 4.877-5.141-1.715-1.617-4.172 2.61-6.196 3.436l1.318 1.705zM26.747 22.93c1.037-1.668.443-3.54-1.598-5.595-.534 1.725-.438 3.482 1.598 5.594zM28.933 17.819a15.083 15.083 0 015.402-6.234 8.603 8.603 0 00-8.277 1.633c.997 1.532 1.206 2.975 2.875 4.6z" fill="#fff"/><path fill-rule="evenodd" clip-rule="evenodd" d="M55.582 46.944c-.96.405-2.544.697-4.06 1.156.775 2.576 1.49 5.171 2.088 7.805a1.772 1.772 0 01-1.569 2.044 1.72 1.72 0 01-3.386.247l-1.887-5.891a1.5 1.5 0 01-2.443-.574l-5.656-15.138a1.76 1.76 0 01.451-2.018l-.305-.897a1.887 1.887 0 011.216-2.426l-.332-.023-4.08 2.294a1.592 1.592 0 01-2.244-.801 1.913 1.913 0 01-1.958-1.922 2.088 2.088 0 01-.668-.312 1.81 1.81 0 01-1.75-.771 1.818 1.818 0 01-.086-1.914c.006-.092.103-.154.144-.244a1.61 1.61 0 01-.72-2.031 1.668 1.668 0 01-.021-1.844l5.537-9.31a1.583 1.583 0 012.766.066c.281-.234.552-.491.833-.725a1.833 1.833 0 012.746.676c.801.056 1.334-.655 2.243-.5.969.16 1.74.9 1.939 1.863.193.798-.1 1.634-.747 2.136.192.096.362.23.501.393l8.848 10.27c2.51 2.905 5.818 5.912 6.853 9.693a7.117 7.117 0 01-4.253 8.698zM43.088 22.39c-.064.354-.249.675-.523.908.385-.077.769-.142 1.163-.195l-.64-.713zm13.477 17.067a10.503 10.503 0 00-2.607-4.478c-1.295-1.542-2.626-3.052-3.945-4.584l-3.924-4.558s-.065.11-.102.154l-.346.344a1.611 1.611 0 01-1.074 2.528l-.812.104-2.536 1.896c-.18.134-.381.237-.596.304.212.013.416.08.596.191a1.89 1.89 0 012.698 1.053l1.276 3.936a1.753 1.753 0 011.931.503c.336.157.6.435.74.778.983 2.372 1.836 4.816 2.653 7.269 2.852-.838 6.827-1.458 6.046-5.406l.002-.034zM104.173 115.45l-1.79.773c-.218.402-.62.671-1.074.719l-.16-.011a1.723 1.723 0 01-1.802 1.441 7.336 7.336 0 01-4.536-2.218 1.484 1.484 0 01-.394-1.433 10.155 10.155 0 01-4.353-3.517 1.76 1.76 0 01.299-2.467c.04-.155.104-.302.191-.436a1.764 1.764 0 012.4-.454l2.13 1.439c.702.492.936 1.426.548 2.192l.435.191c.38.154.775.262 1.123.378l.115.008.126.009.698.049.709.05a2.939 2.939 0 012.388-.121c.261.105.491.276.667.496l.711-.308a1.765 1.765 0 012.245.779 1.736 1.736 0 01-.676 2.441zM111.685 119.983a1.706 1.706 0 01-1.248.419 1.904 1.904 0 01-.809-.264 1.77 1.77 0 01-1.213-.246 6.018 6.018 0 01-2.628-4.341 6.52 6.52 0 01-.029-1.073c.033-.385.098-.765.195-1.139.15-.424.459-.774.861-.976a1.718 1.718 0 012.245.779l.143.425c.02.203.006.409-.042.607l-.017.241c.306.09.581.265.792.504.607.861 1.225 1.722 1.844 2.571.286.352.435.796.418 1.25 0 .466-.185.912-.512 1.243z" fill="#000"/></svg>