<svg width="1920" height="699" fill="none" xmlns="http://www.w3.org/2000/svg"><path d="M0 139.958h87l86.5.984 17 .983H203l26 2.459 20 2.95 33 5.9 84 20.159 13.5 3.442 24 6.392 13 2.458 17 3.934 9 1.475 16 2.95 25 3.442 23-6.392 23-9.342 36-17.701 28-1.967 27.5-7.375 30-5.9 10 2.458 8.5-4.425 13-2.95 15.5-1.475 23.5-.984 16 .984 31 1.967 117 2.458 51.5 1.475 49.5 1.475 33 .984 44 .983 40 .983 21.5-3.442 21-2.95 40-4.917 31-2.458 14.5-1.475h33l21.5 1.475 23.5 3.442 35.5 8.359 19 4.425 34 6.392 19 2.458 16.5.983 49-3.441 9.5-.984 33-1.966h16l58.5 7.375 43.5-9.342 22.5-3.934 22.5-3.442 21.5-3.441 22.5-2.459 45-2.95h143V699H0V139.958z" fill="#000"/><path d="M825.12 387.119c73.57-21.955 131.191-34.711 182.21-38.343 110.88-7.895 288.68-21.249 299.55-23.397l.08 1.168c-10.89 2.156-188.62 15.359-299.56 23.256-51.381 3.658-109.512 16.596-183.962 38.894-17.129 5.13-34.839 10.69-54.603 17.099a5359.14 5359.14 0 00-33.136 10.883c-3.479 1.153-25.218 8.373-31.303 10.386-24.542 8.118-40.762 13.321-55.444 17.696-36.994 11.026-59.281 15.078-70.772 11.965l.269-.994c11.227 3.042 33.424-.994 70.209-11.958 14.669-4.372 30.881-9.572 55.415-17.687 6.084-2.013 27.822-9.233 31.302-10.386a5355.57 5355.57 0 0133.142-10.884c17.738-5.753 33.823-10.821 49.319-15.509a282.313 282.313 0 00-64.531-3.177c-8.976.86-28.413 10.287-38.595 13.932-3.709 1.328-15.084 7.029-19.003 8.58-6.234 2.466-4.462.574-5.136.365 1.087-.571 12.295-5.804 18.93-9.606 1.454-.833 10.614-6.851 10.86-6.967a84.742 84.742 0 018.434-3.6c-43.499 7.701-71.972 11.243-85.418 10.626a548.098 548.098 0 01-65.752-7.316c-2.435-.395-24.433-4.064-30.608-5.024-11.154-1.734-20.103-2.862-28.664-3.536a361.949 361.949 0 00-73.965 4.011c-20.289 2.777-41.834 6.635-64.095 11.283-19.864 4.148-51.236 11.409-51.637 11.571l-1.587-1.138c-.517.037 32.788-7.217 53.013-11.441 22.283-4.653 43.851-8.514 64.166-11.295a362.816 362.816 0 0174.185-4.017c8.591.675 17.564 1.807 28.742 3.544 6.182.961 28.184 4.632 30.614 5.025a547.196 547.196 0 0065.635 7.305c13.679.627 43.127-3.097 88.344-11.173a27.152 27.152 0 016.255-17.093l-.517-.321a4.68 4.68 0 00-2.089-.79c-.59-.082-6.033-3.275-6.995-3.683l-1.328-.529-1.046-.416-.41-.232a9.175 9.175 0 01-1.771-.812 4 4 0 01-1.229-2.367l-.27-7.46a12.178 12.178 0 00-.238-1.733 1.56 1.56 0 00-.298-.545.278.278 0 00-.267.009.772.772 0 00-.223.4 38.03 38.03 0 00-.194 4.602c.065 1.513.039 3.07.094 4.603a7.474 7.474 0 01-.249 2.203c-.442 1.48-.831 2.957-1.367 4.388a8.099 8.099 0 01-1.707 2.648 16.596 16.596 0 01-4.008 3.133 7.238 7.238 0 01-1.145.546c-.538.226-1.087.411-1.625.647a12.986 12.986 0 01-5.568 1.025c-1.217-.028-2.434-.066-3.659-.022a23.35 23.35 0 01-4.414-.397 5.321 5.321 0 00-.786-.095 6.733 6.733 0 01-1.868-.375c-.407-.119-.794-.291-1.21-.399a22.165 22.165 0 01-6.632-3.325 8.173 8.173 0 01-2.874-3.369c-.186-2.023-.43-4.199-.806-6.338.036-.146.072-.291.118-.437.298-.897.594-1.815.933-2.703a8.777 8.777 0 011.4-2.297 1.683 1.683 0 011.005-.716 2.197 2.197 0 001.011-.531l1.785-1.353a9.918 9.918 0 012.912-1.527c1.417-.443 2.81-.957 4.238-1.349 1.225-.322 2.485-.522 3.733-.774.931-.188 1.861-.397 2.791-.595a.63.63 0 00.47-.388 1.472 1.472 0 00-1.177-.359 19.402 19.402 0 00-2.683.159 45.686 45.686 0 00-7.546 1.901 9.274 9.274 0 00-3.027 1.5 8.734 8.734 0 01-2.092 1.106 2.862 2.862 0 01-1.704.175 8.83 8.83 0 01-5.991-3.822 6.032 6.032 0 01-1.077-3.269l-.074-2.058a16.641 16.641 0 01.283-4.131 5.66 5.66 0 011.143-2.587 3.088 3.088 0 011.943-1.245 17.504 17.504 0 004.642-1.569 1.453 1.453 0 011.225-.044 23.295 23.295 0 007.248.974l2.85-.103a29.367 29.367 0 007.459-1.445 7.309 7.309 0 002.376-1.261c.153-.141.283-.305.384-.487a.32.32 0 00-.01-.289.359.359 0 00-.263-.145c-.411.087-.816.198-1.214.333a44.039 44.039 0 01-4.404 1.303 20.625 20.625 0 01-3.772.549 39.49 39.49 0 01-6.036.074c-.95-.079-1.883-.231-2.826-.362-.082-.007-.22-.126-.223-.187a.578.578 0 01.161-.398c.171-.124.353-.23.545-.318l2.256-1.432a8.699 8.699 0 001.668-1.461c.093-.128.171-.265.233-.411-.002-.041.068-.105-.006-.154a.608.608 0 00-.272-.104 4.41 4.41 0 00-.71.315c-1.412.844-2.824 1.678-4.225 2.533a36.811 36.811 0 01-4.875 2.237 11.246 11.246 0 01-3.394.751 42.478 42.478 0 01-5.244.015 38.882 38.882 0 01-5.335-.776 7.047 7.047 0 01-3.875-2.312c-.439-.447-.849-.958-1.248-1.449a7.493 7.493 0 01-1.29-2.354 13.788 13.788 0 011.268-11.936c4.065-6.958 15.438-18.425 23.663-11.511a17.237 17.237 0 014.013 4.677 9.447 9.447 0 011.149 3.277c.11.624.256 1.241.438 1.849.023.071.127.109.233.187.106.079.288-.031.364-.198.047-.095.088-.193.123-.294.042-.153.074-.309.097-.467a6.328 6.328 0 00-.184-2.517 11.15 11.15 0 00-.655-1.862c-.266-.526-.09-.78.548-.803l3.972-.144c.477-.003.953.066 1.409.207 1.329.366 2.594.935 3.75 1.688.315.189.641.359.977.511.073.028.194-.049.295-.083a.315.315 0 00.088-.416 4.418 4.418 0 00-.532-.763 6.173 6.173 0 00-2.113-1.428c-.44-.201-.982-.377-1.483-.565a7.574 7.574 0 00-3.108-.475 32.866 32.866 0 00-4.112.273 1.164 1.164 0 01-1.224-.512 22.042 22.042 0 00-2.145-2.334 19.511 19.511 0 00-1.192-1.049c-.829-.681-1.666-1.32-2.503-1.97l-.773-.569c-1.44-1.061-1.95-.641-2.45-2.508a6.71 6.71 0 01.377-3.795 15.695 15.695 0 014.825-6.213c1.539-1.313 3.227-2.775 5.004-4.086a26.687 26.687 0 012.905-1.136c3.778-1.26 8.722-1.284 12.239-3.472a9.646 9.646 0 013.472.832l1.279.624a9.093 9.093 0 013.515 3.149c.298.439.543.911.731 1.406a65.65 65.65 0 011.216 3.439c.114.404.188.819.22 1.239a6.02 6.02 0 00.381 1.706.314.314 0 00.098.11c.04.029.086.049.135.057a.364.364 0 00.263-.133 5.457 5.457 0 00.294-3.267 19.805 19.805 0 00-1.625-4.464c-1.086-2.114-3.432-2.874-4.526-4.648a8.3 8.3 0 01.757-7.539c7.887-13.546 17.185-12.853 23.634-13.457 3.154.035 6.269.704 9.159 1.966.313.102.686.161 1.04.262a3.42 3.42 0 002.319-.27c.122-.056.218-.245.296-.351.079-.105-.004-.401-.127-.397a1.732 1.732 0 00-.448-.118 17.636 17.636 0 01-5.822-1.437 87.644 87.644 0 01-2.627-1.131 6.955 6.955 0 01-1.27-.645 1.79 1.79 0 01-.821-1.619 3.521 3.521 0 01.946-2.332 38.95 38.95 0 011.503-1.466c1.037-.944 2.147-1.881 3.144-2.803l2.318-2a23.194 23.194 0 015.546-3.632 10.632 10.632 0 012.213-.637 6.46 6.46 0 01.758-.12 19.408 19.408 0 018.661.151c.93.357 1.889.683 2.801 1.093.431.208.821.49 1.153.834.514.533.999 1.094 1.452 1.679.373.455.591 1.018.624 1.605a5.89 5.89 0 01-.362 2.806 29.506 29.506 0 01-2.556 5.1 52.342 52.342 0 01-4.832 6.285c-1.019 1.15-2.102 2.281-3.091 3.419a14.392 14.392 0 00-1.705 2.123c-.03.052.089.182.092.264.017.02.038.036.061.048a.214.214 0 00.075.02l.154-.006c.222-.132.465-.264.676-.416a24.546 24.546 0 003.695-3.225 151.25 151.25 0 002.972-3.312 44.26 44.26 0 003.918-5.613c.396-.727.751-1.476 1.063-2.244.203-.434.38-.881.528-1.337a4.944 4.944 0 012.224-3.172c1.682-1.359 3.281-2.746 5.008-3.994a63.079 63.079 0 016.873-4.246 14.295 14.295 0 013.597-1.388c.46-.109.896-.32 1.354-.471a5.541 5.541 0 012.646-.343c.419.07.845.089 1.269.057a5.458 5.458 0 011.722.298c.448.149.915.256 1.373.363a7.738 7.738 0 012.332.946c.58.37 1.18.72 1.76 1.09a3.09 3.09 0 011.37 1.692c.092.306.206.605.341.894a13.26 13.26 0 011.072 4.289c.123 1.098.235 2.207.275 3.329a5.74 5.74 0 01-.112 1.724 26.414 26.414 0 01-.863 3.215 19.84 19.84 0 01-4.259 7.007 106.068 106.068 0 01-8.146 7.806l-.448.438c-.14.129-.171.409-.058.404a.63.63 0 00.299-.01c.151-.049.297-.113.436-.191a42.646 42.646 0 009.614-8.241 19.113 19.113 0 003.861-7.208c.082-.192.137-.396.163-.604a8.073 8.073 0 011.618-3.417 23.923 23.923 0 015.275-5.405 24.366 24.366 0 002.004-1.577 17.691 17.691 0 015.952-3.245 23.97 23.97 0 019.564-1.067c1.583.133 3.155.376 4.704.726.877.197 1.742.44 2.592.731a6.078 6.078 0 012.647 1.965c.474.57.908 1.172 1.352 1.764.099.124.184.26.252.403a12.19 12.19 0 011.014 3.817 11.678 11.678 0 01-.272 3.318c-.095.44-.272.859-.522 1.234-.656.962-1.311 1.923-2.02 2.845a8.459 8.459 0 01-2.115 1.9c-1.681 1.092-3.342 2.182-5.034 3.274-.534.341-1.1.63-1.689.865a348.393 348.393 0 01-5.171 2.041c-.742.285-1.495.549-2.225.854-.112.045-.209.224-.266.349-.057.126.248.3.495.292l.164-.006c.41-.067.842-.103 1.25-.2a31.625 31.625 0 003.945-1.173c.987-.345 1.931-.75 2.947-1.137a1.02 1.02 0 01.463-.017c.073.018.201.137.203.199a4.59 4.59 0 01-.366 1.538c-.352.889-.82 1.727-1.394 2.492-1.329 1.717-2.658 3.425-4.061 5.083-.762.883-1.651 1.636-2.498 2.439a21.07 21.07 0 00-2.215 2.286.905.905 0 00-.16.428c-.008.062.1.202.172.2a.43.43 0 00.319-.012 4.01 4.01 0 00.535-.318 27.083 27.083 0 005.397-4.894c1.245-1.477 2.412-3.096 3.603-4.654.501-.684.921-1.426 1.249-2.209.363-.706.58-1.477.639-2.269.004-.165.06-.321.055-.476a2.06 2.06 0 01.974-1.55c.796-.513 1.58-1.057 2.364-1.6a12.654 12.654 0 004.33-3.918c.434-.53.921-1.012 1.366-1.543a8.397 8.397 0 014.541-2.627 9.205 9.205 0 013.309-.254c1.097.125 2.209.106 3.318.292 1.883.33 3.701.96 5.384 1.866.841.454 1.7.856 2.512 1.362a34.463 34.463 0 016.702 5.816 58.701 58.701 0 013.76 4.522 17.354 17.354 0 012.207 4.041 30.605 30.605 0 011.213 3.614c.273 1.355.323 2.745.148 4.116a9.218 9.218 0 01-.899 2.196 12.425 12.425 0 01-2.313 3 46.004 46.004 0 01-3.508 3.002c-.921.734-1.843 1.437-2.765 2.161a.72.72 0 00-.223.389c-.019.052.09.223.142.222.206.016.413-.016.604-.094a20.397 20.397 0 004.587-2.815 32.856 32.856 0 001.797-1.569 12.019 12.019 0 003.953-7.242.824.824 0 01.046-.156.479.479 0 01.494-.286c.489.126 1.028.23 1.529.398.751.261 1.484.575 2.216.878.099.034.194.079.283.134a9.548 9.548 0 013.111 3.112c.137.349.297.687.48 1.013a5.937 5.937 0 01.864 3.38 24.596 24.596 0 01-1.036 7.528 45.34 45.34 0 01-4.111 9.968 37.003 37.003 0 00-2.323 5.556 4.847 4.847 0 00-.22 1.038 33.921 33.921 0 00-.391 4.579 28.283 28.283 0 01-1.082 7.684 5.367 5.367 0 01-1.458 2.423c-.626.63-1.316 1.222-1.995 1.813a5.493 5.493 0 01-.926.611c-.28.142-.568.269-.862.382a10.191 10.191 0 01-6.018 1.114 9.546 9.546 0 01-6.27-2.422l-.457-.385a.554.554 0 00-.502.359c-.348.651-.705 1.302-1.021 1.974a24.874 24.874 0 01-2.642 4.145 6.496 6.496 0 01-2.783 2.254c-.539.215-1.076.451-1.615.656a13.369 13.369 0 00-3.159 1.814 3.502 3.502 0 00-.842.937 25.442 25.442 0 01-1.97 2.503 10.204 10.204 0 01-2.584 2.072 13.8 13.8 0 01-1.569.768 7.21 7.21 0 01-2.452.583c-1.8.076-3.597.254-5.398.319-.42.041-.843.057-1.265.046-2.009-.077-4.02.12-5.976.587a3.287 3.287 0 01-.625.085 28.4 28.4 0 00-5.481.878 4.57 4.57 0 00-1.462.589 12.16 12.16 0 00-2.321 1.65 9.246 9.246 0 01-3.021 1.943c-.596.23-1.148.56-1.633.977-1.04.892-2.101 1.755-3.096 2.718a12.355 12.355 0 00-3.105 4.75 25.922 25.922 0 01-1.977 4.316c-.337.651-.621 1.331-.958 1.993-.196.432-.422.85-.676 1.25a15.931 15.931 0 00-1.538 2.776 4.903 4.903 0 01-.858 1.33 20.98 20.98 0 01-5.472 4.535c-.465.265-.93.508-1.395.762a18.81 18.81 0 00-3.899 2.727c-.36.291-.68.561-1 .84a9.4 9.4 0 00-2.433 3.097 10.56 10.56 0 01-.406.726c3.405.134 6.809.237 10.218.217 2.52 0 12.703 1.469 30.549 4.407l-.151.089zm-72.37-29.118a8.053 8.053 0 01-2.488 3.841c-.598.567-1.177 1.073-1.723 1.639a6.323 6.323 0 00-1.798 3.29 12.54 12.54 0 01-.531 1.822 2.536 2.536 0 011.718-.062 7.83 7.83 0 001.893.199c.691.027 1.373.085 2.063.06a9.255 9.255 0 002.055-.157c.685-.149 1.362-.225 2.049-.322.154-.019.309-.024.463-.016.422.032.846.034 1.268.005a1.191 1.191 0 001.101-1.173 1.827 1.827 0 00-.017-.473 3.728 3.728 0 00-.491-1.322c-.946-1.645-2.089-3.057-3.023-4.661a26.935 26.935 0 01-1.676-3.031l-.469-1.013c-.118.458-.256.916-.394 1.374zm-21.974-9.292l.031-.001c1.264-.386 2.516-.802 3.809-1.23a13.129 13.129 0 004.13-2.324 15.258 15.258 0 003.64-4.49c.221-.479.611-.86 1.095-1.07.347-.168.684-.355 1.01-.562a7.688 7.688 0 003.19-3.794.387.387 0 00-.005-.144c.067-.147-.015-.411-.118-.408a.796.796 0 00-.417.149c-.375.447-.739.913-1.084 1.369a7.664 7.664 0 01-3.227 2.507c-.578.248-1.178.465-1.779.662-.958.302-1.938.544-2.885.867-.664.224-1.348.386-2.043.486a2.384 2.384 0 00-.601.176c-.092.034-.128.159-.177.254-.048.094.106.367.23.363.198.063.404.097.612.101a9.427 9.427 0 002.191-.378c.855-.278 1.712-.526 2.578-.784.157-.026.316-.031.474-.017a.344.344 0 01.242.136.334.334 0 01-.113.292 18.825 18.825 0 01-1.412 1.7 12.792 12.792 0 01-6.032 4.175c-.957.313-1.914.636-2.849.979a7.801 7.801 0 01-1.849.448 1.623 1.623 0 00-.59.217.292.292 0 00-.104.251.452.452 0 00.194.23c.138.052.281.091.427.119.482-.066.96-.159 1.432-.279zm6.407 16.172l.031-.001c.86.32 1.641.822 2.289 1.473.16.138.339.255.489.404.153.164.324.31.51.435.315-.413.64-.827.986-1.22a27.431 27.431 0 011.899-1.913 6.712 6.712 0 001.849-2.726 24.698 24.698 0 001.427-5.842c.06-.265.095-.536.104-.808a49.445 49.445 0 01-2.251 2.143 42.82 42.82 0 01-6.426 4.653 6.496 6.496 0 01-2.324.97 4.247 4.247 0 00-.764.244.706.706 0 00-.329.77.72.72 0 00.129.267c.154.142.325.263.508.363.611.293 1.235.556 1.873.788zm23.103 16.855a13.345 13.345 0 012.477-.172 2.574 2.574 0 01-.01-.278 18.903 18.903 0 01-.236-2.526 7.957 7.957 0 00-1.048-3.63 2.159 2.159 0 00-.348-.513c-.606-.514-1.212-1.038-1.847-1.499a2.268 2.268 0 00-2.392-.316 2.816 2.816 0 01-1.559.201l-.319.012a19.602 19.602 0 00-5.217-.11c-1.266.045-2.552.123-3.811.045a22.433 22.433 0 01-1.666-.177c-.151.088-.292.186-.433.284l-3.461 2.577c-.406.458-.833.886-1.24 1.333a38.516 38.516 0 00-2.85 6.656c-.173.92-.324 1.853-.455 2.799a120.616 120.616 0 0117.258-3.716 80.158 80.158 0 015.615-.595c.503-.165 1.019-.29 1.542-.375zm1.612-29.208l.001.021c.424-1.087.859-2.164 1.249-3.332.322-.837.717-1.644 1.18-2.413a30.07 30.07 0 014.163-5.405 3.387 3.387 0 001.067-2.697l-.011-.319c-.057-1.853.041-3.701.169-5.56.035-1.535.232-3.061.588-4.555a6.69 6.69 0 00.095-.786c.071-.58.123-1.159.226-1.729.163-.892.39-1.756.522-2.647.138-.727.318-1.446.541-2.152a23.74 23.74 0 011.639-3.954 21.89 21.89 0 001.408-3.534c.081-.312.194-.615.296-.917a5.25 5.25 0 01.18-.44.91.91 0 01.321-.437.91.91 0 01.512-.18 14.199 14.199 0 005.869-1.82c.414-.221.839-.453 1.252-.694a9.144 9.144 0 002.793-2.544c.098-.129.18-.271.243-.42a.337.337 0 00-.01-.278.29.29 0 00-.135-.03.283.283 0 00-.133.04c-.37.291-.741.593-1.09.915a12.075 12.075 0 01-2.08 1.734 25.595 25.595 0 01-3.423 1.67 8.968 8.968 0 01-2.626.589 2.526 2.526 0 01-.466-.065.433.433 0 01-.241-.373c.045-.197.11-.395.164-.603.258-1.047.509-2.087.753-3.119a2.452 2.452 0 00-.023-.617.234.234 0 00-.097-.12l-.288.01c-.2.24-.367.506-.497.791-.788 1.852-1.607 3.695-2.239 5.604a91.644 91.644 0 01-1.487 4.175 16.837 16.837 0 01-4.902 6.906 15.438 15.438 0 01-3.321 2.181 8.933 8.933 0 01-3.058.935 44.555 44.555 0 01-5.382.194.677.677 0 01-.679-.562 17.426 17.426 0 00-1.167-3.781c-.559-1.494-1.179-2.956-1.758-4.439a6.945 6.945 0 00-1.337-2.208c-.019.192-.012.386.021.576.333 1.292.75 2.561 1.25 3.798a35.379 35.379 0 011.682 4.617c.573 1.933.864 3.939.864 5.955-.022 1.361.007 2.741-.005 4.122a16.992 16.992 0 01-.251 3.317c-.199 1.037-.347 2.073-.526 3.11a4.096 4.096 0 01-.179.758.46.46 0 00.012.319c.347.504.556 1.09.607 1.699a13.894 13.894 0 011.691 3.72c.165.617.438 1.2.804 1.723.818 1.3 1.555 2.65 2.207 4.041.505.973.911 1.994 1.213 3.048a.378.378 0 00.434.334c.111-.344.254-.679.344-1.043.278-1.065.63-2.111 1.051-3.129zm61.751-22.759l.001.02c.149-.994.361-1.981.513-2.914a4.842 4.842 0 011.281-2.746c.476-.501.91-1.032 1.355-1.563a18.233 18.233 0 003.566-5.961 1.372 1.372 0 01.844-.866c1.665-.678 3.33-1.377 4.973-2.096a13.818 13.818 0 003.933-2.646c.138-.154.257-.324.353-.508.05-.032.028-.062-.006-.144a.14.14 0 00-.126-.078 1.859 1.859 0 00-1.012.511 23.351 23.351 0 01-4.565 2.546c-.782.316-1.563.654-2.334.991-1.292.606-2.69.951-4.116 1.014-.526.021-1.051.078-1.57.17-.144.016-.262.154-.372.251a.153.153 0 00.009.267.851.851 0 00.38.234c.421.045.845.053 1.268.026l.638-.023a.361.361 0 01.185.041.368.368 0 01.164.493c-.434.829-.929 1.661-1.404 2.492a23.935 23.935 0 01-3.1 4.007c-.184.196-.38.379-.589.547-.391.361-.89.581-1.419.628l-1.585.058a14.404 14.404 0 01-3.449-.483 4.505 4.505 0 01-1.04-.261 8.93 8.93 0 00-2.084-.646 2.43 2.43 0 01-1.229-.656 31.176 31.176 0 01-4.299-4.894 4.043 4.043 0 00-.486-.621c-.687-.748-.618-1.132-.065-1.801.197-.244.405-.488.591-.742.453-.584.927-1.157 1.337-1.78a34.04 34.04 0 003.756-8.379c.075-.254.127-.515.158-.778a1.183 1.183 0 00-.017-.463.29.29 0 00-.193-.199.337.337 0 00-.288.01 6.824 6.824 0 00-.637.899 41.812 41.812 0 00-1.87 3.859c-.36.879-.751 1.748-1.194 2.599a30.445 30.445 0 01-5.656 7.417 5.647 5.647 0 01-1.547 1.087c-1.055.51-2.154.922-3.284 1.231-.704.201-1.416.443-2.132.593a21.83 21.83 0 01-3.915.574c-2.326.074-4.66.22-6.973.376a7.208 7.208 0 01-2.367-.223 54.75 54.75 0 01-2.886-.864c-1.117-.403-1.045-.406-1.154-1.432-.001-.041-.055-.081-.12-.192a54.17 54.17 0 00-1.768 8.091c-.175 1.14-.184 2.315-.318 3.474a893.711 893.711 0 00-.802 6.304 5.14 5.14 0 00-.089.951 5.024 5.024 0 01-.809 2.997 15.019 15.019 0 01-1.805 2.785 14.121 14.121 0 00-1.206 1.682c-.576.886-1.11 1.802-1.665 2.698a16.452 16.452 0 01-3.119 3.781 6.27 6.27 0 00-1.944 3.224 48.447 48.447 0 01-1.614 4.643 7.542 7.542 0 00-.702 5.095l.017.484a6.182 6.182 0 00.805 2.876c.287.453.408.991.344 1.523a6.487 6.487 0 00-.037 1.269 4.506 4.506 0 00.404 2.046c.402.861.703 1.778 1.064 2.651a9.361 9.361 0 01.779 3.578l.106 2.933c3.37.012 6.733.117 10.097.263l-.003-.083a49.554 49.554 0 001.524-2.6 19.491 19.491 0 011.826-2.776 5.342 5.342 0 011.375-1.307 9.768 9.768 0 001.591-1.314 9.35 9.35 0 013.902-2.347 7.212 7.212 0 002.366-1.249c.733-.522 1.391-1.143 2.103-1.694a17.926 17.926 0 012.298-1.691 5.05 5.05 0 002.157-2.448c.129-.357.278-.706.447-1.046.211-.42.401-.86.655-1.271a28.695 28.695 0 001.802-3.713c1.075-2.47 2.161-4.941 3.214-7.421a6.66 6.66 0 012.248-2.822 56.115 56.115 0 012.221-1.544 287.558 287.558 0 013.486-2.187 5.506 5.506 0 001.474-1.413 5.393 5.393 0 00.813-1.72c.168-.556.44-1.076.8-1.533.227-.286.421-.602.658-.889a13.993 13.993 0 013.381-3.1 35.802 35.802 0 001.851-1.232c.344-.242.659-.523.939-.837.732-.841 1.443-1.691 2.164-2.551a3.02 3.02 0 00.748-1.542zm48.918-20.05v.021a.785.785 0 00.189-.769c-.058-.173-.275-.186-.683.189-.409.376-.768.718-1.208 1.074-.441.356-.89.744-1.363 1.08a36.193 36.193 0 01-8.697 4.529.992.992 0 01-.46.109c-.112.015-.326-.204-.279-.309.053-.203.122-.402.206-.595a23.355 23.355 0 001.326-3.479c.183-.656.313-1.34.464-2.005a.911.911 0 00-.006-.165.656.656 0 00-.165-.571c-.106-.089-.369.055-.494.317-.364.755-.738 1.521-1.081 2.295a30.228 30.228 0 01-4.459 8.024l-.166.263a18.754 18.754 0 01-3.43 3.731 28.026 28.026 0 01-5.445 3.288 3.98 3.98 0 01-.743.264 12.045 12.045 0 01-4.407.376 7.383 7.383 0 00-1.26-.099 11.032 11.032 0 01-3.241-.717 18.773 18.773 0 01-4.816-2.392.385.385 0 00-.441-.026.384.384 0 00-.112.108 5.28 5.28 0 00-.933 2.682c.002.423-.038.846-.12 1.261a42.062 42.062 0 01-.755 2.758 7.436 7.436 0 01-1.43 2.628l-2.354 3.001c-.422.582-.826 1.091-1.239 1.642l.006.154c-.023.218.491.199 2.292.134l.792-.029 3.647-.307.003.072c.627-.023 1.263-.107 1.893-.068 1.486.059 2.965-.056 4.449-.048a3.676 3.676 0 001.816-.499 9.825 9.825 0 002.287-1.741c.575-.619 1.193-1.197 1.768-1.816a12.084 12.084 0 012.855-2.246 13.685 13.685 0 003.738-2.639c.076-.074.16-.139.25-.195a5.388 5.388 0 001.551-1.571 15.933 15.933 0 001.802-3.156c.362-.882.842-1.71 1.426-2.463.875-1.144 1.763-2.248 2.649-3.372a2.34 2.34 0 011.287-.882c.817-.215 1.633-.44 2.426-.726a30.873 30.873 0 007.836-4.127 10.558 10.558 0 002.829-2.988z" fill="#fff"/><path d="M1660.44 411.753l-1.16.061-1.32-.092 1.26-1.031c.4.256.81.487 1.24.691-.01.144-.01.257-.02.371z" fill="#000"/><path d="M1709.23 320.893a85.213 85.213 0 0026.94-44.803c3.85-14.749 5.2-30.563 5.34-53.793l-2.06-.012c-.13 23.072-1.47 38.74-5.27 53.284a83.214 83.214 0 01-26.29 43.764l1.34 1.56z" fill="#fff"/><path d="M1711.26 313.499a84.99 84.99 0 0039.56-34.168c8.23-12.805 14.39-27.398 21.69-49.408l-1.96-.648c-7.24 21.859-13.35 36.317-21.47 48.942a82.916 82.916 0 01-38.61 33.381l.79 1.901z" fill="#fff"/><path d="M220.968 300.375c16.529-36.668 3.272-72.843-13.156-108.617" stroke="#fff" stroke-width="2" stroke-linecap="round"/><path fill-rule="evenodd" clip-rule="evenodd" d="M153.537 215.136c.579-3.877 38.233 29.979 46.167 39.8 7.933 9.822 10.234 22.847 16.562 30.758a39.869 39.869 0 0017.766 12.158 34.655 34.655 0 01-30.487-1.416c-13.522-7.706-21.207-4.542-23.617-25.063-2.411-20.521-26.969-52.36-26.391-56.237z" fill="#fff"/><path d="M217.782 299.396c-10.494-8.706-17.052-13.049-26.218-27.919-7.932-12.87-14.967-34.12-32.314-47.059" stroke="#000" stroke-width="2" stroke-linecap="round"/><path fill-rule="evenodd" clip-rule="evenodd" d="M265.488 174.109c-2.187-3.258-22.23 43.172-25.303 55.381-3.074 12.21.384 24.941-2.035 34.75a39.597 39.597 0 01-11.088 18.46 35.181 35.181 0 0027.338-14.117c9.101-12.652 17.496-13.031 10.935-32.577-6.561-19.547 2.34-58.64.153-61.897z" fill="#fff"/><path d="M242.617 277.25c5.898-12.281 10.052-18.964 12.097-36.252 1.771-14.963-.864-37.115 9.505-56.103" stroke="#000" stroke-width="2" stroke-linecap="round"/><path d="M634.566 39.817a.38.38 0 01.172-.159.247.247 0 01.126-.024 12.867 12.867 0 005.151-1.048c.498-.191.975-.401 1.449-.627a9.917 9.917 0 002.892-1.965c.148-.146.313-.288.469-.436a.31.31 0 01.355-.069c.103.035.131.178.06.31a4.805 4.805 0 01-1.496 1.693c-.248.174-.516.328-.785.482a22.563 22.563 0 01-3.216 1.519 15.69 15.69 0 01-1.91.512c-.607.137-1.222.23-1.842.28a1.925 1.925 0 01-1.374-.25.226.226 0 01-.012-.24l-.039.022zM591.902 138.695a5.862 5.862 0 00.095 2.12s-.035.062-.064.076a.43.43 0 01-.1.019 2.741 2.741 0 01-.361-.311 10.45 10.45 0 01-1.236-1.747 6.93 6.93 0 00-1.331-1.665 4.759 4.759 0 01-.522-.646.125.125 0 01-.022-.115c.046-.049.112-.117.176-.114a44.334 44.334 0 011.78-.06.618.618 0 01.593.315c.239.414.49.81.73 1.225.081.162.153.328.215.498.026.134.042.269.047.405zM610.284 45.756a.196.196 0 01.244-.047.269.269 0 01.221.105 2.663 2.663 0 002.216 1.11 8.493 8.493 0 002.748-.064l3.753-.73a5.427 5.427 0 012.087-.092s.096.047.091.065a.62.62 0 01-.051.232.258.258 0 01-.095.093l-.243.097-2.552.669c-1.45.353-2.93.575-4.421.661a8.8 8.8 0 01-2.465-.279c-.46-.115-.89-.33-1.258-.629a1.177 1.177 0 01-.432-.74.586.586 0 01.157-.45zM604.487 146.384a20.58 20.58 0 00-3.139-.395 17.377 17.377 0 01-3.98-.738 1.504 1.504 0 01-.804-.541c-.644-.889-1.307-1.748-1.949-2.628a1.48 1.48 0 01-.229-.571 12.94 12.94 0 01-.231-1.491 2.54 2.54 0 01-.062-.62 5.377 5.377 0 00-.282-2.229.752.752 0 01-.003-.232c.077-.029.16-.039.241-.029a.51.51 0 01.225.088c.666.37 1.229.9 1.638 1.542a7.004 7.004 0 002.698 2.408c.932.467 1.784.957 2.651 1.478.687.415 1.334.887 2.007 1.321a2.992 2.992 0 011.291 1.793l.168.607c.027.094-.141.268-.24.237zM605.055 139.119c-.023.266-.054.532-.093.791a2.538 2.538 0 01-.149.389 5.29 5.29 0 01-.42-.386 7.235 7.235 0 00-1.531-1.293 3.507 3.507 0 01-.914-.846 6.165 6.165 0 00-1.937-1.798 3.548 3.548 0 01-.638-.586c-.094-.099-.08-.416.052-.469l.734-.304a17.36 17.36 0 002.914-1.303.381.381 0 01.507.144c.365.512.629 1.089.78 1.699.147.565.274 1.142.467 1.707.244.723.332 1.49.257 2.25l-.029.005zM592.826 74.899c-1.233.24-2.459.478-3.703.62-.912.082-1.828.107-2.744.075a2.52 2.52 0 01-1.319-.328.736.736 0 01-.412-.594c-.03-.153.163-.349.301-.317.138.031.088-.017.12-.023a5.75 5.75 0 002.71.306 31.206 31.206 0 005.18-.84 6.322 6.322 0 001.172-.428 39.974 39.974 0 001.995-1.038 12.813 12.813 0 003.232-2.536c.798-.864 1.609-1.705 2.42-2.546a.9.9 0 01.503-.348.579.579 0 01.227.065l.023.12a2.024 2.024 0 01-.425.916 17.916 17.916 0 01-3.814 4.125c-.136.11-.244.23-.364.337a.265.265 0 00.066.338c.068.046.139.088.214.125 1.134.42 2.313.712 3.513.867.622.054 1.237.16 1.857.247.993.13 1.999.139 2.994.027 1.533-.148 3.065-.296 4.577-.59.698-.12 1.384-.31 2.045-.564.658-.27 1.335-.485 1.999-.722a.492.492 0 01.239-.046.221.221 0 01.2.094.262.262 0 01-.004.234 3.09 3.09 0 01-.457.414 12.54 12.54 0 01-5.23 1.942 18.65 18.65 0 01-2.856.305 2.044 2.044 0 00-.496.038 7.996 7.996 0 01-2.362.042c-1.208-.098-2.397-.309-3.594-.476a10.33 10.33 0 01-2.288-.639c-.27-.114-.551-.201-.813-.317a1.891 1.891 0 00-2.119.104 5.52 5.52 0 01-.75.387c-.581.29-1.199.5-1.837.624zM611.527 146.584c-.112.32-.133.665-.06.997.225 1.157.227 2.342.436 3.503a.215.215 0 01-.1.186.275.275 0 01-.217-.074c-.532-.731-1.061-1.413-1.552-2.152a4.7 4.7 0 01-.503-1.154 12.995 12.995 0 01-.314-1.349 11.483 11.483 0 00-.579-2.066 4.849 4.849 0 01-.305-2.485 24.42 24.42 0 01.726-4.097 6.723 6.723 0 00-.202-4.133c-.266-.841-.586-1.664-.853-2.513-.2-.637-.354-1.3-.531-1.95a1.039 1.039 0 01.086-.734 5.84 5.84 0 01.297-.558 10.496 10.496 0 001.291-2.888c.402-1.372.828-2.748 1.283-4.105a12.05 12.05 0 00.577-4.735c-.054-.716-.143-1.433-.155-2.148a23.915 23.915 0 01.022-3.017c.018-.169.053-.335.107-.496-.011-.056.123-.108.19-.154a.132.132 0 01.062-.029.131.131 0 01.068.003.131.131 0 01.058.034.132.132 0 01.036.057c.109.175.196.363.261.558.225.9.435 1.802.644 2.704l-.041.008c.105.756.232 1.499.32 2.258a13.281 13.281 0 01-.181 3.765l-.074.49a.29.29 0 00.275.197l.122-.024a29.69 29.69 0 001.389-.645 6.78 6.78 0 001.669-1.159 18.246 18.246 0 001.677-1.903 30.583 30.583 0 002.465-3.859 18.625 18.625 0 001.37-3.262c.453-1.457.784-2.931 1.142-4.395.16-.657.34-1.301.535-1.948.059-.159.152-.303.274-.42 0 0 .179-.035.218.033.176.294.243.641.19.981a21.03 21.03 0 01-.861 4.965 7.697 7.697 0 00-.277.839 12.818 12.818 0 01-1.378 3.53 24.69 24.69 0 01-4.257 5.993 8.148 8.148 0 01-2.387 1.691l-2.323 1.102a1.04 1.04 0 00-.578.638c-.333.899-.674 1.8-.971 2.751a13.479 13.479 0 01-1.463 3.222 1.687 1.687 0 00-.161 1.566c.048.25.234.464.289.704a1.719 1.719 0 00.895 1.169c.228.115.41.303.519.534.287.618.75 1.137 1.33 1.493.106.063.208.152.313.215a1.366 1.366 0 01.633 1.037l.339 1.745a4.666 4.666 0 01-.08 2.243c-.097.367-.16.743-.188 1.122a13.814 13.814 0 01-.725 3.579c-.292.849-.511 1.726-.792 2.54zM630.481 150.551a31.313 31.313 0 00-16.655 2.427l-.05-.258a7.934 7.934 0 01.096-3.051c.037-.202.055-.416.076-.615a5.742 5.742 0 01.987-2.624c.359-.556.696-1.141 1.027-1.716.45-.799.732-1.682.83-2.594.067-.491.142-.976.2-1.466.079-.57.055-1.15-.069-1.713l-.14-.719a6.484 6.484 0 01-.103-2.412c.052-.343.206-.47.612-.484.405-.014.946-.03 1.413-.08.897-.11 1.789-.243 2.675-.366l.009.047 2.787-.493c.508-.099.627-.057.817.352a10.53 10.53 0 01.951 3.537c.052.614.144 1.22.228 1.828.084.608.138 1.06.197 1.584.055.281.052.573.089.85.055.577.268 1.127.616 1.591.328.422.636.865.994 1.266.338.363.623.772.848 1.214.207.398.386.81.538 1.233a5.154 5.154 0 001.029 1.665c.224.248.443.498.656.748-.222.084-.457.186-.653.273l-.005-.024zM640.194 119.96a17.14 17.14 0 01-3.601 5.808 18.978 18.978 0 00-1.834 2.356.398.398 0 00.009.468c.307.352.642.677 1.002.973.196.149.422.254.662.309.395.108.807.179 1.208.277.159.041.316.092.468.153a.445.445 0 01.234.408l-.539 3.625a6.795 6.795 0 01-.62 1.91c-.296.654-.56 1.302-.846 1.963a9.588 9.588 0 00-.686 3.493c-.036 1.99-.19 3.96-.175 5.915a6.68 6.68 0 01-.047.849l-.646.227a2.283 2.283 0 01-.425-.304 2.476 2.476 0 01-.394-.478 15.492 15.492 0 00-1.407-1.802 1.937 1.937 0 01-.304-.394 18.55 18.55 0 00-1.757-2.473 3.395 3.395 0 01-.842-2.197 4.191 4.191 0 00-.082-.631 4.45 4.45 0 01-.041-1.387c.056-.464.063-.928.096-1.388a13.65 13.65 0 00-.666-5.138.66.66 0 01.065-.733.635.635 0 01.201-.159l.208-.141a16.305 16.305 0 003.444-3.19c.2-.258.426-.493.676-.703.378-.327.698-.716.947-1.15.389-.597.823-1.164 1.296-1.697a17.012 17.012 0 002.472-3.589c.094-.186.187-.372.299-.554.647-.976 1.2-2.011 1.65-3.093a.967.967 0 01.21-.301.341.341 0 01.203-.039s.069.062.075.094a7.407 7.407 0 01-.508 2.737l-.005-.024zM659.659 113.259a3.446 3.446 0 01-.822 1.419c-.177.184-.354.368-.541.546a4.754 4.754 0 00-1.314 2.831c-.047.375-.073.753-.078 1.132-.006.466-.12.925-.335 1.34a8.94 8.94 0 00-.974 2.739 3.624 3.624 0 01-.83 1.686c-.7.778-1.314 1.564-2.02 2.31-.441.469-.929.89-1.458 1.258a55.183 55.183 0 01-3.109 2.046c-1.524.921-2.917 1.942-4.37 2.916a7.372 7.372 0 00-.521.385c-.17.133-.42.165-.452.088a.63.63 0 01-.067-.346c.269-1.069.435-2.143.616-3.228a.779.779 0 01.528-.652 15.106 15.106 0 002.78-1.599 7.913 7.913 0 001.279-1.082 24.902 24.902 0 003.987-5.283 14.455 14.455 0 001.689-4.754c.059-.375.09-.754.094-1.135-.007-1.173.028-2.355-.073-3.527a19.076 19.076 0 00-.529-2.722 3.438 3.438 0 00-.484-.873c-.294-.459-.619-.905-.904-1.366-.71-1.153-1.394-2.312-2.096-3.467a22.232 22.232 0 00-1.644-2.239 9.2 9.2 0 01-.562-.833.232.232 0 01.042-.224.272.272 0 01.221-.043.904.904 0 01.344.149c.418.293.82.607 1.205.941a8.488 8.488 0 011.455 1.751c.698 1.097 1.444 2.219 2.067 3.323.291.51.609 1.005.952 1.481.428.577.708 1.249.815 1.959l.217 1.116.217 1.116.12.618a1.108 1.108 0 00.489.713c.256.164.566.22.863.158a6.942 6.942 0 001.112-.325c.634-.24 1.271-.513 1.903-.761.099-.02.261.116.247.218a.96.96 0 01-.055.244l-.004-.024z" fill="#000"/><path d="M554.081 167.802c-2.393 1.452-4.704 3.074-7.039 4.636l-.25.142a303.447 303.447 0 01-25.112 12.696 209.659 209.659 0 01-24.915 9.465 116.336 116.336 0 01-14.323 3.418.517.517 0 00-.179-.063c-33.081-5.231-57.093-9.69-72.036-13.378-3.796-.937-85.829-21.523-105.747-26.233a664.83 664.83 0 00-78.637-14.967C168.89 137.255 112 138 0 139.829V141c111.5 0 168.5-.5 225.73 3.542a664.16 664.16 0 0178.513 14.945c19.909 4.709 101.935 25.293 105.737 26.231 14.524 3.585 37.575 7.892 69.153 12.924-3.08.401-6.185.561-9.289.477-35.442-1.181-47.698-.078-90.741 9.279a153.187 153.187 0 00-49.169 19.323 223.03 223.03 0 00-34 26.699l-1.6 1.434-.445.4-2.049 1.836a669.597 669.597 0 01-5.64 4.998l.678.775a659.471 659.471 0 005.648-5.006l2.05-1.837 2.046-1.834a222.17 222.17 0 0133.853-26.589 152.14 152.14 0 0148.847-19.193c42.96-9.339 55.13-10.434 90.487-9.256a87.328 87.328 0 0027.252-4.421 210.517 210.517 0 0025.04-9.511 304.729 304.729 0 0024.845-12.539c2.725-1.368 5.393-2.848 8.081-4.146a40.748 40.748 0 019.501-3.659 34.042 34.042 0 0110.077-.481c3.073.257 6.166.141 9.211-.345l1.102-.214.578-.113.322-.063.064-.012a32.572 32.572 0 0019.655-3.061 91.557 91.557 0 0117.617-6.765 20.864 20.864 0 016.629-.236 28.6 28.6 0 017.245 3.144c.152.137-1.227-3.261-1.084-3.13.501.464.838 1.079.957 1.751l.265 1.36c.05.317.084.637.102.958.563.46 1.1.949 1.612 1.465l.052.057.304.1a23.425 23.425 0 011.672-.284 3.7 3.7 0 01-.024-.421c-.024-.555-.031-1.105-.088-1.653-.193-1.809-.481-3.59-.788-5.384a7.257 7.257 0 01-.138-.926 31.928 31.928 0 0115.781-.069c3.231.742 6.246 2.427 9.853 3.472 3.553.729 7.206.822 10.791.274a9.003 9.003 0 014.674.821 12.9 12.9 0 013.578 3.43 12.647 12.647 0 009.382 4.565 12.76 12.76 0 01-8.527-5.233 14.211 14.211 0 00-3.655-4.083 10.721 10.721 0 00-5.422-1.452c-3.368.32-6.766.075-10.054-.727-1.096-.38-2.193-.865-3.312-1.379h.452c10.983-8.238 37.412-10.641 79.287-7.208 7.554.619 20.403 1.373 33.98 2.059 15.356.777 305.452 7.08 325.822 7.659l-1.5-1.248c-49.55-1.394-372.737-12.046-385.074-11.559-23.637.933-40.031 2.426-52.515 8.237a5.253 5.253 0 00-1.641 1.51 38.23 38.23 0 00-5.251-2.096 32.926 32.926 0 00-17.187-.727c-.015-.724.029-1.442.081-2.162.03-.378.097-.752.2-1.116.243-.808.519-1.621.774-2.414a4.471 4.471 0 012.285-2.407c.773-.317 1.486-.598 2.228-.901.901-.353 1.749-.83 2.52-1.417a25.726 25.726 0 013.586-2.367c.662-.346 1.305-.718 1.953-1.092l.146-.085a17.669 17.669 0 003.367-2.424 27.327 27.327 0 002.946-3.304 3.704 3.704 0 011.057-1.041c.397-.251.703-.624.87-1.063.44-.967.579-2.045.4-3.092l-.192-.99a2.894 2.894 0 01-.002-1.253c.096-.453.197-.873.277-1.365a6.36 6.36 0 00.128-2.263c-.057-.336.02-.68.214-.96.341-.532.639-1.09.893-1.669.157-.345.334-.681.531-1.005a43.777 43.777 0 002.4-4.308 7.503 7.503 0 00.804-1.827 4.87 4.87 0 01.51-1.285c.308-.552.587-1.119.838-1.7a15.2 15.2 0 00.5-1.291 8.796 8.796 0 00.236-3.504c-.031-.378-.145-.748-.159-1.121a24.367 24.367 0 00-1.549-6.506 15.584 15.584 0 00-1.215-2.904 1.398 1.398 0 01-.07-.362c-.019-.097.187-.237.269-.203.08.022.157.055.228.097a7.609 7.609 0 011.55 2.138c.442.954.812 1.94 1.107 2.95.44 1.582.754 3.197.939 4.829.024.207.029.416.013.624-.019.721.151 1.423.082 2.138a.397.397 0 00.222.283c.224.108.463.183.71.221 1.175.098 2.357.084 3.529-.043.21-.02.417-.06.619-.12a12.93 12.93 0 004.144-2.593c.48-.536.931-1.091 1.403-1.626a13.76 13.76 0 002.533-4.91c.184-.554.304-1.137.506-1.685.149-.393.215-.813.195-1.233-.014-.757-.018-1.508-.066-2.267a12.966 12.966 0 00-.465-2.607c-.079-.41-.22-.792-.321-1.224a.812.812 0 01.028-.373.472.472 0 01.137-.194c.065-.054.285.004.348.075.524.662.896 1.43 1.089 2.252.279 1.148.388 2.332.324 3.512-.026.423-.027.847-.004 1.27a.673.673 0 00.659.64c.209.01.419-.006.625-.046.978-.249 1.91-.647 2.861-.99a2.396 2.396 0 001.1-.824c.413-.534.789-1.095 1.125-1.68a17.397 17.397 0 001.38-3.117c.376-1.073.676-2.173.896-3.29a27.193 27.193 0 00-.082-7.934 4.55 4.55 0 00-.833-2.093 6.056 6.056 0 00-2.717-2.562 5.199 5.199 0 00-2.489-.828 4.954 4.954 0 01-.855-.109 7.649 7.649 0 00-2.265-.06c-.493.037-.695.243-.696.71-.002.128.003.255.016.382a5.479 5.479 0 01-.64 3.064 26.795 26.795 0 01-3.365 5.18c-.31.35-.627.69-.953 1.021a.857.857 0 01-.338.15.14.14 0 01-.114-.028.136.136 0 01-.098-.076.136.136 0 01-.011-.064 3.181 3.181 0 01.296-.616c.499-.781 1.027-1.543 1.516-2.332.713-1.14 1.405-2.302 2.089-3.462a4.176 4.176 0 00.635-1.794c.063-.58.072-1.175.082-1.77a2.205 2.205 0 00-.071-.621 13.638 13.638 0 00-1.395-4.047 11.95 11.95 0 00-2.088-3.143c-.308-.341-.623-.715-.941-1.02a17.256 17.256 0 00-5.39-3.905 4.685 4.685 0 00-.951-.342 26.269 26.269 0 00-1.735-.34 7.308 7.308 0 00-2.009-.034.716.716 0 00-.606.401c-.049.07-.093.143-.133.218a10.648 10.648 0 01-2.794 3.224c-.418.34-.839.706-1.266 1.04-.4.312-.938.702-1.431 1.06l-.101.073c-.52.376-.921.588-1.37.892a13.198 13.198 0 01-4.668 2.169.822.822 0 00-.634.69c-.242 1.159-.537 2.302-.733 3.484a21.721 21.721 0 01-1.517 4.813 8.94 8.94 0 01-.95 1.638 15.099 15.099 0 01-2.615 2.73 17.941 17.941 0 00-1.842 1.728 97.416 97.416 0 01-2.603 2.577 13.485 13.485 0 01-2.499 1.822.639.639 0 01-.595.116.21.21 0 01-.08-.075.214.214 0 01-.03-.104.652.652 0 01.162-.324l1.271-1.233c1.19-1.133 2.37-2.273 3.49-3.51a22.466 22.466 0 012.107-2.038c.39-.329.762-.68 1.113-1.051a9.455 9.455 0 001.896-2.523 16.635 16.635 0 001.28-3.59c.33-1.35.589-2.72.874-4.087a.47.47 0 00-.045-.233c-.017-.089-.208-.127-.331-.07a130.6 130.6 0 01-5.313 2.328 25.422 25.422 0 01-5.242 1.361.626.626 0 01-.25-.001.466.466 0 01-.183-.124c-.064-.07.016-.262.116-.306l.472-.192a49.766 49.766 0 008.764-3.541 22.104 22.104 0 014.089-1.63c.734-.19 1.446-.46 2.121-.805a33.796 33.796 0 004.266-2.692 29.614 29.614 0 002.164-1.748 6.363 6.363 0 002.152-2.749c.054-.113.117-.223.186-.328a8.336 8.336 0 001.061-3.99 83.096 83.096 0 00-.082-2.907 11.516 11.516 0 00-.109-1.507c-.201-1.247-.435-2.496-.66-3.739a4.313 4.313 0 00-.636-1.638c-.29-.42-.527-.867-.786-1.3a9.644 9.644 0 00-2.27-2.533 3.068 3.068 0 00-1.465-.542 7.636 7.636 0 00-1.261-.089c-.872-.005-.903.075-1.193.822l-.004.012a7.019 7.019 0 01-3.361 3.618.814.814 0 01-.353.069c-.097.019-.14-.073-.126-.176a.946.946 0 01.351-.51c.484-.47.98-.926 1.453-1.41a5.74 5.74 0 001.425-2.5c.091-.272.109-.563.053-.845a7.917 7.917 0 00-.655-1.91c-.346-.618-.701-1.242-1.056-1.866a8.773 8.773 0 00-2.268-2.525.876.876 0 00-.216-.125.514.514 0 00-.579.113l-.449.438a5.42 5.42 0 01-1.652 1.156c-1.544.681-3.18 1.131-4.855 1.337a2.45 2.45 0 01-.618-.047.333.333 0 01-.203-.144.217.217 0 01.022-.104.212.212 0 01.067-.08c.395-.249.827-.431 1.28-.542a31.82 31.82 0 003.472-1.151 6.28 6.28 0 001.026-.475 3.194 3.194 0 001.509-1.638c.254-.71.56-1.412.814-2.12.255-.71.498-1.434.795-2.135a17.664 17.664 0 001.368-5.11c.132-1.216.09-2.446-.125-3.65a1.96 1.96 0 00-.854-1.346 15.96 15.96 0 00-1.533-.888 2.457 2.457 0 00-1.091-.289h-.116a43.835 43.835 0 01-1.398-.023 18.122 18.122 0 00-4.259.41 6.07 6.07 0 00-2.088.849 16.012 16.012 0 00-2.783 2.378 3.42 3.42 0 00-1.062 2.094 4.712 4.712 0 01-.112.498 11.6 11.6 0 01-1.439 3.754c-.321.497-.584 1.032-.879 1.532-.257.435-.404.653-.595.936l-.09.133a.518.518 0 01-.208.132l-.099-.039c.011-.16.042-.317.092-.469.305-.836.647-1.654.935-2.487.217-.643.33-1.308.539-1.95a36.898 36.898 0 001.008-4.43 5.752 5.752 0 00.066-1.893c-.177-1.21-.349-2.437-.515-3.633a4.307 4.307 0 00-.43-1.31 2.308 2.308 0 00-1.941-1.402 13.563 13.563 0 00-2.892-.073 9.48 9.48 0 00-4.838 1.984 2.48 2.48 0 01-.401.295.281.281 0 01-.23-.022.252.252 0 01-.105-.197 11.84 11.84 0 00.251-3.389 2.465 2.465 0 00-.168-.861 4.173 4.173 0 00-1.432-1.877 7.443 7.443 0 00-3.115-1.6 10.155 10.155 0 00-5.97-.066 3.39 3.39 0 00-.765.357 11.386 11.386 0 00-2.523 2.086c-.417.473-.853.934-1.27 1.408a7.408 7.408 0 00-.723.875c-.386.67-.819 1.313-1.295 1.922a.405.405 0 00.049.467c.062.063.117.127.177.182a2.99 2.99 0 011.008 1.709l.001.002c.112.579.225 1.158.386 1.727.131.749.11 1.517-.062 2.258a.716.716 0 01-.123.225s-.068.08-.086.075a.49.49 0 01-.218-.091.421.421 0 01-.103-.231c-.17-1.261-.627-2.45-.914-3.672a3.47 3.47 0 00-.162-.487 1.723 1.723 0 00-1.173-1.058c-.486-.14-.983-.252-1.478-.348a24.96 24.96 0 00-5.498-.601c-.804.011-1.605.072-2.401.182-.651.127-1.334.176-1.998.28-.29.041-.576.11-.853.208a10.417 10.417 0 00-4.002 2.331c-.092.085-.195.155-.295.241a14.068 14.068 0 00-3.399 4.194c-.48.894-.879 1.83-1.192 2.796-.517 1.629-1.029 3.29-1.545 4.927a17.433 17.433 0 00-.59 3.105c-.04.419-.056.84-.046 1.261.007.34.132.668.355.925.281.317.541.651.778 1.001a15.203 15.203 0 011.827 4.289c.263.968.385 1.98.579 2.978a7.31 7.31 0 01-.028 2.135.232.232 0 01-.061.112.324.324 0 01-.095.068.12.12 0 01-.121.01.126.126 0 01-.072-.099l-.118-.61-.556-2.857a7.253 7.253 0 00-.583-1.8c-.358-.765-.667-1.457-1.031-2.17a13.54 13.54 0 00-.892-1.498 6.269 6.269 0 00-.827-.95 1.303 1.303 0 00-.909-.383 18.587 18.587 0 00-2.14.024c-.924.096-1.839.282-2.749.45-.501.073-.979.26-1.395.548-.345.243-.702.469-1.071.675a12.141 12.141 0 00-2.845 2.274c-.921 1.014-1.864 1.957-2.756 2.991a27.95 27.95 0 00-1.823 2.426 3.638 3.638 0 00-.365.655c-.342.726-.617 1.48-.821 2.256-.173.785-.33 1.568-.52 2.348a15.469 15.469 0 00-.181 4.904 1.43 1.43 0 00.591 1.071c.384.256.74.55 1.064.88.647.721 1.205 1.518 1.663 2.373.436.868.763 1.786.974 2.734.212.818.319 1.658.319 2.502.008.04.018.089-.026.122-.044.034-.088.151-.144.162a.228.228 0 01-.203-.102c-.295-.87-.59-1.748-.856-2.64a13.526 13.526 0 00-2.114-4.141 4.92 4.92 0 00-2.523-1.815c-.995-.316-1.991-.674-2.988-.998a6.082 6.082 0 00-1.223-.321 13.453 13.453 0 01-2.086-.43 5.349 5.349 0 00-.989-.15 7.228 7.228 0 00-3.094.518 21.626 21.626 0 00-3.183 1.529c-.592.319-1.156.685-1.689 1.096a9.534 9.534 0 00-3.399 4.62 4.548 4.548 0 00-.23 1.99 62.2 62.2 0 00.45 3.003 3.55 3.55 0 001.895 2.538c.372.204.796.293 1.218.256a25.03 25.03 0 012.64-.07 7.768 7.768 0 002.374-.236c.206-.048.416-.073.628-.072a.235.235 0 01.174.125.249.249 0 01.004.233.933.933 0 01-.579.455 4.574 4.574 0 01-1.977.3 19.407 19.407 0 00-2.514-.053.818.818 0 00-.444.203c-.154.14-.286.304-.39.485a6.151 6.151 0 01-.865 1.087 11.855 11.855 0 00-2.795 4.894 41.97 41.97 0 00-.989 4.185 12.322 12.322 0 00.044 4.518c.074.5.225.987.447 1.441a4.147 4.147 0 002.416 1.911c.394.156.821.213 1.242.168a6.474 6.474 0 002.08-.505c.268-.116.548-.201.835-.254a.29.29 0 01.218.091.37.37 0 01.047.242.485.485 0 01-.107.221c-.274.38-.675.648-1.13.755a8.56 8.56 0 01-2.482.365c-.474-.033-.668.213-.844.598a10.58 10.58 0 00-.705 4.957c.04.673.117 1.344.232 2.009.116.813.256 1.62.402 2.369a5.523 5.523 0 001.855 3.364c.9.762 1.841 1.474 2.818 2.133a12.648 12.648 0 003.207 1.473 4.82 4.82 0 001.112.185c1.178.081 2.361.066 3.537-.044a14.204 14.204 0 001.737-.338c.117-.037.227-.092.327-.164a.308.308 0 00.129-.204.32.32 0 00-.004-.124.329.329 0 00-.052-.112l-.487-.398c-.43-.326-.879-.664-1.302-.991a.62.62 0 01-.264-.542.603.603 0 01.147-.32.236.236 0 01.342 0c.658.598 1.396 1.09 2.094 1.63a7.68 7.68 0 004.433 1.644c.75.038 1.513.015 2.265.02.886.015 1.772-.057 2.645-.214l.498-.097c.082-.004.163 0 .244.01a.532.532 0 01.362.315.372.372 0 01-.23.404 2.102 2.102 0 01-.491.095c-1.754.235-3.527.3-5.294.194a5.313 5.313 0 01-1.122-.15 30.869 30.869 0 01-2.176-.637 1.131 1.131 0 00-1.084.094 5.169 5.169 0 01-2.614.842 19.484 19.484 0 01-4.528-.072.54.54 0 00-.52.285c-.246.582-.49 1.172-.745 1.748a13.976 13.976 0 00-.82 2.523 5.021 5.021 0 00-.133.861 6.463 6.463 0 001.275 4.154 9.177 9.177 0 003.568 2.947 15.003 15.003 0 006.316 1.587c.716.039 1.434.011 2.145-.082.289-.052.583-.067.876-.045a.924.924 0 00.682-.267c.505-.449 1.013-.882 1.507-1.345a24.91 24.91 0 015.249-3.476.937.937 0 01.362-.07.09.09 0 01.05.012.084.084 0 01.034.038.157.157 0 01.025.058.167.167 0 01-.001.063c-.419.469-.872.906-1.356 1.307a12.2 12.2 0 01-2.055 1.661 10.57 10.57 0 00-1.584 1.252c-.433.393-.873.788-1.303 1.197a3.257 3.257 0 00-.518.551c-.412.59-.824 1.171-1.285 1.72a2.613 2.613 0 00-.336.675 13.55 13.55 0 00-.872 4.696 12.026 12.026 0 00.324 3.387c.079.372.219.728.414 1.055a25.972 25.972 0 002.407 3.24c.255.285.548.545.823.801a8.996 8.996 0 002.339 1.474c.769.352 1.542.678 2.303 1.031a26.718 26.718 0 005.185 1.991c.122.028.243.063.362.105.409.111.766.36 1.013.705.153.203.292.416.416.637a15.443 15.443 0 002.653 3.518 8.6 8.6 0 011.579 2.115 13.161 13.161 0 003.276 3.974 7.118 7.118 0 002.508 1.442l.276.088c1.03.33 2.061.66 3.108.924 1.77.549 3.613.827 5.467.825a3.386 3.386 0 011.479.314c.309.132.612.274.91.391a2.11 2.11 0 011.334 1.069c.705.84 1.303 1.765 1.779 2.752.122.247.26.485.414.714-2.356 1.059-4.708 2.134-7.076 3.045a38.606 38.606 0 00-7.772.191 60.314 60.314 0 00-8.333 2.163 2.256 2.256 0 00-1.366.399l-.633.173a35.606 35.606 0 01-9.968 1.044 37.026 37.026 0 00-10.773 1.109 41.79 41.79 0 00-9.814 4.413z" fill="#000"/><path d="M1599.37 165.735c74.94-16.675 133.32-25.306 184.47-25.306 111.16 0 125.66.4 136.16.4V142c-10.5 0-24.94-.54-136.16-.541-51.51 0-110.42 8.776-186.26 25.73-17.45 3.901-35.51 8.189-55.68 13.179a5416.127 5416.127 0 00-33.83 8.501c-3.55.903-25.75 6.561-31.96 8.136-25.05 6.355-41.6 10.393-56.56 13.715-37.68 8.37-60.2 10.829-71.44 6.908l.34-.972c10.98 3.831 33.41 1.382 70.88-6.942 14.94-3.319 31.48-7.354 56.53-13.707 6.21-1.575 28.41-7.233 31.96-8.136 13.08-3.324 23.54-5.956 33.83-8.503 18.1-4.478 34.51-8.392 50.3-11.968a282.471 282.471 0 00-64.15-7.751c-9.01.22-29.07 8.243-39.48 11.156-3.8 1.061-15.55 5.94-19.57 7.208-6.39 2.017-4.49.256-5.15 0 1.13-.493 12.68-4.917 19.57-8.238 1.51-.727 11.07-6.079 11.33-6.178a84.408 84.408 0 018.66-2.992c-43.93 4.593-72.58 6.104-85.95 4.533a548.093 548.093 0 01-65.07-11.968c-2.4-.566-24.08-5.789-30.17-7.185-11.01-2.521-19.85-4.282-28.34-5.562a362.06 362.06 0 00-74.07-1.253c-20.43 1.33-42.2 3.648-64.73 6.703-20.11 2.727-51.92 7.742-52.33 7.875l-1.5-1.248c-.52 0 33.22-4.871 53.69-7.647 22.56-3.059 44.35-5.379 64.81-6.71a362.83 362.83 0 0174.28 1.262c8.52 1.284 17.39 3.05 28.42 5.577 6.09 1.397 27.78 6.621 30.18 7.186a547.09 547.09 0 0064.95 11.948c13.6 1.597 43.24-.026 88.91-4.871a27.155 27.155 0 017.45-16.605l-.49-.358a4.667 4.667 0 00-2.03-.936c-.58-.123-5.78-3.695-6.71-4.17l-1.29-.622-1.01-.489-.39-.261a8.786 8.786 0 01-1.71-.935c-.63-.671-1-1.535-1.06-2.448l.26-7.461c0-.584-.04-1.167-.12-1.745a1.478 1.478 0 00-.25-.566.28.28 0 00-.27-.009.753.753 0 00-.25.383 37.016 37.016 0 00-.52 4.577c-.04 1.513-.18 3.064-.23 4.597a7.72 7.72 0 01-.41 2.181c-.55 1.444-1.04 2.889-1.67 4.279a8.132 8.132 0 01-1.9 2.52 16.447 16.447 0 01-4.22 2.84c-.38.189-.77.345-1.18.464-.55.187-1.11.332-1.66.529a13 13 0 01-5.63.628c-1.21-.114-2.42-.239-3.65-.282a23.348 23.348 0 01-4.37-.709c-.26-.07-.52-.121-.78-.151a6.84 6.84 0 01-1.84-.507c-.39-.148-.77-.346-1.18-.484a22.24 22.24 0 01-6.38-3.788 8.2 8.2 0 01-2.62-3.564c-.04-2.031-.13-4.218-.36-6.38l.15-.427c.36-.874.72-1.768 1.12-2.629.41-.807.93-1.546 1.56-2.192.26-.34.64-.57 1.06-.643.38-.058.74-.216 1.04-.458l1.88-1.223a9.87 9.87 0 013.01-1.316c1.45-.341 2.87-.755 4.33-1.045 1.24-.234 2.51-.345 3.78-.506.94-.122 1.88-.264 2.82-.396a.582.582 0 00.29-.114.656.656 0 00.21-.24 1.482 1.482 0 00-1.15-.442c-.89-.072-1.79-.083-2.69-.032-2.59.235-5.15.69-7.66 1.36a9.37 9.37 0 00-3.13 1.282c-.67.415-1.4.736-2.16.955a2.86 2.86 0 01-1.71.054 8.772 8.772 0 01-3.3-1.52 8.91 8.91 0 01-2.41-2.719 6.012 6.012 0 01-.84-3.336l.07-2.059c.02-1.385.22-2.763.58-4.101a5.68 5.68 0 011.32-2.498 3.107 3.107 0 012.03-1.104c1.63-.188 3.23-.604 4.74-1.236a1.5 1.5 0 01.62-.114c.21.007.42.061.6.157 2.3.87 4.71 1.371 7.17 1.486l2.85.1c2.54.024 5.07-.282 7.54-.911a7.36 7.36 0 002.46-1.089c.16-.13.3-.285.42-.459a.655.655 0 00.04-.143c0-.05-.01-.1-.03-.146a.372.372 0 00-.26-.163c-.41.057-.82.139-1.23.246-1.48.406-2.97.736-4.49.987a20.5 20.5 0 01-3.8.279c-2.01.036-4.03-.083-6.02-.355-.95-.146-1.87-.364-2.8-.561-.08-.013-.21-.141-.21-.203a.62.62 0 01.19-.385c.18-.111.37-.205.57-.279l2.35-1.268a8.52 8.52 0 001.77-1.34c.1-.12.19-.251.26-.392 0-.041.08-.1.01-.154a.626.626 0 00-.27-.123c-.25.066-.49.154-.73.263-1.47.742-2.93 1.474-4.39 2.227a36.9 36.9 0 01-5.03 1.885c-1.11.347-2.27.518-3.43.509-1.75-.012-3.5-.131-5.24-.358a38.857 38.857 0 01-5.26-1.153 7.068 7.068 0 01-3.7-2.581c-.41-.478-.78-1.016-1.14-1.534a7.37 7.37 0 01-1.12-2.44 13.605 13.605 0 01-.3-6.15 13.849 13.849 0 012.41-5.666c4.55-6.652 16.71-17.282 24.42-9.8a17.316 17.316 0 013.67 4.95c.51 1.05.82 2.185.91 3.349.07.63.17 1.257.31 1.875.02.073.12.118.22.204s.29-.01.37-.172c.06-.092.11-.186.15-.284.05-.15.09-.303.13-.459.17-.833.16-1.692-.01-2.524-.11-.65-.29-1.286-.52-1.904-.23-.544-.03-.784.61-.762l3.97.139c.47.03.94.133 1.39.306 1.3.46 2.52 1.117 3.62 1.95.3.21.61.404.94.579.07.033.19-.035.3-.062a.342.342 0 00.14-.181.353.353 0 00-.02-.227c-.13-.282-.29-.55-.48-.8a6.185 6.185 0 00-2.01-1.574c-.42-.231-.95-.445-1.44-.668-.96-.444-2-.68-3.06-.695-1.37-.093-2.75-.1-4.12-.02a1.169 1.169 0 01-1.19-.598c-.6-.873-1.26-1.701-1.97-2.48-.36-.393-.73-.767-1.12-1.13-.77-.739-1.56-1.436-2.35-2.143l-.73-.623c-1.36-1.16-1.9-.778-2.27-2.676a6.687 6.687 0 01.65-3.759 15.638 15.638 0 015.25-5.854c1.63-1.2 3.42-2.539 5.28-3.72.98-.367 1.97-.677 2.98-.927 3.86-.988 8.79-.661 12.45-2.594 1.2.144 2.35.51 3.41 1.077l1.23.713a9.064 9.064 0 013.28 3.39c.27.459.48.947.63 1.455.35 1.156.68 2.331.97 3.516.09.412.13.831.13 1.251 0 .586.09 1.17.26 1.73.02.045.05.085.09.117.04.031.08.054.13.066.05 0 .1-.01.15-.029.05-.02.09-.049.12-.085.51-1 .69-2.13.53-3.238-.25-1.57-.69-3.103-1.31-4.569-.93-2.185-3.21-3.11-4.18-4.957a8.397 8.397 0 01-.26-3.89 8.401 8.401 0 011.55-3.576c8.83-12.952 18.06-11.6 24.53-11.745 3.14.259 6.2 1.147 9 2.612.3.124.67.21 1.02.335.76.24 1.59.203 2.33-.105.12-.047.23-.228.32-.328.08-.1.02-.401-.1-.406a1.75 1.75 0 00-.44-.149c-1.99-.286-3.92-.91-5.7-1.848-.85-.42-1.7-.863-2.54-1.314a7.45 7.45 0 01-1.23-.733c-.25-.191-.45-.447-.57-.741-.13-.294-.17-.616-.13-.933.08-.863.47-1.668 1.11-2.258.54-.476 1.05-.922 1.6-1.356 1.11-.868 2.28-1.723 3.34-2.573l2.45-1.83a23.347 23.347 0 015.79-3.23c.73-.24 1.49-.4 2.26-.477.25-.037.5-.06.76-.066 2.9-.398 5.85-.136 8.63.765.9.423 1.83.816 2.71 1.29.42.238.79.547 1.1.914.47.568.91 1.161 1.32 1.777.34.481.52 1.058.51 1.646.04.956-.15 1.908-.56 2.773a29.295 29.295 0 01-2.91 4.905 52.263 52.263 0 01-5.26 5.926c-1.1 1.075-2.26 2.127-3.33 3.192a14.15 14.15 0 00-1.85 1.996c-.04.05.07.188.07.27.02.02.04.038.06.052a.2.2 0 00.07.025l.16.005c.23-.116.48-.23.7-.367 1.4-.852 2.71-1.841 3.91-2.954 1.07-1.003 2.14-2.027 3.2-3.093a44.76 44.76 0 004.31-5.32c.45-.698.85-1.42 1.22-2.163.23-.419.44-.852.62-1.297.19-.64.5-1.236.92-1.753.42-.516.94-.942 1.53-1.253 1.77-1.236 3.46-2.506 5.27-3.627a63.952 63.952 0 017.16-3.748c1.17-.541 2.41-.92 3.69-1.128.46-.077.91-.257 1.38-.374.86-.268 1.78-.321 2.67-.155.41.1.83.15 1.26.147.58.048 1.15.19 1.69.42.44.18.9.32 1.35.46.81.243 1.57.618 2.26 1.108.55.411 1.12.802 1.67 1.213a3.065 3.065 0 011.25 1.785c.07.312.16.618.28.916.49 1.399.75 2.87.76 4.354.05 1.104.08 2.218.04 3.34a5.83 5.83 0 01-.23 1.712c-.3 1.07-.66 2.121-1.09 3.146a19.862 19.862 0 01-4.75 6.686 105.233 105.233 0 01-8.68 7.208l-.48.406c-.15.118-.2.395-.08.399.09.027.2.03.3.01.15-.038.3-.091.44-.16a42.664 42.664 0 0010.18-7.537 19.071 19.071 0 004.36-6.915c.1-.186.17-.385.21-.59.35-1.23.98-2.359 1.85-3.295a23.951 23.951 0 015.65-5.016c.73-.44 1.43-.918 2.11-1.43a17.712 17.712 0 016.17-2.814c3.14-.778 6.42-.91 9.61-.386 1.57.245 3.12.599 4.64 1.058.87.259 1.71.563 2.54.913a6.116 6.116 0 012.5 2.148c.43.603.82 1.234 1.22 1.856.09.131.17.272.22.42.46 1.244.71 2.555.74 3.88a11.822 11.822 0 01-.5 3.29c-.13.432-.33.837-.61 1.194-.72.912-1.44 1.824-2.22 2.694a8.397 8.397 0 01-2.24 1.745c-1.76.97-3.49 1.939-5.25 2.908-.56.302-1.15.55-1.75.742a348.1 348.1 0 01-5.3 1.67c-.76.23-1.53.44-2.28.693-.12.037-.23.208-.29.33-.07.121.22.317.47.325l.16.006c.42-.037.85-.042 1.26-.11 1.36-.21 2.7-.506 4.02-.89 1.01-.274 1.98-.611 3.02-.925.16-.03.31-.025.47.016.07.023.19.15.18.213a4.692 4.692 0 01-.47 1.508c-.41.862-.94 1.665-1.57 2.387-1.45 1.619-2.89 3.227-4.41 4.781-.82.827-1.76 1.515-2.66 2.256-.85.647-1.64 1.356-2.38 2.122-.09.12-.16.264-.19.416-.01.062.09.21.16.212.1.044.22.048.32.011.19-.079.38-.172.56-.28a27.194 27.194 0 005.73-4.498c1.34-1.385 2.62-2.916 3.92-4.386.55-.647 1.02-1.357 1.4-2.114.42-.679.69-1.433.8-2.219.02-.164.09-.316.09-.47.06-.313.18-.61.37-.866s.43-.465.71-.611c.83-.456 1.65-.942 2.47-1.428 1.8-.826 3.37-2.059 4.6-3.6.47-.5.99-.945 1.47-1.443a8.414 8.414 0 014.72-2.298 9.206 9.206 0 013.32-.018c1.08.203 2.19.262 3.29.527 1.85.463 3.62 1.22 5.24 2.243.8.513 1.63.975 2.4 1.537a34.228 34.228 0 016.28 6.278 61.097 61.097 0 013.43 4.777 17.42 17.42 0 011.91 4.188c.39 1.209.71 2.441.95 3.69.18 1.371.13 2.762-.14 4.117a9.35 9.35 0 01-1.05 2.127 12.414 12.414 0 01-2.52 2.828 44.749 44.749 0 01-3.72 2.745c-.97.666-1.94 1.302-2.91 1.959a.72.72 0 00-.25.372c-.02.05.08.23.13.231.2.031.41.014.61-.05a20.35 20.35 0 004.77-2.482c.66-.451 1.29-.944 1.91-1.438a12 12 0 004.45-6.943l.06-.153c.05-.09.12-.164.22-.209a.46.46 0 01.29-.04c.48.16 1.01.303 1.5.505.73.314 1.44.679 2.15 1.033.1.041.19.093.27.154 1.21.87 2.2 2.008 2.88 3.326.12.357.25.706.41 1.044.55 1.056.76 2.252.62 3.432a24.313 24.313 0 01-1.57 7.436 45.212 45.212 0 01-4.8 9.651 37.256 37.256 0 00-2.72 5.377c-.13.328-.23.67-.29 1.02a33.161 33.161 0 00-.71 4.54c-.2 2.591-.74 5.145-1.63 7.587a5.397 5.397 0 01-1.63 2.313c-.67.585-1.4 1.126-2.11 1.668-.31.213-.63.395-.97.543-.29.122-.59.228-.89.319a10.18 10.18 0 01-6.08.684 9.523 9.523 0 01-6.08-2.86l-.43-.417a.546.546 0 00-.31.081.55.55 0 00-.22.241c-.39.625-.79 1.249-1.16 1.896a24.248 24.248 0 01-2.93 3.947 6.443 6.443 0 01-2.93 2.051c-.55.176-1.11.374-1.66.54-1.16.376-2.26.91-3.28 1.585a3.62 3.62 0 00-.91.875c-.66.83-1.38 1.617-2.14 2.357-.8.772-1.72 1.408-2.72 1.883-.53.252-1.07.47-1.62.654a7.22 7.22 0 01-2.49.408c-1.8-.052-3.61-.002-5.41-.065-.42.011-.84-.004-1.26-.044-2-.22-4.02-.166-6 .161-.21.033-.42.047-.63.04-1.86-.019-3.71.144-5.53.487-.53.073-1.04.237-1.5.483-.87.397-1.69.894-2.44 1.481a9.107 9.107 0 01-3.15 1.724c-.61.187-1.18.477-1.7.858-1.1.817-2.22 1.602-3.28 2.492a12.352 12.352 0 00-3.43 4.517 25.547 25.547 0 01-2.28 4.165c-.38.626-.71 1.284-1.1 1.92a9.69 9.69 0 01-.76 1.199c-.66.827-1.24 1.718-1.73 2.66-.25.47-.57.897-.95 1.265a20.996 20.996 0 01-5.78 4.136c-.48.23-.97.44-1.45.66a18.666 18.666 0 00-4.08 2.444c-.38.264-.72.51-1.06.766a9.287 9.287 0 00-2.64 2.916c-.15.243-.3.464-.46.695 3.39.376 6.77.721 10.18.943 2.51.179 12.56 2.368 30.16 6.566l-.16.078zm-70.12-34.185a8.042 8.042 0 01-2.76 3.655c-.63.524-1.25.986-1.83 1.512a6.312 6.312 0 00-2.03 3.154c-.17.609-.39 1.204-.66 1.78a2.543 2.543 0 011.72.06c.61.187 1.24.299 1.88.334.68.075 1.36.181 2.05.205.68.074 1.38.07 2.06-.01.69-.1 1.37-.127 2.07-.175.15-.008.31-.003.46.016.42.062.84.094 1.26.095.3-.002.59-.115.81-.317.21-.202.35-.478.38-.775.02-.156.03-.315.01-.473a3.763 3.763 0 00-.39-1.353c-.83-1.709-1.87-3.198-2.69-4.864a26.1 26.1 0 01-1.45-3.142l-.4-1.044c-.15.448-.32.895-.49 1.342zm-21.26-10.829l.03.001c1.29-.295 2.57-.621 3.89-.956a13.058 13.058 0 004.28-2.024 15.087 15.087 0 003.95-4.221c.26-.462.67-.814 1.17-.99.36-.142.71-.305 1.05-.488a7.717 7.717 0 003.45-3.558.35.35 0 000-.144c.08-.142.02-.412-.08-.415a.802.802 0 00-.43.119c-.41.418-.8.858-1.18 1.288a7.614 7.614 0 01-3.4 2.271c-.59.206-1.2.381-1.82.534-.97.234-1.97.406-2.94.66-.68.176-1.37.29-2.07.34-.21.017-.41.062-.61.133-.1.028-.14.15-.2.241-.05.091.08.373.21.378.19.077.39.126.6.144.74.015 1.49-.06 2.21-.221.88-.217 1.75-.403 2.63-.599.16-.014.32-.009.47.017.05.008.1.025.14.051.04.027.07.061.1.101 0 .055-.01.11-.04.159a.253.253 0 01-.1.125 19.21 19.21 0 01-1.53 1.595 12.778 12.778 0 01-6.31 3.736c-.98.244-1.95.499-2.91.774-.61.182-1.24.288-1.88.316-.21.019-.41.078-.6.175a.263.263 0 00-.09.106.319.319 0 00-.03.137.47.47 0 00.17.243c.14.061.28.111.42.148.49-.031.97-.09 1.45-.176zm5.24 16.586l.03.001a6.33 6.33 0 012.18 1.632c.15.149.32.279.46.439.14.174.3.332.48.47.34-.39.7-.78 1.07-1.148.65-.616 1.33-1.231 2.03-1.773a6.808 6.808 0 002.04-2.588 24.996 24.996 0 001.84-5.726c.07-.26.13-.527.16-.798-.77.674-1.57 1.336-2.4 1.977a42.713 42.713 0 01-6.74 4.185 6.53 6.53 0 01-2.39.803c-.26.038-.52.102-.78.189a.658.658 0 00-.23.184.836.836 0 00-.14.264.743.743 0 00-.01.297c.02.099.05.193.11.276.14.151.3.285.48.398.59.335 1.19.642 1.81.918zm21.85 18.454c.83-.076 1.66-.075 2.48.004 0-.093 0-.185.01-.278a19.51 19.51 0 01-.05-2.536 8.134 8.134 0 00-.79-3.696 2.203 2.203 0 00-.31-.536c-.57-.556-1.14-1.121-1.74-1.627a2.263 2.263 0 00-2.36-.484c-.5.178-1.05.209-1.57.089l-.32-.011a19.65 19.65 0 00-5.2-.48c-1.26-.044-2.55-.059-3.8-.226a22.77 22.77 0 01-1.65-.294c-.16.077-.3.164-.45.252l-3.64 2.325c-.43.428-.89.824-1.33 1.241a38.79 38.79 0 00-3.31 6.438c-.24.905-.46 1.824-.66 2.759 5.76-1.253 11.6-2.082 17.48-2.481 1.89-.14 3.77-.188 5.65-.194a9.929 9.929 0 011.56-.265zm3.68-29.02v.021c.5-1.054 1.01-2.098 1.48-3.235.39-.812.84-1.589 1.35-2.323a30.389 30.389 0 014.54-5.096c.39-.315.7-.713.92-1.165.22-.453.33-.948.33-1.449l.02-.319c.07-1.852.3-3.688.56-5.534.14-1.528.45-3.037.91-4.502.07-.256.12-.515.15-.777.11-.574.21-1.147.35-1.709.23-.878.51-1.723.71-2.603.19-.715.42-1.42.69-2.108a23.016 23.016 0 011.92-3.828c.65-1.091 1.2-2.237 1.65-3.425.1-.305.24-.6.36-.894.06-.132.14-.284.21-.425.07-.17.2-.315.35-.414.16-.1.34-.15.53-.143 2.07-.024 4.11-.501 5.98-1.398.43-.192.87-.393 1.3-.604a9.214 9.214 0 002.97-2.338c.1-.123.19-.258.27-.403.02-.043.03-.09.03-.138 0-.048 0-.096-.02-.14a.296.296 0 00-.14-.039.272.272 0 00-.13.03c-.39.264-.78.54-1.15.835a12.05 12.05 0 01-2.2 1.583 25.588 25.588 0 01-3.53 1.422c-.87.267-1.76.402-2.67.401-.15-.017-.31-.05-.46-.098a.516.516 0 01-.16-.165.565.565 0 01-.05-.224c.06-.194.14-.386.21-.59.33-1.026.65-2.045.97-3.057.03-.204.04-.412.02-.618a.19.19 0 00-.09-.126l-.29-.01c-.21.225-.4.479-.55.753-.91 1.792-1.86 3.572-2.63 5.43a83.534 83.534 0 01-1.78 4.06 16.875 16.875 0 01-5.38 6.54 15.353 15.353 0 01-3.47 1.94c-.98.424-2.04.666-3.11.715-1.8.046-3.6-.017-5.38-.188a.688.688 0 01-.44-.187.675.675 0 01-.2-.422 17.03 17.03 0 00-.9-3.854c-.45-1.53-.96-3.032-1.44-4.553a6.875 6.875 0 00-1.17-2.298c-.04.19-.04.385-.02.577.24 1.312.56 2.607.97 3.877a35.23 35.23 0 011.35 4.725c.44 1.969.59 3.99.44 6.001-.12 1.356-.19 2.734-.3 4.111-.05 1.11-.21 2.212-.48 3.29-.27 1.021-.49 2.044-.75 3.065-.05.255-.13.504-.23.744a.5.5 0 00-.01.32c.31.527.48 1.125.49 1.737a14.14 14.14 0 011.42 3.831c.12.627.35 1.228.68 1.775a37.71 37.71 0 011.91 4.188c.44 1.007.77 2.054 1 3.126 0 .051.01.101.03.148a.33.33 0 00.09.121c.04.034.09.06.13.077.05.016.1.022.15.019.14-.336.31-.66.42-1.016a25.62 25.62 0 011.27-3.047zm63.21-18.316v.02c.22-.981.5-1.95.72-2.87.2-1.017.71-1.945 1.47-2.648.52-.466.99-.965 1.47-1.464a18.214 18.214 0 003.98-5.692c.08-.194.2-.367.36-.506.15-.14.34-.24.54-.297 1.71-.559 3.42-1.138 5.11-1.738 1.5-.545 2.89-1.343 4.11-2.36.15-.144.28-.306.39-.482.05-.029.03-.06 0-.144a.136.136 0 00-.04-.06.145.145 0 00-.08-.026c-.38.033-.75.186-1.04.437a23.278 23.278 0 01-4.74 2.215c-.8.26-1.6.541-2.4.823-1.33.513-2.75.757-4.17.72a11.68 11.68 0 00-1.58.058c-.15.005-.27.135-.39.223a.288.288 0 00-.06.055.197.197 0 00-.02.076c0 .027 0 .054.02.078.01.024.03.044.05.059.1.117.22.207.36.26.42.074.84.113 1.27.116l.63.022a.4.4 0 01.19.054c.05.033.1.08.13.136.03.056.04.12.04.184a.3.3 0 01-.05.183c-.49.797-1.04 1.592-1.57 2.387a23.826 23.826 0 01-3.38 3.777c-.2.182-.41.35-.63.503-.41.332-.93.517-1.46.526l-1.58-.055a14.45 14.45 0 01-3.41-.727 4.63 4.63 0 01-1.02-.334 8.87 8.87 0 00-2.03-.793 2.402 2.402 0 01-1.18-.741 31.298 31.298 0 01-3.94-5.187 3.61 3.61 0 00-.44-.654c-.63-.795-.54-1.173.06-1.8.22-.23.44-.46.65-.7.49-.549 1-1.087 1.46-1.68 1.8-2.488 3.26-5.21 4.34-8.09.09-.25.16-.505.21-.766.04-.152.04-.31.02-.463a.234.234 0 00-.07-.129.298.298 0 00-.11-.083.394.394 0 00-.15-.037.33.33 0 00-.14.027c-.26.264-.49.549-.7.851a41.088 41.088 0 00-2.14 3.717c-.42.85-.87 1.69-1.37 2.507a30.656 30.656 0 01-6.17 6.997c-.48.413-1.03.743-1.62.974-1.09.434-2.22.767-3.37.995-.71.15-1.44.341-2.17.44-1.3.217-2.62.316-3.94.294-2.33-.091-4.66-.11-6.98-.12-.8.001-1.59-.131-2.35-.39-.95-.332-1.89-.685-2.82-1.067-1.08-.481-1.01-.479-1.05-1.51.01-.042-.04-.085-.1-.2a54.855 54.855 0 00-2.34 7.945c-.26 1.124-.35 2.295-.56 3.442a572.55 572.55 0 00-1.25 6.231 6 6 0 00-.16.942 5.016 5.016 0 01-1.02 2.932c-.56.955-1.23 1.844-2 2.65-.47.498-.92 1.03-1.32 1.593-.64.843-1.23 1.718-1.85 2.573a16.357 16.357 0 01-3.38 3.55 6.271 6.271 0 00-2.17 3.077 49.307 49.307 0 01-1.94 4.517 7.535 7.535 0 00-1.06 5.032l-.02.484c-.04 1.01.17 2.014.6 2.926.26.472.34 1.018.24 1.544-.09.415-.13.838-.13 1.263-.08.7.01 1.409.26 2.069.34.888.57 1.823.87 2.72.41 1.162.59 2.394.52 3.624l-.1 2.933c3.36.252 6.71.595 10.05.98l.01-.083a50.82 50.82 0 001.7-2.485c.6-.936 1.27-1.819 2.02-2.639.41-.487.91-.895 1.46-1.206.6-.339 1.17-.741 1.68-1.199a9.408 9.408 0 014.06-2.063 7.16 7.16 0 002.45-1.078c.77-.468 1.47-1.041 2.22-1.541.76-.571 1.57-1.08 2.41-1.523a5.045 5.045 0 002.33-2.288c.15-.347.33-.685.52-1.012.24-.404.46-.829.74-1.221a28.895 28.895 0 002.06-3.576c1.25-2.388 2.51-4.775 3.74-7.174a6.649 6.649 0 012.44-2.656c.76-.478 1.53-.935 2.32-1.382 1.2-.648 2.42-1.296 3.64-1.933.6-.334 1.13-.776 1.57-1.306a5.5 5.5 0 00.93-1.657c.21-.543.51-1.043.91-1.472.24-.27.46-.571.72-.841a13.88 13.88 0 013.59-2.852c.65-.348 1.3-.706 1.93-1.097.36-.217.7-.475 1-.768.79-.787 1.56-1.584 2.34-2.392.42-.401.72-.917.85-1.484zm50.22-16.525v.02c.1-.093.18-.212.22-.344a.714.714 0 00.02-.41c-.04-.176-.26-.204-.69.141-.44.346-.82.662-1.28.986-.47.324-.94.678-1.44.98a36.236 36.236 0 01-8.99 3.9c-.15.062-.31.088-.47.076-.11.007-.31-.227-.26-.328.07-.199.15-.392.25-.579.61-1.081 1.14-2.21 1.57-3.376.23-.64.41-1.315.6-1.967.01-.055.01-.11.01-.165.03-.1.03-.204.01-.305a.698.698 0 00-.13-.276c-.1-.096-.38.028-.52.28-.42.728-.84 1.465-1.24 2.214a30.034 30.034 0 01-5.02 7.686l-.18.251a18.86 18.86 0 01-3.69 3.477 27.928 27.928 0 01-5.66 2.894c-.25.095-.5.165-.76.21-1.46.294-2.96.315-4.43.062a7.291 7.291 0 00-1.25-.188c-1.1-.153-2.17-.471-3.18-.945a18.775 18.775 0 01-4.63-2.728.381.381 0 00-.13-.08.401.401 0 00-.31.023.32.32 0 00-.12.1c-.6.751-.99 1.653-1.12 2.608-.03.423-.1.841-.21 1.25-.28.907-.61 1.813-.95 2.697a7.446 7.446 0 01-1.61 2.52l-2.56 2.826c-.46.551-.9 1.03-1.35 1.55l-.01.154c-.04.215.48.234 2.28.296l.79.028 3.66-.047v.072c.62.022 1.26-.018 1.89.066 1.48.165 2.96.155 4.44.268.64.04 1.27-.087 1.85-.368a9.877 9.877 0 002.4-1.575c.62-.576 1.28-1.109 1.9-1.685.89-.827 1.9-1.515 3-2.038a13.66 13.66 0 003.92-2.367c.08-.068.17-.127.26-.177a5.415 5.415 0 001.66-1.456c.79-.927 1.47-1.94 2.02-3.021.43-.853.96-1.645 1.6-2.355.95-1.079 1.92-2.117 2.88-3.176.35-.409.82-.687 1.35-.787.83-.157 1.66-.324 2.47-.553 2.86-.79 5.59-1.99 8.11-3.56a10.606 10.606 0 003.03-2.779z" fill="#000"/><path d="M286 264c1.721-2.812 4.834-4.691 7.826-6.549 3.773-2.344 7.495-4.898 10.845-7.634 5.928-4.841 12.317-9.807 19.686-13.158 6.923-3.147 14.975-6.338 22.851-7.457 2.836-.402 5.299-1.386 7.922-2.327 5.401-1.938 10.959-3.394 16.57-4.853 6.829-1.776 13.487-3.423 19.88-6.115 4.371-1.841 8.492-3.102 13.309-3.926 3.665-.626 7.347-.569 11.014-1.243 5.883-1.08 11.874-.418 17.73-1.242 7.103-1 15.162-.178 22.367-.178M1798.03 164.637c-28.1 0-57.93-3.365-85.23 3.679-15.32 3.956-26.08 15.685-40.4 21.325-36.13 14.236-75.95 13.253-113.5 21.596M1212.06 173.366c25.3-1.835 53.65-7.175 78.81-2.028 14.48 2.961 28.28 8.109 42.88 11.03 12.29 2.459 24.61 4.698 36.86 7.163 3.78.761 15.43-2.481 17.25.593M65.254 167.089h62.814c5.468 0 14.725-1.856 19.349 1.227M1464 360.734c32.1-1.705 63.29 8.909 94.81 13.666 21.59 3.256 42.37 6.325 63.53 11.576 26.5 6.573 49 16.872 72.65 30.579 10.93 6.341 21.51 13.11 32.38 19.546 7.14 4.234 14.34 12.457 21.91 15.537 22.13 9.012 50.43-1.106 71.62 8.939" stroke="#fff" stroke-width="2" stroke-linecap="round" stroke-linejoin="round"/></svg>