<svg width="4656" height="6276" fill="none" xmlns="http://www.w3.org/2000/svg"><g fill-rule="evenodd" clip-rule="evenodd"><path d="M4656 2358s-22.5 1.92-64.69 3.43c.1-1 .19-1.94.27-2.78.05-.99-.11-2.03-.27-3.06v-.01c-.06-.39-.12-.79-.17-1.18-.68-4.97-2.5-9.71-4.34-14.38-4.99-12.91-15.08-20.81-29.12-24.27-7.86-1.86-15.93-3.24-23.99-4.26-15.37-1.88-30.73-3.36-46.2-2.57-.52.03-1.03 0-1.55-.04l-.46-.03c-.1 0-.19-.01-.29-.01-1.56-.06-2.91-1.24-2.94-2.77-.07-6.02-1.01-11.98-2.58-17.88-5.2-19.39-16.25-35.51-32.67-48.69-5.99-4.79-12.48-8.72-20.17-10.59-5.26-1.29-10.5-2.46-15.78-3.65-4.62-1.1-9.27-1.27-13.66.13-2.68.87-5.25 1.03-7.99.55-.73-.17-1.52-.23-2.28-.22-10.14.02-16.34 4.29-19.25 13.38-.14.44-.28.89-.4 1.34-.26.95-.5 1.9-.73 2.85-.25 1.01-.49 2.01-.77 3.01-.11.3-.36.58-.65.85-.14.13-.29.25-.44.38l-.17.14c-.45.39-1.92-1.1-2.17-2.27-.8-3.52-1.59-7.04-2.37-10.55-.87-3.89-1.74-7.78-2.62-11.66-.46-2.02-.92-4.03-1.39-6.05-.45-1.87-.95-3.75-1.45-5.63-.61-2.29-1.22-4.59-1.74-6.89-2.01-9.19-6.01-17.69-11.06-25.9-9.34-15.05-22.63-26.34-39.37-34.36-10.86-5.22-22.42-8.38-34.19-10.6-9.03-1.7-18.38-2.3-27.56-1.23-6.59.75-11.28 4.13-13.9 9.65-2.14 4.47-3.89 9.13-4.72 14.09-.06.3-.12.59-.19.89-.07.3-.15.6-.23.9-.1.37-.2.73-.31 1.1-.11.39-.22.78-.33 1.16-.88-.23-1.82-.21-2.12-.63-1.08-1.06-1.97-2.23-2.82-3.43-4.66-6.61-11.58-10.7-19.02-14-13.11-5.86-30.5-10.92-44.17-13.33-5.58-.95-10.64-.28-15.49 2.34-4.33 2.31-8.09 5.2-11.25 8.74-1.9 2.16-3.38 4.58-4.18 7.41a90.13 90.13 0 01-2.33 7.02c-.14.3-1.65.5-1.87.29-1.33-1.33-2.65-2.68-3.66-4.16-8.11-12.88-19.97-22-34.09-28.84-10.31-4.97-20.74-9.78-31.55-13.86-15.75-5.93-31.88-9.03-48.74-7.29-13.62 1.37-26.06 5.55-37.72 11.61-5.09 2.61-9.84 5.7-14.59 8.77l-.2.13-1.43.92c-5.51 3.52-9.1 8.29-10.52 14.45-1.65 7.44-3.39 14.85-5.14 22.25l-2.07 8.79c-.2.91-.39 1.81-.58 2.71l-.01.07c-.39 1.83-.79 3.68-1.25 5.52-.05.28-.24.55-.48.8-.16.15-.33.3-.49.45-.09.08-.18.16-.26.24-.57.55-1.84-.11-2.74-1.5-.32-.49-.65-.98-.97-1.48l-.68-1.01c-1.88-2.84-3.78-5.72-5.55-8.63-6.54-10.79-15.22-19.97-25.21-28.22-7.9-6.46-16.06-12.61-24.7-18.19-4.85-3.14-9.72-6.27-14.59-9.39l-.01-.01c-10.49-6.73-20.98-13.47-31.32-20.36-18.49-12.25-38.01-22.68-58.31-31.84a730.403 730.403 0 00-31.8-13.62c-15.77-6.29-32.18-10.67-49.06-13.14-16.62-2.46-33.04-1.04-49.12 3-3.72.94-7.01 2.65-10.02 4.83-3.15 2.28-6.27 4.6-9.39 6.92-1.89 1.41-3.79 2.82-5.7 4.23-1.18.91-2.38 1.75-3.71 2.35-.46.24-1.72-.09-1.99-.46-1.54-2.05-2.97-4.22-4.31-6.41-8.97-14.74-17.99-29.44-28.25-43.57-.56-.76-1.14-1.52-1.71-2.27-1.43-1.9-2.86-3.79-4.18-5.76-6.4-9.64-15.02-17.5-24.21-24.81-5.87-4.73-12.1-9.16-18.29-13.55-9.9-7.07-19.49-14.45-28.62-22.3-15.15-13.02-31.22-24.96-47.3-36.91l-1.03-.77c-4.29-3.22-8.86-5.55-14.25-7.04h-.01c-7.8-2.18-15.61-4.35-23.31-6.87-9.46-3.12-19.21-4.76-28.97-6.41-1.68-.28-3.36-.56-5.05-.85-1.47-.26-3.09-.41-4.59-.27-8.05.61-15.97 1.75-23.64 4.05-6.44 2.02-11.18 5.71-14.02 11.52-1.62 3.15-3.1 6.33-3.97 9.8-1.79 6.83-3.67 13.63-5.59 20.47-.09.27-.52.77-.64.75-.08-.02-.16-.04-.25-.06-.64-.18-1.4-.39-1.62-.81-.68-1.2-1.31-2.43-1.93-3.66-.53-1.04-1.06-2.07-1.61-3.09-.61-1.09-1.22-2.19-1.82-3.29-1.86-3.4-3.72-6.79-5.78-10.11-4.72-7.5-10.55-14.18-17.62-20.06-12.53-10.36-26.02-19.56-39.78-28.43-18.57-12.04-38.08-22.55-58.67-31.25-13.83-5.81-27.98-10.8-42.96-13.26-15.67-2.59-31.26-5.37-46.86-8.38-8.86-1.7-17.6-1.94-26.5-1.55-8.81.44-17.64.91-26.44 1.5-2.29.14-4.6.47-6.89.8-.74.1-1.48.21-2.21.31-4.64.7-8.83 2.21-12.55 4.85-7.57 5.33-15.13 10.59-23.27 15.13-4 2.31-6.58 5.73-8.35 9.73-.16.42-.3.85-.44 1.28-.12.37-.23.74-.34 1.11-.07.21-.14.41-.21.62-2.84 7.69-5.74 15.33-9.63 22.51-.65 1.19-1.17 2.45-1.69 3.7-.43 1.04-.86 2.08-1.36 3.08-.14.3-1.63.4-1.88.14-1.53-1.65-3.01-3.32-4.25-5.14-5.79-8.34-13.57-14.71-22.88-19.65-10.8-5.78-21.78-11.27-33.31-15.54-8.68-3.24-17.52-5.99-26.68-7.68-5.13-.93-10.25-1.84-15.38-2.74h-.01c-8.2-1.45-16.4-2.9-24.59-4.45-7.06-1.33-14.17-1.72-21.28-2.1-2.53-.14-5.05-.28-7.57-.46-4.98-.29-10.02.09-14.79 1.49-9.52 2.74-18.91 5.72-27.97 9.49-4.24 1.75-7.81 4.27-10.5 7.79l-.75.99-.46.62c-.89 1.18-1.77 2.37-2.73 3.52-.84 1.04-1.67 2.07-2.5 3.11l-.04.04c-4.79 5.98-9.59 11.95-15.13 17.32-5.34 5.15-8.99 11.24-10.9 18.23-.79 2.72-1.72 5.42-2.63 8.07v.03c-.44 1.26-.87 2.51-1.27 3.74-2.15.2-3.41-.56-4.53-1.59-1.68-1.52-3.37-3.01-5.06-4.51h-.01c-3.38-2.99-6.77-5.97-10.01-9.13-6.11-6.04-12.76-11.67-20.15-16.45-12.78-8.23-25.55-16.46-38.53-24.51-3.22-2.02-6.68-3.73-10.13-5.44-1.36-.67-2.72-1.34-4.05-2.02-2.79-1.41-5.58-2.79-8.38-4.17l-.03-.02c-5.09-2.51-10.18-5.02-15.21-7.66-7.46-3.92-14.99-7.68-23.15-10.24-.68-.21-1.37-.43-2.06-.65-3.33-1.06-6.71-2.14-10.13-2.77-9.88-1.89-19.81-3.53-29.75-5.1-7.95-1.26-15.95-1.38-23.97-1.49l-1.43-.02c-4.08-.07-8.13-.05-12.17-.02h-.01c-2.09.02-4.18.03-6.28.03-7.38 0-14.56.95-21.56 2.79-4.86 1.25-9.18 3.49-13.12 6.2-3.83 2.59-6.12 6.2-6.33 10.73-.28 7.09-.21 14.17 1.36 21.26.67 2.91 1.02 5.91 1.38 8.92v.06c.06.51.13 1.03.19 1.55.1.58-.41 1.25-.8 1.76l-.03.05c-.35.55-2.07-.22-2.69-1.24-.96-1.43-1.94-2.85-2.91-4.27h-.01c-2.58-3.76-5.16-7.52-7.45-11.4-12.26-20.96-29.4-38.01-49.41-52.84-13.11-9.7-26.29-19.23-40.92-27-13.55-7.2-27.77-12.79-42.51-17.49-17.78-5.74-36.16-8.55-54.48-10.95-15.31-2.01-30.68-3.67-46.11-2.33-1.21.1-2.43.18-3.65.25-2.24.13-4.49.27-6.68.61-7.56 1.2-15.08 2.45-22.58 4.02-3.32.65-6.63 1.66-9.66 3.05-5.64 2.55-9.68 6.55-11.19 12.48-1.03 4.17-1.63 8.26-1.29 12.6.42 5.72 1.12 11.35 2.99 16.79.3.9.94 1.68 1.57 2.46.21.26.42.52.62.77-.08.02-.15.03-.23.04-.28-.13-.43-.11-.42.06-1.67.17-3.23-.16-4.55-1.36-1.29-1.18-2.59-2.35-3.9-3.53l-.01-.01-.01-.01c-3.99-3.61-7.99-7.21-11.84-11-12.67-12.42-27.42-22.37-43.05-31.4-14.92-8.57-30.34-16.18-46.58-22.23-8.99-3.36-18.13-6.6-27.73-8.19-6.22-.99-12.42-2.07-18.62-3.15-4.9-.86-9.8-1.71-14.71-2.52C853.907 1018.25 0 0 0 0v6276s780.422-577.61 1623.29-1207.7c141.62 6.49 306.57-10.81 434.71-76.3 149.79-76.56 216.31-214.53 271.56-329.12 44.33-91.96 81.41-168.86 148.44-186.88 72.61-19.52 133.38-13.91 192.34-8.47 75.77 6.99 148.55 13.71 239.66-33.53 162-84 172.37-165.47 171.87-169.54-.52-4.28-1.09-8.53-1.66-12.79-.35-2.59-.7-5.18-1.03-7.77-.26-1.63-.42-3.24-.29-4.85.01-.58 1-1.61 1.51-1.67 2.8-.39 5.67-.61 8.51-.73C3107.95 4235.88 3330 4212 3462 4062c132-150 144.74-308.08 139.89-315.68-.81-1.27-1.75-2.44-2.68-3.62-.78-.97-1.55-1.95-2.24-2.97-.22-.29.48-1.79.87-1.89 2.41-.59 4.82-1.12 7.23-1.35 11.17-1.13 21.5-5.23 31.25-11.58 11.37-7.33 22.56-15 32.87-23.85 7.77-6.65 15.17-13.72 21.71-21.67 3.65-4.45 7.27-8.92 10.89-13.39 5.79-7.15 11.58-14.3 17.47-21.38 5.06-6.11 9.24-12.77 13.42-19.44 1.49-2.36 2.97-4.73 4.49-7.07 2.95-4.65 5.29-9.73 6.48-15.08 2.45-10.67 4.6-21.34 5.81-32.12.58-5.03.05-9.83-1.91-14.31-.3-.69-.6-1.36-.91-2.04-.67-1.5-1.34-2.98-1.94-4.53-.56-1.38-1.12-2.76-1.69-4.13-3.21-7.84-6.42-15.68-8.64-23.92-2.12-7.91-6.05-14.71-11.78-20.29-2.22-2.24-4.34-4.59-6.42-6.89-.99-1.1-1.97-2.18-2.95-3.24.96-2.18 2.37-2.98 3.97-3.52 2.36-.81 4.72-1.64 7.07-2.48 4.7-1.66 9.4-3.33 14.19-4.78 9.11-2.66 18.11-6.07 26.69-10.65l.05-.03c14.78-7.92 29.57-15.84 44.28-24.06 3.68-2.03 7.19-4.46 10.68-6.87 1.38-.96 2.75-1.91 4.13-2.83 2.86-1.95 5.7-3.92 8.54-5.89 5.16-3.57 10.31-7.14 15.56-10.59 7.78-5.1 15.45-10.36 22.29-16.87l1.74-1.65c2.81-2.65 5.65-5.33 8.09-8.3 7.12-8.54 14.02-17.25 20.87-26.01 5.47-7 9.86-14.67 14.27-22.36l.79-1.38c2.25-3.9 4.39-7.82 6.53-11.75 1.11-2.03 2.21-4.05 3.34-6.08a93.05 93.05 0 008.84-22.33c1.41-5.37 1.55-10.75 1.04-16.01-.45-5.09-2.72-9.23-6.99-11.86-6.7-4.07-13.58-7.8-21.28-10.08-3.17-.92-6.26-2.18-9.36-3.46-.55-.22-1.1-.45-1.65-.67-.62-.22-1-1.07-1.28-1.71l-.03-.06c-.35-.64 1.32-1.89 2.64-1.94 1.89-.17 3.79-.35 5.68-.53 5.03-.48 10.04-.96 15.02-1.09 26.83-.61 52.48-8.03 77.54-19.42 16.4-7.47 32.67-15.09 48.01-25.07 14.22-9.23 27.23-19.97 39.68-31.7 15.07-14.1 27.62-30.35 39.75-46.77 10.14-13.71 19.97-27.68 26.95-43.31.54-1.22 1.12-2.44 1.71-3.65 1.07-2.24 2.14-4.48 2.98-6.78 2.89-7.95 5.71-15.89 8.2-23.98 1.16-3.56 1.95-7.29 2.23-10.96.55-6.82-1.15-12.87-6.07-17.51-3.48-3.23-7.12-6-11.49-8-5.76-2.66-11.58-5-17.84-6.11-1.03-.19-2.13.01-3.22.2-.36.07-.72.13-1.08.18l.09-.24c.28-.2.34-.35.17-.44.73-1.7 1.88-3.04 3.75-3.66 1.84-.62 3.67-1.25 5.51-1.88 5.63-1.93 11.27-3.86 16.99-5.55 18.79-5.59 36.32-14.51 53.41-24.77 16.27-9.82 31.89-20.64 46.44-33.09 8.06-6.89 16.09-13.98 22.76-22.41 4.29-5.48 8.66-10.89 13.02-16.3 4.76-5.9 9.51-11.79 14.16-17.77 8.2-10.5 14.15-22.23 18.82-34.58 5.12-13.47 2.42-25.17-4.78-35.9-.41-.69-.96-1.26-1.57-1.75-8.04-6.87-16.11-13.64-25.19-19.1a.076.076 0 00-.04-.02c11.67-12.71 39.93-20.15 68.82-27.75 30.91-8.13 62.54-16.46 75.36-31.63 54.38-47.13 54.97-76.09 55.6-106.58.41-19.98.84-40.6 16.4-67.42 35.52-61.19 150-204 150-204zm-529.87 654.75c.09-.05.17-.1.24-.15.06-.15.11-.3.17-.44-.11-.06-.34-.09-.67-.09l.26.68zm0 0c-.08.05-.17.09-.27.14l.31-.03.06.15c.02-.06.04-.11.05-.17-.03.01-.07.01-.11.02l-.04-.11zM2171.68 1760.3l-.43.5c-.15-.26-.22-.45-.22-.57l.42-.06c.02.01.05.03.08.04.04.03.09.06.15.09zm.06-.08l-.06-.09c.05 0 .1-.01.16-.02l-.1.11zm0 0l-.06.08c.07.04.14.09.22.14-.05-.07-.1-.15-.16-.22z" fill="#fff"/><path d="M4094.11 2441.12c-32.24-9.98-58.24-29.95-82.54-63.35l4.86-3.53c23.7 32.59 48.7 51.63 79.46 61.14 30.88 9.56 67.86 9.63 115.74 3.64l.74 5.96c-48.12 6.01-86.14 6.08-118.26-3.86zM3787.23 3032.92c-103.3-24.31-188.83-133.8-151.21-249.85l5.71 1.85c-36.3 111.96 46.17 218.46 146.87 242.16l-1.37 5.84zM3196.46 2141.39c-58.23-15.28-111.14-44.61-162.65-99.33l4.37-4.12c50.75 53.92 102.67 82.66 159.8 97.65 57.24 15.02 119.81 16.29 191.97 15.05l.1 6c-72.17 1.24-135.47.01-193.59-15.25z" fill="#000"/></g></svg>