<svg width="396" height="125" fill="none" xmlns="http://www.w3.org/2000/svg"><path fill-rule="evenodd" clip-rule="evenodd" d="M327.84 14.57c-1.364-2.759 1.424 2.852 0 0zm3.842 3.897c1.767 2.582-2.252-3.732 0 0zm-5.677 1.552c-2.102-4.352 1.575 5.31 0 0zM125.674 34.586c-1.322-1.496-3.036 3.401-.444 4.946.84.496.542-4.525.444-4.946zM43.502 106.94c1.428-1.323-1.676-4.296-3.047-3.886-3.594 1.146 2.64 3.796 3.047 3.886zm297.745-86.737c.859-.357-8.269 1.383-2.675 7.336.648.853 4.012-5.506 2.675-7.336zm-218.432 9.75c-.362.304-5.568 5.238-3.251 6.148 2.637.977 7.794-6.874 3.251-6.149zm47.375-8.303c-.46-.827-2.554-3.78-3.673-2.146-.211.323 3.338 9.276 3.858 9.058 2.29-1.011.06-6.577-.185-6.912zm-77.851 99.357c.621.865 9.256 5.622 9.399 2.544.151-3.322-10.56-4.479-9.4-2.544zM296.087 20.03c-.618-1.108-5.376-7.85-6.449-5.231.331-.89 7.052 11.68 6.875 11.684 2.505.124-.061-5.694-.426-6.453zM60.081 65.3c-1.292-2.778-5.839 10.511.06 11.425 3.323.57.253-10.456-.06-11.425zM28.166 93.346c.674 1.425 9.233 5.224 9.968 3.59 1.981-4.112-11.37-6.187-9.968-3.59zM141.55 61.578c8.875-5.63-17.762.41-10.251 3.138 1.978.725 8.54-2.495 10.251-3.138zM39.305 102.197c.844-.458 10.183-10.606 5.01-11.147 1.353.09-8.494 9.85-8.592 10.117-1.326 3.507 3.228 1.225 3.583 1.03zm55.799-38.071c1.149-1.346-15.8-8.13-15.49-6.66.734 4.25 11.629 8.67 15.49 6.66zM4.799 83.236c-2.23 1.038 16.319 9.919 17.351 5.894.795-3.42-14.876-6.468-17.351-5.893zm297.733-47.74c-.199.372 32.032-3.477 27.911-13.019 1.526 3.439-23.846 12.53-27.911 13.019zM173.238 58.714c-.494-.887-8.774-11.575-10.616-7.708-.222.466 13.814 16.405 13.106 17.92 1.062-2.383-1.647-8.701-2.49-10.212zm-86.972 55.739c-1.036-2.563-23.1-11.752-23.6-10.005-1.312 4.878 25.48 13.504 23.6 10.005zm-38.41-12.357c-7.48 2.908 24.382-.147 25.478-5.014.806-3.788-22.143 3.409-25.477 5.014zM50.54 23.92c1.059 1.906 5.73 32.426 6.89 31.536 4.513-3.586-3.044-20.885-2.652-26.639.316-4.686 5.741-9.34 5.018-10.951.068.206-17.133 2.976-15.943 6.032.389 1.075 5.655.067 6.687.022zm.927 69.088c.011-.011-6.035 3.142-1.744 3.53 8.442 1.048 70.23-20.408 75.813-28.082.723-1.042-27.365 7.245-32.752 9.222-13.554 4.972-28.28 9.152-41.317 15.33zm231.421-50.203c-7.681-1.683-104.963 26.18-104.617 30.577-.06-1.747 96.352-25.992 104.617-30.577zM77.391 120.06c-11.976 5.476-41.126-12.496-52.423-19.002-12.688-7.306-40.33-16.265-13.946-21.58 23.669-4.765 32.83 21.577 31.983-10.342-.287-10.674-7.527-36.467-2.498-46.34 17.879-35.09 37.867 34.712 59.686 38.8 22.595 4.232 54.397-10.383 75.407-17.626 3.823 3.27-3.508-1.894-3.206-1.62.218.234 6.016-3.878 6.705-5.05-11.199 3.795-24.595 18.438-37.629 13.232-21.307-8.505 12.612-23 14.857-22.512-6.841-1.431-4.562-3.194-9.523-4.611 4.422 1.338-15.792 18.795-21.126 18.348-10.529-.89-29.847-16.42-38.172-21.85-65.996-43.036 55.779-3.68 53.417 1.555-.207.384-15.407 8.806-10.653 8.528 11.192-1.41 19.777-13.823 30.747-17.33 4.385-1.401 16.655-4.72 20.957-.924 3.3 2.909 2.459 15.803-2.408 13.161-.602-1.277-1.081-12.827-4.712-9.49 4.321-3.855-.147 24.568-5.956 16.665 6.468 11.609 42.975-18.822 54.574-3.57-2.32 4.119-18.229 2.097-18.026.98-.437 5.318 9.188 2.3-3.013 6.822-2.163.8-13.784-.73-13.573-1.474-.347.77 4.588 1.662 2.844 3.003-.972.756-7.497 2.943-7.116 3.522 3.081 5.032 71.24-20.077 76.736-22.08 15.875-5.784 33.083-14.68 50.487-13.173 6.69.579 31.482 6.885 32.148 15.89 2.505 33.768-111.499 27.63-116.147 61.395-.204 1.364 3.688-3.108 4.053-1.751 1.375 6.028-27.131 2.123-31.342-1.73 3.386 2.62 33.158-21.124 39.63-19.283-6.999-2.612-62.444 24.876-62.448 24.985.08-.955 1.432-7.922-.915-7.569 4.592-.973-7.327 10.343-8.257 10.828-9.674 5.02-23.944 7.696-34.326 10.342-8.13 2.071-38.583 1.733-44.531 7.618-3.489 3.428 46.61 28.631-12.285 13.233z" fill="#fff"/><path fill-rule="evenodd" clip-rule="evenodd" d="M325.401 70.795c2.718-2.002-6.014 3.376 0 0zm-.425 3.184c1.335-1.016-9.071 3.5-1.692 7.443 3.702 1.984 2.662-5.686 1.692-7.443zm-19.652 3.304c-.638.388-7.025 5.953-3.266 4.03 1.111-.451 14.16-6.604 14.067-7.116-.213-1.69-10.47 2.875-10.801 3.086zm-27.088 9.788c-8.754 11.978-16.848 5.407-30.979 3.462.969-9.457 19.679-10.12 24.257-15.165-8.751-6.356-23.5 13.686-28.817 14.265-22.885 2.484 12.024-20.113 17.494-22.386 4.657-1.938 34.055-14.79 38.235-11.798 25.704 18.42-26.658 18.854-22.736 15.557-1.271 1.091 16.935 6.111 17.613 6.883.201-.335-10.559 6.45-9.992 7.48-.067-.116 31.252-18.66 34.164-19.315 5.085-1.14 9.462-3.857 14.828-2.047 3.266 1.099 5.507 13.155 3.877 13.02 1.014.083-4.66-7.665-4.888-6.002-.734 4.343 4.471 6.777.265 10.935-2.122 2.097-11.745 1.065-12.106 2.36-.313 2.284 60.908 17.607 65.039 19.399 23.008 9.964 7.237 13.95-10.048 11.646-21.465-2.863-43.474-7.665-64.719-12.008-38.585-7.883 5.955-9.471 6.749-21.047.067-3.906-36.14 20.965-35.208 14.552.089-1.63.429-5.377-1.559-6.201-3.642-1.494-.727 14.856-1.469-3.617.086.038.086.05 0 .027z" fill="#fff"/></svg>