<svg width="92" height="92" fill="none" xmlns="http://www.w3.org/2000/svg"><path fill-rule="evenodd" clip-rule="evenodd" d="M46 81.962l-8.269 8.272-4.722-10.7-10.698 4.726-.538-11.684-11.684.543 3.72-11.09-11.091-3.714 7.473-8.997-8.999-7.47 10.219-5.69-5.693-10.216 11.584-1.614-1.618-11.583 11.385 2.68 2.675-11.386 9.648 6.611L46 1l6.608 9.65 9.648-6.611 2.675 11.386 11.385-2.68-1.618 11.583 11.584 1.614-5.693 10.217 10.219 5.689-9 7.47 7.474 8.997-11.09 3.715 3.719 11.089-11.684-.543-.538 11.684-10.698-4.727-4.722 10.7L46 81.963z" fill="#fff" stroke="#000"/></svg>