<svg width="1920" height="365" fill="none" xmlns="http://www.w3.org/2000/svg"><path d="M0 218.948c10.439-10.792 19.255-23.421 31.316-32.375 79.325-58.889 151.395-86.257 250.774-88.5 76.015-1.716 166.147-5.274 243.422 10.086 48.38 9.616 117.827 28.379 166.488 44.297 83.622 27.355 156.449 83.495 243.007 102.437 76.483 16.738 132.893 19.318 212.093 17.656 115.32-2.42 224.66-45.52 337.85-63.062 93.01-14.414 208.75-3.741 280.05 30.969 40.93 19.924 120.88 68 158 124" stroke="#fff"/><path fill-rule="evenodd" clip-rule="evenodd" d="M3 67.183v-9s137-47 298-52 534 80 740 122 498.36-5.286 509.38-5.292c11.02-.006 0 2 0 2S1240 169.183 1058 136.183s-580-129-757-121-298 52-298 52z" fill="#fff"/><path fill-rule="evenodd" clip-rule="evenodd" d="M751 177.003s296.17 94.603 466 67.103c131.04-21.219 221.66-93.764 351-127.617 129.34-33.853 137-30.724 185-36.733 48-6.01 170 3.683 170 3.683v9.337c-20-4.006-59.05-7.5-93-9.014-202-9.014-399 88.813-465 117.857-66 29.044-105.43 49.569-211 53.405-105.57 3.836-231-26.364-231-26.364l-154-42.742-11-5.331-7-3.584z" fill="#fff"/></svg>