<svg width="595" height="182" fill="none" xmlns="http://www.w3.org/2000/svg"><path fill-rule="evenodd" clip-rule="evenodd" d="M266.023 72.886l.001-.011c-.512-.045-1.008-.077-1.51-.132-2.846-.392-5.688-.092-8.55.425-3.174.566-6.314 1.464-9.451 2.33a56.526 56.526 0 00-7.141 2.434c-1.043.435-2.049 1.06-3.037 1.686a4.39 4.39 0 00-1.653 2.026c-.174.434.013 1.196.351 1.368.555.279 1.131.329 1.731.195 1.495-.319 2.992-.659 4.484-1.044 4.4-1.128 8.781-2.334 13.185-3.407 3.257-.79 6.529-1.226 9.804-.775.491.076.997.098 1.501.13 2.671.213 5.366.36 7.813 1.89.593.37 1.298.388 1.974.217.705-.19 1.233-.736 1.5-1.623.242-.8.009-1.753-.541-2.305-.249-.253-.539-.464-.818-.686-1.8-1.374-3.783-2.107-5.878-2.378-1.254-.165-2.507-.23-3.765-.34zm-122.437 7.682l-1.343-.118c-3.909-.364-7.81-.717-11.719-1.092-1.341-.129-2.67.002-4.004.3-1.095.252-2.127.71-3.123 1.375-.222.16-.423.4-.629.595-.218.216-.339.878-.287 1.22.076.365.304.542.535.584.898.146 1.806.281 2.719.361 4.664.397 9.321.771 13.985 1.168.582.05 1.173.103 1.736.264 3.319.93 6.763 1.04 10.09 1.981 3.669 1.05 7.19 2.457 10.367 5.01.555.453 1.12.906 1.7 1.282.896.594 1.913-.315 1.934-1.692a3.236 3.236 0 00-.306-1.552c-.69-1.394-1.64-2.385-2.714-3.208-2.716-2.043-5.698-3.313-8.766-4.231-1.608-.477-3.255-.834-4.866-1.278-.107-.02-.173-.296-.22-.479-.021-.07.037-.221.089-.295.097-.182.212-.363.34-.486 2.665-2.525 5.499-4.609 8.533-6.092 3.808-1.876 7.682-3.477 11.686-4.404 1.841-.422 3.648-.668 5.49-.484 5.079.5 10.156.922 15.23 1.377.421.037.833.062 1.247.075.261.012.566-.589.556-.993-.039-.688-.223-1.264-.638-1.682-1.326-1.338-2.758-2.282-4.496-2.423-1.575-.137-3.153-.343-4.728-.492-2.666-.244-5.329-.522-7.991-.71-.995-.076-2.017-.143-3.007.04-1.659.303-3.315.775-4.963 1.258a57.524 57.524 0 00-6.346 2.338c-4.111 1.837-8.064 4.138-11.683 7.453-1.566 1.41-2.986 3.002-4.408 5.03zm-89.26 44.857c-.382-.254-.781-.322-1.186-.016-1.397 1.056-2.81 2.078-4.187 3.213-3.413 2.795-7.1 4.708-10.909 6.28-3.631 1.488-7.306 2.653-11.052 3.294-2.075.358-4.172.67-6.26.455-2.825-.314-5.652-.506-8.468-.829-2.585-.292-5.019-1.276-7.357-2.637-2.553-1.479-3.761-4.227-4.203-7.712a2.598 2.598 0 01-.015-.651c.202-2.934.422-5.854.962-8.736.47-2.492 1.299-4.765 2.37-6.928a74.795 74.795 0 015.453-9.246c1.453-2.098 3.31-3.466 5.25-4.65.8-.503 1.638-.518 2.458-.435 1.83.182 3.642.45 5.465.71.417.058.825.127 1.226.283 2.541.993 2.557.917 3.445 3.935.445 1.492.9 2.975 1.47 4.39.34.845.594 1.748.762 2.699.413 2.282 1.028 4.505 1.3 6.863.174 1.502.809 2.78 1.466 4.015.301.566 1.224.416 1.507-.253.106-.288.232-.596.286-.9.065-.435.112-.871.096-1.302-.117-2.576-.05-5.191-.557-7.724-.244-1.232-.328-2.528-.468-3.817-.054-.402.22-.873.525-.957.177-.061.328-.147.492-.166 1.589-.158 3.174-.273 4.756-.465 1.429-.172 2.833-.071 4.248.009 3.171.167 6.297.76 9.422 1.242 2.221.338 4.407.97 6.355 2.472 1.197.92 2.499 1.573 3.846 2.121.494.219.986.053 1.444-.248.947-.644 1.147-2.102.35-2.965a25.525 25.525 0 00-2.18-2.04c-2.137-1.806-4.383-3.302-6.99-3.739-2.205-1.041-4.58-.941-6.885-1.241-1.655-.222-3.337-.237-4.99-.47-2.33-.325-4.659-.044-6.992.39-1.49.277-3 .443-4.499.609-.491.056-.769-.266-.897-.86-.665-3.197-.577-4.312.785-7.122.637-1.31 1.408-2.509 2.136-3.733.736-1.213 1.515-2.4 2.269-3.612.868-1.377 1.684-2.792 2.586-4.145 3.03-4.492 6.669-7.918 10.857-10.315 1.554-.899 3.114-1.754 4.69-2.585a15.028 15.028 0 016.634-1.765c1.507-.044 3.004-.276 4.503-.134 2.17.2 4.26.802 6.262 1.78.3.16.612.308.923.456.148.057.58-.247.617-.464.108-.42.252-.825.298-1.25.17-1.638.7-3.166 1.106-4.727.243-.915.661-1.792 1.1-2.59 1.384-2.544 2.825-5.028 4.472-7.284.82-1.14 1.564-2.352 2.367-3.504 3.023-4.305 6.61-7.35 10.935-8.733 1.314-.414 2.638-.739 3.958-1.108 1.412-.405 2.813-.47 4.247-.3 1.309.159 2.647.298 3.974.359 2.761.12 5.457.786 8.135 1.45 1.384.33 2.682 1.027 3.901 1.915.212.151.338.46.545.764-.727 1.73-1.439 3.486-2.193 5.215-1.091 2.492-2.218 4.98-3.318 7.472-.852 1.919-1.456 3.991-1.98 6.07-.233.916-.251 1.939-.273 2.917-.012.648.207 1.229.54 1.743.183.28.665.421.892.199.266-.263.576-.522.76-.87.326-.643.619-1.322.853-2.04 1.319-4.068 3.083-7.867 4.734-11.72.489-1.168 1.055-2.286 1.483-3.482 1.632-4.658 4.269-8.26 7.275-11.443 1.25-1.333 2.591-2.559 3.935-3.73 1.49-1.29 2.949-2.638 4.33-4.124a24.395 24.395 0 016.824-5.162c2.449-1.24 4.883-2.524 7.317-3.798 1.661-.879 3.397-1.387 5.127-1.82 2.567-.634 5.139-1.026 7.709-1.594a11.665 11.665 0 013.751-.189c4.061.4 8.144.735 12.19 1.298 2.053.3 4.106.7 6.077 1.522 1.268.53 2.497 1.089 3.672 1.852a130.914 130.914 0 008.687 5.231c.843.448 1.643.97 2.444 1.491.52.332 1.058.654 1.494 1.133 2.121 2.289 4.468 4.267 6.359 6.932.496.715.963 1.45 1.38 2.235 1.161 2.16 1.582 4.653 1.648 7.29.014.871-.036 1.748-.039 2.607.003.176.121.363.206.524.092.184.442.094.666-.206l1.761-2.433c2.887-3.987 6.009-7.568 9.714-10.217.68-.47 1.331-1.007 2.011-1.476.679-.458 1.328-.985 1.901-1.672 1.093-1.281 2.359-2.173 3.694-2.926 2.17-1.241 4.334-2.527 6.515-3.79 1.547-.91 3.16-1.552 4.787-2.147 1.46-.544 2.926-1.043 4.393-1.554 3.211-1.106 6.449-1.495 9.72-1.131 2.308.268 4.65.45 6.917 1.078.808.225 1.659.278 2.468.392.498.066.997.12 1.497.175 2.607.24 4.779 1.64 6.547 3.965 1.106 1.45 2.322 2.68 3.57 3.847 1.93 1.798 3.873 3.565 5.753 5.425 1.112 1.078 2.118 2.333 3.168 3.504.501.55.983 1.11 1.493 1.65.395.43.884.496 1.396.507.332.008.687-.347.697-.764.002-.54.042-1.098-.039-1.611a10.235 10.235 0 00-1.893-4.395c-.964-1.317-2.044-2.458-3.177-3.493-2.286-2.06-4.564-4.11-6.983-5.885-.219-.163-.256-.562-.116-.825.106-.19.178-.392.291-.547.28-.427.544-.878.872-1.223 1.734-1.82 3.106-4.133 4.793-6.023 1.677-1.89 3.402-3.71 5.104-5.565 2.186-2.364 4.553-4.315 7.146-5.762 1.797-.999 3.616-1.93 5.44-2.827 1.667-.835 3.408-1.299 5.166-1.541 1.414-.207 2.832-.468 4.241-.631a11.115 11.115 0 012.261-.023c4.653.407 9.312.76 13.957 1.265 4.349.49 8.428 2.114 12.225 4.803 1.849 1.296 3.272 3.138 4.546 5.232.577.92.894 2.027 1.201 3.144.142.54.024 1.07-.318 1.48-1.65 2.091-3.278 4.24-4.977 6.27-1.639 1.972-3.09 4.146-4.368 6.512-.546.998-1.042 2.034-1.578 3.022-2.577 4.763-4.579 9.851-5.784 15.285-.182.237-.291.448-.425.546-2.683 1.956-5.174 4.304-7.689 6.606a38.717 38.717 0 00-4.166 4.414 17.193 17.193 0 00-2.384 3.899c-.284.669-.536 1.395-.507 2.19.014.255.325.613.52.542.915-.272 1.731-.862 2.503-1.554 1.193-1.085 2.362-2.205 3.538-3.302 1.872-1.752 3.73-3.539 5.625-5.245 2.248-2.039 4.601-3.826 7.093-5.26 2.739-1.566 5.552-2.652 8.52-2.943 1.999-.21 4.001-.564 5.984-.908.577-.115 1.127-.43 1.676-.745.208-.114.371-.43.52-.692.167-.272.187-1.008.008-1.222-.293-.356-.584-.844-.943-.953-1.703-.49-3.466-.71-5.225-.457-1.075.149-2.158.285-3.243.443-1.75.244-3.479.676-5.166 1.431-.319.149-.639.319-.955.423-.24.078-.514.22-.695-.072-.184-.269-.11-.593.031-.878 1.3-2.716 2.585-5.466 3.928-8.168.892-1.76 1.85-3.45 2.784-5.174.784-1.45 1.742-2.732 2.74-3.956 2.474-3.075 4.947-6.13 7.397-9.24a30.477 30.477 0 014.172-4.381c5.5-4.64 11.467-7.718 17.642-10.096 2.777-1.079 5.599-1.448 8.46-1.132 2.237.262 4.475.392 6.72.654 1.488.174 2.963.502 4.432.784.496.088.987.24 1.476.306 3.406.474 6.671 1.53 9.85 3.053.924.444 1.849.877 2.773 1.321 1.002.484 1.994.968 2.803 1.908.416.488.977.768 1.474 1.153 1.763 1.355 3.45 2.857 4.959 4.63 2.196 2.581 3.582 5.764 3.999 9.643.061.534.131 1.08.102 1.617a63.304 63.304 0 01-1.342 9.671c-.146.648-.422 1.23-.812 1.67-1.998 2.269-3.708 4.938-5.356 7.624-2.183 3.553-4.341 7.13-6.499 10.707-2.156 3.555-3.378 7.644-4.187 11.955a17.532 17.532 0 00-.279 4.216c.011.078.094.162.137.188.067.06.197.116.227.075.981-.917 1.896-1.916 2.503-3.294.622-1.454 1.286-2.872 1.839-4.365 1.164-3.212 2.638-6.178 4.449-8.871 1.198-1.767 2.219-3.66 3.325-5.501a133.714 133.714 0 015.292-8.126c.854-1.225 1.939-2.198 2.985-3.153 1.466-1.325 2.996-2.556 4.516-3.778 1.725-1.413 3.5-2.766 5.242-4.155a24.925 24.925 0 018.21-4.347c1.397-.428 2.8-.735 4.202-1.119.663-.173 1.338-.268 1.969-.588 2.332-1.15 4.759-1.323 7.169-1.806 1.248-.276 2.498-.266 3.739-.146 2.91.276 5.814.52 8.706.993 2.974.47 5.953.785 8.94 1.101 1.757.187 3.435.653 5.052 1.51 1.135.606 2.335.986 3.563 1.248 1.625.362 3.234.9 4.795 1.565a140.65 140.65 0 0111.784 5.633c1.909 1.015 3.71 2.241 5.45 3.649 2.7 2.163 4.415 5.297 5.341 9.21.674 2.79.854 5.68.812 8.627-.028 2.068-.252 4.107-.572 6.127-1.126 1.135-2.218 2.207-3.295 3.302-.534.547-1.061 1.118-1.596 1.677-2.211 2.328-4.067 5.029-5.517 8.227-1.135 2.478-2.361 4.87-3.241 7.524-.098.288-.264.55-.433.93-1.617.377-3.26.74-4.908 1.168-3.14.805-6.248 1.766-9.298 3.096-2.022.89-3.904 2.136-5.651 3.789-.903.857-1.661 1.913-2.329 3.066-.149.263-.223.587-.321.886-.096.278.079.745.264.794.747.198 1.496.175 2.227-.146.646-.285 1.292-.57 1.885-.98 3.698-2.661 7.693-4.084 11.734-5.217 2.539-.725 5.099-1.393 7.701-1.705 1-.122 1.999-.222 2.999-.134 3.485.294 6.978.588 10.471.894.83.073 1.635.242 2.431.598.85.372 1.759.572 2.646.826.667.202 1.316-.017 1.984-.245.391-.153.922-.976.922-1.494-.021-.684-.236-1.309-.717-1.571a99.887 99.887 0 00-4.595-2.318c-.528-.233-1.143-.298-1.705-.358-2.915-.322-5.823-.62-8.721-.929-.66-.068-1.32-.137-1.988-.218-.339-.04-.572-.567-.396-.926.512-1.023 1.033-2.035 1.553-3.047.327-.643.713-1.259.989-1.94 1.037-2.485 2.497-4.472 4.149-6.276 2.229-2.426 4.432-4.876 6.966-6.78.876-.65 1.741-1.389 2.559-2.198.896-.88 1.863-1.544 2.927-1.98 1.69-.688 3.387-1.366 5.07-2.088 1.234-.52 2.481-.686 3.725-.5 4.053.586 8.135.844 12.137 1.8 1.79.42 3.58.852 5.352 1.37 2.097.624 4.096 1.636 5.823 3.296 1.063 1.018 2.109 2.023 3.157 3.007 1.367 1.254 2.404 2.875 3.085 4.862.375 1.067.74 2.135 1.076 3.232.472 1.605.647 3.305.637 5.066-.01 2.07-.243 4.119-.557 6.162-.109.728-.448 1.216-.961 1.413-1.714.665-3.278 1.773-4.778 3.073-.641.538-1.344.961-2.021 1.397-3.495 2.294-6.341 5.612-8.808 9.526-.867 1.377-1.491 2.952-2.123 4.516-.254.638-.12 1.267.181 1.843a1.043 1.043 0 001.56.379c.205-.18.429-.381.578-.643 1.484-2.458 3.292-4.502 4.939-6.758 1.431-1.956 3.166-3.38 4.972-4.675 1.19-.853 2.358-1.753 3.55-2.618.443-.336.88-.694 1.35-.928 2.841-1.403 5.646-3.019 8.563-4.151 1.154-.438 2.293-.702 3.47-.478 1.152.21 2.31.345 3.461.567 3.608.734 7.156 1.738 10.582 3.315 1.793.807 3.521 1.729 5.149 2.983 2.1 1.605 3.78 3.701 4.765 6.639a212.84 212.84 0 011.331 4.124c.613 2.047.768 4.186.521 6.388-.26 2.257-.628 4.504-.952 6.766-.072.412-.234.828-.36 1.235-.458 1.435-1.138 2.719-1.815 3.982-1.854 3.493-4.445 5.127-7.57 5.151a34.873 34.873 0 01-5.235-.447c-3.301-.542-6.573-1.202-9.723-2.546-.156-.069-.315-.094-.482-.141-.325-.095-.68.16-.783.614a29.449 29.449 0 01-1.675 5.15c-2.309 5.414-5.622 9.429-9.859 12.186-1.546.999-3.138 1.707-4.848 1.712-1.171.007-2.33-.017-3.498-.042-1.025-.002-2-.285-2.818-1.017-.5-.452-1.02-.684-1.618-.737a1.507 1.507 0 01-.487-.097c-2.096-.734-3.106-2.452-3.13-5.372-.005-.761.053-1.526.065-2.285-.004-.165-.096-.339-.172-.5-.068-.149-.467.191-.595.521-1.043 2.662-2.068 5.325-3.119 7.975-.471 1.17-.995 2.324-1.458 3.506-1.002 2.599-2.369 4.847-3.937 6.934-2.891 3.821-6.36 6.238-10.335 7.431-2.579.777-5.172.891-7.748.71-1.977-.14-3.95-.632-5.782-1.607-1.316-.699-2.071-2.042-2.262-3.876-.157-1.489-.223-3.003-.079-4.543.036-.416.03-.857.04-1.285-.198.005-.39-.067-.48.035-.291.239-.55.524-.801.822-1.385 1.64-3.078 2.362-4.827 2.815-3.086.809-7.006 1.072-9.989.811-1.214-.118-2.218-.679-3.055-1.809a11.97 11.97 0 01-1.772-3.415 7.575 7.575 0 01-.392-2.511 38.807 38.807 0 00-.036-2.261c-.009-.1-.31-.269-.368-.219-.359.299-.719.608-1.022.978-2.499 3.261-5.534 5.132-8.891 6.16-2.45.743-4.913 1.431-7.409 1.873-3.638.64-7.173.408-10.55-1.319-2.732-1.385-5.038-3.524-7.066-6.168-.986-1.276-1.852-2.695-2.729-4.093-.917-1.446-1.355-3.125-1.257-5.065.186-3.265.327-6.523.486-9.78.049-.865.115-1.73.147-2.608.016-.175-.093-.371-.16-.531-.081-.206-.388-.1-.661.25-.728.917-1.484 1.841-2.198 2.803-2.041 2.751-4.422 4.866-7.014 6.61-2.045 1.363-4.126 2.612-6.269 3.658-3.799 1.859-7.62 3.661-11.397 5.587-4.605 2.328-9.309 4.042-14.092 5.319-2.48.675-4.954 1.274-7.446 1.782-3.666.748-7.34.878-10.989.404-3.596-.457-6.903-2.057-9.973-4.418-.708-.546-1.282-1.29-1.764-2.158-.818-1.459-1.606-2.938-2.414-4.407-.184-.357-.38-.694-.617-.968-.081-.106-.361-.097-.441-.005a23.77 23.77 0 00-1.301 1.604c-2.794 3.753-5.597 7.493-8.619 10.973-.579.654-1.175 1.285-1.73 1.974-1.94 2.418-4.224 4.145-6.589 5.667-1.518.99-3.088 1.866-4.649 2.731a83.471 83.471 0 00-7.342 4.599c-4.048 2.862-8.223 5.315-12.399 7.78-1.092.653-2.186 1.02-3.397 1.079-1.754.089-3.508.178-5.262.376-2.528.297-5.01-.041-7.501-.27a2.794 2.794 0 01-.968-.25c-1.626-.759-3.193-1.667-4.633-2.905-1.203-1.063-1.95-2.505-2.168-4.44-.132-1.058-.238-2.113-.196-3.211.063-2.163.109-4.329.146-6.506-.001-.088-.057-.269-.084-.271-.154.008-.36.001-.443.126-.401.571-.77 1.188-1.162 1.759-.804 1.163-1.582 2.34-2.426 3.455-1.453 1.899-3.085 3.474-4.923 4.723-3.252 2.193-6.629 3.967-10.041 5.629-4.608 2.261-9.314 3.997-14.129 5.117-3.233.742-6.478 1.217-9.734.878-3.407-.354-6.811-.64-10.23-.862-1.942-.126-3.765-.682-5.58-1.436a251.754 251.754 0 01-5.376-2.342c-.615-.274-1.212-.645-1.812-.984a6.249 6.249 0 01-2.288-2.348c-1.227-2.133-2.455-4.245-3.851-6.184-.68-.973-.998-2.179-1.107-3.499-.017-.321-.006-.65-.014-.97-.097-2.497-.212-4.985-.559-7.405-.106-.736-.111-1.507-.199-2.242-.01-.099-.313-.236-.381-.176-.42.382-.833.775-1.205 1.227-1.73 2.073-3.746 3.416-5.986 4.222-2.603.951-5.225 1.8-7.883 2.251-2.001.342-4.007.53-6.009.377-2.914-.233-5.814-.52-8.731-.72-2.093-.15-4.095-.821-6.131-1.307-1.048-.268-2.069-.743-2.965-1.504-1.795-1.5-3.548-3.063-5.184-4.836-.765-.827-1.343-1.835-1.675-3.076-.163-.608-.308-1.216-.489-1.815-.727-2.497-1.406-5.023-2.352-7.374-.777-1.918-1.144-3.999-1.094-6.219.013-1.287-.036-2.579-.054-3.814-.431-.214-.74-.076-1.039.151-1.329.996-2.679 1.924-3.987 2.988-1.65 1.364-3.384 2.567-5.218 3.463-3.167 1.54-6.335 3.08-9.533 4.551-1.107.52-2.277.825-3.409 1.21-1.881.617-3.766 1.179-5.642 1.841-1.793.636-3.59 1.217-5.442 1.396-.907.086-1.836.214-2.739.146-2.166-.146-4.324-.368-6.481-.611-1.827-.204-3.584-.798-5.352-1.372-1.288-.41-2.542-.883-3.818-1.325-1.528-.53-2.953-1.326-4.283-2.378-.927-.72-1.678-1.7-2.321-2.791-.628-1.046-.87-2.29-.625-3.656.394-2.134.857-4.241 1.636-6.243.381-.969.679-2 .994-3.029.06-.171-.009-.42-.056-.6-.037-.19-.443-.083-.636.176-1.06 1.305-2.151 2.564-3.143 3.931-3.873 5.376-8.503 9.233-13.589 12.223-3.33 1.955-6.665 3.855-10.187 5.121-3.262 1.179-6.559 1.827-9.91 2.172-4.044.439-8.025-.041-11.968-.639-3.296-.498-6.582-1.105-9.69-2.61-.691-.336-1.415-.597-2.082-.997-1.488-.901-2.965-1.812-4.416-2.82a8.811 8.811 0 01-1.804-1.6c-1.005-1.167-1.586-2.65-1.52-4.527.051-1.317.19-2.582.534-3.851.453-1.678.956-3.308 1.689-4.796.175-.359.484-.597.725-.884-.217.113-.257.055-.113-.153l.078.249z" fill="#fff"/></svg>