<svg width="288" height="70" fill="none" xmlns="http://www.w3.org/2000/svg"><path fill-rule="evenodd" clip-rule="evenodd" d="M181.399 43.195a105.601 105.601 0 01-8.139 3.056c-2.983.965-6.007 1.559-9.148 1.559-1.673 0-3.333.034-5.013.054-.768.013-1.543.02-2.317.08-.323.021-.645.156-.947.27-.425.17-.891.898-.829 1.323.054.432.226.823.658 1.053 1.358.762 2.825 1.262 4.409 1.309 2.551.067 5.116.087 7.667.101.781 0 1.584-.047 2.317-.23 5.925-1.51 11.692-3.407 16.883-6.666a2.303 2.303 0 011.57-.344c.556.068 1.125.115 1.653.277 3.209.944 6.569.998 9.847 1.585.432.081.878.075 1.344.075 3.772.006 7.55.006 11.335.033 1.248.007 2.428-.276 3.545-.776.501-.216.947-.566 1.331-.944.816-.79.425-2.362-.679-2.659a10.602 10.602 0 00-2.304-.324c-2.77-.08-5.555-.06-8.332-.182-2.99-.115-6.007-.23-8.983-.573-2.969-.351-5.904-.952-8.825-1.62-1.406-.33-2.805-.661-4.121-1.228-2.229-.958-4.478-1.889-6.7-2.901-.727-.324-1.426-.553-2.236-.52-.754.034-1.446.554-1.734 1.31-.288.802-.083 1.868.576 2.374.692.533 1.419 1.04 2.194 1.451 1.454.783 2.983 1.458 4.45 2.213.227.128.309.493.528.844zm-99.497-.49c2.02.458 3.963.968 5.948 1.303 3.206.53 6.42 1.046 9.702.987 4.511-.083 8.995-.064 13.506-.064 1.707 0 3.366-.194 5.018-.574 1.333-.297 2.547-.826 3.56-1.672.216-.187.41-.555.354-.794-.048-.238-.388-.555-.645-.6-1.985-.361-3.97-.716-6.003-.73-4.29-.006-8.572-.16-12.847-.109-4.414.058-8.731-.607-13.055-1.271-1.096-.162-2.262-.433-3.178-.975-2.478-1.458-5.095-2.6-7.739-3.737-.701-.31-1.326-.774-2.006-1.142-.666-.368-1.346-.748-2.047-1.078-.895-.432-1.624-.303-2.464.394-.645.53-.874 1.652-.41 2.259.327.426.688.826 1.097 1.175 1.582 1.335 3.276 2.51 5.212 3.388.07.032.167.22.132.27-.097.156-.215.382-.375.414-.548.11-1.11.206-1.658.206-1.472.013-2.936-.084-4.394-.032-3.04.097-6.066-.239-9.091-.413-.68-.045-1.326-.213-1.992-.348-2.86-.53-5.712-1.072-8.579-1.62-.673-.13-1.332-.149-1.998.032-.618.187-1.049.839-.93 1.458.104.536.395.981.819 1.317a7.974 7.974 0 003.56 1.684c1.978.388 3.942.814 5.913 1.194 2.318.433 4.65.749 7.024.73a462.43 462.43 0 019.466 0c2.166.019 4.234-.381 6.267-1.046.632-.213 1.264-.42 1.833-.607zm167.43-6.62c.603.406 1.232.375 1.883.105 2.332-.984 4.755-1.727 7.253-2.33a32.712 32.712 0 016.305-.86c2.249-.068 4.499-.141 6.734-.037 2.367.092 4.72.277 7.039.64 2.215.35 4.208 1.302 6.104 2.39.187.104.374.227.505.381 1.572 1.831 2.852 3.798 2.845 6.182a4.924 4.924 0 01-.623 2.274c-.962 1.697-2.325 3.128-4.353 3.946-3.115 1.247-6.354 1.93-9.78 1.911-.443 0-.899-.03-1.328-.135-1.959-.473-3.973-.56-5.994-.744-2.118-.184-4.18-.682-6.222-1.223-1.08-.276-2.152-.577-3.239-.817-1.398-.307-2.741.725-2.609 1.979.055.516.277.97.789 1.241.574.301 1.19.541 1.806.744 1.564.516 3.232.805 4.748 1.524-.048.307 0 .639-.166.866-.408.59-.817 1.199-1.384 1.66-2.312 1.831-4.942 3.06-8.16 3.048-2.028-.006-4.056.012-6.07.012-1.91-.012-3.474-.713-4.782-1.893-.381-.35-.699-.768-1.08-1.13-.422-.412-.547-1.248-1.377-1.107-.595.105-.478.8-.637 1.242-.817 2.347-2.914 3.417-5.385 4.007-1.287.307-2.65.467-3.986.528-2.692.105-5.385.215-8.042-.424a1.94 1.94 0 00-1.585.301c-2.976 2.127-6.561 2.913-10.202 3.62-.636.123-1.322.166-1.986.178-1.917.006-3.834.068-5.737-.043-2.928-.178-5.433-1.13-7.24-3.27-.325-.386-.733-.724-1.163-1.148-.643.331-1.245.577-1.757.928-1.516 1.026-2.977 2.101-4.465 3.128-1.356.91-2.83 1.604-4.408 2.15-2.083.713-4.146 1.5-6.222 2.225-1.038.375-2.083.676-3.205.86-3.308.578-6.616.972-10.007 1.002-3.613.043-7.191-.307-10.749-.651-2.111-.209-4.194-.67-6.201-1.315-2.851-.922-5.765-1.623-8.713-2.225a79.284 79.284 0 01-6.783-1.715c-1.799-.54-3.509-1.284-5.246-1.99a2.554 2.554 0 01-1.398-1.23c-.595-1.161-1.246-2.304-1.758-3.509-.658-1.48-1.564-2.833-2.499-4.167-.359-.522-.858-.903-1.467-1.204-.768-.369-1.792-.277-2.519.24-.699.528-1.142 1.5-.837 2.114.339.719.726 1.438 1.141 2.126.817 1.309 1.426 2.673 1.938 4.08.153.425-.027.818-.353 1.076-1.349 1.057-2.899 1.862-4.533 2.501-2.457.978-4.907 1.918-7.537 2.52-2.388.535-4.665 1.426-7.073 1.868-3.28.603-6.506.363-9.662-.46-1.73-.45-3.239-1.359-4.512-2.496-.713-.633-1.35-1.315-2.049-1.966-.29-.27-.623-.541-.969-.842-.477.166-.9.295-1.28.448-1.329.56-2.637 1.125-3.931 1.697-2.367 1.026-4.88 1.48-7.503 1.395-3.135-.093-6.27-.295-9.385-.756-1.771-.258-3.578-.308-5.287-.824-.852-.252-1.737-.455-2.506-.817-2.235-1.076-3.509-2.723-3.626-4.99-.049-.88.028-1.77.034-2.65 0-.392-.034-.773-.055-1.136-.284-.062-.505-.178-.692-.148-.43.087-.858.21-1.28.345-2.997.952-6.084 1.315-9.26 1.198-3.579-.135-7.185-.246-10.749-.67-3.301-.405-6.257-1.524-9.011-3.103-.554-.326-1.059-.738-1.55-1.143-2.014-1.654-2.914-3.682-2.54-6.115.117-.713.505-1.119 1.26-1.156.664-.037 1.342-.043 2.013-.067l2.693-.092c2.505-.08 4.872-.64 7.121-1.592 1.211-.516 2.436-1.014 3.578-1.623.852-.46 1.585-1.1 1.959-1.966.221-.522-.187-1.284-.789-1.42-1.135-.227-2.242-.104-3.315.246-1.253.418-2.506.83-3.751 1.297-2.298.879-4.727 1.198-7.198 1.284-3.253.099-6.52.019-9.766.037a12.22 12.22 0 01-3.315-.455C.716 39.551-.135 38.021.017 36.976c.43-2.698 1.585-5.057 3.939-6.975 1.93-1.573 4.159-2.63 6.575-3.484 2.512-.904 5.086-1.45 7.779-1.764 2.637-.295 5.142-.037 7.509 1.087.305.136.602.32.907.345.304.018.712-.086.9-.258.525-.51.94-1.1 1.418-1.647 1.945-2.207 4.485-3.497 7.634-3.903.782-.104 1.564-.24 2.332-.289 2.928-.153 5.281.67 6.7 3.055.152.245.429.43.63.627.664-.166.83-.658 1.12-1.051 1.434-1.998 2.935-3.958 4.638-5.79 1.806-1.923 3.973-3.466 6.353-4.811 1.807-1.02 3.8-1.684 5.863-2.182 2.699-.652 5.522-.879 8.29-1.137.762-.074 1.579.043 2.333.184 1.433.258 2.776.738 4.153 1.199 2.104.725 3.121 2.144 3.543 3.988.194.867.291 1.745.464 2.618.035.135.277.246.443.338.07.03.242-.03.311-.104 1.841-1.58 3.662-3.171 5.503-4.757 1.39-1.18 2.976-2.114 4.637-2.938 4.803-2.402 9.945-4.056 15.233-5.432 4.415-1.143 8.873-2.102 13.406-2.747 2.657-.369 5.308-.793 8.014-.824 2.014-.03 4.042-.16 6.063-.258 2.935-.147 5.862-.055 8.741.35 2.99.424 5.918 1.156 8.596 2.44 3.454 1.666 6.776 3.49 9.71 5.82 1.087.854 2.194 1.696 3.288 2.544 1.702 1.322 3.017 2.895 3.882 4.757 1.488 3.312 2.769 6.656 2.831 10.27 0 .288.09.577.125.866.048.22.54.448.816.35 1.142-.387 2.298-.762 3.44-1.186 2.886-1.07 5.8-2.084 8.935-2.495.997-.123 1.973-.381 2.928-.652 2.609-.712 5.253-.94 7.98-.934 1.702.012 3.356.178 4.969.664 1.488.449 2.962.879 4.436 1.346.54.154 1.052.362 1.551.571 3.128 1.26 4.837 3.393 5.301 6.361.222 1.389.353 2.74 0 4.111-.035.166.042.424.166.535.097.092.422.092.561.012 3.592-2.07 7.62-3.3 11.585-4.676 2.727-.953 5.613-1.303 8.458-1.875 2.893-.578 5.772-.7 8.707-.535 1.584.08 3.066.517 4.45 1.187 1.038.51 1.682 1.253 1.924 2.298.242 1.088.339 2.151-.139 3.19-.131.264-.373.473-.539.725.062.092.131.166.145.246.034.3.138.331.221.049.007-.068-.283-.203-.443-.32z" fill="#fff"/></svg>