<svg width="1025" height="12" fill="none" xmlns="http://www.w3.org/2000/svg"><path fill-rule="evenodd" clip-rule="evenodd" d="M11 6c0 3.314-2.462 6-5.5 6S0 9.314 0 6s2.462-6 5.5-6S11 2.686 11 6zm30.136 5.595c-3.282.462-6.284-1.603-6.707-4.611-.423-3.008 1.895-5.82 5.176-6.282 3.282-.46 6.284 1.604 6.707 4.612.423 3.008-1.895 5.82-5.176 6.281zM78.5 12c3.038 0 5.5-2.686 5.5-6s-2.462-6-5.5-6S73 2.686 73 6s2.462 6 5.5 6zm35.636-.405c-3.281.462-6.284-1.603-6.707-4.611-.423-3.008 1.895-5.82 5.176-6.282 3.282-.46 6.284 1.604 6.707 4.612.423 3.008-1.895 5.82-5.176 6.281zM161.5 12c3.038 0 5.5-2.686 5.5-6s-2.462-6-5.5-6-5.5 2.686-5.5 6 2.462 6 5.5 6zm35.636-.405c-3.281.462-6.284-1.603-6.707-4.611-.423-3.008 1.895-5.82 5.176-6.282 3.282-.46 6.284 1.604 6.707 4.612.423 3.008-1.895 5.82-5.176 6.281zM234.5 12c3.038 0 5.5-2.686 5.5-6s-2.462-6-5.5-6-5.5 2.686-5.5 6 2.462 6 5.5 6zm35.636-.405c-3.281.462-6.284-1.603-6.707-4.611-.423-3.008 1.895-5.82 5.176-6.282 3.282-.46 6.284 1.604 6.707 4.612.423 3.008-1.895 5.82-5.176 6.281zM317.5 12c3.038 0 5.5-2.686 5.5-6s-2.462-6-5.5-6-5.5 2.686-5.5 6 2.462 6 5.5 6zm35.636-.405c-3.281.462-6.284-1.603-6.707-4.611-.423-3.008 1.895-5.82 5.176-6.282 3.282-.46 6.284 1.604 6.707 4.612.423 3.008-1.895 5.82-5.176 6.281zM390.5 12c3.038 0 5.5-2.686 5.5-6s-2.462-6-5.5-6-5.5 2.686-5.5 6 2.462 6 5.5 6zm35.636-.405c-3.281.462-6.284-1.603-6.707-4.611-.423-3.008 1.895-5.82 5.176-6.282 3.282-.46 6.284 1.604 6.707 4.612.423 3.008-1.895 5.82-5.176 6.281zM473.5 12c3.038 0 5.5-2.686 5.5-6s-2.462-6-5.5-6-5.5 2.686-5.5 6 2.462 6 5.5 6zm35.636-.405c-3.281.462-6.284-1.603-6.707-4.611-.423-3.008 1.895-5.82 5.176-6.282 3.282-.46 6.284 1.604 6.707 4.612.423 3.008-1.895 5.82-5.176 6.281zM546.5 12c3.038 0 5.5-2.686 5.5-6s-2.462-6-5.5-6-5.5 2.686-5.5 6 2.462 6 5.5 6zm35.636-.405c-3.281.462-6.284-1.603-6.707-4.611-.423-3.008 1.895-5.82 5.176-6.282 3.282-.46 6.284 1.604 6.707 4.612.423 3.008-1.895 5.82-5.176 6.281zM629.5 12c3.038 0 5.5-2.686 5.5-6s-2.462-6-5.5-6-5.5 2.686-5.5 6 2.462 6 5.5 6zm35.636-.405c-3.281.462-6.284-1.603-6.707-4.611-.423-3.008 1.895-5.82 5.176-6.282 3.282-.46 6.284 1.604 6.707 4.612.423 3.008-1.895 5.82-5.176 6.281zM703.5 12c3.038 0 5.5-2.686 5.5-6s-2.462-6-5.5-6-5.5 2.686-5.5 6 2.462 6 5.5 6zM757 6c0 3.314-2.462 6-5.5 6S746 9.314 746 6s2.462-6 5.5-6 5.5 2.686 5.5 6zm32.5 6c3.038 0 5.5-2.686 5.5-6s-2.462-6-5.5-6-5.5 2.686-5.5 6 2.462 6 5.5 6zm35.636-.405c-3.281.462-6.284-1.603-6.707-4.611-.423-3.008 1.895-5.82 5.176-6.282 3.282-.46 6.284 1.604 6.707 4.612.423 3.008-1.895 5.82-5.176 6.281zM862.5 12c3.038 0 5.5-2.686 5.5-6s-2.462-6-5.5-6-5.5 2.686-5.5 6 2.462 6 5.5 6zm35.636-.405c-3.281.462-6.284-1.603-6.707-4.611-.423-3.008 1.895-5.82 5.176-6.282 3.282-.46 6.284 1.604 6.707 4.612.423 3.008-1.895 5.82-5.176 6.281zM945.5 12c3.038 0 5.5-2.686 5.5-6s-2.462-6-5.5-6-5.5 2.686-5.5 6 2.462 6 5.5 6zm35.636-.405c-3.281.462-6.284-1.603-6.707-4.611-.423-3.008 1.895-5.82 5.176-6.282 3.282-.46 6.284 1.604 6.707 4.612.423 3.008-1.895 5.82-5.176 6.281zM1019.5 12c3.04 0 5.5-2.686 5.5-6s-2.46-6-5.5-6-5.5 2.686-5.5 6 2.46 6 5.5 6z" fill="#fff"/></svg>