<svg width="101" height="123" viewBox="0 0 101 123" fill="none" xmlns="http://www.w3.org/2000/svg">
<path d="M68.056 5.14967C57.19 0.479672 45.46 -0.102327 34.338 2.66967C36.721 3.25967 39.089 3.97767 41.404 4.96967C66.44 15.7317 76.765 46.7597 64.467 74.2737C52.837 100.296 25.149 113.823 1 106.12C5.634 111 11.205 115.039 17.7 117.829C46.009 129.996 80.23 114.638 94.137 83.5217C108.043 52.4057 96.366 17.3167 68.057 5.14967" fill="#181918"/>
<path d="M68.056 5.14967C57.19 0.479672 45.46 -0.102327 34.338 2.66967C36.721 3.25967 39.089 3.97767 41.404 4.96967C66.44 15.7317 76.765 46.7597 64.467 74.2737C52.837 100.296 25.149 113.823 1 106.12C5.634 111 11.205 115.039 17.7 117.829C46.009 129.996 80.23 114.638 94.137 83.5217C108.043 52.4057 96.366 17.3167 68.057 5.14967" stroke="#979797"/>
</svg>
