<svg
                  width="732"
                  height="480"
                  viewBox="0 0 560 331"
                  fill="none"
                  xmlns="http://www.w3.org/2000/svg"
                >
                  <path
                    fill-rule="evenodd"
                    clip-rule="evenodd"
                    d="M57.8303 2.38135C57.4886 31.4961 34.0162 55.0149 5.01545 55.2968L4.7452 270.671C33.9417 271.011 57.4847 294.873 57.4486 324.255C57.4486 324.35 57.4407 324.452 57.4407 324.546L505.96 324.933C505.96 324.83 505.952 324.736 505.952 324.642C505.988 295.259 529.594 271.434 558.783 271.152L559.053 55.7773C530.052 55.4377 506.635 31.8823 506.365 2.76768C500.037 -2.68841 57.8303 2.38135 57.8303 2.38135Z"
                    fill="black"
                  />
                  <path
                    fill-rule="evenodd"
                    clip-rule="evenodd"
                    d="M62.685 9.17865C62.4174 36.9485 39.6633 59.3294 11.4863 59.5338L11.7 264.964C40.0686 265.353 62.9961 288.166 63.0259 316.192C63.0261 316.282 63.0187 316.379 63.0189 316.469L498.808 317.834C498.808 317.736 498.8 317.646 498.8 317.556C498.77 289.531 521.653 266.857 550.013 266.653L549.799 61.2228C521.621 60.8345 498.816 38.3145 498.489 10.5435C492.328 5.3252 62.685 9.17865 62.685 9.17865Z"
                    fill="black"
                    stroke="white"
                    stroke-width="1.539"
                  />
                  <path
                    fill-rule="evenodd"
                    clip-rule="evenodd"
                    d="M69.7989 306.6L490.178 306.848C497.546 282.106 516.479 262.868 540.987 255.219L541.267 72.1797C517.182 64.5792 498.425 45.658 490.919 21.4145L69.9312 21.1582C62.3476 45.4013 43.5347 64.3011 19.4271 71.8773L19.1472 254.908C43.6404 262.589 62.5167 281.849 69.7989 306.6Z"
                    fill="#fff"
                  />
                  <clipPath id="mask1" x="20" y="21" width="522" height="286">
                    <path
                      fill-rule="evenodd"
                      clip-rule="evenodd"
                      d="M70.6158 306.6L490.27 306.848C497.625 282.106 516.525 262.868 540.991 255.219L541.27 72.1797C517.227 64.5792 498.503 45.658 491.009 21.4145L70.7479 21.1582C63.1773 45.4013 44.3969 64.3011 20.3309 71.8773L20.0515 254.908C44.5024 262.589 63.3462 281.849 70.6158 306.6Z"
                      fill="white"
                    />
                  </clipPath>
                  <g clip-path="url(#mask1)">
                    <image xlink:href="assets/img/my01.jpg" x="0" y="0" height="100%" width="100%" preserveAspectRatio="xMaxYMax slice">
                  </g>
                  <path
                    fill-rule="evenodd"
                    clip-rule="evenodd"
                    d="M7.94122 325.707C5.73103 325.812 3.99978 323.963 4.27396 321.763C4.76922 317.789 5.95755 312.255 8.74216 312.043C13.1034 311.712 20.2652 318.375 18.9076 322.275C18.0331 324.788 12.0725 325.511 7.94122 325.707Z"
                    fill="black"
                  />
                  <path
                    fill-rule="evenodd"
                    clip-rule="evenodd"
                    d="M551.436 7.71128C553.641 7.87738 555.133 9.92158 554.594 12.0706C553.621 15.9546 551.769 21.3056 548.979 21.1751C544.61 20.9709 538.31 13.4813 540.132 9.77597C541.305 7.38844 547.312 7.40062 551.436 7.71128Z"
                    fill="black"
                  />
                  <path
                    fill-rule="evenodd"
                    clip-rule="evenodd"
                    d="M545.184 322.755C542.973 322.732 541.351 320.788 541.751 318.608C542.472 314.669 543.975 309.21 546.768 309.16C551.141 309.081 557.91 316.147 556.331 319.963C555.314 322.421 549.32 322.798 545.184 322.755Z"
                    fill="black"
                  />
                  <path
                    fill-rule="evenodd"
                    clip-rule="evenodd"
                    d="M11.5032 16.4331C11.1362 14.3012 12.6776 12.3818 14.8357 12.3164C18.622 12.2016 23.9019 12.5188 24.4231 15.1174C25.2441 19.2106 19.8221 27.0036 15.9999 26.2939C13.5473 25.8385 12.1731 20.3255 11.5032 16.4331Z"
                    fill="black"
                  />
                  </svg>