<svg width="170" height="128" xmlns="http://www.w3.org/2000/svg"><path d="M117.441 1.528c1.87 1.69 5.481 10.699 5.379 11.39-.102.691 1.382.204 1.586-1.178.206-1.382.615-4.147 1.203-3.353.59.793 2.254 3.865 2.741 5.349.486 1.485-.229 6.323-1.815 7.501-1.247.926-7.229 5.09-9.862 7.143 2.752-.501 5.51-.973 8.272-1.416l.041-.01c1.445-.195 5.39-3.03 6.976-4.209 1.587-1.177 7.832-5.198 10.213-6.965 2.38-1.767 7.806-.259 8.498-.156.69.101-3.48 4.43-5.068 5.607-1.586 1.178-1.1 2.663-1.201 3.355-.102.69 5.938-1.948 7.422-2.435 1.485-.486 11.162.944 11.06 1.635-.103.691-3.07 1.665-3.174 2.356-.103.691.692.102 3.354 1.202 2.662 1.1 6.708 2.405 6.503 3.787-.205 1.383-8.83 7.171-10.416 8.349-1.586 1.177-5.836 1.256-6.528 1.153-.691-.102-8.78-2.71-9.574-2.121-.794.588.667 5.043.564 5.733-.102.691-2.175.385-4.249.078-2.074-.305-5.325-2.2-6.503-3.786-1.05-1.415-6.7-9.684-7.91-11.459-16.898 2.705-33.886 6.287-49.288 13.742 5.211.324 10.607 1.82 15.717 3.027 1.257-1.452 5.632-5.157 6.999-6.171 1.587-1.177 5.248-2.05 7.32-1.742 2.075.306 5.428 1.509 5.325 2.2-.101.69-4.453 1.46-5.247 2.049-.793.589 4.838.715 7.604 1.123 2.765.41 6.605 3.097 7.195 3.89.589.793-1.69 1.869-5.554 4.123-3.865 2.254-11.57 1.82-12.262 1.719-.69-.103.385 2.176-.409 2.764-.793.59-3.456-.51-4.736-1.406-1.06-.741-4.96-5.078-6.197-7.111-5.983-1.419-12.43-3.31-18.418-3.13-1.172.61-2.336 1.242-3.488 1.9C50.172 57.133 33.76 74.583 20.987 92.649c-7.474 10.574-13.765 21.922-18.879 33.814-.532 1.238-2.452.396-1.918-.847 9.087-21.132 21.995-40.546 38.091-56.992 7.527-7.69 15.713-15.025 24.721-20.976-.108-1.945-.318-3.88-.71-5.79-.134-.647-.302-1.822-.572-2.996a6.47 6.47 0 01-.484-1.145c-.486-1.485-5.506-5.758-6.785-6.654-1.28-.896-2.765-.409-1.179-1.587 1.588-1.178 3.763-1.563 5.146-1.358 1.382.204 2.662 1.1 2.073.306-.589-.793-1.334-10.085-1.232-10.776.102-.692 5.272-6.99 5.963-6.889.69.102 3.714 8.32 3.997 11.186.282 2.868-1.816 7.502-1.918 8.193-.103.691 2.278-1.076 4.454-1.46 2.175-.385 2.867-.284 3.558-.18.69.102-1.1 2.662-1.893 3.25-.794.59 2.662 1.1 2.56 1.792-.103.691-1.689 1.869-3.174 2.357-1.485.486-4.94-.025-6.425.462-1.44.472-3.059 2.234-3.25 2.971.035.15.07.297.106.437.589 2.305.93 4.644 1.1 7.007.306-.195.604-.402.912-.596 9.516-5.94 20.013-10.105 30.786-13.138 4.81-1.354 9.67-2.492 14.56-3.491-1.607-.708-3.194-1.65-4.052-2.084-1.97-1-8.066-7.55-7.964-8.242.103-.691 3.865-2.254 3.968-2.945.102-.69-6.377-9.418-6.275-10.11.103-.69 2.867-.281 4.148.613 1.28.897 6.503 3.787 7.885 3.992 1.383.204 5.68-9.754 5.782-10.446.102-.691 1.485-.487 3.354 1.202" fill="#000" fill-rule="evenodd"/></svg>