<svg width="179" height="523" viewBox="0 0 179 523" fill="none" xmlns="http://www.w3.org/2000/svg">
<path d="M163.506 522.502C166.093 522.021 168.558 521.273 171.053 520.531C177.243 518.69 179.091 515.588 177.434 509.319C170.566 483.415 163.707 457.516 156.59 431.722C154.94 425.245 151.403 419.405 146.428 414.943C142.671 414.69 139.405 413.486 137.623 409.154C138.343 404.547 140.076 399.405 139.689 394.436C139.302 389.466 136.796 384.567 135.242 379.698L130.595 378.886C129.147 376.214 128.738 375.504 128.956 372.685C131.361 369.64 131.895 365.595 131.416 361.785C130.883 357.612 129.672 353.555 127.831 349.773L127.757 349.522C127.719 349.408 126.323 345.565 120.22 343.196C119.73 341.361 119.678 339.437 120.069 337.578C121.06 336.04 121.674 334.291 121.863 332.471C122.05 331.512 122.071 330.528 121.925 329.562C121.87 328.7 121.764 327.841 121.609 326.99C121.129 324.708 120.497 322.461 119.719 320.264C119.389 319.276 119.026 318.304 118.641 317.332C118.325 316.179 113.386 310.833 110.73 309.034L110.83 307.66C111.725 305.429 113.291 300.998 112.894 297.605C112.296 292.641 108.715 281.244 108.531 280.942C108.482 280.728 104.585 279.656 103.202 278.373C102.831 278.027 102.529 277.613 102.312 277.154C102.071 276.044 101.997 274.904 102.094 273.772C106.179 266.836 101.533 252.144 100.735 249.386C100.544 247.936 100.292 246.532 98.9808 245.544C97.826 244.793 96.6029 244.152 95.3278 243.631C95.0506 243.471 94.7648 243.306 94.4267 243.192C93.8162 242.689 93.2107 242.178 92.6052 241.667C93.4247 236.747 94.963 231.943 94.6664 227.257C94.5842 226.098 94.4013 224.95 94.1198 223.823L94.1648 223.745C94.3204 220.317 93.4448 216.922 91.651 213.996C89.8571 211.071 87.2275 208.751 84.1016 207.335C85.5901 203.726 86.3009 199.844 86.1878 195.942C86.1229 193.386 85.8258 190.841 85.3001 188.34C84.8988 185.886 84.2398 183.481 83.3338 181.165C82.4326 179.086 80.5892 177.179 78.1599 177.347C78.1082 177.353 78.0576 177.367 78.0096 177.387C77.5246 177.107 77.0747 176.766 76.6097 176.452C77.5913 170.962 77.7572 165.357 77.1018 159.819C76.7637 157.041 76.225 154.291 75.49 151.591C74.8065 149.095 73.9601 146.701 71.6331 145.311C70.5939 144.711 69.2601 144.242 68.0546 143.649C67.2503 141.823 67.8381 139.344 67.9667 137.502C68.1391 134.846 68.1658 132.182 68.0469 129.523C67.8298 124.779 65.511 113.775 65.4207 113.712C63.5744 110.509 60.5085 108.22 57.4925 106.144C59.7518 97.3724 59.4764 88.1403 56.6982 79.5194C58.3271 78.9514 59.887 78.202 61.3483 77.2852C62.363 76.4276 63.6022 75.8614 64.6835 75.0885C77.9828 65.5734 85.4077 48.833 80.4106 30.9484C73.7232 7.41128 48.6143 -5.61887 24.6171 4.40554C7.7292 11.4562 -2.52531 30.7775 0.645942 48.4047C4.50458 69.8814 22.522 81.0343 39.8912 82.61C43.4802 82.8172 47.0787 82.4245 50.5386 81.4481C50.1922 84.6082 49.6357 90.072 49.269 91.9272C48.653 95.4418 48.6357 99.0352 49.2179 102.556C49.8396 106.679 51.2755 110.672 52.4083 114.79C54.6282 117.365 56.9444 120.053 59.2199 122.672C55.1552 131.872 53.7353 148.811 67.9208 155.881C67.8208 156.055 67.8174 156.26 67.7657 156.45C66.0559 160.537 65.3706 164.98 65.7695 169.392C66.1683 173.804 67.6393 178.052 70.0543 181.766C70.8631 182.983 71.7645 184.137 72.7504 185.216C73.5092 186.236 74.3357 187.203 75.2244 188.111C74.9977 189.724 74.704 191.332 74.4772 192.945C74.0699 195.723 74.0498 198.545 74.4176 201.328C75.0948 206.116 76.7192 210.72 79.1959 214.872L79.3487 215.388L79.9435 216.077C80.0826 216.296 80.2168 216.524 80.3647 216.748C82.0283 219.268 83.9099 221.637 85.988 223.828C82.2265 232.903 86.8497 240.895 88.0336 248.565C90.7101 251.669 92.8757 254.178 95.1007 256.744C91.1495 266.068 95.6937 274.257 97.0378 282.169C99.6787 285.195 101.905 287.739 104.184 290.371C100.01 299.601 104.777 307.745 105.999 315.668L113.175 323.979C108.96 332.919 113.68 340.945 114.906 349.1L122.173 357.534C117.995 366.449 122.647 374.493 123.86 382.491C126.711 385.973 129.324 389.167 131.745 392.135C130.035 398.076 129.791 403.259 131.544 408.682C132.758 412.488 133.13 416.513 132.633 420.476C131.61 427.602 132.034 434.861 133.879 441.819C140.206 465.379 146.518 488.934 152.813 512.483C153.264 514.438 153.893 516.347 154.693 518.187C156.554 522.044 159.267 523.345 163.506 522.502V522.502ZM4.28019 51.7501C-1.46954 30.7289 12.0647 11.6268 30.9302 6.71095C39.6843 4.39838 48.984 5.39894 57.0458 9.52072C65.1077 13.6425 71.3641 20.5953 74.6154 29.0459C72.1881 24.1546 68.65 19.8992 64.284 16.6198C59.9181 13.3403 54.8454 11.1279 49.4715 10.1594C44.0977 9.19093 38.5718 9.49322 33.3356 11.0421C28.0995 12.591 23.2984 15.3436 19.3162 19.0797C15.334 22.8158 12.2813 27.4318 10.4019 32.5586C8.52264 37.6854 7.86893 43.1809 8.49314 48.6055C9.11734 54.0301 11.0021 59.2334 13.9968 63.7994C16.9914 68.3654 21.0128 72.1674 25.7395 74.9014C27.9223 76.1574 30.2324 77.1777 32.631 77.9449C20.3383 75.6166 8.50788 67.2275 4.28019 51.7501V51.7501ZM51.9599 104.046C51.9236 103.963 51.8662 103.89 51.7934 103.835C49.3423 97.2003 50.4974 91.5395 54.7319 86.0052C55.455 89.2668 55.8006 92.6008 55.7618 95.9414C55.8003 97.6428 55.5973 99.3412 55.1588 100.986C54.9199 101.796 54.5705 102.57 54.1203 103.284C53.9353 103.605 52.8778 104.876 52.3929 104.596C52.2355 104.424 52.0909 104.24 51.9599 104.046V104.046ZM54.6329 114.077C57.4439 111.208 57.4439 111.208 62.6502 113.89L60.3543 121.687L54.6329 114.077ZM68.8035 162.672L74.032 158.116L75.7589 162.785L75.7758 163.176C75.776 163.869 75.7597 164.564 75.7268 165.261L70.5952 172.829C68.8149 169.75 68.187 166.138 68.8234 162.638L68.8035 162.672ZM81.6031 187.383C82.4521 190.35 82.9587 193.405 83.113 196.488C83.1783 198.325 82.9987 200.163 82.5789 201.953L80.0598 205.556C79.8339 205.624 79.5955 205.641 79.3625 205.604C76.4413 198.663 76.9452 193.85 81.6431 187.314L81.6031 187.383ZM90.2522 221.902C91.32 223.893 94.58 227.426 91.9054 235.039L88.7794 239.573C85.1492 232.801 85.4972 228.198 90.2922 221.833L90.2522 221.902ZM100.184 254.379C100.875 255.563 104.227 263.376 100.697 269.051L97.4 273.522C94.1118 266.277 95.1566 260.068 100.224 254.31L100.184 254.379ZM106.625 291.584C109.181 292.737 109.271 297.8 109.348 302.267C109.116 302.819 108.815 303.34 108.453 303.817L106.087 305.915L105.938 306.014C105.894 306.038 105.856 306.071 105.825 306.11C104.345 301.053 103.206 296.365 106.68 291.489L106.625 291.584ZM118.562 323.348C118.668 323.664 118.756 323.992 118.849 324.311L119.846 329.505C119.91 330.197 119.933 330.893 119.913 331.588C119.821 334.848 117.849 337.324 115.54 339.363C111.695 332.662 112.45 328.134 118.617 323.253L118.562 323.348ZM118.961 347.157C121.232 347.761 123.471 348.483 125.668 349.321L123.287 356.145C120.818 352.941 117.887 351.018 119.016 347.062L118.961 347.157ZM122.139 364.673L126.59 355.303C127.174 356.911 127.706 358.43 128.151 359.9C128.746 362.192 128.856 364.584 128.473 366.922C128.188 368.367 127.615 369.74 126.788 370.96L124.302 373.266C124.07 373.4 123.831 373.52 123.586 373.626L122.139 364.673ZM135.229 387.6C139.779 395.019 138.064 401.569 133.576 408.804C130.332 400.823 132.486 394.33 135.284 387.505L135.229 387.6ZM134.953 428.398C134.941 428.306 134.915 428.217 134.875 428.133C134.681 425.469 135.478 422.708 136.054 419.831L143.87 418.293C145.681 420.977 147.317 423.423 147.703 426.614C147.432 427.456 146.991 428.235 146.408 428.901C145.824 429.567 145.112 430.107 144.312 430.487L141.58 431.219C140.675 431.302 139.763 431.242 138.876 431.044C137.655 430.778 135.095 430.073 134.953 428.398V428.398ZM157.903 512.847C155.195 510.198 139.618 448.019 136.791 437.034C136.648 436.359 136.581 435.669 136.592 434.979C140.668 434.701 144.72 434.139 148.718 433.296C152.739 446.172 171.425 505.227 170.947 507.595C170.469 509.963 161.818 516.666 157.903 512.847V512.847Z" fill="white"/>
</svg>
