<svg xmlns="http://www.w3.org/2000/svg" width="190.62" height="339.98"><defs><style>.cls-1{fill:#fff}</style></defs><g id="Слой_2" data-name="Слой 2"><g id="picture"><g id="strainer"><path class="cls-1" d="M113.31 17.77l1.27-.69c.34.19.77.27.88.5 2.52 5.15 3.5 10.63 4.06 16.33 1.44 14.51-2 28.49-4.24 42.59-2 12.5-4.23 25-6.34 37.42a18.66 18.66 0 00-.26 3c0 10.66 0 21.33-.09 32-.07 8.92 3.9 15.83 11 20.7 5.62 3.84 11.69 7 17.67 10.32 10 5.48 18.4 12.67 24 22.7 3.74 6.67 7.43 13.41 10.55 20.38 5.31 11.81 6.58 24.3 5.19 37.15a152.78 152.78 0 01-4.35 21.5 68.4 68.4 0 00-1.7 15.27 13.78 13.78 0 004.3 9.86c2.8 2.85 5.79 5.51 8.71 8.23 2.18 2 4.38 4 6.61 6L170.91 340a23.87 23.87 0 01-8.64-6.37c-2.94-3.17-5.63-6.6-8.69-9.65a95.67 95.67 0 00-7.42-6.14c-40.19 26-70 21.32-101.31 2.68-3.14-.17-5.51 1.43-7.8 3.54a82.12 82.12 0 01-20.49 13.84C13.43 335.61 3.73 322.78 0 316c1.18-1.14 2.47-2.36 3.73-3.61 3.55-3.52 7-7.09 10.65-10.56 2.44-2.36 3.79-5 3.14-8.48a19.39 19.39 0 010-3.5c-8.15-19.11-8.1-38.7-3-58.63a111.9 111.9 0 0113.28-31.09 67.78 67.78 0 0124.31-24c3.47-2 7.07-3.73 10.53-5.73a54.55 54.55 0 007.53-4.89c4.63-3.8 7.63-8.33 8-14.81a197.65 197.65 0 00-1.74-40.83C74.32 95 72 80.23 69.88 65.4c-1.11-7.73-2-15.49-3-23.38l2.89-1.87c.42.45.78.66.81.9 1.83 14 3.53 28.07 5.49 42.08 1.55 11.05 3.93 22 5 33.08 1.31 13.59 1.76 27.28-.42 40.87-.51 3.19-1.84 6.26-2.87 9.62h5.7c-2.13 2.6-4.92 2.59-7.09 3.66s-4.64 1.85-6.91 2.89c-2.43 1.11-4.81 2.31-7.15 3.58-2.17 1.17-4.26 2.48-7.13 4.17l6 2.26c.46-.58.8-.93 1.07-1.34 3.42-5.31 7.82-6.48 13.12-3.47 4.33 2.45 7.69 9.35 7.16 15.33-.91-.59-2-.9-2.25-1.54-1-2.1-1.49-4.44-2.55-6.49-2.32-4.51-5-5.69-10.72-4.77l-2.21 4.22c6.85 4.69 12.23 10 9.72 19.75 6.8-1.74 13-3.44 19.46-3.31a55.5 55.5 0 0119.06 4.17c1-3.12 1.47-6.25 2.87-8.9s3.66-4.67 5.61-7.07c-1-4.67-2-5.33-7.46-4.71-1 2.57-2 5.38-3.24 8.05-1.21 2.52-2.75 4.88-4.2 7.4l-3.48-.38c-1.14-6.76.81-12.5 5.08-17.66-6.27-2-9 1-12.19 12.74l-3.33.46c-.38-.84-.77-1.29-.75-1.73a20.73 20.73 0 015.21-13.2c4.78-5.3 10.7-5.67 16.48-1 6.18-.74 10.91 1.51 12.89 7.7 9.45.58 9.45.58 14.22 10.75 8.51 3.44 9.9 5.07 12.16 14.45 6.58 3.57 10.4 8.95 9.43 17.2 6.46 6.45 7.53 13.65 1.82 21.77 3.25 5.28 3.82 10.78-.49 15.75 2.16 10 1.2 12.24-7.9 18.62.6 6.8-3.72 9.64-9.57 11.18-2.07.55-4.11 1.18-6.39 1.84.41 1.43.74 2.52 1 3.62 1.3 5.06-.54 9.14-5.53 10.65-3.4 1-7.11 1.06-11.28 1.62-1.29 3.78-3.25 8-8.42 9.3-4.78 1.21-8.77-.78-12.61-3.32-1.93 1.7-3.58 3.34-5.41 4.73-4.77 3.63-7.77 3.23-11.52-1.39-.83-1-1.59-2.08-2.36-3.08-10.5 5.36-14.81 4.63-20.25-3.5-3.6-.19-7.5 1.18-11-1.27-3.32-2.31-3.68-6.14-5-9.41-9.42.95-10.93-.25-12.9-10.32-3.3-1.05-7.43-1.85-8.27-6-.68-3.29-.14-6.84-.14-10.48-8.43-6.16-9.17-8.86-4.65-18.23-2.76-2.29-6.33-4.68-5.32-8.77.84-3.4 3.13-6.44 5.11-10.3a11.19 11.19 0 01-2.28-9.37c.89-3.75 3.39-6.42 6.52-8.75-1.4-7.3 1.28-12.37 8.64-14.84-.41-4.26-.13-8.35 2.56-11.85s6.31-4.69 10.59-4.39c.78-3 1.48-5.7 2.33-9A42.42 42.42 0 0038.12 193a70.47 70.47 0 00-17.6 27.54c-5.09 14.14-7.61 28.55-6.13 43.63 1.95 19.74 11.49 35.22 26.41 47.65a78.12 78.12 0 0050.6 18.64c31.1.17 55.74-12.56 72.4-39.35 6.12-9.83 8.75-20.75 9.29-32.29 1.25-26.8-8.52-49.15-27.27-67.85-7.92-7.89-17.95-12.6-27.84-17.4-3.44-1.67-7.09-2.88-10.63-4.34a7.92 7.92 0 01-3.22-2.27h5.3c-6.67-15.43-5.46-31.52-3.74-47.28 2.42-22.15 6.43-44.13 9.55-66.22.79-5.58.78-11.27 1.15-17l2-.8a5.58 5.58 0 000-1.66c-1.49-4-3.12-8-4.52-12.1a20 20 0 01-.5-4.35zm-19.9 186.68a44.52 44.52 0 00-44.8 44.23c-.09 24.57 19.78 44.83 44.15 45a44.63 44.63 0 10.65-89.26zM25 239.46c3.62-.49 7-1.54 10.36-1.27 4.27.34 6 2.86 6 7.12-4.9 2.09-10 1.15-15.14.46-2.6 2.63-5.58 4.88-5.54 9.58l3.85 2.75c10.24-6.9 17.29-5.71 18.6 3.16-5.13 3.14-11 2.1-17 2.27l-3.2 5.76c.68 3.62 2.42 5.53 5.59 6.39 1.21-1.57 2.28-3 3.45-4.42 2.75-3.25 6.36-4.14 10.39-3.39 3.4.63 4.78 2.41 5.15 6.65-2.24 1.26-4.6 2.82-7.14 3.94-2.71 1.2-5.6 2-8.46 3a9.4 9.4 0 00-.56 8.63l4.26 1.45c3.08-5.45 4.93-11.43 10.88-13.74 5.21 2.84 6 6.06 2.88 10.16a19.35 19.35 0 01-3.2 3.13c-1.81 1.47-3.72 2.79-5.57 4.16-1.08 4.58-1.08 4.58 2.25 7.62l4.85-2.38c1.73-6.62 3.15-13 11.08-15.73.66 2.09 1.64 3.74 1.62 5.38-.06 5.64-4 9.25-7.56 13 0 3.5-.31 7.05 2.94 9.17 2.49 1.63 5.08.92 7.7-1.36.11-3.7.18-7.68.38-11.64.25-4.74 1.19-5.8 6-7.12 3.54 2.13 3.79 2.65 3.43 6.23-.55 5.51-1.45 10.91-4.66 15-.22 3.54 1.08 5.63 3.93 6.08a7.9 7.9 0 008.5-3.89c-.61-2.68-1.27-5.25-1.76-7.86-1.14-6.07-.17-8.29 5.24-11.83-18.78-4.76-31.76-15.74-36.89-34.47s.6-34.71 15-49c-5.56 1.17-8.65-.91-11-4.24a39.07 39.07 0 01-2.9-5.74c-.54-1.17-1-2.39-1.41-3.45-6.81-.18-9.6 4.07-7.15 10.58a23.67 23.67 0 014.68 1.26 24.64 24.64 0 016.28 3.85c2.43 2.27 2.13 4.65-.37 7.95-6-.32-10-4.62-14.14-8-6 1.87-7.23 3.68-5.8 8.3 4.34.52 8.93-.12 12.62 2.33.9 2.81-.76 3.78-2.36 4.7-4.61 2.62-9 1.25-13-1.1-5.73 4.03-6.33 6.6-3.1 10.57zm110.42-13C152 260 128 298.71 88.09 296.61c1.89 6.42.66 12.71-.86 19.1 1.16 2.67 2.21 5.45 5.41 7.34l6.38-6c-3.52-6.39-5.5-12.34-.9-18.07 3.28-.77 4.69 1 6 2.7 3.37 4.17 2.76 9 1.8 13.8 2.59 2.63 5.44 4.44 9 2.87 3-1.34 3.4-4.21 3-7-7.71-7.83-8.81-10.74-5.9-15.16 6.52-1.28 7.5-.36 12 11.21 5.53 2.36 8.2 2 11.91-1.87l-2.43-4.64c-9.94-1.24-13.13-5.39-9.42-11.91 4.83-.89 7.52 3.53 11.37 4.9 10-1.68 12.67-2.88 14.18-6.44-2-1.32-4.18-.46-6.23-.63-2.71-.22-5.31-.58-7.45-2.43s-2.28-2.85-1.1-6.16a20.32 20.32 0 0117.87 1.89c6-2.06 7.06-4.06 5-9.36a25.77 25.77 0 01-16.56-2.3c-.76-4.37 1.26-6.82 4.45-8.42s6.79-1.34 10.13.21c1.3.6 2.54 1.37 4 2.15 2-3.25 1.05-5.54-1.41-7.77-5.56.41-11 .27-14.38-5.05-.09-2.95 1.55-3.92 3.8-3.76 3.93.29 7.84.86 11.86 1.32 3.47-4.36 3.44-7.1-.38-11.13-5 4.42-10.54 6.52-17.4 3.17 1.16-9 8.27-10.07 14.77-11.76-.11-4.35-2-7-5.27-8.61M34.59 312.5l-10.05-10.37-5.88 4.12-2-1.77-13.72 12.46 13.52 18.42c9.44-4.61 16.87-10.86 23.92-17.91l-3.72-3.16-2.41.18c.11-.67.22-1.27.34-1.97zm135.07 24.9c6-4.19 14.07-12.39 16.05-16.08-8.17-6.44-15.65-13.61-21.21-23.11l-2.25 3.58 4.29 5.36-.44.49-6.34-4.51c.82 4 4.33 5.12 4.73 8.34-2.63-1.29-3.55-4.29-7.39-5l6.33 8.93c-4-1.23-4.71-5.27-8.59-5l6.87 7.17c-3.92-.52-5.75-4-9.56-6.38.94 4.07 3.92 5.24 5.55 7.41s3.77 4.34 5.68 6.49l-.82.79L150.44 314l-2.62 2.48c6.5 3.12 10 8.78 14.34 13.53 2.34 2.56 4.91 4.87 7.5 7.39zm-51.9-129.31c2.6 2.1 5.45 4.11 7.95 6.48s4.92 5.29 7.2 7.79c2-2.48 3.62-5.12 5.86-7s5.1-2.8 7.72-4.16c-.68-3.13-2-5.39-5.1-6.25-5.54 8.89-8.18 10.43-13.35 7.34.15-1.53-.2-3.57.58-5 1.64-3 3.87-5.61 6.34-9.06l-3.12-5.7M70.92 207a30.93 30.93 0 01-9.5-17.81l-5.73-2.57c-2.66 2.81-2.73 5.77-2.86 8.81 4.62 4.68 11 8.18 9.84 17z"/><path class="cls-1" d="M92.83 58.7C94 60.39 94 62.41 94 64.36q-.15 33-.34 66-.08 12.74-.15 25.47c0 2.46-.15 4.91-.25 8.21-1.23-2-1-3.86-1-5.48C92.11 151 92 143.53 92 136q-.15-35.22-.23-70.45c-.05-2.25-.24-4.67 1.06-6.85zM98.67 152.12c-1.41-5.76-1.19-70.61.51-74.86.24 3 .68 6 .7 8.95q.15 28.49.13 57c-.01 2.79.22 5.61-1.34 8.91zM87.94 153.69c-1.18-3-.89-5.94-.89-8.65q0-20.7.13-41.39c0-7.65.16-15.29.26-22.93 0-1.4.18-2.79.33-5.07.8 5.18 1.44 68.28.86 75a25 25 0 01-.69 3.04zM75.4 285.64a20.5 20.5 0 01-.88-3c-.21-2.62-.48-5.27-.48-7.91q-.06-27.26 0-54.5c0-2.45-.08-5 1.45-6.73a14.88 14.88 0 01.82 2.84c.21 2.45.38 4.95.38 7.43q.06 24.26 0 48.5c0 3.15-.22 6.31-.43 9.44a32.48 32.48 0 01-.86 3.93zM107.69 285.12a27.45 27.45 0 01-.88-7.76v-17.47-38.45c0-2.62 0-5.32.89-7.33 1.08.5 1.24 2.28 1.26 4.16 0 3.16.06 6.32.06 9.49v44.43c0 2.82-.07 5.66-.17 8.47-.06 1.59-.09 3.34-1.16 4.46zM100 222.05c1 .93.73 2.81.75 4.36.13 11.32.27 22.64.3 34 0 4.64-.22 9.3-.39 13.94a28.77 28.77 0 01-.55 3.37c-1.35-4.62-1.65-17.09-1.17-42.86.16-10.32.16-10.32 1.06-12.81zM66.52 276.41c-2-7.26-2-48-.21-54.6 1 .39 1.14 1.75 1.18 3 .17 4.65.36 9.3.41 13.95.09 8.31.15 16.63.1 24.94 0 3.31-.35 6.62-.62 9.91a14.86 14.86 0 01-.86 2.8zM118.84 276.31a50.74 50.74 0 01-.78-6.23q-.09-21.22 0-42.46a49 49 0 01.91-6.25 8 8 0 011.7 5.49c.08 3.83.14 7.66.13 11.49 0 10.65 0 21.3-.1 31.94a50.43 50.43 0 01-.77 6.09zM83.69 276.54c-.22-2.08-.64-4.16-.65-6.24q-.06-22.23 0-44.45a45.11 45.11 0 01.72-5.11 19.27 19.27 0 011.57 2.91 9.91 9.91 0 01.19 2.47q0 21.72.06 43.46a19.69 19.69 0 01-1 7zM129.32 235.46a25.8 25.8 0 01.56 3c.2 6.43.41 12.86.52 19.3 0 1.65-.34 3.19-1.07 3.79-.84-.3-1.23-1.59-1.25-3.11-.07-6.95-.23-13.93.57-20.74a17.11 17.11 0 01.67-2.24zM57.13 260.94c-.84-1-.77-3.13-.79-5.07-.14-13.1 0-16.69 1.06-20.47.18 2 .44 3.66.47 5.34.1 5.29.13 10.6.15 15.9-.02 1.82-.02 3.75-.89 4.3zM70.82 48.69a22.33 22.33 0 00-.31-3.38c-.21-1.21-.42-2.4-.57-3.62-.25-2.1-.4-4.59-.47-6.84A69.14 69.14 0 0170.12 22c.12-.79.27-1.56.44-2.34.12-.59-.1.24.1-.4.11-.32.2-.64.33-.95a18.74 18.74 0 013.8-5.68 23.5 23.5 0 0112.84-7.12 23.09 23.09 0 0115 2.54 24.05 24.05 0 0110.24 11.53 32.77 32.77 0 012.72 13.6c0 2.46-.2 4.93-.35 7.38 0 .51-.06 1-.1 1.53v1.01l-.24 2.95c-.18 2.05-.36 4.09-.57 6.14-.17 1.62-.35 3.25-.58 4.87-.13.86-.26 1.67-.31 2.54.12-2-.11 1-.12 1.08l.27-1.77a.36.36 0 010 .09 4.47 4.47 0 00.94 4.78c1.37 1.13 2.55-.1 3.12-1.34a.36.36 0 000-.09l-.79 1.28a7.41 7.41 0 001.54-4.23c.18-1.72.28-3.46.39-5.19.23-3.9.33-7.8.48-11.7.11-3 .23-5.95.25-8.92A40.36 40.36 0 00116.74 19c-2.11-5.4-5.58-10.62-10.36-14A26.61 26.61 0 0090.5 0C80.19.25 69.58 7.76 67.12 18a63.17 63.17 0 00-1.32 15 75.13 75.13 0 00.59 9.23c.35 2.76.76 5.81 2.25 7.94 1 1.48 2.2-.33 2.18-1.46z"/><ellipse class="cls-1" cx="92.52" cy="32.72" rx="7.5" ry="16.5"/></g></g></g></svg>